<?xml version="1.0" standalone="no"?>
<!DOCTYPE svg PUBLIC "-//W3C//DTD SVG 1.1//EN" "http://www.w3.org/Graphics/SVG/1.1/DTD/svg11.dtd" >
<svg xmlns="http://www.w3.org/2000/svg" xmlns:xlink="http://www.w3.org/1999/xlink" version="1.1">
<metadata>
Created by FontForge 20200427 at Fri Jan 26 01:02:20 2018
 By www
Copyright (c) 2018 by Colophon Foundry. All rights reserved.
</metadata>
<defs>
<font id="Chelsea-Chiselled" horiz-adv-x="0" >
  <font-face 
    font-family="Chelsea Chiselled"
    font-weight="500"
    font-stretch="normal"
    units-per-em="1000"
    panose-1="0 0 6 0 0 0 0 0 0 0"
    ascent="782"
    descent="-218"
    x-height="700"
    cap-height="700"
    bbox="-728 -304 1281 1068"
    underline-thickness="62"
    underline-position="-160"
    unicode-range="U+000D-F8FF"
  />
<missing-glyph horiz-adv-x="774" 
 />
    <glyph glyph-name=".notdef" horiz-adv-x="774" 
 />
    <glyph glyph-name=".null" 
 />
    <glyph glyph-name="nonmarkingreturn" unicode="&#xd;" horiz-adv-x="289" 
 />
    <glyph glyph-name="space" unicode=" " horiz-adv-x="276" 
 />
    <glyph glyph-name="exclam" unicode="!" horiz-adv-x="274" 
d="M96 198l-13 269v233h108v-233l-13 -269h-82zM93 467l13 -259l31 30v452h-44v-223zM193 119v-119h-112v119h112zM91 10h46v99h-46v-99z" />
    <glyph glyph-name="quotedbl" unicode="&#x22;" horiz-adv-x="370" 
d="M57 700h100v-67l-14 -161h-72l-14 161v67zM313 700v-67l-14 -161h-72l-14 161v67h100zM67 634l13 -152l27 38v170h-40v-56zM236 482l27 38v170h-40v-56z" />
    <glyph glyph-name="numbersign" unicode="#" horiz-adv-x="663" 
d="M510 409l-22 -118h110v-78h-124l-39 -213h-92l39 213h-146l-39 -213h-92l39 213h-94v78h108l22 118h-110v78h124l39 213h92l-39 -213h146l39 213h92l-39 -213h94v-78h-108zM476 281l-41 -29l35 196h109l29 29h-96l-42 -29l43 242h-34l-39 -213h-166l-42 -29l44 242h-35
l-39 -213h-122v-58l29 29h123l-40 -29l-26 -138h-106v-58l29 29h107l-40 -29l-39 -213l43 38l36 204h239l-41 -29l-39 -213l43 38l37 204h124l29 29h-112zM238 281l-42 -29l36 196h238l-40 -29l-26 -138h-166zM418 409h-146l-22 -118h146z" />
    <glyph glyph-name="dollar" unicode="$" horiz-adv-x="653" 
d="M540.5 330.5q53.5 -48.5 53.5 -133.5q0 -52 -26.5 -97.5t-76.5 -75t-116 -36.5v-88h-89v90q-99 12 -160 71t-77 146l95 49q12 -72 48 -114.5t94 -55.5v236q-94 22 -149 73.5t-55 131.5q0 75 56.5 125.5t147.5 59.5v88h89v-90q75 -11 128 -55t79 -115l-86 -50
q-13 36 -29 60q-15 18 -31 34q-28 23 -61 32v-215q112 -22 165.5 -70.5zM296 -90h34v123q54 0 102 18t78 52.5t30 81.5l44 20q-2 77 -54.5 122t-164.5 66l-35 -29v303q52 0 101 -22.5t70 -49.5v-90l69 39q-26 67 -78.5 107.5t-126.5 49.5l-35 -34v123h-34v-87
q-92 -7 -148 -55.5t-56 -120.5v-11l42 22q0 -140 196 -174l-34 -34v-256q-64 11 -104.5 53t-54.5 114l-21 -74q35 -70 95.5 -102t118.5 -32l-34 -34v-89zM175 518l-41 20q1 59 56 94t140 35l-34 -38v-219q-114 36 -121 108zM286 618q-46 -7 -74 -30t-28 -59q0 -69 102 -105
v194zM460.5 112.5q-35.5 -32.5 -94.5 -39.5l-36 -40v331q104 -18 157 -57t53 -122l-44 18v-10q0 -48 -35.5 -80.5zM456 122q30 30 30 71q0 42 -27 68t-84 42v-219q51 8 81 38z" />
    <glyph glyph-name="percent" unicode="%" horiz-adv-x="881" 
d="M370 450q-22 -40 -61.5 -63t-88.5 -23q-50 0 -89 23t-61 63t-22 89t22 89t61 63t89 23t89 -23t61 -63t22 -89t-22 -89zM137 682.5q-37 -21.5 -58 -59t-21 -84.5q0 -35 12 -65l30 1q14 -32 44 -54t76 -22q48 0 78 22t43 52t13 56q0 24 -3.5 42t-13.5 38l31 1
q-19 43 -58.5 68.5t-89.5 25.5q-46 0 -83 -21.5zM689 662l-435 -665l-62 42l435 665zM206 42l41 13l387 591l41 13l-45 31zM337 609l-21 -25q7 -23 7 -45q0 -49 -28.5 -80t-74.5 -31q-36 0 -62 19.5t-36 53.5l-22 -26q-13 35 -13 66q0 62 38.5 99t95.5 37q81 0 116 -68z
M287.5 466q25.5 28 25.5 73t-25.5 73t-67.5 28t-67.5 -28t-25.5 -73t25.5 -73t67.5 -28t67.5 28zM750 313q39 -23 61 -63t22 -89t-22 -89t-61.5 -63t-88.5 -23q-50 0 -89 23t-61 63t-22 89t22 89t61 63t89 23t89 -23zM578 304.5q-37 -21.5 -58 -59t-21 -84.5q0 -35 12 -65
l30 1q14 -32 44 -54t76 -22q48 0 78 22t43 52t13 56q0 24 -3.5 42t-13.5 38l31 1q-19 43 -58.5 68.5t-89.5 25.5q-46 0 -83 -21.5zM778 231l-21 -25q7 -23 7 -45q0 -49 -28.5 -80t-74.5 -31q-36 0 -62 19.5t-36 53.5l-22 -26q-13 35 -13 66q0 62 38.5 99t95.5 37
q81 0 116 -68zM728.5 88q25.5 28 25.5 73t-25.5 73t-67.5 28t-67.5 -28t-25.5 -73t25.5 -73t67.5 -28t67.5 28z" />
    <glyph glyph-name="ampersand" unicode="&#x26;" horiz-adv-x="653" 
d="M614 0h-119l-37 49q-78 -63 -179 -63q-64 0 -115 27.5t-79.5 76.5t-28.5 110q0 71 36.5 121t97.5 87q-46 69 -46 141q0 47 22.5 85t61 59t85.5 21q74 0 118.5 -39t44.5 -103q0 -56 -38 -100.5t-117 -84.5l143 -189q31 59 47 144l82 -46q-24 -103 -71 -174zM500 10h47
l-83 110q28 32 54 84t32 105l-32 18q-18 -87 -53 -147l-1 -60l-207 277q94 46 131 80.5t42 80.5l36 15q0 59 -41.5 95t-111.5 36q-45 0 -81.5 -20t-57 -55.5t-20.5 -79.5q0 -73 50 -144q-69 -41 -103.5 -91.5t-34.5 -113.5q0 -74 43 -128l37 13q17 -20 50.5 -37t86.5 -17
q96 0 181 89l-4 -57zM397.5 645.5q33.5 -27.5 33.5 -72.5q0 -10 -1 -15l-33 15v-6q0 -40 -28.5 -69t-98.5 -61l-13 -40l-16 20q-23 30 -37 65.5t-14 69.5q0 48 31.5 84.5t92.5 36.5q50 0 83.5 -27.5zM362 506q25 26 25 61q0 29 -22 47t-51 18q-31 0 -54.5 -22.5t-23.5 -58.5
q0 -50 37 -101q64 30 89 56zM217 83.5q-32 17.5 -50 47.5l-21 -46q-39 46 -39 112q0 67 42.5 121t107.5 79l-15 -43l-8 -5q1 0 8 5l176 -235q-55 -53 -129 -53q-40 0 -72 17.5zM240 340q-40 -28 -61 -61t-21 -77q0 -56 38 -91t93 -35q66 0 116 44z" />
    <glyph glyph-name="quotesingle" unicode="'" horiz-adv-x="214" 
d="M157 700v-67l-14 -161h-72l-14 161v67h100zM80 482l27 38v170h-40v-56z" />
    <glyph glyph-name="parenleft" unicode="(" horiz-adv-x="355" 
d="M202 504.5q-26 -117.5 -26 -228.5t26 -228.5t69 -195.5h-95q-48 86 -77 194t-29 230t29 230t77 194h95q-43 -78 -69 -195.5zM106 58q26 -106 76 -196l16 44q-38 101 -56.5 183.5t-18.5 187.5q0 109 22 201t71 212h-34q-50 -90 -76 -196t-26 -218t26 -218z" />
    <glyph glyph-name="parenright" unicode=")" horiz-adv-x="355" 
d="M256 506q29 -108 29 -230t-29 -230t-77 -194h-95q43 78 69 195.5t26 228.5t-26 228.5t-69 195.5h95q48 -86 77 -194zM165 55q-24 -113 -64 -193l56 44q38 101 56.5 183.5t18.5 187.5q0 114 -20.5 204t-72.5 209h-38q40 -80 64 -193t24 -221t-24 -221z" />
    <glyph glyph-name="asterisk" unicode="*" horiz-adv-x="434" 
d="M273 535l110 -42l-47 -81l-91 75l19 -117h-94l19 117l-91 -75l-47 81l110 42l-110 42l47 81l91 -74l-19 116h94l-19 -116l91 74l47 -81zM245 535l-28 1l133 77l-17 30l-102 -83l-14 -24v154h-35l21 -130l-102 83l-17 -29l133 -78l-28 -1l-123 -47l17 -30l134 78l-14 -24
l-21 -132h35v156l134 -78l17 30z" />
    <glyph glyph-name="plus" unicode="+" horiz-adv-x="535" 
d="M491 406v-82h-183v-183h-82v183h-182v82h182v182h82v-182h183zM481 396h-183l-31 -31v213h-31v-182h-182v-62l27 31h186l-31 -31v-183l31 27v187h187z" />
    <glyph glyph-name="comma" unicode="," horiz-adv-x="202" 
d="M158 116v-116l-86 -144l-26 11l37 133h-39v116h114zM96 10v96h-42v-96h42zM58 -127l4 -2l56 129h-25z" />
    <glyph glyph-name="hyphen" unicode="-" horiz-adv-x="462" 
d="M423 357v-92h-384v92h384zM49 275l40 36h283l41 36h-364v-72z" />
    <glyph glyph-name="period" unicode="." horiz-adv-x="202" 
d="M163 126v-126h-124v126h124zM49 10h52v106h-52v-106z" />
    <glyph glyph-name="slash" unicode="/" horiz-adv-x="518" 
d="M512 730l-400 -760h-106l400 760h106zM23 -20l65 45l366 695h-42z" />
    <glyph glyph-name="zero" unicode="0" horiz-adv-x="720" 
d="M520.5 668.5q70.5 -45.5 110 -128t39.5 -190.5t-39.5 -190.5t-110 -128t-160.5 -45.5t-160.5 45.5t-110 128t-39.5 190.5t39.5 190.5t110 128t160.5 45.5t160.5 -45.5zM204 659.5q-68 -44.5 -106 -125t-38 -184.5q0 -122 51 -210l47 8q36 -54 89 -83.5t114 -29.5
q74 0 132.5 40t91.5 113t33 167q0 53 -14 105t-41 93l45 8q-39 68 -103.5 105.5t-144.5 37.5q-88 0 -156 -44.5zM481 632.5q53 -32.5 82 -79.5l-25 -40q34 -68 34 -163q0 -82 -26 -144.5t-74 -97t-112 -34.5q-59 0 -105 29.5t-72 83.5l-25 -39q-28 45 -41 95t-13 113
q0 82 31.5 153t90 113.5t135.5 42.5q67 0 120 -32.5zM465 116q46 32 71.5 92t25.5 142t-25.5 142t-71.5 92t-105 32t-105 -32t-71.5 -92t-25.5 -142t25.5 -142t71.5 -92t105 -32t105 32z" />
    <glyph glyph-name="one" unicode="1" horiz-adv-x="500" 
d="M452 98v-98h-404v98h148v465q-27 -26 -61.5 -36.5t-83.5 -10.5v96q60 0 94.5 21t58.5 67h100v-602h148zM442 88h-148l-44 -40v601l44 41h-84q-24 -44 -59.5 -65.5t-89.5 -22.5v-38q108 0 189 85l-44 -65v-496h-148v-78l37 38h308z" />
    <glyph glyph-name="two" unicode="2" horiz-adv-x="586" 
d="M516 98v-98h-464v77l269 262q49 48 69 85t20 80q0 53 -34 84.5t-91 31.5q-55 0 -90.5 -32.5t-35.5 -87.5q0 -26 6 -52h-102q-8 24 -8 62q0 53 29 100t81.5 75.5t120.5 28.5q71 0 122.5 -25.5t78.5 -70t27 -100.5q0 -67 -27 -122t-95 -122l-178 -176h302zM506 88h-316
l-91 -40l253 253q46 46 68.5 75.5t32 61.5t9.5 78l41 -17q1 6 1 19q0 85 -59.5 135.5t-158.5 50.5q-62 0 -112.5 -25.5t-79.5 -70t-29 -98.5q0 -29 5 -52h83l-46 50q0 42 21 78.5t61.5 58.5t95.5 22t95.5 -21t61 -55.5t20.5 -74.5l-42 -18q-2 -43 -22.5 -80.5t-69.5 -85.5
l-266 -259v-63l37 38h367z" />
    <glyph glyph-name="three" unicode="3" horiz-adv-x="597" 
d="M506.5 322q39.5 -45 39.5 -113q0 -67 -32 -118t-88 -78t-126 -27q-75 0 -131 29t-85 77t-29 102q0 25 7 47h108q-7 -21 -7 -44q0 -50 39 -83.5t98 -33.5q64 0 101 33t37 94q0 65 -51.5 96t-136.5 31v82q80 0 119 31.5t39 82.5q0 43 -31.5 68.5t-83.5 25.5q-48 0 -81 -27
t-33 -72q0 -24 7 -38h-103q-6 21 -6 41q0 51 27 93.5t76.5 67.5t113.5 25q69 0 118 -22t74.5 -61t25.5 -88q0 -52 -29.5 -96t-78.5 -62q63 -18 102.5 -63zM225 86.5q-34 16.5 -53 45.5t-19 65q0 12 4 34l-45 -28q-1 -38 16.5 -77t60 -66t111.5 -27q70 0 112.5 27.5
t60.5 64.5t19 68l44 16q0 62 -37 106.5t-112 66.5l-89 -5q76 12 119.5 55t43.5 115l41 -17v13q0 74 -56 117.5t-152 43.5q-59 0 -106.5 -23t-74 -63t-26.5 -90q0 -18 4 -31h81l-46 38q2 58 49 96t118 38t116 -30.5t52 -91.5l-43 -17q0 -57 -41.5 -89.5t-116.5 -34.5v-62
l38 33q44 -2 85.5 -19.5t69.5 -47.5q24 -26 31.5 -53.5t7.5 -63.5l-44 17v-3q0 -64 -39.5 -100.5t-108.5 -36.5q-41 0 -75 16.5zM70 231l-2 -8z" />
    <glyph glyph-name="four" unicode="4" horiz-adv-x="603" 
d="M571 226v-98h-75v-128h-108v128h-343v98l343 474h108v-474h75zM398 10l44 39v127h73l46 40h-75l-44 -40v514h-49l-338 -467v-85l44 38h343l-44 -39v-127zM142 216l-43 -40v47l299 415v-422h-256zM388 545l-230 -319h230v319z" />
    <glyph glyph-name="five" unicode="5" horiz-adv-x="605" 
d="M446 448q52 -30 80.5 -84t28.5 -124q0 -74 -32.5 -131.5t-91.5 -90t-137 -32.5q-71 0 -125 26.5t-83.5 70.5t-29.5 96q0 23 5 41h105q-6 -18 -6 -40q0 -48 38 -74t94 -26q71 0 113 41.5t42 115.5q0 73 -40 114t-104 41q-51 0 -92 -25.5t-68 -68.5l-84 23l33 379h418v-98
h-337l-19 -197q63 73 171 73q69 0 121 -30zM70 328l36 -9l28 332h334l32 39h-399zM189.5 100q-39.5 30 -39.5 80q0 15 3 30l-42 -28q-2 -37 15 -71t59 -56t111 -22q70 0 116.5 31.5t67.5 76t21 84.5l44 18q0 68 -28.5 119t-79 78.5t-115.5 27.5q-54 0 -97.5 -21t-82.5 -68
l-34 -61h1q5 5 36.5 39.5t77 56t97.5 21.5q89 0 135 -58.5t46 -151.5l-44 18v-7q0 -76 -44 -121t-121 -45q-63 0 -102.5 30z" />
    <glyph glyph-name="six" unicode="6" horiz-adv-x="614" 
d="M455 428q53 -30 83 -83t30 -120q0 -66 -33 -121t-91 -86.5t-130 -31.5q-80 0 -139.5 38t-92 111t-32.5 174q0 130 41 230q71 175 235 175q63 0 111 -21.5t75 -60t27 -89.5q0 -15 -6 -39h-100q4 20 4 37q0 38 -34 61.5t-78 23.5q-78 0 -121 -66t-49 -191q31 41 79 65
t101 24q67 0 120 -30zM60 309q0 -81 21 -142l45 -6q26 -66 76.5 -97.5t111.5 -31.5q156 7 193 130l44 4q7 33 7 59q0 64 -28.5 115t-79.5 79.5t-115 28.5q-59 0 -103 -25.5t-87 -82.5q-24 -52 -24 -116q0 -35 5 -63q-24 68 -24 158q0 156 56.5 253.5t167.5 97.5
q82 0 117.5 -34.5t42.5 -87.5l-41 -34h80q4 14 4 29q0 72 -56 116.5t-147 44.5q-80 0 -136 -42t-90 -127q-40 -98 -40 -226zM207.5 106.5q-43.5 38.5 -49.5 98.5l-32 -44q1 5 5 70t53.5 123.5t138.5 58.5q65 0 108 -29.5t63 -74.5t20 -93q0 -26 -7 -54l-38 27
q-11 -54 -53.5 -87.5t-101.5 -33.5q-63 0 -106.5 38.5zM387 95.5q34 17.5 54.5 50t20.5 76.5t-20.5 76.5t-54.5 50t-73 17.5t-72.5 -17.5t-54 -50t-20.5 -76.5t20.5 -76.5t54 -50t72.5 -17.5t73 17.5z" />
    <glyph glyph-name="seven" unicode="7" horiz-adv-x="543" 
d="M502 700v-90l-272 -610h-106l269 602h-353v98h462zM50 612l40 40h362l40 37v1h-442v-78zM139 10l62 39l247 553h-44z" />
    <glyph glyph-name="eight" unicode="8" horiz-adv-x="586" 
d="M503.5 302.5q31.5 -46.5 31.5 -108.5t-30.5 -109t-85.5 -73t-126 -26t-126 26t-85.5 73t-30.5 109t31.5 108.5t85.5 72.5q-45 24 -70.5 65.5t-25.5 92.5q0 53 29 94t79 64t113 23t113 -23t79 -64t29 -94q0 -51 -25.5 -92.5t-70.5 -65.5q54 -26 85.5 -72.5zM93 301
q-32 -42 -32 -107q0 -15 1 -23l44 -6q22 -65 64 -100t126 -35q82 0 127.5 41t55.5 94l45 6q1 8 1 23q0 65 -32 107t-95 74l-102 -1q44 1 82 22t61 56t23 77q0 16 -3 31l44 -7q-8 67 -66 109t-144 42q-85 0 -143.5 -42t-66.5 -109l43 7q-3 -15 -3 -31q0 -42 23 -77t61.5 -56
t82.5 -22l-102 1q-63 -32 -95 -74zM201.5 437.5q-36.5 33.5 -37.5 84.5l-38 38q15 46 58.5 80t109.5 34q48 0 83 -18t55 -44t27 -52l-37 -37q-1 -51 -37.5 -85t-91.5 -34t-91.5 33.5zM377.5 444.5q34.5 30.5 34.5 79.5t-35.5 79.5t-83.5 30.5t-83.5 -30.5t-35.5 -79.5
t34.5 -79.5t84.5 -30.5t84.5 30.5zM290 374zM483 205q0 -14 -4 -40l-38 39v-3q0 -59 -42 -98t-106 -39t-106 39t-42 98v3l-39 -39q-3 18 -3 38q0 57 32 96q26 33 68.5 54t86.5 21h3h3q43 0 85.5 -21t69.5 -54q32 -39 32 -94zM293 374h-3h3zM296 374h-3h3zM391.5 110
q39.5 36 39.5 91t-40 91t-98 36t-98 -36t-40 -91t39.5 -91t98.5 -36t98.5 36z" />
    <glyph glyph-name="nine" unicode="9" horiz-adv-x="619" 
d="M447.5 676q59.5 -38 92 -111t32.5 -174q0 -130 -41 -230q-71 -175 -235 -175q-63 0 -111 21.5t-75 60t-27 89.5q0 15 6 39h100q-4 -20 -4 -37q0 -38 34 -61.5t78 -23.5q78 0 121 66t49 191q-31 -41 -79 -65t-101 -24q-67 0 -120 30t-83 83t-30 120q0 66 33 121t91 86.5
t130 31.5q80 0 139.5 -38zM210.5 91.5q-35.5 27.5 -35.5 67.5q0 13 2 27l-41 -33q0 -28 15 -55.5t51.5 -47t94.5 -19.5q124 0 172.5 104.5t48.5 244.5q0 46 -4 79t-18 80l45 -5q-28 82 -88 126t-145 44q-88 0 -152.5 -47.5t-84.5 -123.5l45 6q-9 -34 -9 -64q0 -58 28 -100
t71 -64t87 -22q89 0 144.5 57.5t58.5 192.5q1 -16 1 -43q0 -48 -5 -74.5t-15 -61.5q0 -146 -46.5 -221t-133.5 -75q-51 0 -86.5 27.5zM413 642.5q40 -25.5 54.5 -49t28.5 -54.5l-34 -32q3 -13 3 -29q0 -44 -20.5 -79t-56.5 -55t-80 -20q-45 0 -81 20t-56.5 55.5t-20.5 78.5
q0 10 2 28l-36 33q14 46 56.5 87.5t135.5 41.5q65 0 105 -25.5zM380.5 351.5q33.5 17.5 54 50t20.5 76.5t-20.5 76.5t-54 50t-72.5 17.5t-73 -17.5t-54.5 -50t-20.5 -76.5t20.5 -76.5t54.5 -50t73 -17.5t72.5 17.5z" />
    <glyph glyph-name="colon" unicode=":" horiz-adv-x="202" 
d="M163 490v-126h-124v126h124zM49 374h52v106h-52v-106zM39 126h124v-126h-124v126zM49 10h52v106h-52v-106z" />
    <glyph glyph-name="semicolon" unicode=";" horiz-adv-x="202" 
d="M163 490v-126h-124v126h124zM49 374h52v106h-52v-106zM44 116h114v-116l-86 -144l-26 11l37 133h-39v116zM54 10h42v96h-42v-96zM58 -127l4 -2l56 129h-25z" />
    <glyph glyph-name="less" unicode="&#x3c;" horiz-adv-x="521" 
d="M467 459l-315 -149l315 -149v-102l-423 208v86l423 208v-102zM129 310h-75l403 192v43l-403 -198v-37l403 -192v37z" />
    <glyph glyph-name="equal" unicode="=" horiz-adv-x="541" 
d="M497 486v-82h-453v82h453zM54 414h1l34 31h362l35 31h-432v-62zM44 291h453v-82h-453v82zM54 219h1l34 31h362l35 31h-432v-62z" />
    <glyph glyph-name="greater" unicode="&#x3e;" horiz-adv-x="521" 
d="M477 353v-86l-423 -208v102l315 149l-315 149v102zM64 155v-38l403 193v37l-403 198v-41l403 -194h-75z" />
    <glyph glyph-name="question" unicode="?" horiz-adv-x="543" 
d="M388.5 690q50.5 -24 77.5 -66.5t27 -96.5q0 -62 -27 -107t-100 -107q-29 -24 -40 -49t-11 -62h-106v17q0 42 20 77t69 75q53 44 73 75.5t20 74.5q0 45 -33.5 72t-87.5 27q-52 0 -87 -29t-35 -81q0 -20 5 -42l-95 -19q-12 28 -12 69q0 51 28 96t78.5 72.5t116.5 27.5
q69 0 119.5 -24zM219 212h86l-37 41q3 25 26 50t83 79q38 35 51.5 69.5t13.5 73.5l40 -16q1 6 1 18q0 80 -58.5 128.5t-155.5 48.5q-59 0 -108 -24.5t-77 -67.5t-28 -94q0 -31 8 -58l77 16l-40 21q-2 10 -2 18q0 31 15.5 66t53.5 60.5t101 25.5q70 0 108.5 -25.5t51.5 -57.5
t13 -59l-41 -16q-2 -39 -23 -70.5t-74 -75.5q-46 -38 -65.5 -70.5t-19.5 -73.5v-7zM206 119h112v-119h-112v119zM216 10h46v99h-46v-99z" />
    <glyph glyph-name="at" unicode="@" horiz-adv-x="954" 
d="M586.5 49q-25.5 22 -25.5 60q0 11 1 16q-22 -43 -63 -70.5t-91 -27.5t-90.5 26t-63 73.5t-22.5 111.5q0 95 37.5 163.5t95 103.5t115.5 35q48 0 80.5 -20.5t45.5 -45.5l8 50h84l-55 -369q-1 -8 -1 -18q0 -16 8 -25.5t23 -9.5q32 0 64 27t52.5 80.5t20.5 128.5
q0 88 -36 155.5t-108 105t-176 37.5q-94 0 -174.5 -48t-128.5 -132.5t-48 -189.5q0 -108 44 -185t117 -116t161 -39q108 0 186 53l43 -69q-53 -33 -106 -47.5t-131 -14.5q-105 0 -196.5 45.5t-149 140t-57.5 235.5q0 122 57.5 224t160 161.5t231.5 59.5q108 0 199 -41
t146 -125t55 -207q0 -89 -33 -161t-89.5 -112.5t-122.5 -40.5q-42 0 -67.5 22zM368 496.5q-55 -33.5 -90.5 -100t-35.5 -158.5v-7l35 15q0 -49 16 -91.5t47 -68t72 -25.5q65 0 118 60.5t92 158.5l-49 -132l-2 -38q1 -34 23 -53.5t60 -19.5q57 0 106 31.5t82 88t43 126.5
l-37 -13q6 40 6 78q0 68 -29 142t-108.5 129.5t-219.5 55.5q-128 0 -218.5 -58t-136 -147.5t-48.5 -183.5l-34 -13v-4q0 -138 55.5 -230.5t145 -136.5t192.5 -44q71 0 121.5 12.5t101.5 42.5l-32 52v-34q-43 -21 -85 -32.5t-104 -11.5q-73 0 -157.5 32.5t-147 121.5
t-56.5 245l35 -14q1 103 49.5 189t131 135.5t180.5 49.5q102 0 176.5 -37t114 -106.5t39.5 -164.5q0 -32 -4 -55l32 -13q-8 -71 -40 -117t-71.5 -67t-70.5 -21q-65 0 -65 61q0 9 2 25l19 129l28 -10l36 244h-32l-32 -233v-1l-34 -13q-17 -77 -63.5 -125.5t-104.5 -48.5
q-50 0 -78 36.5t-30 102.5l-35 14q0 73 28.5 131.5t75.5 91.5t103 33q69 0 106 -53t35 -132q3 69 -15 130q-38 83 -130 83q-57 0 -112 -33.5zM411 435.5q-39 -28.5 -64 -80t-25 -118.5q0 -68 27 -101t71 -33q45 0 83 32t60.5 87t22.5 122q0 59 -24.5 89.5t-69.5 30.5
q-42 0 -81 -28.5z" />
    <glyph glyph-name="A" unicode="A" horiz-adv-x="680" 
d="M674 0h-114l-75 195h-290l-75 -195h-114l280 700h108zM520 243l-180 447v-85q12 -37 33 -91l90 -235h-235l-69 -36l177 447h-43l-272 -680l61 36l77 197h361zM332 554q-6 -18 -16 -44l-85 -221h218l-85 221q-10 26 -16 44t-8 23q-2 -5 -8 -23zM567 10l33 36l-79 197
l-29 -38z" />
    <glyph glyph-name="B" unicode="B" horiz-adv-x="653" 
d="M565.5 316q38.5 -42 38.5 -108q0 -63 -33.5 -110t-90 -72.5t-123.5 -25.5h-276v700h272q103 0 162.5 -46t59.5 -124q0 -55 -31 -96.5t-77 -60.5q60 -15 98.5 -57zM91 10h1l41 37h219q68 0 121 27.5t69 86.5l48 6q4 17 4 41q0 59 -37 101.5t-114 62.5l-94 -1q56 3 95 27
t58.5 59.5t19.5 72.5q0 10 -4 30l45 -6q-9 64 -64.5 100t-145.5 36h-262v-680zM467.5 626.5q40.5 -27.5 50.5 -66.5l-37 -37v-11q0 -51 -34.5 -77.5t-101.5 -26.5h-166l-46 -37v283h220q74 0 114.5 -27.5zM471 512q0 94 -126 94h-156v-188h156q126 0 126 94zM133 371h216
q47 0 93 -16.5t76.5 -53t30.5 -93.5q0 -25 -7 -47l-38 36q-5 -55 -45 -84t-113 -29h-167l-46 -37v324zM455.5 123q38.5 29 38.5 86t-38.5 86t-109.5 29h-157v-230h157q71 0 109.5 29z" />
    <glyph glyph-name="C" unicode="C" horiz-adv-x="757" 
d="M611 189l75 -75q-53 -66 -122 -97t-166 -31q-99 0 -178 46.5t-124 129.5t-45 188t47 188t127.5 129.5t177.5 46.5q91 0 164.5 -34.5t118.5 -95.5l-76 -80q-40 59 -91 85.5t-118 26.5q-65 0 -120.5 -34.5t-87.5 -95.5t-32 -136t31 -136t85.5 -95.5t122.5 -34.5
q140 0 211 105zM612 174q-74 -100 -212 -100q-69 0 -125 34.5t-89 95.5t-35 137v-1l-45 20q0 83 39 153t106 111t148 41q132 0 212 -74v-71l62 65q-44 57 -114.5 88t-155.5 31q-96 0 -174.5 -46.5t-123 -127t-44.5 -180.5v-10l45 20q0 -92 39 -166.5t106 -116.5t148 -42
q68 0 120 18.5t93 56.5v64z" />
    <glyph glyph-name="D" unicode="D" horiz-adv-x="703" 
d="M474.5 659.5q83.5 -40.5 130.5 -119t47 -190.5t-47 -190.5t-130.5 -119t-191.5 -40.5h-202v700h202q108 0 191.5 -40.5zM91 10l44 39h149q149 0 231 81.5t82 229.5l45 -20v10q0 105 -43.5 181.5t-124.5 117.5t-191 41h-192v-680zM452.5 615.5q70.5 -35.5 107.5 -101
t37 -154.5l-45 -20v2q-2 -121 -72 -187.5t-195 -66.5h-106v1l-44 -40v602h149q98 0 168.5 -35.5zM472.5 162q69.5 64 69.5 188t-69.5 188t-187.5 64h-96v-504h96q118 0 187.5 64z" />
    <glyph glyph-name="E" unicode="E" horiz-adv-x="606" 
d="M544 96v-96h-463v700h460v-96h-352v-194h324v-96h-324v-218h355zM91 10l44 38h355l44 38h-352l-47 -38v314h324l44 38h-320l-48 -38v290h353l43 38h-440v-680z" />
    <glyph glyph-name="F" unicode="F" horiz-adv-x="608" 
d="M189 604v-214h334v-96h-334v-294h-108v700h472v-96h-364zM186 380l-51 -38v310h370l38 38h-452v-680l44 38v294h340l38 38h-327z" />
    <glyph glyph-name="G" unicode="G" horiz-adv-x="765" 
d="M700 364v-223q-56 -81 -131.5 -118t-176.5 -37q-97 0 -175 47t-122 130t-44 187q0 103 47.5 186.5t128.5 130.5t177 47q85 0 158 -34.5t120 -94.5l-71 -74q-79 107 -209 107q-66 0 -121 -33.5t-87.5 -94.5t-32.5 -140t29.5 -139t82.5 -93.5t121 -33.5q70 0 117.5 23.5
t80.5 68.5v98h-191v90h299zM690 354h-279v-70l35 35h200l-44 -35v-111q-37 -51 -87.5 -75t-120.5 -24t-125 33.5t-86 94.5t-32 140v-2l-45 20q0 86 38.5 155.5t106.5 110t152 40.5q61 0 114 -20.5t95 -58.5v-61l57 59q-46 57 -115.5 88t-149.5 31q-95 0 -173.5 -46.5
t-124 -128t-45.5 -179.5v-10l45 20q0 -95 37 -169t102.5 -115t150.5 -41q172 0 250 124v160z" />
    <glyph glyph-name="H" unicode="H" horiz-adv-x="704" 
d="M623 700v-700h-108v308h-326v-308h-108v700h108v-294h326v294h108zM91 10l44 42v305h434l-44 -40v-307h1l43 42v638h-44v-294h-337l-53 -39v333h-44v-680z" />
    <glyph glyph-name="I" unicode="I" horiz-adv-x="330" 
d="M41 94h70v512h-70v94h248v-94h-70v-512h70v-94h-248v94zM95 47h140l44 37h-70l-44 -37v606h70l44 37h-228v-74l44 37h70l-44 -37v-532h-70v-74z" />
    <glyph glyph-name="J" unicode="J" horiz-adv-x="363" 
d="M322 700v-94h-70v-410q0 -63 -26 -110.5t-72.5 -73.5t-105.5 -26q-12 0 -20 2v98q10 -2 19 -2q44 0 70.5 32t26.5 88v402h-70v94h248zM312 690h-228v-74l44 37h70l-44 -37v-412q0 -59 -29 -94.5t-78 -35.5q-6 0 -9 1v-40q74 0 117 41.5t43 130.5v446h70z" />
    <glyph glyph-name="K" unicode="K" horiz-adv-x="640" 
d="M619 0h-126l-216 360l-88 -92v-268h-108v700h108v-294l48 53l226 241h138l-246 -260zM91 10l44 44v228l153 161l234 -389l79 -44l-259 431l-54 2l233 247h-54l-223 -238l-65 -70l-44 -100v408h-44v-680z" />
    <glyph glyph-name="L" unicode="L" horiz-adv-x="586" 
d="M540 96v-96h-459v700h108v-604h351zM530 86h-351l-44 -38v642h-44v-680l44 38h351z" />
    <glyph glyph-name="M" unicode="M" horiz-adv-x="866" 
d="M785 700v-700h-104v485q-8 -23 -19.5 -54.5t-16.5 -44.5l-160 -386h-104l-160 386q-5 12 -16 42t-19 55l-1 -483h-104v700h115l237 -593l237 593h115zM91 10l42 42v638h-42v-680zM733 52v638h-56l-244 -610v-70l258 595v-595zM388 10h45l-247 580v-84q16 -42 28 -74.5
t16 -42.5z" />
    <glyph glyph-name="N" unicode="N" horiz-adv-x="720" 
d="M639 700v-700h-110l-314 488q-4 6 -14.5 23.5t-14.5 27.5l-1 -529v-10h-104v700h110l314 -488q4 -6 15 -25t15 -28v541h104zM91 10l42 42v638h-42v-680zM545 690v-551l42 -66v617h-42zM534 10l28 28l-376 571v-54q37 -61 37 -62z" />
    <glyph glyph-name="O" unicode="O" horiz-adv-x="800" 
d="M577.5 667.5q79.5 -46.5 125.5 -129.5t46 -188t-46 -188t-125.5 -129.5t-177.5 -46.5t-177.5 46.5t-125.5 129.5t-46 188t46 188t125.5 129.5t177.5 46.5t177.5 -46.5zM226.5 658q-77.5 -46 -121.5 -126.5t-44 -181.5q0 -67 20 -126t57 -106l45 14q38 -44 95 -70.5
t119 -26.5q81 0 149 38t108 109.5t40 167.5q0 64 -18.5 116.5t-55.5 103.5l45 8q-47 59 -115.5 92.5t-149.5 33.5q-96 0 -173.5 -46zM524.5 641q57.5 -27 95.5 -71l-25 -40q54 -75 54 -180q0 -80 -32 -143t-88.5 -98t-128.5 -35q-62 0 -113 26.5t-85 73.5l-19 -42
q-39 49 -58 102t-19 116q0 99 40.5 171t108.5 109.5t151 37.5q61 0 118.5 -27zM522.5 117q54.5 33 85.5 93.5t31 139.5t-31 139.5t-85.5 93.5t-122.5 33t-122.5 -33t-85.5 -93.5t-31 -139.5t31 -139.5t85.5 -93.5t122.5 -33t122.5 33z" />
    <glyph glyph-name="P" unicode="P" horiz-adv-x="689" 
d="M571 640.5q68 -59.5 68 -163.5t-68 -163.5t-184 -59.5h-198v-254h-108v700h306q116 0 184 -59.5zM91 10l44 44v248h250q95 0 147.5 48t52.5 137l44 -19v9q0 99 -65 156t-177 57h-296v-680zM491.5 630q45.5 -22 69.5 -59.5t24 -83.5l-44 -20q-4 -60 -45.5 -93.5
t-112.5 -33.5h-204l-44 -38v350h250q61 0 106.5 -22zM493 384q38 34 38 93t-38 93t-110 34h-194v-254h194q72 0 110 34z" />
    <glyph glyph-name="Q" unicode="Q" horiz-adv-x="800" 
d="M760 41l-67 -68l-83 82q-43 -33 -97 -51t-113 -18q-98 0 -177.5 46.5t-125.5 129.5t-46 188t46 188t125.5 129.5t177.5 46.5t177.5 -46.5t125.5 -129.5t46 -188q0 -65 -19 -123t-53 -104zM226.5 658q-77.5 -46 -121.5 -126.5t-44 -181.5q0 -67 20 -126t57 -106l45 14
q38 -44 95 -70.5t119 -26.5q53 0 100.5 16.5t86.5 46.5l27 25l82 -82h53l-77 76l-35 34q60 81 60 199q0 64 -18.5 116.5t-55.5 103.5l45 8q-47 59 -115.5 92.5t-149.5 33.5q-96 0 -173.5 -46zM524.5 641q57.5 -27 95.5 -71l-25 -40q54 -75 54 -180q0 -97 -45 -167l-144 143
l-54 -54l54 2l151 -151l-59 3q-65 -52 -152 -52q-62 0 -113 26.5t-85 73.5l-19 -42q-39 49 -58 102t-19 116q0 99 40.5 171t108.5 109.5t151 37.5q61 0 118.5 -27zM639 350q0 79 -31 139.5t-85.5 93.5t-122.5 33t-122.5 -33t-85.5 -93.5t-31 -139.5t31 -139.5t85.5 -93.5
t122.5 -33q79 0 137 44l-145 144l68 68l141 -141q38 63 38 151z" />
    <glyph glyph-name="R" unicode="R" horiz-adv-x="656" 
d="M615 0h-125l-163 295h-138v-295h-108v700h289q72 0 125.5 -25.5t82.5 -70.5t29 -102q0 -74 -44 -125.5t-122 -72.5zM496 10l27 40l-162 292h4q77 0 133 39t56 129l43 -20v12q0 56 -28 98.5t-79.5 66t-119.5 23.5h-279v-680l44 44v288h226l-28 -37zM179 379l-44 -37v311
h232q56 0 98.5 -19t65.5 -51.5t23 -72.5l-45 -20q-2 -54 -40 -82.5t-106 -28.5h-184zM464.5 416.5q34.5 27.5 34.5 80.5t-34.5 81t-101.5 28h-174v-217h174q67 0 101.5 27.5z" />
    <glyph glyph-name="S" unicode="S" horiz-adv-x="651" 
d="M536.5 334q55.5 -50 55.5 -137q0 -57 -31.5 -105.5t-89.5 -77t-135 -28.5q-99 0 -170 44t-100 110l70 75q24 -59 77 -97t122 -38q68 0 108.5 32.5t40.5 80.5q0 53 -42 81.5t-136 46.5q-104 20 -164.5 71t-60.5 135q0 55 30.5 97.5t85 66t124.5 23.5q80 0 143 -33t102 -93
l-70 -69q-28 49 -75 75t-101 26q-59 0 -98 -24t-39 -67q0 -46 44.5 -75.5t138.5 -47.5q115 -22 170.5 -72zM215.5 104.5q-54.5 34.5 -82.5 92.5v-71q10 -22 38 -43.5t71 -35.5t93 -14q59 0 105.5 21t72 55.5t25.5 75.5l44 20q-2 78 -55 124t-163 67q-93 17 -139.5 46.5
t-50.5 74.5l-42 21q0 37 24.5 66t67.5 46t96 17q42 0 79 -12t63 -28.5t36 -30.5v-61l56 55q-39 55 -99 84.5t-134 29.5q-67 0 -119.5 -22.5t-81.5 -62.5t-29 -92v-10l41 21q0 -70 49 -113.5t154 -61.5q105 -17 154 -60t49 -118l-44 18v-10q0 -54 -45 -88.5t-114 -34.5
q-65 0 -119.5 34.5z" />
    <glyph glyph-name="T" unicode="T" horiz-adv-x="576" 
d="M558 700v-98h-216v-602h-108v602h-216v98h540zM548 690h-520v-78l40 39h220l-44 -39v-602l44 44v597h221z" />
    <glyph glyph-name="U" unicode="U" horiz-adv-x="686" 
d="M616 700v-451q0 -83 -35 -142t-96.5 -90t-141.5 -31t-141.5 31t-96.5 90t-35 142v451h108v-448q0 -75 44 -121.5t121 -46.5t121 46.5t44 121.5v448h108zM112 115q32 -57 91.5 -88t139.5 -31h4l-20 39l22 -1q83 0 130.5 39t65 90.5t17.5 94.5v432h-44v-438
q0 -80 -46.5 -128.5t-124.5 -49.5l-20 -39q-73 0 -118.5 34t-65 84.5t-19.5 104.5v432h-44v-441q0 -77 32 -134z" />
    <glyph glyph-name="V" unicode="V" horiz-adv-x="634" 
d="M632 700l-259 -700h-112l-259 700h114l175 -489l26 -89l26 89l175 489h114zM317 10q34 66 50 112l203 568h-46l-172 -482l-35 -118v-80q-34 66 -50 112l-203 568h-48l251 -680h50z" />
    <glyph glyph-name="W" unicode="W" horiz-adv-x="916" 
d="M911 700l-193 -700h-117l-143 552l-143 -552h-117l-193 700h113l124 -485q2 -8 7 -29.5t10 -43.5l10 44t7 30l125 484h114l125 -484q2 -8 7 -30l10 -44q5 22 10 43.5t7 29.5l124 485h113zM206 10h50l-19 54q-24 61 -33 99l-138 527h-47zM259 106v-95l13 36q3 10 16 46.5
t21 69.5l103 406l21 74q4 13 7.5 25t6.5 22h-38l-123 -477zM609 10h45l-14 44q-23 69 -33 109l-107 406q-15 54 -40 121h-2v-99zM657 105v-95l8 19q4 12 21 54.5t26 78.5l138 528h-44l-122 -477z" />
    <glyph glyph-name="X" unicode="X" horiz-adv-x="597" 
d="M593 0h-119l-176 290l-176 -290h-119l234 379l-201 321h117l145 -239l145 239h117l-201 -321zM479 11l28 33l-209 334l195 312h-44l-151 -248v-64l-195 312h-50l195 -312l-228 -367l68 34l210 333v-68z" />
    <glyph glyph-name="Y" unicode="Y" horiz-adv-x="578" 
d="M574 700l-231 -419v-281h-108v281l-231 419h119l144 -273l9 -18t13 -29q6 15 13 29l9 18l144 273h119zM245 284v-274l44 44v234l221 402h-49l-141 -268q-5 -8 -14.5 -29t-16.5 -37v-68l-220 402h-48z" />
    <glyph glyph-name="Z" unicode="Z" horiz-adv-x="607" 
d="M566 98v-98h-527v96l386 506h-372v98h495v-98l-383 -504h401zM49 10l33 38h428l46 40h-410l-64 -40l17 46l396 519l43 38v39h-475v-78l40 39h435l-93 -39l-396 -519v-83z" />
    <glyph glyph-name="bracketleft" unicode="[" horiz-adv-x="336" 
d="M183 606v-662h103v-94h-205v850h205v-94h-103zM173 -66l-41 -37v755h101l43 38h-185v-830l41 37h100l44 37h-103z" />
    <glyph glyph-name="backslash" unicode="\" horiz-adv-x="518" 
d="M512 -30h-106l-400 760h106zM412 -20l18 45l-366 695h-41z" />
    <glyph glyph-name="bracketright" unicode="]" horiz-adv-x="336" 
d="M255 700v-850h-205v94h103v662h-103v94h205zM60 -140l43 39h101v755l41 36h-185v-74l44 38h100l-41 -38v-682h-103v-74z" />
    <glyph glyph-name="asciicircum" unicode="^" horiz-adv-x="478" 
d="M458 438h-99l-120 183l-120 -183h-99l170 262h98zM38 448h38l158 242h-39zM364 448h38l-159 242h-4v-51z" />
    <glyph glyph-name="underscore" unicode="_" horiz-adv-x="475" 
d="M467 -7v-82h-459v82h459zM457 -17h-439v-62l36 31h367z" />
    <glyph glyph-name="grave" unicode="`" horiz-adv-x="313" 
d="M255 555h-85l-112 148h131zM175 565l16 32l-57 96h-56z" />
    <glyph glyph-name="a" unicode="a" horiz-adv-x="680" 
d="M674 0h-114l-75 195h-290l-75 -195h-114l280 700h108zM520 243l-180 447v-85q12 -37 33 -91l90 -235h-235l-69 -36l177 447h-43l-272 -680l61 36l77 197h361zM332 554q-6 -18 -16 -44l-85 -221h218l-85 221q-10 26 -16 44t-8 23q-2 -5 -8 -23zM567 10l33 36l-79 197
l-29 -38z" />
    <glyph glyph-name="b" unicode="b" horiz-adv-x="653" 
d="M565.5 316q38.5 -42 38.5 -108q0 -63 -33.5 -110t-90 -72.5t-123.5 -25.5h-276v700h272q103 0 162.5 -46t59.5 -124q0 -55 -31 -96.5t-77 -60.5q60 -15 98.5 -57zM91 10h1l41 37h219q68 0 121 27.5t69 86.5l48 6q4 17 4 41q0 59 -37 101.5t-114 62.5l-94 -1q56 3 95 27
t58.5 59.5t19.5 72.5q0 10 -4 30l45 -6q-9 64 -64.5 100t-145.5 36h-262v-680zM467.5 626.5q40.5 -27.5 50.5 -66.5l-37 -37v-11q0 -51 -34.5 -77.5t-101.5 -26.5h-166l-46 -37v283h220q74 0 114.5 -27.5zM471 512q0 94 -126 94h-156v-188h156q126 0 126 94zM133 371h216
q47 0 93 -16.5t76.5 -53t30.5 -93.5q0 -25 -7 -47l-38 36q-5 -55 -45 -84t-113 -29h-167l-46 -37v324zM455.5 123q38.5 29 38.5 86t-38.5 86t-109.5 29h-157v-230h157q71 0 109.5 29z" />
    <glyph glyph-name="c" unicode="c" horiz-adv-x="757" 
d="M611 189l75 -75q-53 -66 -122 -97t-166 -31q-99 0 -178 46.5t-124 129.5t-45 188t47 188t127.5 129.5t177.5 46.5q91 0 164.5 -34.5t118.5 -95.5l-76 -80q-40 59 -91 85.5t-118 26.5q-65 0 -120.5 -34.5t-87.5 -95.5t-32 -136t31 -136t85.5 -95.5t122.5 -34.5
q140 0 211 105zM612 174q-74 -100 -212 -100q-69 0 -125 34.5t-89 95.5t-35 137v-1l-45 20q0 83 39 153t106 111t148 41q132 0 212 -74v-71l62 65q-44 57 -114.5 88t-155.5 31q-96 0 -174.5 -46.5t-123 -127t-44.5 -180.5v-10l45 20q0 -92 39 -166.5t106 -116.5t148 -42
q68 0 120 18.5t93 56.5v64z" />
    <glyph glyph-name="d" unicode="d" horiz-adv-x="703" 
d="M474.5 659.5q83.5 -40.5 130.5 -119t47 -190.5t-47 -190.5t-130.5 -119t-191.5 -40.5h-202v700h202q108 0 191.5 -40.5zM91 10l44 39h149q149 0 231 81.5t82 229.5l45 -20v10q0 105 -43.5 181.5t-124.5 117.5t-191 41h-192v-680zM452.5 615.5q70.5 -35.5 107.5 -101
t37 -154.5l-45 -20v2q-2 -121 -72 -187.5t-195 -66.5h-106v1l-44 -40v602h149q98 0 168.5 -35.5zM472.5 162q69.5 64 69.5 188t-69.5 188t-187.5 64h-96v-504h96q118 0 187.5 64z" />
    <glyph glyph-name="e" unicode="e" horiz-adv-x="606" 
d="M544 96v-96h-463v700h460v-96h-352v-194h324v-96h-324v-218h355zM91 10l44 38h355l44 38h-352l-47 -38v314h324l44 38h-320l-48 -38v290h353l43 38h-440v-680z" />
    <glyph glyph-name="f" unicode="f" horiz-adv-x="608" 
d="M189 604v-214h334v-96h-334v-294h-108v700h472v-96h-364zM186 380l-51 -38v310h370l38 38h-452v-680l44 38v294h340l38 38h-327z" />
    <glyph glyph-name="g" unicode="g" horiz-adv-x="765" 
d="M700 364v-223q-56 -81 -131.5 -118t-176.5 -37q-97 0 -175 47t-122 130t-44 187q0 103 47.5 186.5t128.5 130.5t177 47q85 0 158 -34.5t120 -94.5l-71 -74q-79 107 -209 107q-66 0 -121 -33.5t-87.5 -94.5t-32.5 -140t29.5 -139t82.5 -93.5t121 -33.5q70 0 117.5 23.5
t80.5 68.5v98h-191v90h299zM690 354h-279v-70l35 35h200l-44 -35v-111q-37 -51 -87.5 -75t-120.5 -24t-125 33.5t-86 94.5t-32 140v-2l-45 20q0 86 38.5 155.5t106.5 110t152 40.5q61 0 114 -20.5t95 -58.5v-61l57 59q-46 57 -115.5 88t-149.5 31q-95 0 -173.5 -46.5
t-124 -128t-45.5 -179.5v-10l45 20q0 -95 37 -169t102.5 -115t150.5 -41q172 0 250 124v160z" />
    <glyph glyph-name="h" unicode="h" horiz-adv-x="704" 
d="M623 700v-700h-108v308h-326v-308h-108v700h108v-294h326v294h108zM91 10l44 42v305h434l-44 -40v-307h1l43 42v638h-44v-294h-337l-53 -39v333h-44v-680z" />
    <glyph glyph-name="i" unicode="i" horiz-adv-x="330" 
d="M41 94h70v512h-70v94h248v-94h-70v-512h70v-94h-248v94zM95 47h140l44 37h-70l-44 -37v606h70l44 37h-228v-74l44 37h70l-44 -37v-532h-70v-74z" />
    <glyph glyph-name="j" unicode="j" horiz-adv-x="363" 
d="M322 700v-94h-70v-410q0 -63 -26 -110.5t-72.5 -73.5t-105.5 -26q-12 0 -20 2v98q10 -2 19 -2q44 0 70.5 32t26.5 88v402h-70v94h248zM312 690h-228v-74l44 37h70l-44 -37v-412q0 -59 -29 -94.5t-78 -35.5q-6 0 -9 1v-40q74 0 117 41.5t43 130.5v446h70z" />
    <glyph glyph-name="k" unicode="k" horiz-adv-x="640" 
d="M619 0h-126l-216 360l-88 -92v-268h-108v700h108v-294l48 53l226 241h138l-246 -260zM91 10l44 44v228l153 161l234 -389l79 -44l-259 431l-54 2l233 247h-54l-223 -238l-65 -70l-44 -100v408h-44v-680z" />
    <glyph glyph-name="l" unicode="l" horiz-adv-x="586" 
d="M540 96v-96h-459v700h108v-604h351zM530 86h-351l-44 -38v642h-44v-680l44 38h351z" />
    <glyph glyph-name="m" unicode="m" horiz-adv-x="866" 
d="M785 700v-700h-104v485q-8 -23 -19.5 -54.5t-16.5 -44.5l-160 -386h-104l-160 386q-5 12 -16 42t-19 55l-1 -483h-104v700h115l237 -593l237 593h115zM91 10l42 42v638h-42v-680zM733 52v638h-56l-244 -610v-70l258 595v-595zM388 10h45l-247 580v-84q16 -42 28 -74.5
t16 -42.5z" />
    <glyph glyph-name="n" unicode="n" horiz-adv-x="720" 
d="M639 700v-700h-110l-314 488q-4 6 -14.5 23.5t-14.5 27.5l-1 -529v-10h-104v700h110l314 -488q4 -6 15 -25t15 -28v541h104zM91 10l42 42v638h-42v-680zM545 690v-551l42 -66v617h-42zM534 10l28 28l-376 571v-54q37 -61 37 -62z" />
    <glyph glyph-name="o" unicode="o" horiz-adv-x="800" 
d="M577.5 667.5q79.5 -46.5 125.5 -129.5t46 -188t-46 -188t-125.5 -129.5t-177.5 -46.5t-177.5 46.5t-125.5 129.5t-46 188t46 188t125.5 129.5t177.5 46.5t177.5 -46.5zM226.5 658q-77.5 -46 -121.5 -126.5t-44 -181.5q0 -67 20 -126t57 -106l45 14q38 -44 95 -70.5
t119 -26.5q81 0 149 38t108 109.5t40 167.5q0 64 -18.5 116.5t-55.5 103.5l45 8q-47 59 -115.5 92.5t-149.5 33.5q-96 0 -173.5 -46zM524.5 641q57.5 -27 95.5 -71l-25 -40q54 -75 54 -180q0 -80 -32 -143t-88.5 -98t-128.5 -35q-62 0 -113 26.5t-85 73.5l-19 -42
q-39 49 -58 102t-19 116q0 99 40.5 171t108.5 109.5t151 37.5q61 0 118.5 -27zM522.5 117q54.5 33 85.5 93.5t31 139.5t-31 139.5t-85.5 93.5t-122.5 33t-122.5 -33t-85.5 -93.5t-31 -139.5t31 -139.5t85.5 -93.5t122.5 -33t122.5 33z" />
    <glyph glyph-name="p" unicode="p" horiz-adv-x="689" 
d="M571 640.5q68 -59.5 68 -163.5t-68 -163.5t-184 -59.5h-198v-254h-108v700h306q116 0 184 -59.5zM91 10l44 44v248h250q95 0 147.5 48t52.5 137l44 -19v9q0 99 -65 156t-177 57h-296v-680zM491.5 630q45.5 -22 69.5 -59.5t24 -83.5l-44 -20q-4 -60 -45.5 -93.5
t-112.5 -33.5h-204l-44 -38v350h250q61 0 106.5 -22zM493 384q38 34 38 93t-38 93t-110 34h-194v-254h194q72 0 110 34z" />
    <glyph glyph-name="q" unicode="q" horiz-adv-x="800" 
d="M760 41l-67 -68l-83 82q-43 -33 -97 -51t-113 -18q-98 0 -177.5 46.5t-125.5 129.5t-46 188t46 188t125.5 129.5t177.5 46.5t177.5 -46.5t125.5 -129.5t46 -188q0 -65 -19 -123t-53 -104zM226.5 658q-77.5 -46 -121.5 -126.5t-44 -181.5q0 -67 20 -126t57 -106l45 14
q38 -44 95 -70.5t119 -26.5q53 0 100.5 16.5t86.5 46.5l27 25l82 -82h53l-77 76l-35 34q60 81 60 199q0 64 -18.5 116.5t-55.5 103.5l45 8q-47 59 -115.5 92.5t-149.5 33.5q-96 0 -173.5 -46zM524.5 641q57.5 -27 95.5 -71l-25 -40q54 -75 54 -180q0 -97 -45 -167l-144 143
l-54 -54l54 2l151 -151l-59 3q-65 -52 -152 -52q-62 0 -113 26.5t-85 73.5l-19 -42q-39 49 -58 102t-19 116q0 99 40.5 171t108.5 109.5t151 37.5q61 0 118.5 -27zM639 350q0 79 -31 139.5t-85.5 93.5t-122.5 33t-122.5 -33t-85.5 -93.5t-31 -139.5t31 -139.5t85.5 -93.5
t122.5 -33q79 0 137 44l-145 144l68 68l141 -141q38 63 38 151z" />
    <glyph glyph-name="r" unicode="r" horiz-adv-x="656" 
d="M615 0h-125l-163 295h-138v-295h-108v700h289q72 0 125.5 -25.5t82.5 -70.5t29 -102q0 -74 -44 -125.5t-122 -72.5zM496 10l27 40l-162 292h4q77 0 133 39t56 129l43 -20v12q0 56 -28 98.5t-79.5 66t-119.5 23.5h-279v-680l44 44v288h226l-28 -37zM179 379l-44 -37v311
h232q56 0 98.5 -19t65.5 -51.5t23 -72.5l-45 -20q-2 -54 -40 -82.5t-106 -28.5h-184zM464.5 416.5q34.5 27.5 34.5 80.5t-34.5 81t-101.5 28h-174v-217h174q67 0 101.5 27.5z" />
    <glyph glyph-name="s" unicode="s" horiz-adv-x="651" 
d="M536.5 334q55.5 -50 55.5 -137q0 -57 -31.5 -105.5t-89.5 -77t-135 -28.5q-99 0 -170 44t-100 110l70 75q24 -59 77 -97t122 -38q68 0 108.5 32.5t40.5 80.5q0 53 -42 81.5t-136 46.5q-104 20 -164.5 71t-60.5 135q0 55 30.5 97.5t85 66t124.5 23.5q80 0 143 -33t102 -93
l-70 -69q-28 49 -75 75t-101 26q-59 0 -98 -24t-39 -67q0 -46 44.5 -75.5t138.5 -47.5q115 -22 170.5 -72zM215.5 104.5q-54.5 34.5 -82.5 92.5v-71q10 -22 38 -43.5t71 -35.5t93 -14q59 0 105.5 21t72 55.5t25.5 75.5l44 20q-2 78 -55 124t-163 67q-93 17 -139.5 46.5
t-50.5 74.5l-42 21q0 37 24.5 66t67.5 46t96 17q42 0 79 -12t63 -28.5t36 -30.5v-61l56 55q-39 55 -99 84.5t-134 29.5q-67 0 -119.5 -22.5t-81.5 -62.5t-29 -92v-10l41 21q0 -70 49 -113.5t154 -61.5q105 -17 154 -60t49 -118l-44 18v-10q0 -54 -45 -88.5t-114 -34.5
q-65 0 -119.5 34.5z" />
    <glyph glyph-name="t" unicode="t" horiz-adv-x="576" 
d="M558 700v-98h-216v-602h-108v602h-216v98h540zM548 690h-520v-78l40 39h220l-44 -39v-602l44 44v597h221z" />
    <glyph glyph-name="u" unicode="u" horiz-adv-x="686" 
d="M616 700v-451q0 -83 -35 -142t-96.5 -90t-141.5 -31t-141.5 31t-96.5 90t-35 142v451h108v-448q0 -75 44 -121.5t121 -46.5t121 46.5t44 121.5v448h108zM112 115q32 -57 91.5 -88t139.5 -31h4l-20 39l22 -1q83 0 130.5 39t65 90.5t17.5 94.5v432h-44v-438
q0 -80 -46.5 -128.5t-124.5 -49.5l-20 -39q-73 0 -118.5 34t-65 84.5t-19.5 104.5v432h-44v-441q0 -77 32 -134z" />
    <glyph glyph-name="v" unicode="v" horiz-adv-x="634" 
d="M632 700l-259 -700h-112l-259 700h114l175 -489l26 -89l26 89l175 489h114zM317 10q34 66 50 112l203 568h-46l-172 -482l-35 -118v-80q-34 66 -50 112l-203 568h-48l251 -680h50z" />
    <glyph glyph-name="w" unicode="w" horiz-adv-x="916" 
d="M911 700l-193 -700h-117l-143 552l-143 -552h-117l-193 700h113l124 -485q2 -8 7 -29.5t10 -43.5l10 44t7 30l125 484h114l125 -484q2 -8 7 -30l10 -44q5 22 10 43.5t7 29.5l124 485h113zM206 10h50l-19 54q-24 61 -33 99l-138 527h-47zM259 106v-95l13 36q3 10 16 46.5
t21 69.5l103 406l21 74q4 13 7.5 25t6.5 22h-38l-123 -477zM609 10h45l-14 44q-23 69 -33 109l-107 406q-15 54 -40 121h-2v-99zM657 105v-95l8 19q4 12 21 54.5t26 78.5l138 528h-44l-122 -477z" />
    <glyph glyph-name="x" unicode="x" horiz-adv-x="597" 
d="M593 0h-119l-176 290l-176 -290h-119l234 379l-201 321h117l145 -239l145 239h117l-201 -321zM479 11l28 33l-209 334l195 312h-44l-151 -248v-64l-195 312h-50l195 -312l-228 -367l68 34l210 333v-68z" />
    <glyph glyph-name="y" unicode="y" horiz-adv-x="578" 
d="M574 700l-231 -419v-281h-108v281l-231 419h119l144 -273l9 -18t13 -29q6 15 13 29l9 18l144 273h119zM245 284v-274l44 44v234l221 402h-49l-141 -268q-5 -8 -14.5 -29t-16.5 -37v-68l-220 402h-48z" />
    <glyph glyph-name="z" unicode="z" horiz-adv-x="607" 
d="M566 98v-98h-527v96l386 506h-372v98h495v-98l-383 -504h401zM49 10l33 38h428l46 40h-410l-64 -40l17 46l396 519l43 38v39h-475v-78l40 39h435l-93 -39l-396 -519v-83z" />
    <glyph glyph-name="braceleft" unicode="{" horiz-adv-x="382" 
d="M215 316q-15 -25 -52 -41q37 -16 52 -41t15 -77v-129q0 -84 74 -84h28v-94h-39q-84 0 -124.5 43t-40.5 141v112q0 49 -18.5 67.5t-56.5 18.5v86q38 0 56.5 18.5t18.5 67.5v112q0 98 40.5 141t124.5 43h39v-94h-28q-74 0 -74 -84v-129q0 -52 -15 -77zM120 333.5
q-18 -23.5 -57 -25.5v-32q45 7 80.5 40t35.5 86v140q0 59 31 85t83 26h29v37h-29q-82 0 -118.5 -41t-36.5 -133v-112q0 -47 -18 -70.5zM212.5 215q-7.5 21 -24.5 34t-50 26h-65q64 -9 85 -43t21 -80v-143q0 -56 30 -83.5t86 -28.5h27v37h-18q-41 0 -62.5 24t-21.5 70v129
q0 37 -7.5 58z" />
    <glyph glyph-name="bar" unicode="|" horiz-adv-x="262" 
d="M186 745v-860h-110v860h110zM86 -105l45 45v795h-45v-840z" />
    <glyph glyph-name="braceright" unicode="}" horiz-adv-x="382" 
d="M272.5 336.5q18.5 -18.5 56.5 -18.5v-86q-38 0 -56.5 -18.5t-18.5 -67.5v-112q0 -98 -40.5 -141t-124.5 -43h-39v94h28q74 0 74 84v129q0 52 15 77t52 41q-37 16 -52 41t-15 77v129q0 84 -74 84h-28v94h39q84 0 124.5 -43t40.5 -141v-112q0 -49 18.5 -67.5zM180 317
q18 -27 63 -42l68 2q-49 7 -73 34t-29.5 57.5t-5.5 69.5v96q0 69 -32.5 94t-85.5 25h-25v-37h18q41 0 62.5 -24t21.5 -70v-129q0 -49 18 -76zM262 216.5q18 23.5 57 25.5v33q-44 -8 -80 -36t-36 -83v-143q0 -116 -116 -116h-27v-37h29q82 0 118.5 41t36.5 133v112
q0 47 18 70.5z" />
    <glyph glyph-name="asciitilde" unicode="~" horiz-adv-x="453" 
d="M405 382.5q4 -13.5 4 -25.5q0 -45 -29 -71t-71 -26q-36 0 -57.5 10.5t-48.5 30.5q-31 23 -47 23q-12 0 -20.5 -7t-8.5 -18q0 -10 7 -24l-77 -15q-5 8 -9 21.5t-4 25.5q0 45 29 71t71 26q36 0 57.5 -10.5t48.5 -30.5q29 -23 45 -23q14 0 22.5 6.5t8.5 18.5q0 10 -7 24
l77 15q5 -8 9 -21.5zM62 271l29 5q-6 17 -6 36q0 24 18 38t46 14q31 0 78 -32q26 -17 41 -24.5t37 -7.5q29 0 45.5 14.5t16.5 35.5q0 17 -5 37l-29 -5q3 -9 3 -17q0 -15 -11 -25t-27 -10q-15 0 -26.5 6.5t-27.5 19.5q-23 18 -44.5 28t-55.5 10q-40 0 -65 -24.5t-25 -62.5
q0 -20 8 -36z" />
    <glyph glyph-name="uni00A0" unicode="&#xa0;" horiz-adv-x="276" 
 />
    <glyph glyph-name="exclamdown" unicode="&#xa1;" horiz-adv-x="274" 
d="M193 496v-119h-112v119h112zM91 387h46v99h-46v-99zM178 298l13 -269v-233h-108v233l13 269h82zM93 -194l44 42v440h-31l-13 -259v-223z" />
    <glyph glyph-name="cent" unicode="&#xa2;" horiz-adv-x="570" 
d="M531 129q-61 -122 -185 -140v-99h-86v99q-61 9 -110 44.5t-76.5 91t-27.5 123.5t28.5 123t77 90.5t108.5 45.5v113h86v-113q65 -9 111.5 -43t69.5 -89l-81 -54q-37 74 -100 90v-326q35 9 60 32.5t46 62.5zM270 -100l33 28v105q50 0 92 20.5t61 50.5v62q-24 -42 -53 -64.5
t-67 -28.5l-33 -40v428q48 0 87 -17.5t60 -44.5v-64l65 44q-24 51 -70 81.5t-109 37.5l-33 -37v149h-33v-112q-62 -8 -111 -43t-76 -89t-27 -118v-8l42 20q-3 -54 19.5 -106.5t70 -86.5t115.5 -34l-33 -36v-97zM177 129.5q-35 45.5 -37 111.5l-42 19q2 53 24 98.5t67.5 74
t113.5 28.5l-33 -38v-349q-58 10 -93 55.5zM260 410q-49 -14 -79.5 -56.5t-30.5 -105.5q0 -64 30 -106.5t80 -55.5v324z" />
    <glyph glyph-name="sterling" unicode="&#xa3;" horiz-adv-x="571" 
d="M215.5 163q-12.5 -36 -35.5 -71h340v-92h-453v76q33 43 46 80.5t13 86.5q0 37 -6 65h-89v80h69q-18 60 -18 111q0 65 30.5 114t83 75t115.5 26q66 0 115.5 -23.5t76 -63.5t26.5 -90q0 -36 -15 -69l-97 16q10 26 10 48q0 40 -32.5 66t-85.5 26q-56 0 -89.5 -33.5
t-33.5 -91.5q0 -29 4.5 -53.5t13.5 -57.5h191v-80h-173q6 -24 6 -61q0 -48 -12.5 -84zM161 82l-42 -36v23q34 49 49 90t15 80q0 25 -5 48t-15 60h185l37 31h-189l-33 -31q-14 45 -22 77.5t-8 71.5q0 79 46.5 126t132.5 47q55 0 92 -20t54.5 -51.5t17.5 -65.5l-46 -40l78 -13
q11 26 11 58q0 49 -26 87t-73.5 59t-108.5 21q-64 0 -113.5 -26t-77.5 -72.5t-28 -106.5q0 -34 6 -62t16 -59h-73v-60l36 29h86l-35 -29q8 -35 8 -75q0 -50 -13.5 -88.5t-45.5 -81.5v-63l42 36h355l36 36h-349z" />
    <glyph glyph-name="currency" unicode="&#xa4;" horiz-adv-x="644" 
d="M509 226l71 -72l-62 -62l-72 72q-57 -37 -124 -37t-124 37l-72 -72l-62 62l71 72q-35 53 -35 124q0 72 35 124l-71 72l62 62l72 -72q57 37 124 37t124 -37l72 72l62 -62l-71 -72q35 -52 35 -124q0 -71 -35 -124zM197 523l-4 -43q49 52 129 52q81 0 129 -53l91 91l-24 24
l-71 -71q-57 40 -125 40t-125 -40zM518 106l24 24l-91 91q28 32 38.5 65.5t10.5 68.5l34 -15v10q0 73 -38 125l-44 4q25 -28 36.5 -63t11.5 -61l-34 -15q-4 -62 -43.5 -101.5t-100.5 -39.5q-63 0 -103.5 42.5t-40.5 108.5v2l-34 -15q-2 38 10.5 76.5t37.5 66.5l-90 90
l-24 -24l70 -71q-38 -50 -38 -123l34 -15q2 -31 16 -65.5t33 -50.5l-45 4l-70 -71l24 -24l91 91q49 -53 129 -53q76 0 129 53l-4 -44zM225.5 451.5q-37.5 -39.5 -37.5 -101.5t37.5 -101.5t96.5 -39.5t96.5 39.5t37.5 101.5t-37.5 101.5t-96.5 39.5t-96.5 -39.5z" />
    <glyph glyph-name="yen" unicode="&#xa5;" horiz-adv-x="580" 
d="M387 363h104v-82h-147v-70h147v-82h-147v-129h-108v129h-147v82h147v70h-147v82h104l-178 337h119l134 -273q2 -4 8.5 -18t13.5 -32q7 18 13.5 32t8.5 18l134 273h119zM370 353l-80 -31q19 12 34.5 30t31.5 50l145 288h-49l-131 -267q-2 -5 -10.5 -21.5t-20.5 -43.5v-36
q-22 13 -35.5 30.5t-30.5 49.5l-145 288h-47l178 -337h-111v-62l35 31h156l-44 -31v-90h-147v-62l35 31h155l-43 -31v-129l43 37v123h157l35 31h-147l-45 -31l1 152h156l35 31h-111z" />
    <glyph glyph-name="brokenbar" unicode="&#xa6;" horiz-adv-x="262" 
d="M186 745v-366h-110v366h110zM86 389l45 45v301h-45v-346zM76 251h110v-366h-110v366zM86 -105l45 45v301h-45v-346z" />
    <glyph glyph-name="section" unicode="&#xa7;" horiz-adv-x="523" 
d="M413 185q47 -45 47 -111q0 -52 -26.5 -90t-70.5 -57.5t-97 -19.5q-76 0 -131.5 37.5t-82.5 98.5l74 53q22 -53 58.5 -80t83.5 -27q41 0 70 21.5t29 57.5q0 38 -33 65.5t-112 43.5q-82 17 -122.5 57t-40.5 100q0 59 50 101q-46 44 -46 112q0 52 26.5 90t70.5 57.5t97 19.5
q76 0 131.5 -37.5t82.5 -98.5l-74 -53q-22 53 -58.5 80t-83.5 27q-41 0 -70 -21.5t-29 -57.5q0 -38 33 -65.5t112 -43.5q82 -17 122.5 -57t40.5 -100q0 -58 -51 -102zM69 334v-11l35 18q0 -42 29 -74.5t107 -50.5q65 -16 104 -37q68 38 75 96l35 16q-3 111 -155 143
q-71 15 -108.5 40.5t-43.5 63.5l-37 18q-1 52 41 84t107 32q53 0 86 -17t57 -46v-69l57 41q-28 59 -80.5 91t-120.5 32q-82 0 -133 -43.5t-51 -113.5v-10l37 19q1 -34 14.5 -62t48.5 -50l-48 -10q-56 -39 -56 -100zM122.5 396.5q18.5 28.5 50.5 47.5q18 -11 42 -20t83 -25
q68 -19 95.5 -47.5t25.5 -76.5l-35 15q1 -5 1 -14q0 -34 -33 -61q-41 17 -78 26q-60 14 -92.5 34t-40.5 48l-37 18q0 27 18.5 55.5zM375 276q0 32 -29.5 54.5t-99.5 39.5q-42 9 -73 24q-25 -22 -25 -49q0 -32 29.5 -54.5t99.5 -39.5q39 -10 73 -24q25 22 25 49zM146 375
l-3 -5zM398 185l-54 -6q70 -39 70 -105q0 -11 -1 -16l-36 15v-5q0 -39 -31 -64t-78 -25q-48 0 -85.5 26t-60.5 76l-1 -55q44 -77 147 -77q62 0 99 25t46 84l37 17q0 65 -52 110z" />
    <glyph glyph-name="dieresis" unicode="&#xa8;" horiz-adv-x="402" 
d="M64 690h105v-108h-105v108zM338 690v-108h-105v108h105zM74 592h43v88h-43v-88zM243 592h43v88h-43v-88z" />
    <glyph glyph-name="copyright" unicode="&#xa9;" horiz-adv-x="838" 
d="M601.5 665q83.5 -49 132.5 -132.5t49 -182.5t-49 -182.5t-132.5 -132.5t-182.5 -49t-182.5 49t-132.5 132.5t-49 182.5t49 182.5t132.5 132.5t182.5 49t182.5 -49zM241.5 656.5q-81.5 -47.5 -129 -129t-47.5 -177.5q0 -63 21.5 -121t59.5 -105l27 8q105 -110 246 -110
q78 0 153.5 38t124.5 112t49 176q0 74 -22.5 124t-61.5 98l30 6q-50 60 -121 94t-152 34q-96 0 -177.5 -47.5zM133.5 510q41.5 77 116 122.5t168.5 45.5q62 0 110.5 -19t75.5 -39.5t58 -49.5l-15 -23q34 -40 53 -91t19 -106q0 -82 -40.5 -151.5t-109 -110t-150.5 -40.5
q-69 0 -130 29.5t-103 81.5l-13 -27q-38 50 -59.5 99.5t-21.5 111.5q0 90 41.5 167zM564.5 97.5q66.5 39.5 105.5 106.5t39 146t-39 146t-105.5 106.5t-145.5 39.5t-145.5 -39.5t-105.5 -106.5t-39 -146t39 -146t105.5 -106.5t145.5 -39.5t145.5 39.5zM489.5 238.5
q26.5 19.5 47.5 58.5l61 -40q-27 -54 -72 -82.5t-105 -28.5q-56 0 -102 26t-72.5 72.5t-26.5 105.5t27 105.5t73.5 72.5t100.5 26q63 0 108 -28t66 -77l-63 -42q-36 74 -111 74q-51 0 -85.5 -35.5t-34.5 -95.5t34 -95.5t86 -35.5q42 0 68.5 19.5zM540 283
q-22 -39 -50.5 -56.5t-68.5 -17.5q-57 0 -92.5 37.5t-37.5 99.5l-31 14q6 72 51.5 115t110.5 43q43 0 71 -15.5t43 -35.5v-46l46 32q-20 44 -62 67.5t-99 23.5q-54 0 -97.5 -25.5t-68.5 -70t-25 -98.5v-3l30 13q-3 -49 16 -89.5t57.5 -64t89.5 -23.5q44 0 68.5 13.5
t48.5 39.5v47z" />
    <glyph glyph-name="guillemotleft" unicode="&#xab;" horiz-adv-x="552" 
d="M165 275l159 -206h-117l-163 206l163 206h117zM360 275l159 -206h-117l-163 206l163 206h117zM152 275h-47l152 196h-45l-155 -196h48l152 -196h47zM347 275h-47l152 196h-45l-155 -196h48l152 -196h47z" />
    <glyph glyph-name="logicalnot" unicode="&#xac;" horiz-adv-x="542" 
d="M472 406v-219h-98v137h-330v82h428zM462 396h-408v-62l39 33h330l-39 -33v-137l39 33v137z" />
    <glyph glyph-name="uni00AD" unicode="&#xad;" horiz-adv-x="462" 
d="M423 357v-92h-384v92h384zM49 275l40 36h283l41 36h-364v-72z" />
    <glyph glyph-name="registered" unicode="&#xae;" horiz-adv-x="838" 
d="M601.5 665q83.5 -49 132.5 -132.5t49 -182.5t-49 -182.5t-132.5 -132.5t-182.5 -49t-182.5 49t-132.5 132.5t-49 182.5t49 182.5t132.5 132.5t182.5 49t182.5 -49zM241.5 656.5q-81.5 -47.5 -129 -129t-47.5 -177.5q0 -63 21.5 -121t59.5 -105l27 8q105 -110 246 -110
q78 0 153.5 38t124.5 112t49 176q0 74 -22.5 124t-61.5 98l30 6q-50 60 -121 94t-152 34q-96 0 -177.5 -47.5zM133.5 510q41.5 77 116 122.5t168.5 45.5q62 0 110.5 -19t75.5 -39.5t58 -49.5l-15 -23q34 -40 53 -91t19 -106q0 -82 -40.5 -151.5t-109 -110t-150.5 -40.5
q-69 0 -130 29.5t-103 81.5l-13 -27q-38 50 -59.5 99.5t-21.5 111.5q0 90 41.5 167zM564.5 97.5q66.5 39.5 105.5 106.5t39 146t-39 146t-105.5 106.5t-145.5 39.5t-145.5 -39.5t-105.5 -106.5t-39 -146t39 -146t105.5 -106.5t145.5 -39.5t145.5 39.5zM549.5 360
q-25.5 -30 -71.5 -43l96 -166h-82l-95 164h-46v-164h-74v398h166q61 0 96.5 -32.5t35.5 -82.5q0 -44 -25.5 -74zM287 161l27 22v163h107q62 -1 90.5 23.5t26.5 72.5l27 -12v4q0 47 -33.5 76t-88.5 29h-156v-378zM513.5 492.5q24.5 -24.5 24.5 -50.5l-25 -12q0 -30 -21 -47
t-59 -17h-92l-27 -20v171h120q55 0 79.5 -24.5zM485.5 391.5q17.5 15.5 17.5 39.5t-17.5 39.5t-52.5 15.5h-82v-110h82q35 0 52.5 15.5zM498 161l19 21l-97 163l-16 -21z" />
    <glyph glyph-name="macron" unicode="&#xaf;" horiz-adv-x="322" 
d="M278 676v-82h-234v82h234zM268 666h-214v-62l31 31h152z" />
    <glyph glyph-name="degree" unicode="&#xb0;" horiz-adv-x="358" 
d="M249.5 695.5q31.5 -18.5 49.5 -49.5t18 -69t-18 -69t-49.5 -49.5t-70.5 -18.5t-70.5 18.5t-49.5 49.5t-18 69t18 69t49.5 49.5t70.5 18.5t70.5 -18.5zM88 667.5q-37 -36.5 -37 -90.5q0 -29 13 -57l26 4q1 -2 11 -15.5t31 -23.5t47 -10q35 0 58 16t34 39.5t11 45.5
q0 18 -3.5 29t-10.5 25l26 4q-16 32 -46.5 51t-68.5 19q-54 0 -91 -36.5zM223 670q18 -9 26 -17.5t19 -22.5l-16 -25q4 -12 4 -28q0 -35 -21.5 -56.5t-55.5 -21.5q-27 0 -46 13.5t-27 36.5l-16 -25q-7 14 -10.5 25.5t-3.5 29.5q0 20 11 43.5t34 40t57 16.5q27 0 45 -9z
M227.5 528q18.5 19 18.5 49t-18.5 49t-48.5 19t-48.5 -19t-18.5 -49t18.5 -49t48.5 -19t48.5 19z" />
    <glyph glyph-name="plusminus" unicode="&#xb1;" horiz-adv-x="535" 
d="M491 436v-82h-183v-183h-82v183h-182v82h182v182h82v-182h183zM481 426h-183l-31 -31v213h-31v-182h-182v-62l27 31h186l-31 -31v-183l31 27v187h187zM491 82v-82h-447v82h447zM54 10l35 31h356l36 31h-427v-62z" />
    <glyph glyph-name="acute" unicode="&#xb4;" horiz-adv-x="313" 
d="M255 703l-112 -148h-85l66 148h131zM73 565l49 32l57 96h-49z" />
    <glyph glyph-name="uni00B5" unicode="&#xb5;" horiz-adv-x="584" 
d="M514 496v-496h-102v76q-23 -43 -65 -66.5t-96 -23.5q-47 0 -82 19q3 -33 3 -71v-138h-102v700h102v-298q0 -57 28.5 -87.5t81.5 -30.5q36 0 66 19t47 53t17 76v268h102zM422 10l41 36v440h-41v-258q0 -44 -18.5 -80.5t-50.5 -57t-71 -20.5q-51 0 -82 27t-37 77l-42 -42
l-1 354h-40v-680l41 36v290q21 -47 57.5 -74.5t85.5 -27.5q46 0 84 22t73 90v-33z" />
    <glyph glyph-name="paragraph" unicode="&#xb6;" horiz-adv-x="638" 
d="M604 700v-88h-58v-732h-98v732h-74v-732h-98v430h-19q-62 0 -111 23.5t-77 68t-28 103.5t28 103.5t77 68t111 23.5h347zM594 690h-337q-80 0 -134 -38t-68 -104l44 12q-8 -32 -8 -64q0 -80 53.5 -113.5t135.5 -33.5q15 0 45 2l-39 -31v-430l39 38v723h172l-39 -29v-732
l39 38v723h58zM148.5 623q37.5 28 107.5 28h69l-39 -29v-240q-77 -2 -117 28.5t-40 92.5q0 9 2 25l-32 32q12 35 49.5 63zM276 612q-137 0 -137 -109q0 -111 137 -111v220z" />
    <glyph glyph-name="periodcentered" unicode="&#xb7;" horiz-adv-x="202" 
d="M163 426v-126h-124v126h124zM49 310h52v106h-52v-106z" />
    <glyph glyph-name="cedilla" unicode="&#xb8;" horiz-adv-x="300" 
d="M219 -65.5q22 -21.5 22 -55.5q0 -39 -27 -61t-66 -22q-34 0 -58 16t-31 44l57 15q3 -10 12 -17t21 -7q13 0 21 8.5t8 22.5q0 15 -9 23.5t-24 8.5q-25 0 -45 -18l-34 31l33 93h62l-34 -61l4 -4q17 5 33 5q33 0 55 -21.5zM78 -74l11 -10l35 90h-18zM126.5 -157
q-10.5 6 -16.5 16l-19 -5q21 -34 59 -34q24 0 42 17t18 42q0 26 -15.5 40.5t-41.5 14.5q-17 0 -29.5 -4.5t-33.5 -15.5l10 -9q21 15 45 15q19 0 31 -11.5t12 -30.5q0 -18 -11 -29.5t-28 -11.5q-12 0 -22.5 6z" />
    <glyph glyph-name="guillemotright" unicode="&#xbb;" horiz-adv-x="552" 
d="M313 275l-163 -206h-117l159 206l-159 206h117zM508 275l-163 -206h-117l159 206l-159 206h117zM300 275h-48l-152 196h-47l152 -196h47l-152 -196h45zM495 275h-48l-152 196h-47l152 -196h47l-152 -196h45z" />
    <glyph glyph-name="questiondown" unicode="&#xbf;" horiz-adv-x="543" 
d="M337 377h-112v119h112v-119zM235 387h47v99h-47v-99zM497 -22q0 -51 -28 -96t-78.5 -72.5t-116.5 -27.5q-69 0 -119.5 24t-77.5 66.5t-27 96.5q0 62 27 107t100 107q29 24 40 49t11 62h106v-17q0 -42 -20 -77t-69 -75q-53 -44 -73 -75.5t-20 -74.5q0 -45 33.5 -72
t87.5 -27q52 0 87 29t35 81q0 20 -5 42l95 19q12 -28 12 -69zM86 71.5q-26 -43.5 -26 -102.5v-13l41 16q0 -72 51.5 -107.5t122.5 -35.5q42 0 80.5 16t63.5 50.5t25 86.5q0 18 -5 46l-37 -8q3 -18 3 -34q0 -54 -36.5 -87t-95.5 -33q-52 0 -86.5 24t-42.5 65l-43 17
q1 43 13 71.5t34.5 52t78.5 74.5q50 46 54 114h-43q-2 -35 -14.5 -60t-40.5 -49q-71 -60 -97 -103.5z" />
    <glyph glyph-name="Agrave" unicode="&#xc0;" horiz-adv-x="680" 
d="M674 0h-114l-75 195h-290l-75 -195h-114l280 700h108zM520 243l-180 447v-85q12 -37 33 -91l90 -235h-235l-69 -36l177 447h-43l-272 -680l61 36l77 197h361zM332 554q-6 -18 -16 -44l-85 -221h218l-85 221q-10 26 -16 44t-8 23q-2 -5 -8 -23zM567 10l33 36l-79 197
l-29 -38zM408 759h-85l-112 148h131zM328 769l16 32l-57 96h-56z" />
    <glyph glyph-name="Aacute" unicode="&#xc1;" horiz-adv-x="680" 
d="M674 0h-114l-75 195h-290l-75 -195h-114l280 700h108zM520 243l-180 447v-85q12 -37 33 -91l90 -235h-235l-69 -36l177 447h-43l-272 -680l61 36l77 197h361zM332 554q-6 -18 -16 -44l-85 -221h218l-85 221q-10 26 -16 44t-8 23q-2 -5 -8 -23zM567 10l33 36l-79 197
l-29 -38zM469 907l-112 -148h-85l66 148h131zM287 769l49 32l57 96h-49z" />
    <glyph glyph-name="Acircumflex" unicode="&#xc2;" horiz-adv-x="680" 
d="M674 0h-114l-75 195h-290l-75 -195h-114l280 700h108zM520 243l-180 447v-85q12 -37 33 -91l90 -235h-235l-69 -36l177 447h-43l-272 -680l61 36l77 197h361zM332 554q-6 -18 -16 -44l-85 -221h218l-85 221q-10 26 -16 44t-8 23q-2 -5 -8 -23zM567 10l33 36l-79 197
l-29 -38zM484 759h-82l-63 65l-63 -65h-81l104 148h80zM214 769h31l93 128h-34zM406 769h30l-96 128h-1v-59z" />
    <glyph glyph-name="Atilde" unicode="&#xc3;" horiz-adv-x="680" 
d="M674 0h-114l-75 195h-290l-75 -195h-114l280 700h108zM520 243l-180 447v-85q12 -37 33 -91l90 -235h-235l-69 -36l177 447h-43l-272 -680l61 36l77 197h361zM332 554q-6 -18 -16 -44l-85 -221h218l-85 221q-10 26 -16 44t-8 23q-2 -5 -8 -23zM567 10l33 36l-79 197
l-29 -38zM512 845q0 -39 -27.5 -62t-65.5 -23q-36 0 -57.5 10.5t-45.5 30.5q-31 25 -50 25q-11 0 -18 -6.5t-7 -17.5q0 -12 7 -26l-67 -14q-13 22 -13 51q0 39 27.5 62t65.5 23q36 0 58 -10.5t45 -30.5q19 -16 30 -20.5t20 -4.5q11 0 18 6.5t7 17.5q0 12 -7 26l67 14
q13 -22 13 -51zM186 773l25 5q-6 15 -6 35q0 21 16 35t42 14q23 0 40.5 -8t37.5 -26q18 -16 34.5 -24t40.5 -8q26 0 43 14.5t17 34.5q0 23 -5 35l-25 -5q3 -10 3 -19q0 -15 -9.5 -24.5t-25.5 -9.5t-28.5 7t-28.5 20q-22 19 -42 29t-54 10q-36 0 -59.5 -21t-23.5 -54
q0 -21 8 -40z" />
    <glyph glyph-name="Adieresis" unicode="&#xc4;" horiz-adv-x="680" 
d="M674 0h-114l-75 195h-290l-75 -195h-114l280 700h108zM520 243l-180 447v-85q12 -37 33 -91l90 -235h-235l-69 -36l177 447h-43l-272 -680l61 36l77 197h361zM332 554q-6 -18 -16 -44l-85 -221h218l-85 221q-10 26 -16 44t-8 23q-2 -5 -8 -23zM567 10l33 36l-79 197
l-29 -38zM203 894h105v-108h-105v108zM477 894v-108h-105v108h105zM213 796h43v88h-43v-88zM382 796h43v88h-43v-88z" />
    <glyph glyph-name="Aring" unicode="&#xc5;" horiz-adv-x="680" 
d="M674 0h-114l-75 195h-290l-75 -195h-114l280 700h108zM520 243l-180 447v-85q12 -37 33 -91l90 -235h-235l-69 -36l177 447h-43l-272 -680l61 36l77 197h361zM332 554q-6 -18 -16 -44l-85 -221h218l-85 221q-10 26 -16 44t-8 23q-2 -5 -8 -23zM567 10l33 36l-79 197
l-29 -38zM408 906.5q28 -27.5 28 -67.5t-28 -67.5t-68 -27.5t-68 27.5t-28 67.5t28 67.5t68 27.5t68 -27.5zM279 899q-25 -25 -25 -60q0 -26 14 -46l22 -2q18 -21 50 -21q29 0 49.5 20t20.5 47q0 29 -19 50l21 -2q-11 18 -30.5 28.5t-41.5 10.5q-36 0 -61 -25zM291 888.5
q21 19.5 49 19.5q30 0 51 -21l-11 -18q9 -12 9 -30q0 -22 -14 -36t-35 -14q-25 0 -40 20l-10 -18q-20 20 -20 49t21 48.5zM368 810.5q11 11.5 11 28.5t-11 28.5t-28 11.5t-28 -11.5t-11 -28.5t11 -28.5t28 -11.5t28 11.5z" />
    <glyph glyph-name="AE" unicode="&#xc6;" horiz-adv-x="959" 
d="M897 96v-96h-463v195h-230l-85 -195h-113l314 700h574v-96h-352v-194h324v-96h-324v-218h355zM887 86h-355l-44 -38v314h324l44 38h-324l-44 -38v290h353l43 38h-558l-305 -680l60 35l90 199l317 -1l-44 -39v-194l44 38h355zM231 280l-60 -36l183 407l134 1l-44 -38v-335
h-213v1zM434 604h-50l-138 -315h188v315z" />
    <glyph glyph-name="Ccedilla" unicode="&#xc7;" horiz-adv-x="757" 
d="M611 189l75 -75q-53 -66 -122 -97t-166 -31q-99 0 -178 46.5t-124 129.5t-45 188t47 188t127.5 129.5t177.5 46.5q91 0 164.5 -34.5t118.5 -95.5l-76 -80q-40 59 -91 85.5t-118 26.5q-65 0 -120.5 -34.5t-87.5 -95.5t-32 -136t31 -136t85.5 -95.5t122.5 -34.5
q140 0 211 105zM612 174q-74 -100 -212 -100q-69 0 -125 34.5t-89 95.5t-35 137v-1l-45 20q0 83 39 153t106 111t148 41q132 0 212 -74v-71l62 65q-44 57 -114.5 88t-155.5 31q-96 0 -174.5 -46.5t-123 -127t-44.5 -180.5v-10l45 20q0 -92 39 -166.5t106 -116.5t148 -42
q68 0 120 18.5t93 56.5v64zM472 -65.5q22 -21.5 22 -55.5q0 -39 -27 -61t-66 -22q-34 0 -58 16t-31 44l57 15q3 -10 12 -17t21 -7q13 0 21 8.5t8 22.5q0 15 -9 23.5t-24 8.5q-25 0 -45 -18l-34 31l33 93h62l-34 -61l4 -4q17 5 33 5q33 0 55 -21.5zM331 -74l11 -10l35 90h-18
zM379.5 -157q-10.5 6 -16.5 16l-19 -5q21 -34 59 -34q24 0 42 17t18 42q0 26 -15.5 40.5t-41.5 14.5q-17 0 -29.5 -4.5t-33.5 -15.5l10 -9q21 15 45 15q19 0 31 -11.5t12 -30.5q0 -18 -11 -29.5t-28 -11.5q-12 0 -22.5 6z" />
    <glyph glyph-name="Egrave" unicode="&#xc8;" horiz-adv-x="606" 
d="M544 96v-96h-463v700h460v-96h-352v-194h324v-96h-324v-218h355zM91 10l44 38h355l44 38h-352l-47 -38v314h324l44 38h-320l-48 -38v290h353l43 38h-440v-680zM383 759h-85l-112 148h131zM303 769l16 32l-57 96h-56z" />
    <glyph glyph-name="Eacute" unicode="&#xc9;" horiz-adv-x="606" 
d="M544 96v-96h-463v700h460v-96h-352v-194h324v-96h-324v-218h355zM91 10l44 38h355l44 38h-352l-47 -38v314h324l44 38h-320l-48 -38v290h353l43 38h-440v-680zM444 907l-112 -148h-85l66 148h131zM262 769l49 32l57 96h-49z" />
    <glyph glyph-name="Ecircumflex" unicode="&#xca;" horiz-adv-x="606" 
d="M544 96v-96h-463v700h460v-96h-352v-194h324v-96h-324v-218h355zM91 10l44 38h355l44 38h-352l-47 -38v314h324l44 38h-320l-48 -38v290h353l43 38h-440v-680zM459 759h-82l-63 65l-63 -65h-81l104 148h80zM189 769h31l93 128h-34zM381 769h30l-96 128h-1v-59z" />
    <glyph glyph-name="Edieresis" unicode="&#xcb;" horiz-adv-x="606" 
d="M544 96v-96h-463v700h460v-96h-352v-194h324v-96h-324v-218h355zM91 10l44 38h355l44 38h-352l-47 -38v314h324l44 38h-320l-48 -38v290h353l43 38h-440v-680zM178 894h105v-108h-105v108zM452 894v-108h-105v108h105zM188 796h43v88h-43v-88zM357 796h43v88h-43v-88z
" />
    <glyph glyph-name="Igrave" unicode="&#xcc;" horiz-adv-x="330" 
d="M41 94h70v512h-70v94h248v-94h-70v-512h70v-94h-248v94zM95 47h140l44 37h-70l-44 -37v606h70l44 37h-228v-74l44 37h70l-44 -37v-532h-70v-74zM233 759h-85l-112 148h131zM153 769l16 32l-57 96h-56z" />
    <glyph glyph-name="Iacute" unicode="&#xcd;" horiz-adv-x="330" 
d="M41 94h70v512h-70v94h248v-94h-70v-512h70v-94h-248v94zM95 47h140l44 37h-70l-44 -37v606h70l44 37h-228v-74l44 37h70l-44 -37v-532h-70v-74zM294 907l-112 -148h-85l66 148h131zM112 769l49 32l57 96h-49z" />
    <glyph glyph-name="Icircumflex" unicode="&#xce;" horiz-adv-x="330" 
d="M41 94h70v512h-70v94h248v-94h-70v-512h70v-94h-248v94zM95 47h140l44 37h-70l-44 -37v606h70l44 37h-228v-74l44 37h70l-44 -37v-532h-70v-74zM309 759h-82l-63 65l-63 -65h-81l104 148h80zM39 769h31l93 128h-34zM231 769h30l-96 128h-1v-59z" />
    <glyph glyph-name="Idieresis" unicode="&#xcf;" horiz-adv-x="330" 
d="M41 94h70v512h-70v94h248v-94h-70v-512h70v-94h-248v94zM95 47h140l44 37h-70l-44 -37v606h70l44 37h-228v-74l44 37h70l-44 -37v-532h-70v-74zM28 894h105v-108h-105v108zM302 894v-108h-105v108h105zM38 796h43v88h-43v-88zM207 796h43v88h-43v-88z" />
    <glyph glyph-name="Eth" unicode="&#xd0;" horiz-adv-x="736" 
d="M507.5 659.5q83.5 -40.5 130.5 -119t47 -190.5t-47 -190.5t-130.5 -119t-191.5 -40.5h-202v305h-77v90h77v305h202q108 0 191.5 -40.5zM124 10l44 39h137q152 0 238.5 77.5t86.5 233.5l45 -21v11q0 105 -43.5 181.5t-124.5 117.5t-191 41h-192v-305h-77v-70l42 35h79
l-44 -35v-305zM168 49v301h156l42 35h-154l-44 -35v301h143q71 0 142.5 -22.5t124 -87.5t52.5 -181l-45 -20q-3 -120 -73 -186t-194 -66h-106zM376 395v-90h-154v-207h96q118 0 187.5 64t69.5 188t-69.5 188t-187.5 64h-96v-207h154z" />
    <glyph glyph-name="Ntilde" unicode="&#xd1;" horiz-adv-x="720" 
d="M639 700v-700h-110l-314 488q-4 6 -14.5 23.5t-14.5 27.5l-1 -529v-10h-104v700h110l314 -488q4 -6 15 -25t15 -28v541h104zM91 10l42 42v638h-42v-680zM545 690v-551l42 -66v617h-42zM534 10l28 28l-376 571v-54q37 -61 37 -62zM532 845q0 -39 -27.5 -62t-65.5 -23
q-36 0 -57.5 10.5t-45.5 30.5q-31 25 -50 25q-11 0 -18 -6.5t-7 -17.5q0 -12 7 -26l-67 -14q-13 22 -13 51q0 39 27.5 62t65.5 23q36 0 58 -10.5t45 -30.5q19 -16 30 -20.5t20 -4.5q11 0 18 6.5t7 17.5q0 12 -7 26l67 14q13 -22 13 -51zM206 773l25 5q-6 15 -6 35
q0 21 16 35t42 14q23 0 40.5 -8t37.5 -26q18 -16 34.5 -24t40.5 -8q26 0 43 14.5t17 34.5q0 23 -5 35l-25 -5q3 -10 3 -19q0 -15 -9.5 -24.5t-25.5 -9.5t-28.5 7t-28.5 20q-22 19 -42 29t-54 10q-36 0 -59.5 -21t-23.5 -54q0 -21 8 -40z" />
    <glyph glyph-name="Ograve" unicode="&#xd2;" horiz-adv-x="800" 
d="M577.5 667.5q79.5 -46.5 125.5 -129.5t46 -188t-46 -188t-125.5 -129.5t-177.5 -46.5t-177.5 46.5t-125.5 129.5t-46 188t46 188t125.5 129.5t177.5 46.5t177.5 -46.5zM226.5 658q-77.5 -46 -121.5 -126.5t-44 -181.5q0 -67 20 -126t57 -106l45 14q38 -44 95 -70.5
t119 -26.5q81 0 149 38t108 109.5t40 167.5q0 64 -18.5 116.5t-55.5 103.5l45 8q-47 59 -115.5 92.5t-149.5 33.5q-96 0 -173.5 -46zM524.5 641q57.5 -27 95.5 -71l-25 -40q54 -75 54 -180q0 -80 -32 -143t-88.5 -98t-128.5 -35q-62 0 -113 26.5t-85 73.5l-19 -42
q-39 49 -58 102t-19 116q0 99 40.5 171t108.5 109.5t151 37.5q61 0 118.5 -27zM522.5 117q54.5 33 85.5 93.5t31 139.5t-31 139.5t-85.5 93.5t-122.5 33t-122.5 -33t-85.5 -93.5t-31 -139.5t31 -139.5t85.5 -93.5t122.5 -33t122.5 33zM468 759h-85l-112 148h131zM388 769
l16 32l-57 96h-56z" />
    <glyph glyph-name="Oacute" unicode="&#xd3;" horiz-adv-x="800" 
d="M577.5 667.5q79.5 -46.5 125.5 -129.5t46 -188t-46 -188t-125.5 -129.5t-177.5 -46.5t-177.5 46.5t-125.5 129.5t-46 188t46 188t125.5 129.5t177.5 46.5t177.5 -46.5zM226.5 658q-77.5 -46 -121.5 -126.5t-44 -181.5q0 -67 20 -126t57 -106l45 14q38 -44 95 -70.5
t119 -26.5q81 0 149 38t108 109.5t40 167.5q0 64 -18.5 116.5t-55.5 103.5l45 8q-47 59 -115.5 92.5t-149.5 33.5q-96 0 -173.5 -46zM524.5 641q57.5 -27 95.5 -71l-25 -40q54 -75 54 -180q0 -80 -32 -143t-88.5 -98t-128.5 -35q-62 0 -113 26.5t-85 73.5l-19 -42
q-39 49 -58 102t-19 116q0 99 40.5 171t108.5 109.5t151 37.5q61 0 118.5 -27zM522.5 117q54.5 33 85.5 93.5t31 139.5t-31 139.5t-85.5 93.5t-122.5 33t-122.5 -33t-85.5 -93.5t-31 -139.5t31 -139.5t85.5 -93.5t122.5 -33t122.5 33zM529 907l-112 -148h-85l66 148h131z
M347 769l49 32l57 96h-49z" />
    <glyph glyph-name="Ocircumflex" unicode="&#xd4;" horiz-adv-x="800" 
d="M577.5 667.5q79.5 -46.5 125.5 -129.5t46 -188t-46 -188t-125.5 -129.5t-177.5 -46.5t-177.5 46.5t-125.5 129.5t-46 188t46 188t125.5 129.5t177.5 46.5t177.5 -46.5zM226.5 658q-77.5 -46 -121.5 -126.5t-44 -181.5q0 -67 20 -126t57 -106l45 14q38 -44 95 -70.5
t119 -26.5q81 0 149 38t108 109.5t40 167.5q0 64 -18.5 116.5t-55.5 103.5l45 8q-47 59 -115.5 92.5t-149.5 33.5q-96 0 -173.5 -46zM524.5 641q57.5 -27 95.5 -71l-25 -40q54 -75 54 -180q0 -80 -32 -143t-88.5 -98t-128.5 -35q-62 0 -113 26.5t-85 73.5l-19 -42
q-39 49 -58 102t-19 116q0 99 40.5 171t108.5 109.5t151 37.5q61 0 118.5 -27zM522.5 117q54.5 33 85.5 93.5t31 139.5t-31 139.5t-85.5 93.5t-122.5 33t-122.5 -33t-85.5 -93.5t-31 -139.5t31 -139.5t85.5 -93.5t122.5 -33t122.5 33zM544 759h-82l-63 65l-63 -65h-81
l104 148h80zM274 769h31l93 128h-34zM466 769h30l-96 128h-1v-59z" />
    <glyph glyph-name="Otilde" unicode="&#xd5;" horiz-adv-x="800" 
d="M577.5 667.5q79.5 -46.5 125.5 -129.5t46 -188t-46 -188t-125.5 -129.5t-177.5 -46.5t-177.5 46.5t-125.5 129.5t-46 188t46 188t125.5 129.5t177.5 46.5t177.5 -46.5zM226.5 658q-77.5 -46 -121.5 -126.5t-44 -181.5q0 -67 20 -126t57 -106l45 14q38 -44 95 -70.5
t119 -26.5q81 0 149 38t108 109.5t40 167.5q0 64 -18.5 116.5t-55.5 103.5l45 8q-47 59 -115.5 92.5t-149.5 33.5q-96 0 -173.5 -46zM524.5 641q57.5 -27 95.5 -71l-25 -40q54 -75 54 -180q0 -80 -32 -143t-88.5 -98t-128.5 -35q-62 0 -113 26.5t-85 73.5l-19 -42
q-39 49 -58 102t-19 116q0 99 40.5 171t108.5 109.5t151 37.5q61 0 118.5 -27zM522.5 117q54.5 33 85.5 93.5t31 139.5t-31 139.5t-85.5 93.5t-122.5 33t-122.5 -33t-85.5 -93.5t-31 -139.5t31 -139.5t85.5 -93.5t122.5 -33t122.5 33zM572 845q0 -39 -27.5 -62t-65.5 -23
q-36 0 -57.5 10.5t-45.5 30.5q-31 25 -50 25q-11 0 -18 -6.5t-7 -17.5q0 -12 7 -26l-67 -14q-13 22 -13 51q0 39 27.5 62t65.5 23q36 0 58 -10.5t45 -30.5q19 -16 30 -20.5t20 -4.5q11 0 18 6.5t7 17.5q0 12 -7 26l67 14q13 -22 13 -51zM246 773l25 5q-6 15 -6 35
q0 21 16 35t42 14q23 0 40.5 -8t37.5 -26q18 -16 34.5 -24t40.5 -8q26 0 43 14.5t17 34.5q0 23 -5 35l-25 -5q3 -10 3 -19q0 -15 -9.5 -24.5t-25.5 -9.5t-28.5 7t-28.5 20q-22 19 -42 29t-54 10q-36 0 -59.5 -21t-23.5 -54q0 -21 8 -40z" />
    <glyph glyph-name="Odieresis" unicode="&#xd6;" horiz-adv-x="800" 
d="M577.5 667.5q79.5 -46.5 125.5 -129.5t46 -188t-46 -188t-125.5 -129.5t-177.5 -46.5t-177.5 46.5t-125.5 129.5t-46 188t46 188t125.5 129.5t177.5 46.5t177.5 -46.5zM226.5 658q-77.5 -46 -121.5 -126.5t-44 -181.5q0 -67 20 -126t57 -106l45 14q38 -44 95 -70.5
t119 -26.5q81 0 149 38t108 109.5t40 167.5q0 64 -18.5 116.5t-55.5 103.5l45 8q-47 59 -115.5 92.5t-149.5 33.5q-96 0 -173.5 -46zM524.5 641q57.5 -27 95.5 -71l-25 -40q54 -75 54 -180q0 -80 -32 -143t-88.5 -98t-128.5 -35q-62 0 -113 26.5t-85 73.5l-19 -42
q-39 49 -58 102t-19 116q0 99 40.5 171t108.5 109.5t151 37.5q61 0 118.5 -27zM522.5 117q54.5 33 85.5 93.5t31 139.5t-31 139.5t-85.5 93.5t-122.5 33t-122.5 -33t-85.5 -93.5t-31 -139.5t31 -139.5t85.5 -93.5t122.5 -33t122.5 33zM263 894h105v-108h-105v108zM537 894
v-108h-105v108h105zM273 796h43v88h-43v-88zM442 796h43v88h-43v-88z" />
    <glyph glyph-name="multiply" unicode="&#xd7;" horiz-adv-x="532" 
d="M324 364l129 -129l-58 -58l-129 130l-129 -129l-58 58l129 128l-129 129l58 58l129 -129l129 130l58 -58zM395 191v45l-129 128l129 128v46l-129 -130l-129 129l-44 -44h43l130 -129h-44l-129 -128l44 -44v44l129 128v-43z" />
    <glyph glyph-name="Oslash" unicode="&#xd8;" horiz-adv-x="800" 
d="M711.5 522q37.5 -77 37.5 -172q0 -105 -46 -188t-125.5 -129.5t-177.5 -46.5q-66 0 -126 23l-30 -57l-81 45l30 56q-66 48 -104 125.5t-38 171.5q0 105 46 188t125.5 129.5t177.5 46.5q69 0 126 -22l30 56l81 -45l-29 -56q66 -48 103.5 -125zM176 1l31 -17l48 87
q41 -19 74.5 -27.5t65.5 -8.5q82 0 150.5 37.5t108.5 109t40 168.5q0 93 -37.5 163.5t-109.5 115.5l45 87l-32 18l-29 -55l-6 2q-58 23 -125 23q-96 0 -173.5 -46t-121.5 -126.5t-44 -181.5q0 -92 37 -167.5t107 -126.5zM474 658.5q37 -9.5 73 -29.5l-54 -20l-250 -479
l12 -59q-149 102 -149 279q0 99 40.5 171t108.5 109.5t151 37.5q31 0 68 -9.5zM255 71l292 558l10 -59q45 -40 68.5 -96t23.5 -124q0 -80 -32 -143t-88.5 -98t-128.5 -35q-30 0 -49 4t-44 14zM481 603q-38 13 -81 13q-68 0 -122.5 -33t-85.5 -93.5t-31 -139.5q0 -65 21 -117
t59 -88zM320 97q36 -13 80 -13q68 0 122.5 33t85.5 93.5t31 139.5q0 64 -21 116.5t-59 88.5z" />
    <glyph glyph-name="Ugrave" unicode="&#xd9;" horiz-adv-x="686" 
d="M616 700v-451q0 -83 -35 -142t-96.5 -90t-141.5 -31t-141.5 31t-96.5 90t-35 142v451h108v-448q0 -75 44 -121.5t121 -46.5t121 46.5t44 121.5v448h108zM112 115q32 -57 91.5 -88t139.5 -31h4l-20 39l22 -1q83 0 130.5 39t65 90.5t17.5 94.5v432h-44v-438
q0 -80 -46.5 -128.5t-124.5 -49.5l-20 -39q-73 0 -118.5 34t-65 84.5t-19.5 104.5v432h-44v-441q0 -77 32 -134zM411 759h-85l-112 148h131zM331 769l16 32l-57 96h-56z" />
    <glyph glyph-name="Uacute" unicode="&#xda;" horiz-adv-x="686" 
d="M616 700v-451q0 -83 -35 -142t-96.5 -90t-141.5 -31t-141.5 31t-96.5 90t-35 142v451h108v-448q0 -75 44 -121.5t121 -46.5t121 46.5t44 121.5v448h108zM112 115q32 -57 91.5 -88t139.5 -31h4l-20 39l22 -1q83 0 130.5 39t65 90.5t17.5 94.5v432h-44v-438
q0 -80 -46.5 -128.5t-124.5 -49.5l-20 -39q-73 0 -118.5 34t-65 84.5t-19.5 104.5v432h-44v-441q0 -77 32 -134zM472 907l-112 -148h-85l66 148h131zM290 769l49 32l57 96h-49z" />
    <glyph glyph-name="Ucircumflex" unicode="&#xdb;" horiz-adv-x="686" 
d="M616 700v-451q0 -83 -35 -142t-96.5 -90t-141.5 -31t-141.5 31t-96.5 90t-35 142v451h108v-448q0 -75 44 -121.5t121 -46.5t121 46.5t44 121.5v448h108zM112 115q32 -57 91.5 -88t139.5 -31h4l-20 39l22 -1q83 0 130.5 39t65 90.5t17.5 94.5v432h-44v-438
q0 -80 -46.5 -128.5t-124.5 -49.5l-20 -39q-73 0 -118.5 34t-65 84.5t-19.5 104.5v432h-44v-441q0 -77 32 -134zM487 759h-82l-63 65l-63 -65h-81l104 148h80zM217 769h31l93 128h-34zM409 769h30l-96 128h-1v-59z" />
    <glyph glyph-name="Udieresis" unicode="&#xdc;" horiz-adv-x="686" 
d="M616 700v-451q0 -83 -35 -142t-96.5 -90t-141.5 -31t-141.5 31t-96.5 90t-35 142v451h108v-448q0 -75 44 -121.5t121 -46.5t121 46.5t44 121.5v448h108zM112 115q32 -57 91.5 -88t139.5 -31h4l-20 39l22 -1q83 0 130.5 39t65 90.5t17.5 94.5v432h-44v-438
q0 -80 -46.5 -128.5t-124.5 -49.5l-20 -39q-73 0 -118.5 34t-65 84.5t-19.5 104.5v432h-44v-441q0 -77 32 -134zM206 894h105v-108h-105v108zM480 894v-108h-105v108h105zM216 796h43v88h-43v-88zM385 796h43v88h-43v-88z" />
    <glyph glyph-name="Yacute" unicode="&#xdd;" horiz-adv-x="578" 
d="M574 700l-231 -419v-281h-108v281l-231 419h119l144 -273l9 -18t13 -29q6 15 13 29l9 18l144 273h119zM245 284v-274l44 44v234l221 402h-49l-141 -268q-5 -8 -14.5 -29t-16.5 -37v-68l-220 402h-48zM418 907l-112 -148h-85l66 148h131zM236 769l49 32l57 96h-49z" />
    <glyph glyph-name="Thorn" unicode="&#xde;" horiz-adv-x="689" 
d="M571 513.5q68 -59.5 68 -163.5t-68 -163.5t-184 -59.5h-198v-127h-108v700h108v-127h198q116 0 184 -59.5zM91 10l44 44v122h246q102 0 153 45.5t51 146.5l44 -18q0 99 -65 156t-177 57h-208l-44 -37v164h-44v-680zM135 177v349h237q95 0 153.5 -40.5t59.5 -117.5
l-44 -18q0 -64 -42 -100.5t-116 -36.5h-204zM493 257q38 34 38 93t-38 93t-110 34h-194v-254h194q72 0 110 34z" />
    <glyph glyph-name="agrave" unicode="&#xe0;" horiz-adv-x="680" 
d="M674 0h-114l-75 195h-290l-75 -195h-114l280 700h108zM520 243l-180 447v-85q12 -37 33 -91l90 -235h-235l-69 -36l177 447h-43l-272 -680l61 36l77 197h361zM332 554q-6 -18 -16 -44l-85 -221h218l-85 221q-10 26 -16 44t-8 23q-2 -5 -8 -23zM567 10l33 36l-79 197
l-29 -38zM398 759h-85l-112 148h131zM318 769l16 32l-57 96h-56z" />
    <glyph glyph-name="aacute" unicode="&#xe1;" horiz-adv-x="680" 
d="M674 0h-114l-75 195h-290l-75 -195h-114l280 700h108zM520 243l-180 447v-85q12 -37 33 -91l90 -235h-235l-69 -36l177 447h-43l-272 -680l61 36l77 197h361zM332 554q-6 -18 -16 -44l-85 -221h218l-85 221q-10 26 -16 44t-8 23q-2 -5 -8 -23zM567 10l33 36l-79 197
l-29 -38zM469 907l-112 -148h-85l66 148h131zM287 769l49 32l57 96h-49z" />
    <glyph glyph-name="acircumflex" unicode="&#xe2;" horiz-adv-x="680" 
d="M674 0h-114l-75 195h-290l-75 -195h-114l280 700h108zM520 243l-180 447v-85q12 -37 33 -91l90 -235h-235l-69 -36l177 447h-43l-272 -680l61 36l77 197h361zM332 554q-6 -18 -16 -44l-85 -221h218l-85 221q-10 26 -16 44t-8 23q-2 -5 -8 -23zM567 10l33 36l-79 197
l-29 -38zM484 759h-82l-63 65l-63 -65h-81l104 148h80zM214 769h31l93 128h-34zM406 769h30l-96 128h-1v-59z" />
    <glyph glyph-name="atilde" unicode="&#xe3;" horiz-adv-x="680" 
d="M674 0h-114l-75 195h-290l-75 -195h-114l280 700h108zM520 243l-180 447v-85q12 -37 33 -91l90 -235h-235l-69 -36l177 447h-43l-272 -680l61 36l77 197h361zM332 554q-6 -18 -16 -44l-85 -221h218l-85 221q-10 26 -16 44t-8 23q-2 -5 -8 -23zM567 10l33 36l-79 197
l-29 -38zM512 845q0 -39 -27.5 -62t-65.5 -23q-36 0 -57.5 10.5t-45.5 30.5q-31 25 -50 25q-11 0 -18 -6.5t-7 -17.5q0 -12 7 -26l-67 -14q-13 22 -13 51q0 39 27.5 62t65.5 23q36 0 58 -10.5t45 -30.5q19 -16 30 -20.5t20 -4.5q11 0 18 6.5t7 17.5q0 12 -7 26l67 14
q13 -22 13 -51zM186 773l25 5q-6 15 -6 35q0 21 16 35t42 14q23 0 40.5 -8t37.5 -26q18 -16 34.5 -24t40.5 -8q26 0 43 14.5t17 34.5q0 23 -5 35l-25 -5q3 -10 3 -19q0 -15 -9.5 -24.5t-25.5 -9.5t-28.5 7t-28.5 20q-22 19 -42 29t-54 10q-36 0 -59.5 -21t-23.5 -54
q0 -21 8 -40z" />
    <glyph glyph-name="adieresis" unicode="&#xe4;" horiz-adv-x="680" 
d="M674 0h-114l-75 195h-290l-75 -195h-114l280 700h108zM520 243l-180 447v-85q12 -37 33 -91l90 -235h-235l-69 -36l177 447h-43l-272 -680l61 36l77 197h361zM332 554q-6 -18 -16 -44l-85 -221h218l-85 221q-10 26 -16 44t-8 23q-2 -5 -8 -23zM567 10l33 36l-79 197
l-29 -38zM203 894h105v-108h-105v108zM477 894v-108h-105v108h105zM213 796h43v88h-43v-88zM382 796h43v88h-43v-88z" />
    <glyph glyph-name="aring" unicode="&#xe5;" horiz-adv-x="680" 
d="M674 0h-114l-75 195h-290l-75 -195h-114l280 700h108zM520 243l-180 447v-85q12 -37 33 -91l90 -235h-235l-69 -36l177 447h-43l-272 -680l61 36l77 197h361zM332 554q-6 -18 -16 -44l-85 -221h218l-85 221q-10 26 -16 44t-8 23q-2 -5 -8 -23zM567 10l33 36l-79 197
l-29 -38zM408 906.5q28 -27.5 28 -67.5t-28 -67.5t-68 -27.5t-68 27.5t-28 67.5t28 67.5t68 27.5t68 -27.5zM279 899q-25 -25 -25 -60q0 -26 14 -46l22 -2q18 -21 50 -21q29 0 49.5 20t20.5 47q0 29 -19 50l21 -2q-11 18 -30.5 28.5t-41.5 10.5q-36 0 -61 -25zM291 888.5
q21 19.5 49 19.5q30 0 51 -21l-11 -18q9 -12 9 -30q0 -22 -14 -36t-35 -14q-25 0 -40 20l-10 -18q-20 20 -20 49t21 48.5zM368 810.5q11 11.5 11 28.5t-11 28.5t-28 11.5t-28 -11.5t-11 -28.5t11 -28.5t28 -11.5t28 11.5z" />
    <glyph glyph-name="ae" unicode="&#xe6;" horiz-adv-x="959" 
d="M897 96v-96h-463v195h-230l-85 -195h-113l314 700h574v-96h-352v-194h324v-96h-324v-218h355zM887 86h-355l-44 -38v314h324l44 38h-324l-44 -38v290h353l43 38h-558l-305 -680l60 35l90 199l317 -1l-44 -39v-194l44 38h355zM231 280l-60 -36l183 407l134 1l-44 -38v-335
h-213v1zM434 604h-50l-138 -315h188v315z" />
    <glyph glyph-name="ccedilla" unicode="&#xe7;" horiz-adv-x="757" 
d="M611 189l75 -75q-53 -66 -122 -97t-166 -31q-99 0 -178 46.5t-124 129.5t-45 188t47 188t127.5 129.5t177.5 46.5q91 0 164.5 -34.5t118.5 -95.5l-76 -80q-40 59 -91 85.5t-118 26.5q-65 0 -120.5 -34.5t-87.5 -95.5t-32 -136t31 -136t85.5 -95.5t122.5 -34.5
q140 0 211 105zM612 174q-74 -100 -212 -100q-69 0 -125 34.5t-89 95.5t-35 137v-1l-45 20q0 83 39 153t106 111t148 41q132 0 212 -74v-71l62 65q-44 57 -114.5 88t-155.5 31q-96 0 -174.5 -46.5t-123 -127t-44.5 -180.5v-10l45 20q0 -92 39 -166.5t106 -116.5t148 -42
q68 0 120 18.5t93 56.5v64zM472 -65.5q22 -21.5 22 -55.5q0 -39 -27 -61t-66 -22q-34 0 -58 16t-31 44l57 15q3 -10 12 -17t21 -7q13 0 21 8.5t8 22.5q0 15 -9 23.5t-24 8.5q-25 0 -45 -18l-34 31l33 93h62l-34 -61l4 -4q17 5 33 5q33 0 55 -21.5zM331 -74l11 -10l35 90h-18
zM379.5 -157q-10.5 6 -16.5 16l-19 -5q21 -34 59 -34q24 0 42 17t18 42q0 26 -15.5 40.5t-41.5 14.5q-17 0 -29.5 -4.5t-33.5 -15.5l10 -9q21 15 45 15q19 0 31 -11.5t12 -30.5q0 -18 -11 -29.5t-28 -11.5q-12 0 -22.5 6z" />
    <glyph glyph-name="egrave" unicode="&#xe8;" horiz-adv-x="606" 
d="M544 96v-96h-463v700h460v-96h-352v-194h324v-96h-324v-218h355zM91 10l44 38h355l44 38h-352l-47 -38v314h324l44 38h-320l-48 -38v290h353l43 38h-440v-680zM383 759h-85l-112 148h131zM303 769l16 32l-57 96h-56z" />
    <glyph glyph-name="eacute" unicode="&#xe9;" horiz-adv-x="606" 
d="M544 96v-96h-463v700h460v-96h-352v-194h324v-96h-324v-218h355zM91 10l44 38h355l44 38h-352l-47 -38v314h324l44 38h-320l-48 -38v290h353l43 38h-440v-680zM444 907l-112 -148h-85l66 148h131zM262 769l49 32l57 96h-49z" />
    <glyph glyph-name="ecircumflex" unicode="&#xea;" horiz-adv-x="606" 
d="M544 96v-96h-463v700h460v-96h-352v-194h324v-96h-324v-218h355zM91 10l44 38h355l44 38h-352l-47 -38v314h324l44 38h-320l-48 -38v290h353l43 38h-440v-680zM459 759h-82l-63 65l-63 -65h-81l104 148h80zM189 769h31l93 128h-34zM381 769h30l-96 128h-1v-59z" />
    <glyph glyph-name="edieresis" unicode="&#xeb;" horiz-adv-x="606" 
d="M544 96v-96h-463v700h460v-96h-352v-194h324v-96h-324v-218h355zM91 10l44 38h355l44 38h-352l-47 -38v314h324l44 38h-320l-48 -38v290h353l43 38h-440v-680zM178 894h105v-108h-105v108zM452 894v-108h-105v108h105zM188 796h43v88h-43v-88zM357 796h43v88h-43v-88z
" />
    <glyph glyph-name="igrave" unicode="&#xec;" horiz-adv-x="330" 
d="M41 94h70v512h-70v94h248v-94h-70v-512h70v-94h-248v94zM95 47h140l44 37h-70l-44 -37v606h70l44 37h-228v-74l44 37h70l-44 -37v-532h-70v-74zM233 759h-85l-112 148h131zM153 769l16 32l-57 96h-56z" />
    <glyph glyph-name="iacute" unicode="&#xed;" horiz-adv-x="330" 
d="M41 94h70v512h-70v94h248v-94h-70v-512h70v-94h-248v94zM95 47h140l44 37h-70l-44 -37v606h70l44 37h-228v-74l44 37h70l-44 -37v-532h-70v-74zM294 907l-112 -148h-85l66 148h131zM112 769l49 32l57 96h-49z" />
    <glyph glyph-name="icircumflex" unicode="&#xee;" horiz-adv-x="330" 
d="M41 94h70v512h-70v94h248v-94h-70v-512h70v-94h-248v94zM95 47h140l44 37h-70l-44 -37v606h70l44 37h-228v-74l44 37h70l-44 -37v-532h-70v-74zM309 759h-82l-63 65l-63 -65h-81l104 148h80zM39 769h31l93 128h-34zM231 769h30l-96 128h-1v-59z" />
    <glyph glyph-name="idieresis" unicode="&#xef;" horiz-adv-x="330" 
d="M41 94h70v512h-70v94h248v-94h-70v-512h70v-94h-248v94zM95 47h140l44 37h-70l-44 -37v606h70l44 37h-228v-74l44 37h70l-44 -37v-532h-70v-74zM28 894h105v-108h-105v108zM302 894v-108h-105v108h105zM38 796h43v88h-43v-88zM207 796h43v88h-43v-88z" />
    <glyph glyph-name="eth" unicode="&#xf0;" horiz-adv-x="736" 
d="M507.5 659.5q83.5 -40.5 130.5 -119t47 -190.5t-47 -190.5t-130.5 -119t-191.5 -40.5h-202v305h-77v90h77v305h202q108 0 191.5 -40.5zM124 10l44 39h137q152 0 238.5 77.5t86.5 233.5l45 -21v11q0 105 -43.5 181.5t-124.5 117.5t-191 41h-192v-305h-77v-70l42 35h79
l-44 -35v-305zM168 49v301h156l42 35h-154l-44 -35v301h143q71 0 142.5 -22.5t124 -87.5t52.5 -181l-45 -20q-3 -120 -73 -186t-194 -66h-106zM376 395v-90h-154v-207h96q118 0 187.5 64t69.5 188t-69.5 188t-187.5 64h-96v-207h154z" />
    <glyph glyph-name="ntilde" unicode="&#xf1;" horiz-adv-x="720" 
d="M639 700v-700h-110l-314 488q-4 6 -14.5 23.5t-14.5 27.5l-1 -529v-10h-104v700h110l314 -488q4 -6 15 -25t15 -28v541h104zM91 10l42 42v638h-42v-680zM545 690v-551l42 -66v617h-42zM534 10l28 28l-376 571v-54q37 -61 37 -62zM532 845q0 -39 -27.5 -62t-65.5 -23
q-36 0 -57.5 10.5t-45.5 30.5q-31 25 -50 25q-11 0 -18 -6.5t-7 -17.5q0 -12 7 -26l-67 -14q-13 22 -13 51q0 39 27.5 62t65.5 23q36 0 58 -10.5t45 -30.5q19 -16 30 -20.5t20 -4.5q11 0 18 6.5t7 17.5q0 12 -7 26l67 14q13 -22 13 -51zM206 773l25 5q-6 15 -6 35
q0 21 16 35t42 14q23 0 40.5 -8t37.5 -26q18 -16 34.5 -24t40.5 -8q26 0 43 14.5t17 34.5q0 23 -5 35l-25 -5q3 -10 3 -19q0 -15 -9.5 -24.5t-25.5 -9.5t-28.5 7t-28.5 20q-22 19 -42 29t-54 10q-36 0 -59.5 -21t-23.5 -54q0 -21 8 -40z" />
    <glyph glyph-name="ograve" unicode="&#xf2;" horiz-adv-x="800" 
d="M577.5 667.5q79.5 -46.5 125.5 -129.5t46 -188t-46 -188t-125.5 -129.5t-177.5 -46.5t-177.5 46.5t-125.5 129.5t-46 188t46 188t125.5 129.5t177.5 46.5t177.5 -46.5zM226.5 658q-77.5 -46 -121.5 -126.5t-44 -181.5q0 -67 20 -126t57 -106l45 14q38 -44 95 -70.5
t119 -26.5q81 0 149 38t108 109.5t40 167.5q0 64 -18.5 116.5t-55.5 103.5l45 8q-47 59 -115.5 92.5t-149.5 33.5q-96 0 -173.5 -46zM524.5 641q57.5 -27 95.5 -71l-25 -40q54 -75 54 -180q0 -80 -32 -143t-88.5 -98t-128.5 -35q-62 0 -113 26.5t-85 73.5l-19 -42
q-39 49 -58 102t-19 116q0 99 40.5 171t108.5 109.5t151 37.5q61 0 118.5 -27zM522.5 117q54.5 33 85.5 93.5t31 139.5t-31 139.5t-85.5 93.5t-122.5 33t-122.5 -33t-85.5 -93.5t-31 -139.5t31 -139.5t85.5 -93.5t122.5 -33t122.5 33zM468 759h-85l-112 148h131zM388 769
l16 32l-57 96h-56z" />
    <glyph glyph-name="oacute" unicode="&#xf3;" horiz-adv-x="800" 
d="M577.5 667.5q79.5 -46.5 125.5 -129.5t46 -188t-46 -188t-125.5 -129.5t-177.5 -46.5t-177.5 46.5t-125.5 129.5t-46 188t46 188t125.5 129.5t177.5 46.5t177.5 -46.5zM226.5 658q-77.5 -46 -121.5 -126.5t-44 -181.5q0 -67 20 -126t57 -106l45 14q38 -44 95 -70.5
t119 -26.5q81 0 149 38t108 109.5t40 167.5q0 64 -18.5 116.5t-55.5 103.5l45 8q-47 59 -115.5 92.5t-149.5 33.5q-96 0 -173.5 -46zM524.5 641q57.5 -27 95.5 -71l-25 -40q54 -75 54 -180q0 -80 -32 -143t-88.5 -98t-128.5 -35q-62 0 -113 26.5t-85 73.5l-19 -42
q-39 49 -58 102t-19 116q0 99 40.5 171t108.5 109.5t151 37.5q61 0 118.5 -27zM522.5 117q54.5 33 85.5 93.5t31 139.5t-31 139.5t-85.5 93.5t-122.5 33t-122.5 -33t-85.5 -93.5t-31 -139.5t31 -139.5t85.5 -93.5t122.5 -33t122.5 33zM529 907l-112 -148h-85l66 148h131z
M347 769l49 32l57 96h-49z" />
    <glyph glyph-name="ocircumflex" unicode="&#xf4;" horiz-adv-x="800" 
d="M577.5 667.5q79.5 -46.5 125.5 -129.5t46 -188t-46 -188t-125.5 -129.5t-177.5 -46.5t-177.5 46.5t-125.5 129.5t-46 188t46 188t125.5 129.5t177.5 46.5t177.5 -46.5zM226.5 658q-77.5 -46 -121.5 -126.5t-44 -181.5q0 -67 20 -126t57 -106l45 14q38 -44 95 -70.5
t119 -26.5q81 0 149 38t108 109.5t40 167.5q0 64 -18.5 116.5t-55.5 103.5l45 8q-47 59 -115.5 92.5t-149.5 33.5q-96 0 -173.5 -46zM524.5 641q57.5 -27 95.5 -71l-25 -40q54 -75 54 -180q0 -80 -32 -143t-88.5 -98t-128.5 -35q-62 0 -113 26.5t-85 73.5l-19 -42
q-39 49 -58 102t-19 116q0 99 40.5 171t108.5 109.5t151 37.5q61 0 118.5 -27zM522.5 117q54.5 33 85.5 93.5t31 139.5t-31 139.5t-85.5 93.5t-122.5 33t-122.5 -33t-85.5 -93.5t-31 -139.5t31 -139.5t85.5 -93.5t122.5 -33t122.5 33zM544 759h-82l-63 65l-63 -65h-81
l104 148h80zM274 769h31l93 128h-34zM466 769h30l-96 128h-1v-59z" />
    <glyph glyph-name="otilde" unicode="&#xf5;" horiz-adv-x="800" 
d="M577.5 667.5q79.5 -46.5 125.5 -129.5t46 -188t-46 -188t-125.5 -129.5t-177.5 -46.5t-177.5 46.5t-125.5 129.5t-46 188t46 188t125.5 129.5t177.5 46.5t177.5 -46.5zM226.5 658q-77.5 -46 -121.5 -126.5t-44 -181.5q0 -67 20 -126t57 -106l45 14q38 -44 95 -70.5
t119 -26.5q81 0 149 38t108 109.5t40 167.5q0 64 -18.5 116.5t-55.5 103.5l45 8q-47 59 -115.5 92.5t-149.5 33.5q-96 0 -173.5 -46zM524.5 641q57.5 -27 95.5 -71l-25 -40q54 -75 54 -180q0 -80 -32 -143t-88.5 -98t-128.5 -35q-62 0 -113 26.5t-85 73.5l-19 -42
q-39 49 -58 102t-19 116q0 99 40.5 171t108.5 109.5t151 37.5q61 0 118.5 -27zM522.5 117q54.5 33 85.5 93.5t31 139.5t-31 139.5t-85.5 93.5t-122.5 33t-122.5 -33t-85.5 -93.5t-31 -139.5t31 -139.5t85.5 -93.5t122.5 -33t122.5 33zM572 845q0 -39 -27.5 -62t-65.5 -23
q-36 0 -57.5 10.5t-45.5 30.5q-31 25 -50 25q-11 0 -18 -6.5t-7 -17.5q0 -12 7 -26l-67 -14q-13 22 -13 51q0 39 27.5 62t65.5 23q36 0 58 -10.5t45 -30.5q19 -16 30 -20.5t20 -4.5q11 0 18 6.5t7 17.5q0 12 -7 26l67 14q13 -22 13 -51zM246 773l25 5q-6 15 -6 35
q0 21 16 35t42 14q23 0 40.5 -8t37.5 -26q18 -16 34.5 -24t40.5 -8q26 0 43 14.5t17 34.5q0 23 -5 35l-25 -5q3 -10 3 -19q0 -15 -9.5 -24.5t-25.5 -9.5t-28.5 7t-28.5 20q-22 19 -42 29t-54 10q-36 0 -59.5 -21t-23.5 -54q0 -21 8 -40z" />
    <glyph glyph-name="odieresis" unicode="&#xf6;" horiz-adv-x="800" 
d="M577.5 667.5q79.5 -46.5 125.5 -129.5t46 -188t-46 -188t-125.5 -129.5t-177.5 -46.5t-177.5 46.5t-125.5 129.5t-46 188t46 188t125.5 129.5t177.5 46.5t177.5 -46.5zM226.5 658q-77.5 -46 -121.5 -126.5t-44 -181.5q0 -67 20 -126t57 -106l45 14q38 -44 95 -70.5
t119 -26.5q81 0 149 38t108 109.5t40 167.5q0 64 -18.5 116.5t-55.5 103.5l45 8q-47 59 -115.5 92.5t-149.5 33.5q-96 0 -173.5 -46zM524.5 641q57.5 -27 95.5 -71l-25 -40q54 -75 54 -180q0 -80 -32 -143t-88.5 -98t-128.5 -35q-62 0 -113 26.5t-85 73.5l-19 -42
q-39 49 -58 102t-19 116q0 99 40.5 171t108.5 109.5t151 37.5q61 0 118.5 -27zM522.5 117q54.5 33 85.5 93.5t31 139.5t-31 139.5t-85.5 93.5t-122.5 33t-122.5 -33t-85.5 -93.5t-31 -139.5t31 -139.5t85.5 -93.5t122.5 -33t122.5 33zM263 894h105v-108h-105v108zM537 894
v-108h-105v108h105zM273 796h43v88h-43v-88zM442 796h43v88h-43v-88z" />
    <glyph glyph-name="divide" unicode="&#xf7;" horiz-adv-x="535" 
d="M329 615v-126h-124v126h124zM215 499h52v106h-52v-106zM205 251h124v-126h-124v126zM215 135h52v106h-52v-106zM491 406v-82h-447v82h447zM54 334l35 31h356l36 31h-427v-62z" />
    <glyph glyph-name="oslash" unicode="&#xf8;" horiz-adv-x="800" 
d="M711.5 522q37.5 -77 37.5 -172q0 -105 -46 -188t-125.5 -129.5t-177.5 -46.5q-66 0 -126 23l-30 -57l-81 45l30 56q-66 48 -104 125.5t-38 171.5q0 105 46 188t125.5 129.5t177.5 46.5q69 0 126 -22l30 56l81 -45l-29 -56q66 -48 103.5 -125zM176 1l31 -17l48 87
q41 -19 74.5 -27.5t65.5 -8.5q82 0 150.5 37.5t108.5 109t40 168.5q0 93 -37.5 163.5t-109.5 115.5l45 87l-32 18l-29 -55l-6 2q-58 23 -125 23q-96 0 -173.5 -46t-121.5 -126.5t-44 -181.5q0 -92 37 -167.5t107 -126.5zM474 658.5q37 -9.5 73 -29.5l-54 -20l-250 -479
l12 -59q-149 102 -149 279q0 99 40.5 171t108.5 109.5t151 37.5q31 0 68 -9.5zM255 71l292 558l10 -59q45 -40 68.5 -96t23.5 -124q0 -80 -32 -143t-88.5 -98t-128.5 -35q-30 0 -49 4t-44 14zM481 603q-38 13 -81 13q-68 0 -122.5 -33t-85.5 -93.5t-31 -139.5q0 -65 21 -117
t59 -88zM320 97q36 -13 80 -13q68 0 122.5 33t85.5 93.5t31 139.5q0 64 -21 116.5t-59 88.5z" />
    <glyph glyph-name="ugrave" unicode="&#xf9;" horiz-adv-x="686" 
d="M616 700v-451q0 -83 -35 -142t-96.5 -90t-141.5 -31t-141.5 31t-96.5 90t-35 142v451h108v-448q0 -75 44 -121.5t121 -46.5t121 46.5t44 121.5v448h108zM112 115q32 -57 91.5 -88t139.5 -31h4l-20 39l22 -1q83 0 130.5 39t65 90.5t17.5 94.5v432h-44v-438
q0 -80 -46.5 -128.5t-124.5 -49.5l-20 -39q-73 0 -118.5 34t-65 84.5t-19.5 104.5v432h-44v-441q0 -77 32 -134zM411 759h-85l-112 148h131zM331 769l16 32l-57 96h-56z" />
    <glyph glyph-name="uacute" unicode="&#xfa;" horiz-adv-x="686" 
d="M616 700v-451q0 -83 -35 -142t-96.5 -90t-141.5 -31t-141.5 31t-96.5 90t-35 142v451h108v-448q0 -75 44 -121.5t121 -46.5t121 46.5t44 121.5v448h108zM112 115q32 -57 91.5 -88t139.5 -31h4l-20 39l22 -1q83 0 130.5 39t65 90.5t17.5 94.5v432h-44v-438
q0 -80 -46.5 -128.5t-124.5 -49.5l-20 -39q-73 0 -118.5 34t-65 84.5t-19.5 104.5v432h-44v-441q0 -77 32 -134zM472 907l-112 -148h-85l66 148h131zM290 769l49 32l57 96h-49z" />
    <glyph glyph-name="ucircumflex" unicode="&#xfb;" horiz-adv-x="686" 
d="M616 700v-451q0 -83 -35 -142t-96.5 -90t-141.5 -31t-141.5 31t-96.5 90t-35 142v451h108v-448q0 -75 44 -121.5t121 -46.5t121 46.5t44 121.5v448h108zM112 115q32 -57 91.5 -88t139.5 -31h4l-20 39l22 -1q83 0 130.5 39t65 90.5t17.5 94.5v432h-44v-438
q0 -80 -46.5 -128.5t-124.5 -49.5l-20 -39q-73 0 -118.5 34t-65 84.5t-19.5 104.5v432h-44v-441q0 -77 32 -134zM487 759h-82l-63 65l-63 -65h-81l104 148h80zM217 769h31l93 128h-34zM409 769h30l-96 128h-1v-59z" />
    <glyph glyph-name="udieresis" unicode="&#xfc;" horiz-adv-x="686" 
d="M616 700v-451q0 -83 -35 -142t-96.5 -90t-141.5 -31t-141.5 31t-96.5 90t-35 142v451h108v-448q0 -75 44 -121.5t121 -46.5t121 46.5t44 121.5v448h108zM112 115q32 -57 91.5 -88t139.5 -31h4l-20 39l22 -1q83 0 130.5 39t65 90.5t17.5 94.5v432h-44v-438
q0 -80 -46.5 -128.5t-124.5 -49.5l-20 -39q-73 0 -118.5 34t-65 84.5t-19.5 104.5v432h-44v-441q0 -77 32 -134zM206 894h105v-108h-105v108zM480 894v-108h-105v108h105zM216 796h43v88h-43v-88zM385 796h43v88h-43v-88z" />
    <glyph glyph-name="yacute" unicode="&#xfd;" horiz-adv-x="578" 
d="M574 700l-231 -419v-281h-108v281l-231 419h119l144 -273l9 -18t13 -29q6 15 13 29l9 18l144 273h119zM245 284v-274l44 44v234l221 402h-49l-141 -268q-5 -8 -14.5 -29t-16.5 -37v-68l-220 402h-48zM418 907l-112 -148h-85l66 148h131zM236 769l49 32l57 96h-49z" />
    <glyph glyph-name="thorn" unicode="&#xfe;" horiz-adv-x="689" 
d="M571 513.5q68 -59.5 68 -163.5t-68 -163.5t-184 -59.5h-198v-127h-108v700h108v-127h198q116 0 184 -59.5zM91 10l44 44v122h246q102 0 153 45.5t51 146.5l44 -18q0 99 -65 156t-177 57h-208l-44 -37v164h-44v-680zM135 177v349h237q95 0 153.5 -40.5t59.5 -117.5
l-44 -18q0 -64 -42 -100.5t-116 -36.5h-204zM493 257q38 34 38 93t-38 93t-110 34h-194v-254h194q72 0 110 34z" />
    <glyph glyph-name="ydieresis" unicode="&#xff;" horiz-adv-x="578" 
d="M574 700l-231 -419v-281h-108v281l-231 419h119l144 -273l9 -18t13 -29q6 15 13 29l9 18l144 273h119zM245 284v-274l44 44v234l221 402h-49l-141 -268q-5 -8 -14.5 -29t-16.5 -37v-68l-220 402h-48zM152 894h105v-108h-105v108zM426 894v-108h-105v108h105zM162 796h43
v88h-43v-88zM331 796h43v88h-43v-88z" />
    <glyph glyph-name="Amacron" unicode="&#x100;" horiz-adv-x="680" 
d="M674 0h-114l-75 195h-290l-75 -195h-114l280 700h108zM520 243l-180 447v-85q12 -37 33 -91l90 -235h-235l-69 -36l177 447h-43l-272 -680l61 36l77 197h361zM332 554q-6 -18 -16 -44l-85 -221h218l-85 221q-10 26 -16 44t-8 23q-2 -5 -8 -23zM567 10l33 36l-79 197
l-29 -38zM457 880v-82h-234v82h234zM447 870h-214v-62l31 31h152z" />
    <glyph glyph-name="amacron" unicode="&#x101;" horiz-adv-x="680" 
d="M674 0h-114l-75 195h-290l-75 -195h-114l280 700h108zM520 243l-180 447v-85q12 -37 33 -91l90 -235h-235l-69 -36l177 447h-43l-272 -680l61 36l77 197h361zM332 554q-6 -18 -16 -44l-85 -221h218l-85 221q-10 26 -16 44t-8 23q-2 -5 -8 -23zM567 10l33 36l-79 197
l-29 -38zM457 880v-82h-234v82h234zM447 870h-214v-62l31 31h152z" />
    <glyph glyph-name="Abreve" unicode="&#x102;" horiz-adv-x="680" 
d="M674 0h-114l-75 195h-290l-75 -195h-114l280 700h108zM520 243l-180 447v-85q12 -37 33 -91l90 -235h-235l-69 -36l177 447h-43l-272 -680l61 36l77 197h361zM332 554q-6 -18 -16 -44l-85 -221h218l-85 221q-10 26 -16 44t-8 23q-2 -5 -8 -23zM567 10l33 36l-79 197
l-29 -38zM448 878q0 -47 -29.5 -77.5t-78.5 -30.5t-78.5 30.5t-29.5 77.5h70q0 -20 10 -31.5t28 -11.5t28 11.5t10 31.5h70zM272.5 804q26.5 -24 67.5 -24v24q61 0 74 64h-27q-2 -20 -15 -31.5t-32 -11.5v-21q-61 0 -74 64h-24q4 -40 30.5 -64z" />
    <glyph glyph-name="abreve" unicode="&#x103;" horiz-adv-x="680" 
d="M674 0h-114l-75 195h-290l-75 -195h-114l280 700h108zM520 243l-180 447v-85q12 -37 33 -91l90 -235h-235l-69 -36l177 447h-43l-272 -680l61 36l77 197h361zM332 554q-6 -18 -16 -44l-85 -221h218l-85 221q-10 26 -16 44t-8 23q-2 -5 -8 -23zM567 10l33 36l-79 197
l-29 -38zM448 878q0 -47 -29.5 -77.5t-78.5 -30.5t-78.5 30.5t-29.5 77.5h70q0 -20 10 -31.5t28 -11.5t28 11.5t10 31.5h70zM272.5 804q26.5 -24 67.5 -24v24q61 0 74 64h-27q-2 -20 -15 -31.5t-32 -11.5v-21q-63 0 -73 64h-25q4 -40 30.5 -64z" />
    <glyph glyph-name="Aogonek" unicode="&#x104;" horiz-adv-x="680" 
d="M674 0h-114l-75 195h-290l-75 -195h-114l280 700h108zM520 243l-180 447v-85q12 -37 33 -91l90 -235h-235l-69 -36l177 447h-43l-272 -680l61 36l77 197h361zM332 554q-6 -18 -16 -44l-85 -221h218l-85 221q-10 26 -16 44t-8 23q-2 -5 -8 -23zM567 10l33 36l-79 197
l-29 -38zM678 -192q-26 -6 -52 -6q-44 0 -76.5 25t-32.5 68q0 36 21.5 66t55.5 49l80 -10q-71 -39 -71 -80q0 -19 12.5 -30t32.5 -11l15 1h-1q3 1 7 1zM667 -184l-4 29q-14 -3 -26 -3q-33 0 -55 16.5t-22 49.5q0 49 59 89l-23 3q-33 -20 -51 -47t-18 -58q0 -37 27.5 -60
t71.5 -23q22 0 41 4z" />
    <glyph glyph-name="aogonek" unicode="&#x105;" horiz-adv-x="680" 
d="M674 0h-114l-75 195h-290l-75 -195h-114l280 700h108zM520 243l-180 447v-85q12 -37 33 -91l90 -235h-235l-69 -36l177 447h-43l-272 -680l61 36l77 197h361zM332 554q-6 -18 -16 -44l-85 -221h218l-85 221q-10 26 -16 44t-8 23q-2 -5 -8 -23zM567 10l33 36l-79 197
l-29 -38zM678 -192q-26 -6 -52 -6q-44 0 -76.5 25t-32.5 68q0 36 21.5 66t55.5 49l80 -10q-71 -39 -71 -80q0 -19 12.5 -30t32.5 -11l15 1h-1q3 1 7 1zM667 -184l-4 29q-14 -3 -26 -3q-33 0 -55 16.5t-22 49.5q0 49 59 89l-23 3q-33 -20 -51 -47t-18 -58q0 -37 27.5 -60
t71.5 -23q22 0 41 4z" />
    <glyph glyph-name="Cacute" unicode="&#x106;" horiz-adv-x="757" 
d="M611 189l75 -75q-53 -66 -122 -97t-166 -31q-99 0 -178 46.5t-124 129.5t-45 188t47 188t127.5 129.5t177.5 46.5q91 0 164.5 -34.5t118.5 -95.5l-76 -80q-40 59 -91 85.5t-118 26.5q-65 0 -120.5 -34.5t-87.5 -95.5t-32 -136t31 -136t85.5 -95.5t122.5 -34.5
q140 0 211 105zM612 174q-74 -100 -212 -100q-69 0 -125 34.5t-89 95.5t-35 137v-1l-45 20q0 83 39 153t106 111t148 41q132 0 212 -74v-71l62 65q-44 57 -114.5 88t-155.5 31q-96 0 -174.5 -46.5t-123 -127t-44.5 -180.5v-10l45 20q0 -92 39 -166.5t106 -116.5t148 -42
q68 0 120 18.5t93 56.5v64zM532 907l-112 -148h-85l66 148h131zM350 769l49 32l57 96h-49z" />
    <glyph glyph-name="cacute" unicode="&#x107;" horiz-adv-x="757" 
d="M611 189l75 -75q-53 -66 -122 -97t-166 -31q-99 0 -178 46.5t-124 129.5t-45 188t47 188t127.5 129.5t177.5 46.5q91 0 164.5 -34.5t118.5 -95.5l-76 -80q-40 59 -91 85.5t-118 26.5q-65 0 -120.5 -34.5t-87.5 -95.5t-32 -136t31 -136t85.5 -95.5t122.5 -34.5
q140 0 211 105zM612 174q-74 -100 -212 -100q-69 0 -125 34.5t-89 95.5t-35 137v-1l-45 20q0 83 39 153t106 111t148 41q132 0 212 -74v-71l62 65q-44 57 -114.5 88t-155.5 31q-96 0 -174.5 -46.5t-123 -127t-44.5 -180.5v-10l45 20q0 -92 39 -166.5t106 -116.5t148 -42
q68 0 120 18.5t93 56.5v64zM532 907l-112 -148h-85l66 148h131zM350 769l49 32l57 96h-49z" />
    <glyph glyph-name="Ccircumflex" unicode="&#x108;" horiz-adv-x="757" 
d="M611 189l75 -75q-53 -66 -122 -97t-166 -31q-99 0 -178 46.5t-124 129.5t-45 188t47 188t127.5 129.5t177.5 46.5q91 0 164.5 -34.5t118.5 -95.5l-76 -80q-40 59 -91 85.5t-118 26.5q-65 0 -120.5 -34.5t-87.5 -95.5t-32 -136t31 -136t85.5 -95.5t122.5 -34.5
q140 0 211 105zM612 174q-74 -100 -212 -100q-69 0 -125 34.5t-89 95.5t-35 137v-1l-45 20q0 83 39 153t106 111t148 41q132 0 212 -74v-71l62 65q-44 57 -114.5 88t-155.5 31q-96 0 -174.5 -46.5t-123 -127t-44.5 -180.5v-10l45 20q0 -92 39 -166.5t106 -116.5t148 -42
q68 0 120 18.5t93 56.5v64zM547 759h-82l-63 65l-63 -65h-81l104 148h80zM277 769h31l93 128h-34zM469 769h30l-96 128h-1v-59z" />
    <glyph glyph-name="ccircumflex" unicode="&#x109;" horiz-adv-x="757" 
d="M611 189l75 -75q-53 -66 -122 -97t-166 -31q-99 0 -178 46.5t-124 129.5t-45 188t47 188t127.5 129.5t177.5 46.5q91 0 164.5 -34.5t118.5 -95.5l-76 -80q-40 59 -91 85.5t-118 26.5q-65 0 -120.5 -34.5t-87.5 -95.5t-32 -136t31 -136t85.5 -95.5t122.5 -34.5
q140 0 211 105zM612 174q-74 -100 -212 -100q-69 0 -125 34.5t-89 95.5t-35 137v-1l-45 20q0 83 39 153t106 111t148 41q132 0 212 -74v-71l62 65q-44 57 -114.5 88t-155.5 31q-96 0 -174.5 -46.5t-123 -127t-44.5 -180.5v-10l45 20q0 -92 39 -166.5t106 -116.5t148 -42
q68 0 120 18.5t93 56.5v64zM547 759h-82l-63 65l-63 -65h-81l104 148h80zM277 769h31l93 128h-34zM469 769h30l-96 128h-1v-59z" />
    <glyph glyph-name="Cdotaccent" unicode="&#x10a;" horiz-adv-x="757" 
d="M611 189l75 -75q-53 -66 -122 -97t-166 -31q-99 0 -178 46.5t-124 129.5t-45 188t47 188t127.5 129.5t177.5 46.5q91 0 164.5 -34.5t118.5 -95.5l-76 -80q-40 59 -91 85.5t-118 26.5q-65 0 -120.5 -34.5t-87.5 -95.5t-32 -136t31 -136t85.5 -95.5t122.5 -34.5
q140 0 211 105zM612 174q-74 -100 -212 -100q-69 0 -125 34.5t-89 95.5t-35 137v-1l-45 20q0 83 39 153t106 111t148 41q132 0 212 -74v-71l62 65q-44 57 -114.5 88t-155.5 31q-96 0 -174.5 -46.5t-123 -127t-44.5 -180.5v-10l45 20q0 -92 39 -166.5t106 -116.5t148 -42
q68 0 120 18.5t93 56.5v64zM461 894v-115h-116v115h116zM355 789h48v95h-48v-95z" />
    <glyph glyph-name="cdotaccent" unicode="&#x10b;" horiz-adv-x="757" 
d="M611 189l75 -75q-53 -66 -122 -97t-166 -31q-99 0 -178 46.5t-124 129.5t-45 188t47 188t127.5 129.5t177.5 46.5q91 0 164.5 -34.5t118.5 -95.5l-76 -80q-40 59 -91 85.5t-118 26.5q-65 0 -120.5 -34.5t-87.5 -95.5t-32 -136t31 -136t85.5 -95.5t122.5 -34.5
q140 0 211 105zM612 174q-74 -100 -212 -100q-69 0 -125 34.5t-89 95.5t-35 137v-1l-45 20q0 83 39 153t106 111t148 41q132 0 212 -74v-71l62 65q-44 57 -114.5 88t-155.5 31q-96 0 -174.5 -46.5t-123 -127t-44.5 -180.5v-10l45 20q0 -92 39 -166.5t106 -116.5t148 -42
q68 0 120 18.5t93 56.5v64zM461 894v-115h-116v115h116zM355 789h48v95h-48v-95z" />
    <glyph glyph-name="Ccaron" unicode="&#x10c;" horiz-adv-x="757" 
d="M611 189l75 -75q-53 -66 -122 -97t-166 -31q-99 0 -178 46.5t-124 129.5t-45 188t47 188t127.5 129.5t177.5 46.5q91 0 164.5 -34.5t118.5 -95.5l-76 -80q-40 59 -91 85.5t-118 26.5q-65 0 -120.5 -34.5t-87.5 -95.5t-32 -136t31 -136t85.5 -95.5t122.5 -34.5
q140 0 211 105zM612 174q-74 -100 -212 -100q-69 0 -125 34.5t-89 95.5t-35 137v-1l-45 20q0 83 39 153t106 111t148 41q132 0 212 -74v-71l62 65q-44 57 -114.5 88t-155.5 31q-96 0 -174.5 -46.5t-123 -127t-44.5 -180.5v-10l45 20q0 -92 39 -166.5t106 -116.5t148 -42
q68 0 120 18.5t93 56.5v64zM547 907l-105 -148h-80l-104 148h81l63 -65l63 65h82zM367 769h34l-93 128h-31zM402 828v-59h1l95 128h-29z" />
    <glyph glyph-name="ccaron" unicode="&#x10d;" horiz-adv-x="757" 
d="M611 189l75 -75q-53 -66 -122 -97t-166 -31q-99 0 -178 46.5t-124 129.5t-45 188t47 188t127.5 129.5t177.5 46.5q91 0 164.5 -34.5t118.5 -95.5l-76 -80q-40 59 -91 85.5t-118 26.5q-65 0 -120.5 -34.5t-87.5 -95.5t-32 -136t31 -136t85.5 -95.5t122.5 -34.5
q140 0 211 105zM612 174q-74 -100 -212 -100q-69 0 -125 34.5t-89 95.5t-35 137v-1l-45 20q0 83 39 153t106 111t148 41q132 0 212 -74v-71l62 65q-44 57 -114.5 88t-155.5 31q-96 0 -174.5 -46.5t-123 -127t-44.5 -180.5v-10l45 20q0 -92 39 -166.5t106 -116.5t148 -42
q68 0 120 18.5t93 56.5v64zM547 907l-105 -148h-80l-104 148h81l63 -65l63 65h82zM367 769h34l-93 128h-31zM402 828v-59h1l95 128h-29z" />
    <glyph glyph-name="Dcaron" unicode="&#x10e;" horiz-adv-x="703" 
d="M474.5 659.5q83.5 -40.5 130.5 -119t47 -190.5t-47 -190.5t-130.5 -119t-191.5 -40.5h-202v700h202q108 0 191.5 -40.5zM91 10l44 39h149q149 0 231 81.5t82 229.5l45 -20v10q0 105 -43.5 181.5t-124.5 117.5t-191 41h-192v-680zM452.5 615.5q70.5 -35.5 107.5 -101
t37 -154.5l-45 -20v2q-2 -121 -72 -187.5t-195 -66.5h-106v1l-44 -40v602h149q98 0 168.5 -35.5zM472.5 162q69.5 64 69.5 188t-69.5 188t-187.5 64h-96v-504h96q118 0 187.5 64zM406 907l-105 -148h-80l-104 148h81l63 -65l63 65h82zM226 769h34l-93 128h-31zM261 828v-59
h1l95 128h-29z" />
    <glyph glyph-name="dcaron" unicode="&#x10f;" horiz-adv-x="703" 
d="M474.5 659.5q83.5 -40.5 130.5 -119t47 -190.5t-47 -190.5t-130.5 -119t-191.5 -40.5h-202v700h202q108 0 191.5 -40.5zM91 10l44 39h149q149 0 231 81.5t82 229.5l45 -20v10q0 105 -43.5 181.5t-124.5 117.5t-191 41h-192v-680zM452.5 615.5q70.5 -35.5 107.5 -101
t37 -154.5l-45 -20v2q-2 -121 -72 -187.5t-195 -66.5h-106v1l-44 -40v602h149q98 0 168.5 -35.5zM472.5 162q69.5 64 69.5 188t-69.5 188t-187.5 64h-96v-504h96q118 0 187.5 64zM406 907l-105 -148h-80l-104 148h81l63 -65l63 65h82zM226 769h34l-93 128h-31zM261 828v-59
h1l95 128h-29z" />
    <glyph glyph-name="Dcroat" unicode="&#x110;" horiz-adv-x="736" 
d="M507.5 659.5q83.5 -40.5 130.5 -119t47 -190.5t-47 -190.5t-130.5 -119t-191.5 -40.5h-202v305h-77v90h77v305h202q108 0 191.5 -40.5zM124 10l44 39h137q152 0 238.5 77.5t86.5 233.5l45 -21v11q0 105 -43.5 181.5t-124.5 117.5t-191 41h-192v-305h-77v-70l42 35h79
l-44 -35v-305zM168 49v301h156l42 35h-154l-44 -35v301h143q71 0 142.5 -22.5t124 -87.5t52.5 -181l-45 -20q-3 -120 -73 -186t-194 -66h-106zM376 395v-90h-154v-207h96q118 0 187.5 64t69.5 188t-69.5 188t-187.5 64h-96v-207h154z" />
    <glyph glyph-name="dcroat" unicode="&#x111;" horiz-adv-x="736" 
d="M507.5 659.5q83.5 -40.5 130.5 -119t47 -190.5t-47 -190.5t-130.5 -119t-191.5 -40.5h-202v305h-77v90h77v305h202q108 0 191.5 -40.5zM124 10l44 39h137q152 0 238.5 77.5t86.5 233.5l45 -21v11q0 105 -43.5 181.5t-124.5 117.5t-191 41h-192v-305h-77v-70l42 35h79
l-44 -35v-305zM168 49v301h156l42 35h-154l-44 -35v301h143q71 0 142.5 -22.5t124 -87.5t52.5 -181l-45 -20q-3 -120 -73 -186t-194 -66h-106zM376 395v-90h-154v-207h96q118 0 187.5 64t69.5 188t-69.5 188t-187.5 64h-96v-207h154z" />
    <glyph glyph-name="Emacron" unicode="&#x112;" horiz-adv-x="606" 
d="M544 96v-96h-463v700h460v-96h-352v-194h324v-96h-324v-218h355zM91 10l44 38h355l44 38h-352l-47 -38v314h324l44 38h-320l-48 -38v290h353l43 38h-440v-680zM432 880v-82h-234v82h234zM422 870h-214v-62l31 31h152z" />
    <glyph glyph-name="emacron" unicode="&#x113;" horiz-adv-x="606" 
d="M544 96v-96h-463v700h460v-96h-352v-194h324v-96h-324v-218h355zM91 10l44 38h355l44 38h-352l-47 -38v314h324l44 38h-320l-48 -38v290h353l43 38h-440v-680zM432 880v-82h-234v82h234zM422 870h-214v-62l31 31h152z" />
    <glyph glyph-name="Ebreve" unicode="&#x114;" horiz-adv-x="606" 
d="M544 96v-96h-463v700h460v-96h-352v-194h324v-96h-324v-218h355zM91 10l44 38h355l44 38h-352l-47 -38v314h324l44 38h-320l-48 -38v290h353l43 38h-440v-680zM423 878q0 -47 -29.5 -77.5t-78.5 -30.5t-78.5 30.5t-29.5 77.5h70q0 -20 10 -31.5t28 -11.5t28 11.5t10 31.5
h70zM247.5 804q26.5 -24 67.5 -24v24q61 0 74 64h-27q-2 -20 -15 -31.5t-32 -11.5v-21q-61 0 -74 64h-24q4 -40 30.5 -64z" />
    <glyph glyph-name="ebreve" unicode="&#x115;" horiz-adv-x="606" 
d="M544 96v-96h-463v700h460v-96h-352v-194h324v-96h-324v-218h355zM91 10l44 38h355l44 38h-352l-47 -38v314h324l44 38h-320l-48 -38v290h353l43 38h-440v-680zM423 878q0 -47 -29.5 -77.5t-78.5 -30.5t-78.5 30.5t-29.5 77.5h70q0 -20 10 -31.5t28 -11.5t28 11.5t10 31.5
h70zM247.5 804q26.5 -24 67.5 -24v24q61 0 74 64h-27q-2 -20 -15 -31.5t-32 -11.5v-21q-61 0 -74 64h-24q4 -40 30.5 -64z" />
    <glyph glyph-name="Edotaccent" unicode="&#x116;" horiz-adv-x="606" 
d="M544 96v-96h-463v700h460v-96h-352v-194h324v-96h-324v-218h355zM91 10l44 38h355l44 38h-352l-47 -38v314h324l44 38h-320l-48 -38v290h353l43 38h-440v-680zM373 894v-115h-116v115h116zM267 789h48v95h-48v-95z" />
    <glyph glyph-name="edotaccent" unicode="&#x117;" horiz-adv-x="606" 
d="M544 96v-96h-463v700h460v-96h-352v-194h324v-96h-324v-218h355zM91 10l44 38h355l44 38h-352l-47 -38v314h324l44 38h-320l-48 -38v290h353l43 38h-440v-680zM373 894v-115h-116v115h116zM267 789h48v95h-48v-95z" />
    <glyph glyph-name="Eogonek" unicode="&#x118;" horiz-adv-x="606" 
d="M544 96v-96h-463v700h460v-96h-352v-194h324v-96h-324v-218h355zM91 10l44 38h355l44 38h-352l-47 -38v314h324l44 38h-320l-48 -38v290h353l43 38h-440v-680zM548 -192q-26 -6 -52 -6q-44 0 -76.5 25t-32.5 68q0 36 21.5 66t55.5 49l80 -10q-71 -39 -71 -80
q0 -19 12.5 -30t32.5 -11l15 1h-1q3 1 7 1zM537 -184l-4 29q-14 -3 -26 -3q-33 0 -55 16.5t-22 49.5q0 49 59 89l-23 3q-33 -20 -51 -47t-18 -58q0 -37 27.5 -60t71.5 -23q22 0 41 4z" />
    <glyph glyph-name="eogonek" unicode="&#x119;" horiz-adv-x="606" 
d="M544 96v-96h-463v700h460v-96h-352v-194h324v-96h-324v-218h355zM91 10l44 38h355l44 38h-352l-47 -38v314h324l44 38h-320l-48 -38v290h353l43 38h-440v-680zM548 -192q-26 -6 -52 -6q-44 0 -76.5 25t-32.5 68q0 36 21.5 66t55.5 49l80 -10q-71 -39 -71 -80
q0 -19 12.5 -30t32.5 -11l15 1h-1q3 1 7 1zM537 -184l-4 29q-14 -3 -26 -3q-33 0 -55 16.5t-22 49.5q0 49 59 89l-23 3q-33 -20 -51 -47t-18 -58q0 -37 27.5 -60t71.5 -23q22 0 41 4z" />
    <glyph glyph-name="Ecaron" unicode="&#x11a;" horiz-adv-x="606" 
d="M544 96v-96h-463v700h460v-96h-352v-194h324v-96h-324v-218h355zM91 10l44 38h355l44 38h-352l-47 -38v314h324l44 38h-320l-48 -38v290h353l43 38h-440v-680zM459 907l-105 -148h-80l-104 148h81l63 -65l63 65h82zM279 769h34l-93 128h-31zM314 828v-59h1l95 128h-29z
" />
    <glyph glyph-name="ecaron" unicode="&#x11b;" horiz-adv-x="606" 
d="M544 96v-96h-463v700h460v-96h-352v-194h324v-96h-324v-218h355zM91 10l44 38h355l44 38h-352l-47 -38v314h324l44 38h-320l-48 -38v290h353l43 38h-440v-680zM459 907l-105 -148h-80l-104 148h81l63 -65l63 65h82zM279 769h34l-93 128h-31zM314 828v-59h1l95 128h-29z
" />
    <glyph glyph-name="Gcircumflex" unicode="&#x11c;" horiz-adv-x="765" 
d="M700 364v-223q-56 -81 -131.5 -118t-176.5 -37q-97 0 -175 47t-122 130t-44 187q0 103 47.5 186.5t128.5 130.5t177 47q85 0 158 -34.5t120 -94.5l-71 -74q-79 107 -209 107q-66 0 -121 -33.5t-87.5 -94.5t-32.5 -140t29.5 -139t82.5 -93.5t121 -33.5q70 0 117.5 23.5
t80.5 68.5v98h-191v90h299zM690 354h-279v-70l35 35h200l-44 -35v-111q-37 -51 -87.5 -75t-120.5 -24t-125 33.5t-86 94.5t-32 140v-2l-45 20q0 86 38.5 155.5t106.5 110t152 40.5q61 0 114 -20.5t95 -58.5v-61l57 59q-46 57 -115.5 88t-149.5 31q-95 0 -173.5 -46.5
t-124 -128t-45.5 -179.5v-10l45 20q0 -95 37 -169t102.5 -115t150.5 -41q172 0 250 124v160zM549 759h-82l-63 65l-63 -65h-81l104 148h80zM279 769h31l93 128h-34zM471 769h30l-96 128h-1v-59z" />
    <glyph glyph-name="gcircumflex" unicode="&#x11d;" horiz-adv-x="765" 
d="M700 364v-223q-56 -81 -131.5 -118t-176.5 -37q-97 0 -175 47t-122 130t-44 187q0 103 47.5 186.5t128.5 130.5t177 47q85 0 158 -34.5t120 -94.5l-71 -74q-79 107 -209 107q-66 0 -121 -33.5t-87.5 -94.5t-32.5 -140t29.5 -139t82.5 -93.5t121 -33.5q70 0 117.5 23.5
t80.5 68.5v98h-191v90h299zM690 354h-279v-70l35 35h200l-44 -35v-111q-37 -51 -87.5 -75t-120.5 -24t-125 33.5t-86 94.5t-32 140v-2l-45 20q0 86 38.5 155.5t106.5 110t152 40.5q61 0 114 -20.5t95 -58.5v-61l57 59q-46 57 -115.5 88t-149.5 31q-95 0 -173.5 -46.5
t-124 -128t-45.5 -179.5v-10l45 20q0 -95 37 -169t102.5 -115t150.5 -41q172 0 250 124v160zM549 759h-82l-63 65l-63 -65h-81l104 148h80zM279 769h31l93 128h-34zM471 769h30l-96 128h-1v-59z" />
    <glyph glyph-name="Gbreve" unicode="&#x11e;" horiz-adv-x="765" 
d="M700 364v-223q-56 -81 -131.5 -118t-176.5 -37q-97 0 -175 47t-122 130t-44 187q0 103 47.5 186.5t128.5 130.5t177 47q85 0 158 -34.5t120 -94.5l-71 -74q-79 107 -209 107q-66 0 -121 -33.5t-87.5 -94.5t-32.5 -140t29.5 -139t82.5 -93.5t121 -33.5q70 0 117.5 23.5
t80.5 68.5v98h-191v90h299zM690 354h-279v-70l35 35h200l-44 -35v-111q-37 -51 -87.5 -75t-120.5 -24t-125 33.5t-86 94.5t-32 140v-2l-45 20q0 86 38.5 155.5t106.5 110t152 40.5q61 0 114 -20.5t95 -58.5v-61l57 59q-46 57 -115.5 88t-149.5 31q-95 0 -173.5 -46.5
t-124 -128t-45.5 -179.5v-10l45 20q0 -95 37 -169t102.5 -115t150.5 -41q172 0 250 124v160zM513 878q0 -47 -29.5 -77.5t-78.5 -30.5t-78.5 30.5t-29.5 77.5h70q0 -20 10 -31.5t28 -11.5t28 11.5t10 31.5h70zM337.5 804q26.5 -24 67.5 -24v24q61 0 74 64h-27
q-2 -20 -15 -31.5t-32 -11.5v-21q-61 0 -74 64h-24q4 -40 30.5 -64z" />
    <glyph glyph-name="gbreve" unicode="&#x11f;" horiz-adv-x="765" 
d="M700 364v-223q-56 -81 -131.5 -118t-176.5 -37q-97 0 -175 47t-122 130t-44 187q0 103 47.5 186.5t128.5 130.5t177 47q85 0 158 -34.5t120 -94.5l-71 -74q-79 107 -209 107q-66 0 -121 -33.5t-87.5 -94.5t-32.5 -140t29.5 -139t82.5 -93.5t121 -33.5q70 0 117.5 23.5
t80.5 68.5v98h-191v90h299zM690 354h-279v-70l35 35h200l-44 -35v-111q-37 -51 -87.5 -75t-120.5 -24t-125 33.5t-86 94.5t-32 140v-2l-45 20q0 86 38.5 155.5t106.5 110t152 40.5q61 0 114 -20.5t95 -58.5v-61l57 59q-46 57 -115.5 88t-149.5 31q-95 0 -173.5 -46.5
t-124 -128t-45.5 -179.5v-10l45 20q0 -95 37 -169t102.5 -115t150.5 -41q172 0 250 124v160zM513 878q0 -47 -29.5 -77.5t-78.5 -30.5t-78.5 30.5t-29.5 77.5h70q0 -20 10 -31.5t28 -11.5t28 11.5t10 31.5h70zM337.5 804q26.5 -24 67.5 -24v24q61 0 74 64h-27
q-2 -20 -15 -31.5t-32 -11.5v-21q-61 0 -74 64h-24q4 -40 30.5 -64z" />
    <glyph glyph-name="Gdotaccent" unicode="&#x120;" horiz-adv-x="765" 
d="M700 364v-223q-56 -81 -131.5 -118t-176.5 -37q-97 0 -175 47t-122 130t-44 187q0 103 47.5 186.5t128.5 130.5t177 47q85 0 158 -34.5t120 -94.5l-71 -74q-79 107 -209 107q-66 0 -121 -33.5t-87.5 -94.5t-32.5 -140t29.5 -139t82.5 -93.5t121 -33.5q70 0 117.5 23.5
t80.5 68.5v98h-191v90h299zM690 354h-279v-70l35 35h200l-44 -35v-111q-37 -51 -87.5 -75t-120.5 -24t-125 33.5t-86 94.5t-32 140v-2l-45 20q0 86 38.5 155.5t106.5 110t152 40.5q61 0 114 -20.5t95 -58.5v-61l57 59q-46 57 -115.5 88t-149.5 31q-95 0 -173.5 -46.5
t-124 -128t-45.5 -179.5v-10l45 20q0 -95 37 -169t102.5 -115t150.5 -41q172 0 250 124v160zM463 894v-115h-116v115h116zM357 789h48v95h-48v-95z" />
    <glyph glyph-name="gdotaccent" unicode="&#x121;" horiz-adv-x="765" 
d="M700 364v-223q-56 -81 -131.5 -118t-176.5 -37q-97 0 -175 47t-122 130t-44 187q0 103 47.5 186.5t128.5 130.5t177 47q85 0 158 -34.5t120 -94.5l-71 -74q-79 107 -209 107q-66 0 -121 -33.5t-87.5 -94.5t-32.5 -140t29.5 -139t82.5 -93.5t121 -33.5q70 0 117.5 23.5
t80.5 68.5v98h-191v90h299zM690 354h-279v-70l35 35h200l-44 -35v-111q-37 -51 -87.5 -75t-120.5 -24t-125 33.5t-86 94.5t-32 140v-2l-45 20q0 86 38.5 155.5t106.5 110t152 40.5q61 0 114 -20.5t95 -58.5v-61l57 59q-46 57 -115.5 88t-149.5 31q-95 0 -173.5 -46.5
t-124 -128t-45.5 -179.5v-10l45 20q0 -95 37 -169t102.5 -115t150.5 -41q172 0 250 124v160zM463 894v-115h-116v115h116zM357 789h48v95h-48v-95z" />
    <glyph glyph-name="Gcommaaccent" unicode="&#x122;" horiz-adv-x="765" 
d="M700 364v-223q-56 -81 -131.5 -118t-176.5 -37q-97 0 -175 47t-122 130t-44 187q0 103 47.5 186.5t128.5 130.5t177 47q85 0 158 -34.5t120 -94.5l-71 -74q-79 107 -209 107q-66 0 -121 -33.5t-87.5 -94.5t-32.5 -140t29.5 -139t82.5 -93.5t121 -33.5q70 0 117.5 23.5
t80.5 68.5v98h-191v90h299zM690 354h-279v-70l35 35h200l-44 -35v-111q-37 -51 -87.5 -75t-120.5 -24t-125 33.5t-86 94.5t-32 140v-2l-45 20q0 86 38.5 155.5t106.5 110t152 40.5q61 0 114 -20.5t95 -58.5v-61l57 59q-46 57 -115.5 88t-149.5 31q-95 0 -173.5 -46.5
t-124 -128t-45.5 -179.5v-10l45 20q0 -95 37 -169t102.5 -115t150.5 -41q172 0 250 124v160zM448 -60v-109l-80 -135l-25 10l40 125h-42v109h107zM394 -159v89h-43v-89h43zM355 -288l5 -2l52 127h-17z" />
    <glyph glyph-name="gcommaaccent" unicode="&#x123;" horiz-adv-x="765" 
d="M700 364v-223q-56 -81 -131.5 -118t-176.5 -37q-97 0 -175 47t-122 130t-44 187q0 103 47.5 186.5t128.5 130.5t177 47q85 0 158 -34.5t120 -94.5l-71 -74q-79 107 -209 107q-66 0 -121 -33.5t-87.5 -94.5t-32.5 -140t29.5 -139t82.5 -93.5t121 -33.5q70 0 117.5 23.5
t80.5 68.5v98h-191v90h299zM690 354h-279v-70l35 35h200l-44 -35v-111q-37 -51 -87.5 -75t-120.5 -24t-125 33.5t-86 94.5t-32 140v-2l-45 20q0 86 38.5 155.5t106.5 110t152 40.5q61 0 114 -20.5t95 -58.5v-61l57 59q-46 57 -115.5 88t-149.5 31q-95 0 -173.5 -46.5
t-124 -128t-45.5 -179.5v-10l45 20q0 -95 37 -169t102.5 -115t150.5 -41q172 0 250 124v160zM448 -60v-109l-80 -135l-25 10l40 125h-42v109h107zM394 -159v89h-43v-89h43zM355 -288l5 -2l52 127h-17z" />
    <glyph glyph-name="Hcircumflex" unicode="&#x124;" horiz-adv-x="704" 
d="M623 700v-700h-108v308h-326v-308h-108v700h108v-294h326v294h108zM91 10l44 42v305h434l-44 -40v-307h1l43 42v638h-44v-294h-337l-53 -39v333h-44v-680zM496 759h-82l-63 65l-63 -65h-81l104 148h80zM226 769h31l93 128h-34zM418 769h30l-96 128h-1v-59z" />
    <glyph glyph-name="hcircumflex" unicode="&#x125;" horiz-adv-x="704" 
d="M623 700v-700h-108v308h-326v-308h-108v700h108v-294h326v294h108zM91 10l44 42v305h434l-44 -40v-307h1l43 42v638h-44v-294h-337l-53 -39v333h-44v-680zM496 759h-82l-63 65l-63 -65h-81l104 148h80zM226 769h31l93 128h-34zM418 769h30l-96 128h-1v-59z" />
    <glyph glyph-name="Hbar" unicode="&#x126;" horiz-adv-x="704" 
d="M716 572v-82h-93v-490h-108v308h-326v-308h-108v490h-93v82h93v128h108v-128h326v128h108v-128h93zM706 562h-93l-44 -31v159h-44v-128h-346l-44 -31v159h-44v-128h-93v-62l39 31h98l-44 -31v-490h1l43 41v306h430l-42 -39h2v-308l44 42v479h102zM135 531h434l-44 -31
v-104h-346l-44 -39v174zM515 490h-326v-84h326v84z" />
    <glyph glyph-name="hbar" unicode="&#x127;" horiz-adv-x="704" 
d="M716 572v-82h-93v-490h-108v308h-326v-308h-108v490h-93v82h93v128h108v-128h326v128h108v-128h93zM706 562h-93l-44 -31v159h-44v-128h-346l-44 -31v159h-44v-128h-93v-62l39 31h98l-44 -31v-490h1l43 41v306h430l-42 -39h2v-308l44 42v479h102zM135 531h434l-44 -31
v-104h-346l-44 -39v174zM515 490h-326v-84h326v84z" />
    <glyph glyph-name="Itilde" unicode="&#x128;" horiz-adv-x="330" 
d="M41 94h70v512h-70v94h248v-94h-70v-512h70v-94h-248v94zM95 47h140l44 37h-70l-44 -37v606h70l44 37h-228v-74l44 37h70l-44 -37v-532h-70v-74zM337 845q0 -39 -27.5 -62t-65.5 -23q-36 0 -57.5 10.5t-45.5 30.5q-31 25 -50 25q-11 0 -18 -6.5t-7 -17.5q0 -12 7 -26
l-67 -14q-13 22 -13 51q0 39 27.5 62t65.5 23q36 0 58 -10.5t45 -30.5q19 -16 30 -20.5t20 -4.5q11 0 18 6.5t7 17.5q0 12 -7 26l67 14q13 -22 13 -51zM11 773l25 5q-6 15 -6 35q0 21 16 35t42 14q23 0 40.5 -8t37.5 -26q18 -16 34.5 -24t40.5 -8q26 0 43 14.5t17 34.5
q0 23 -5 35l-25 -5q3 -10 3 -19q0 -15 -9.5 -24.5t-25.5 -9.5t-28.5 7t-28.5 20q-22 19 -42 29t-54 10q-36 0 -59.5 -21t-23.5 -54q0 -21 8 -40z" />
    <glyph glyph-name="itilde" unicode="&#x129;" horiz-adv-x="330" 
d="M41 94h70v512h-70v94h248v-94h-70v-512h70v-94h-248v94zM95 47h140l44 37h-70l-44 -37v606h70l44 37h-228v-74l44 37h70l-44 -37v-532h-70v-74zM337 845q0 -39 -27.5 -62t-65.5 -23q-36 0 -57.5 10.5t-45.5 30.5q-31 25 -50 25q-11 0 -18 -6.5t-7 -17.5q0 -12 7 -26
l-67 -14q-13 22 -13 51q0 39 27.5 62t65.5 23q36 0 58 -10.5t45 -30.5q19 -16 30 -20.5t20 -4.5q11 0 18 6.5t7 17.5q0 12 -7 26l67 14q13 -22 13 -51zM11 773l25 5q-6 15 -6 35q0 21 16 35t42 14q23 0 40.5 -8t37.5 -26q18 -16 34.5 -24t40.5 -8q26 0 43 14.5t17 34.5
q0 23 -5 35l-25 -5q3 -10 3 -19q0 -15 -9.5 -24.5t-25.5 -9.5t-28.5 7t-28.5 20q-22 19 -42 29t-54 10q-36 0 -59.5 -21t-23.5 -54q0 -21 8 -40z" />
    <glyph glyph-name="Imacron" unicode="&#x12a;" horiz-adv-x="330" 
d="M41 94h70v512h-70v94h248v-94h-70v-512h70v-94h-248v94zM95 47h140l44 37h-70l-44 -37v606h70l44 37h-228v-74l44 37h70l-44 -37v-532h-70v-74zM282 880v-82h-234v82h234zM272 870h-214v-62l31 31h152z" />
    <glyph glyph-name="imacron" unicode="&#x12b;" horiz-adv-x="330" 
d="M41 94h70v512h-70v94h248v-94h-70v-512h70v-94h-248v94zM95 47h140l44 37h-70l-44 -37v606h70l44 37h-228v-74l44 37h70l-44 -37v-532h-70v-74zM282 880v-82h-234v82h234zM272 870h-214v-62l31 31h152z" />
    <glyph glyph-name="Ibreve" unicode="&#x12c;" horiz-adv-x="330" 
d="M41 94h70v512h-70v94h248v-94h-70v-512h70v-94h-248v94zM95 47h140l44 37h-70l-44 -37v606h70l44 37h-228v-74l44 37h70l-44 -37v-532h-70v-74zM273 878q0 -47 -29.5 -77.5t-78.5 -30.5t-78.5 30.5t-29.5 77.5h70q0 -20 10 -31.5t28 -11.5t28 11.5t10 31.5h70zM97.5 804
q26.5 -24 67.5 -24v24q61 0 74 64h-27q-2 -20 -15 -31.5t-32 -11.5v-21q-61 0 -74 64h-24q4 -40 30.5 -64z" />
    <glyph glyph-name="ibreve" unicode="&#x12d;" horiz-adv-x="330" 
d="M41 94h70v512h-70v94h248v-94h-70v-512h70v-94h-248v94zM95 47h140l44 37h-70l-44 -37v606h70l44 37h-228v-74l44 37h70l-44 -37v-532h-70v-74zM273 878q0 -47 -29.5 -77.5t-78.5 -30.5t-78.5 30.5t-29.5 77.5h70q0 -20 10 -31.5t28 -11.5t28 11.5t10 31.5h70zM97.5 804
q26.5 -24 67.5 -24v24q61 0 74 64h-27q-2 -20 -15 -31.5t-32 -11.5v-21q-61 0 -74 64h-24q4 -40 30.5 -64z" />
    <glyph glyph-name="Iogonek" unicode="&#x12e;" horiz-adv-x="330" 
d="M41 94h70v512h-70v94h248v-94h-70v-512h70v-94h-248v94zM95 47h140l44 37h-70l-44 -37v606h70l44 37h-228v-74l44 37h70l-44 -37v-532h-70v-74zM223 -192q-26 -6 -52 -6q-44 0 -76.5 25t-32.5 68q0 36 21.5 66t55.5 49l80 -10q-71 -39 -71 -80q0 -19 12.5 -30t32.5 -11
l15 1h-1q3 1 7 1zM212 -184l-4 29q-14 -3 -26 -3q-33 0 -55 16.5t-22 49.5q0 49 59 89l-23 3q-33 -20 -51 -47t-18 -58q0 -37 27.5 -60t71.5 -23q22 0 41 4z" />
    <glyph glyph-name="iogonek" unicode="&#x12f;" horiz-adv-x="330" 
d="M41 94h70v512h-70v94h248v-94h-70v-512h70v-94h-248v94zM95 47h140l44 37h-70l-44 -37v606h70l44 37h-228v-74l44 37h70l-44 -37v-532h-70v-74zM223 -192q-26 -6 -52 -6q-44 0 -76.5 25t-32.5 68q0 36 21.5 66t55.5 49l80 -10q-71 -39 -71 -80q0 -19 12.5 -30t32.5 -11
l15 1h-1q3 1 7 1zM212 -184l-4 29q-14 -3 -26 -3q-33 0 -55 16.5t-22 49.5q0 49 59 89l-23 3q-33 -20 -51 -47t-18 -58q0 -37 27.5 -60t71.5 -23q22 0 41 4z" />
    <glyph glyph-name="Idotaccent" unicode="&#x130;" horiz-adv-x="330" 
d="M41 94h70v512h-70v94h248v-94h-70v-512h70v-94h-248v94zM95 47h140l44 37h-70l-44 -37v606h70l44 37h-228v-74l44 37h70l-44 -37v-532h-70v-74zM223 894v-115h-116v115h116zM117 789h48v95h-48v-95z" />
    <glyph glyph-name="IJ" unicode="&#x132;" horiz-adv-x="696" 
d="M41 94h70v512h-70v94h248v-94h-70v-512h70v-94h-248v94zM95 47h140l44 37h-70l-44 -37v606h70l44 37h-228v-74l44 37h70l-44 -37v-532h-70v-74zM655 700v-94h-70v-410q0 -63 -26 -110.5t-72.5 -73.5t-105.5 -26q-12 0 -20 2v98q10 -2 19 -2q44 0 70.5 32t26.5 88v402h-70
v94h248zM645 690h-228v-74l44 37h70l-44 -37v-412q0 -59 -29 -94.5t-78 -35.5q-6 0 -9 1v-40q74 0 117 41.5t43 130.5v446h70z" />
    <glyph glyph-name="ij" unicode="&#x133;" horiz-adv-x="696" 
d="M41 94h70v512h-70v94h248v-94h-70v-512h70v-94h-248v94zM95 47h140l44 37h-70l-44 -37v606h70l44 37h-228v-74l44 37h70l-44 -37v-532h-70v-74zM655 700v-94h-70v-410q0 -63 -26 -110.5t-72.5 -73.5t-105.5 -26q-12 0 -20 2v98q10 -2 19 -2q44 0 70.5 32t26.5 88v402h-70
v94h248zM645 690h-228v-74l44 37h70l-44 -37v-412q0 -59 -29 -94.5t-78 -35.5q-6 0 -9 1v-40q74 0 117 41.5t43 130.5v446h70z" />
    <glyph glyph-name="Jcircumflex" unicode="&#x134;" horiz-adv-x="363" 
d="M322 700v-94h-70v-410q0 -63 -26 -110.5t-72.5 -73.5t-105.5 -26q-12 0 -20 2v98q10 -2 19 -2q44 0 70.5 32t26.5 88v402h-70v94h248zM312 690h-228v-74l44 37h70l-44 -37v-412q0 -59 -29 -94.5t-78 -35.5q-6 0 -9 1v-40q74 0 117 41.5t43 130.5v446h70zM342 759h-82
l-63 65l-63 -65h-81l104 148h80zM72 769h31l93 128h-34zM264 769h30l-96 128h-1v-59z" />
    <glyph glyph-name="jcircumflex" unicode="&#x135;" horiz-adv-x="363" 
d="M322 700v-94h-70v-410q0 -63 -26 -110.5t-72.5 -73.5t-105.5 -26q-12 0 -20 2v98q10 -2 19 -2q44 0 70.5 32t26.5 88v402h-70v94h248zM312 690h-228v-74l44 37h70l-44 -37v-412q0 -59 -29 -94.5t-78 -35.5q-6 0 -9 1v-40q74 0 117 41.5t43 130.5v446h70zM342 759h-82
l-63 65l-63 -65h-81l104 148h80zM72 769h31l93 128h-34zM264 769h30l-96 128h-1v-59z" />
    <glyph glyph-name="Kcommaaccent" unicode="&#x136;" horiz-adv-x="640" 
d="M619 0h-126l-216 360l-88 -92v-268h-108v700h108v-294l48 53l226 241h138l-246 -260zM91 10l44 44v228l153 161l234 -389l79 -44l-259 431l-54 2l233 247h-54l-223 -238l-65 -70l-44 -100v408h-44v-680zM381 -60v-109l-80 -135l-25 10l40 125h-42v109h107zM327 -159v89
h-43v-89h43zM288 -288l5 -2l52 127h-17z" />
    <glyph glyph-name="kcommaaccent" unicode="&#x137;" horiz-adv-x="640" 
d="M619 0h-126l-216 360l-88 -92v-268h-108v700h108v-294l48 53l226 241h138l-246 -260zM91 10l44 44v228l153 161l234 -389l79 -44l-259 431l-54 2l233 247h-54l-223 -238l-65 -70l-44 -100v408h-44v-680zM381 -60v-109l-80 -135l-25 10l40 125h-42v109h107zM327 -159v89
h-43v-89h43zM288 -288l5 -2l52 127h-17z" />
    <glyph glyph-name="Lacute" unicode="&#x139;" horiz-adv-x="586" 
d="M540 96v-96h-459v700h108v-604h351zM530 86h-351l-44 -38v642h-44v-680l44 38h351zM274 907l-112 -148h-85l66 148h131zM92 769l49 32l57 96h-49z" />
    <glyph glyph-name="lacute" unicode="&#x13a;" horiz-adv-x="586" 
d="M540 96v-96h-459v700h108v-604h351zM530 86h-351l-44 -38v642h-44v-680l44 38h351zM274 907l-112 -148h-85l66 148h131zM92 769l49 32l57 96h-49z" />
    <glyph glyph-name="Lcommaaccent" unicode="&#x13b;" horiz-adv-x="586" 
d="M540 96v-96h-459v700h108v-604h351zM530 86h-351l-44 -38v642h-44v-680l44 38h351zM363 -60v-109l-80 -135l-25 10l40 125h-42v109h107zM309 -159v89h-43v-89h43zM270 -288l5 -2l52 127h-17z" />
    <glyph glyph-name="lcommaaccent" unicode="&#x13c;" horiz-adv-x="586" 
d="M540 96v-96h-459v700h108v-604h351zM530 86h-351l-44 -38v642h-44v-680l44 38h351zM363 -60v-109l-80 -135l-25 10l40 125h-42v109h107zM309 -159v89h-43v-89h43zM270 -288l5 -2l52 127h-17z" />
    <glyph glyph-name="Lcaron" unicode="&#x13d;" horiz-adv-x="586" 
d="M189 96h351v-96h-459v700h108v-604zM540 700v-99l-70 -107l-24 14l38 95h-40v97h96zM179 86l-44 -38v642h-44v-680l44 38h351l44 38h-351zM492 613v77h-38v-77h38zM458 512l4 -2l47 93h-14z" />
    <glyph glyph-name="lcaron" unicode="&#x13e;" horiz-adv-x="586" 
d="M189 96h351v-96h-459v700h108v-604zM540 700v-99l-70 -107l-24 14l38 95h-40v97h96zM179 86l-44 -38v642h-44v-680l44 38h351l44 38h-351zM492 613v77h-38v-77h38zM458 512l4 -2l47 93h-14z" />
    <glyph glyph-name="Ldot" unicode="&#x13f;" horiz-adv-x="586" 
d="M540 96v-96h-459v700h108v-604h351zM530 86h-351l-44 -38v642h-44v-680l44 38h351zM485 418v-126h-124v126h124zM371 302h52v106h-52v-106z" />
    <glyph glyph-name="ldot" unicode="&#x140;" horiz-adv-x="586" 
d="M540 96v-96h-459v700h108v-604h351zM530 86h-351l-44 -38v642h-44v-680l44 38h351zM485 418v-126h-124v126h124zM371 302h52v106h-52v-106z" />
    <glyph glyph-name="Lslash" unicode="&#x141;" horiz-adv-x="586" 
d="M550 96v-96h-459v194l-80 -51v103l80 51v403h108v-335l158 101v-103l-158 -100v-167h351zM540 86h-351l-44 -38v233l202 127v40l-158 -101l-44 -66v409h-44v-398l-80 -51v-39l124 79l-44 -69v-202l44 38h351z" />
    <glyph glyph-name="lslash" unicode="&#x142;" horiz-adv-x="586" 
d="M550 96v-96h-459v194l-80 -51v103l80 51v403h108v-335l158 101v-103l-158 -100v-167h351zM540 86h-351l-44 -38v233l202 127v40l-158 -101l-44 -66v409h-44v-398l-80 -51v-39l124 79l-44 -69v-202l44 38h351z" />
    <glyph glyph-name="Nacute" unicode="&#x143;" horiz-adv-x="720" 
d="M639 700v-700h-110l-314 488q-4 6 -14.5 23.5t-14.5 27.5l-1 -529v-10h-104v700h110l314 -488q4 -6 15 -25t15 -28v541h104zM91 10l42 42v638h-42v-680zM545 690v-551l42 -66v617h-42zM534 10l28 28l-376 571v-54q37 -61 37 -62zM489 907l-112 -148h-85l66 148h131z
M307 769l49 32l57 96h-49z" />
    <glyph glyph-name="nacute" unicode="&#x144;" horiz-adv-x="720" 
d="M639 700v-700h-110l-314 488q-4 6 -14.5 23.5t-14.5 27.5l-1 -529v-10h-104v700h110l314 -488q4 -6 15 -25t15 -28v541h104zM91 10l42 42v638h-42v-680zM545 690v-551l42 -66v617h-42zM534 10l28 28l-376 571v-54q37 -61 37 -62zM489 907l-112 -148h-85l66 148h131z
M307 769l49 32l57 96h-49z" />
    <glyph glyph-name="Ncommaaccent" unicode="&#x145;" horiz-adv-x="720" 
d="M639 700v-700h-110l-314 488q-4 6 -14.5 23.5t-14.5 27.5l-1 -529v-10h-104v700h110l314 -488q4 -6 15 -25t15 -28v541h104zM91 10l42 42v638h-42v-680zM545 690v-551l42 -66v617h-42zM534 10l28 28l-376 571v-54q37 -61 37 -62zM413 -60v-109l-80 -135l-25 10l40 125
h-42v109h107zM359 -159v89h-43v-89h43zM320 -288l5 -2l52 127h-17z" />
    <glyph glyph-name="ncommaaccent" unicode="&#x146;" horiz-adv-x="720" 
d="M639 700v-700h-110l-314 488q-4 6 -14.5 23.5t-14.5 27.5l-1 -529v-10h-104v700h110l314 -488q4 -6 15 -25t15 -28v541h104zM91 10l42 42v638h-42v-680zM545 690v-551l42 -66v617h-42zM534 10l28 28l-376 571v-54q37 -61 37 -62zM413 -60v-109l-80 -135l-25 10l40 125
h-42v109h107zM359 -159v89h-43v-89h43zM320 -288l5 -2l52 127h-17z" />
    <glyph glyph-name="Ncaron" unicode="&#x147;" horiz-adv-x="720" 
d="M639 700v-700h-110l-314 488q-4 6 -14.5 23.5t-14.5 27.5l-1 -529v-10h-104v700h110l314 -488q4 -6 15 -25t15 -28v541h104zM91 10l42 42v638h-42v-680zM545 690v-551l42 -66v617h-42zM534 10l28 28l-376 571v-54q37 -61 37 -62zM504 907l-105 -148h-80l-104 148h81
l63 -65l63 65h82zM324 769h34l-93 128h-31zM359 828v-59h1l95 128h-29z" />
    <glyph glyph-name="ncaron" unicode="&#x148;" horiz-adv-x="720" 
d="M639 700v-700h-110l-314 488q-4 6 -14.5 23.5t-14.5 27.5l-1 -529v-10h-104v700h110l314 -488q4 -6 15 -25t15 -28v541h104zM91 10l42 42v638h-42v-680zM545 690v-551l42 -66v617h-42zM534 10l28 28l-376 571v-54q37 -61 37 -62zM504 907l-105 -148h-80l-104 148h81
l63 -65l63 65h82zM324 769h34l-93 128h-31zM359 828v-59h1l95 128h-29z" />
    <glyph glyph-name="Eng" unicode="&#x14a;" horiz-adv-x="720" 
d="M639 700v-706q0 -99 -49 -155.5t-147 -56.5q-27 0 -46 4t-47 14l40 94q26 -14 57 -14q35 0 58 26.5t24 83.5v10l-314 486q-4 6 -15 25t-15 28v-539h-104v700h110l314 -486q4 -6 15 -25t15 -28v539h104zM91 10l42 42l-1 638h-41v-680zM545 132l41 -118l1 676h-42v-558z
M379 -157q29 -14 74 -14q59 0 95.5 43.5t37.5 120.5v19l-411 614v-55l48 -80l316 -488v-13q-1 -57 -25 -88.5t-67 -31.5q-25 0 -52 10z" />
    <glyph glyph-name="eng" unicode="&#x14b;" horiz-adv-x="720" 
d="M639 700v-706q0 -99 -49 -155.5t-147 -56.5q-27 0 -46 4t-47 14l40 94q26 -14 57 -14q35 0 58 26.5t24 83.5v10l-314 486q-4 6 -15 25t-15 28v-539h-104v700h110l314 -486q4 -6 15 -25t15 -28v539h104zM91 10l42 42l-1 638h-41v-680zM545 132l41 -118l1 676h-42v-558z
M379 -157q29 -14 74 -14q59 0 95.5 43.5t37.5 120.5v19l-411 614v-55l48 -80l316 -488v-13q-1 -57 -25 -88.5t-67 -31.5q-25 0 -52 10z" />
    <glyph glyph-name="Omacron" unicode="&#x14c;" horiz-adv-x="800" 
d="M577.5 667.5q79.5 -46.5 125.5 -129.5t46 -188t-46 -188t-125.5 -129.5t-177.5 -46.5t-177.5 46.5t-125.5 129.5t-46 188t46 188t125.5 129.5t177.5 46.5t177.5 -46.5zM226.5 658q-77.5 -46 -121.5 -126.5t-44 -181.5q0 -67 20 -126t57 -106l45 14q38 -44 95 -70.5
t119 -26.5q81 0 149 38t108 109.5t40 167.5q0 64 -18.5 116.5t-55.5 103.5l45 8q-47 59 -115.5 92.5t-149.5 33.5q-96 0 -173.5 -46zM524.5 641q57.5 -27 95.5 -71l-25 -40q54 -75 54 -180q0 -80 -32 -143t-88.5 -98t-128.5 -35q-62 0 -113 26.5t-85 73.5l-19 -42
q-39 49 -58 102t-19 116q0 99 40.5 171t108.5 109.5t151 37.5q61 0 118.5 -27zM522.5 117q54.5 33 85.5 93.5t31 139.5t-31 139.5t-85.5 93.5t-122.5 33t-122.5 -33t-85.5 -93.5t-31 -139.5t31 -139.5t85.5 -93.5t122.5 -33t122.5 33zM517 880v-82h-234v82h234zM507 870
h-214v-62l31 31h152z" />
    <glyph glyph-name="omacron" unicode="&#x14d;" horiz-adv-x="800" 
d="M577.5 667.5q79.5 -46.5 125.5 -129.5t46 -188t-46 -188t-125.5 -129.5t-177.5 -46.5t-177.5 46.5t-125.5 129.5t-46 188t46 188t125.5 129.5t177.5 46.5t177.5 -46.5zM226.5 658q-77.5 -46 -121.5 -126.5t-44 -181.5q0 -67 20 -126t57 -106l45 14q38 -44 95 -70.5
t119 -26.5q81 0 149 38t108 109.5t40 167.5q0 64 -18.5 116.5t-55.5 103.5l45 8q-47 59 -115.5 92.5t-149.5 33.5q-96 0 -173.5 -46zM524.5 641q57.5 -27 95.5 -71l-25 -40q54 -75 54 -180q0 -80 -32 -143t-88.5 -98t-128.5 -35q-62 0 -113 26.5t-85 73.5l-19 -42
q-39 49 -58 102t-19 116q0 99 40.5 171t108.5 109.5t151 37.5q61 0 118.5 -27zM522.5 117q54.5 33 85.5 93.5t31 139.5t-31 139.5t-85.5 93.5t-122.5 33t-122.5 -33t-85.5 -93.5t-31 -139.5t31 -139.5t85.5 -93.5t122.5 -33t122.5 33zM517 880v-82h-234v82h234zM507 870
h-214v-62l31 31h152z" />
    <glyph glyph-name="Obreve" unicode="&#x14e;" horiz-adv-x="800" 
d="M577.5 667.5q79.5 -46.5 125.5 -129.5t46 -188t-46 -188t-125.5 -129.5t-177.5 -46.5t-177.5 46.5t-125.5 129.5t-46 188t46 188t125.5 129.5t177.5 46.5t177.5 -46.5zM226.5 658q-77.5 -46 -121.5 -126.5t-44 -181.5q0 -67 20 -126t57 -106l45 14q38 -44 95 -70.5
t119 -26.5q81 0 149 38t108 109.5t40 167.5q0 64 -18.5 116.5t-55.5 103.5l45 8q-47 59 -115.5 92.5t-149.5 33.5q-96 0 -173.5 -46zM524.5 641q57.5 -27 95.5 -71l-25 -40q54 -75 54 -180q0 -80 -32 -143t-88.5 -98t-128.5 -35q-62 0 -113 26.5t-85 73.5l-19 -42
q-39 49 -58 102t-19 116q0 99 40.5 171t108.5 109.5t151 37.5q61 0 118.5 -27zM522.5 117q54.5 33 85.5 93.5t31 139.5t-31 139.5t-85.5 93.5t-122.5 33t-122.5 -33t-85.5 -93.5t-31 -139.5t31 -139.5t85.5 -93.5t122.5 -33t122.5 33zM508 878q0 -47 -29.5 -77.5
t-78.5 -30.5t-78.5 30.5t-29.5 77.5h70q0 -20 10 -31.5t28 -11.5t28 11.5t10 31.5h70zM332.5 804q26.5 -24 67.5 -24v24q61 0 74 64h-27q-2 -20 -15 -31.5t-32 -11.5v-21q-61 0 -74 64h-24q4 -40 30.5 -64z" />
    <glyph glyph-name="obreve" unicode="&#x14f;" horiz-adv-x="800" 
d="M577.5 667.5q79.5 -46.5 125.5 -129.5t46 -188t-46 -188t-125.5 -129.5t-177.5 -46.5t-177.5 46.5t-125.5 129.5t-46 188t46 188t125.5 129.5t177.5 46.5t177.5 -46.5zM226.5 658q-77.5 -46 -121.5 -126.5t-44 -181.5q0 -67 20 -126t57 -106l45 14q38 -44 95 -70.5
t119 -26.5q81 0 149 38t108 109.5t40 167.5q0 64 -18.5 116.5t-55.5 103.5l45 8q-47 59 -115.5 92.5t-149.5 33.5q-96 0 -173.5 -46zM524.5 641q57.5 -27 95.5 -71l-25 -40q54 -75 54 -180q0 -80 -32 -143t-88.5 -98t-128.5 -35q-62 0 -113 26.5t-85 73.5l-19 -42
q-39 49 -58 102t-19 116q0 99 40.5 171t108.5 109.5t151 37.5q61 0 118.5 -27zM522.5 117q54.5 33 85.5 93.5t31 139.5t-31 139.5t-85.5 93.5t-122.5 33t-122.5 -33t-85.5 -93.5t-31 -139.5t31 -139.5t85.5 -93.5t122.5 -33t122.5 33zM508 878q0 -47 -29.5 -77.5
t-78.5 -30.5t-78.5 30.5t-29.5 77.5h70q0 -20 10 -31.5t28 -11.5t28 11.5t10 31.5h70zM332.5 804q26.5 -24 67.5 -24v24q61 0 74 64h-27q-2 -20 -15 -31.5t-32 -11.5v-21q-61 0 -74 64h-24q4 -40 30.5 -64z" />
    <glyph glyph-name="Ohungarumlaut" unicode="&#x150;" horiz-adv-x="800" 
d="M577.5 667.5q79.5 -46.5 125.5 -129.5t46 -188t-46 -188t-125.5 -129.5t-177.5 -46.5t-177.5 46.5t-125.5 129.5t-46 188t46 188t125.5 129.5t177.5 46.5t177.5 -46.5zM226.5 658q-77.5 -46 -121.5 -126.5t-44 -181.5q0 -67 20 -126t57 -106l45 14q38 -44 95 -70.5
t119 -26.5q81 0 149 38t108 109.5t40 167.5q0 64 -18.5 116.5t-55.5 103.5l45 8q-47 59 -115.5 92.5t-149.5 33.5q-96 0 -173.5 -46zM524.5 641q57.5 -27 95.5 -71l-25 -40q54 -75 54 -180q0 -80 -32 -143t-88.5 -98t-128.5 -35q-62 0 -113 26.5t-85 73.5l-19 -42
q-39 49 -58 102t-19 116q0 99 40.5 171t108.5 109.5t151 37.5q61 0 118.5 -27zM522.5 117q54.5 33 85.5 93.5t31 139.5t-31 139.5t-85.5 93.5t-122.5 33t-122.5 -33t-85.5 -93.5t-31 -139.5t31 -139.5t85.5 -93.5t122.5 -33t122.5 33zM442 907l-112 -148h-85l66 148h131z
M616 907l-112 -148h-85l66 148h131zM260 769l49 32l57 96h-49zM434 769l49 32l57 96h-49z" />
    <glyph glyph-name="ohungarumlaut" unicode="&#x151;" horiz-adv-x="800" 
d="M577.5 667.5q79.5 -46.5 125.5 -129.5t46 -188t-46 -188t-125.5 -129.5t-177.5 -46.5t-177.5 46.5t-125.5 129.5t-46 188t46 188t125.5 129.5t177.5 46.5t177.5 -46.5zM226.5 658q-77.5 -46 -121.5 -126.5t-44 -181.5q0 -67 20 -126t57 -106l45 14q38 -44 95 -70.5
t119 -26.5q81 0 149 38t108 109.5t40 167.5q0 64 -18.5 116.5t-55.5 103.5l45 8q-47 59 -115.5 92.5t-149.5 33.5q-96 0 -173.5 -46zM524.5 641q57.5 -27 95.5 -71l-25 -40q54 -75 54 -180q0 -80 -32 -143t-88.5 -98t-128.5 -35q-62 0 -113 26.5t-85 73.5l-19 -42
q-39 49 -58 102t-19 116q0 99 40.5 171t108.5 109.5t151 37.5q61 0 118.5 -27zM522.5 117q54.5 33 85.5 93.5t31 139.5t-31 139.5t-85.5 93.5t-122.5 33t-122.5 -33t-85.5 -93.5t-31 -139.5t31 -139.5t85.5 -93.5t122.5 -33t122.5 33zM442 907l-112 -148h-85l66 148h131z
M616 907l-112 -148h-85l66 148h131zM260 769l49 32l57 96h-49zM434 769l49 32l57 96h-49z" />
    <glyph glyph-name="OE" unicode="&#x152;" horiz-adv-x="1164" 
d="M1102 96v-96h-463v108q-43 -59 -104.5 -90.5t-134.5 -31.5q-70 0 -132 24.5t-109 70.5q-6 5 -23 24q-41 48 -63 111t-22 134q0 105 46 188t125.5 129.5t177.5 46.5q73 0 135.5 -28.5t103.5 -80.5v95h460v-96h-352v-194h324v-96h-324v-218h355zM1092 86h-355l-44 -38v315
h326l42 37h-324l-44 -37v289h353l43 38h-440v-115q-50 67 -111.5 98t-137.5 31q-96 0 -173.5 -46t-121.5 -126.5t-44 -181.5q0 -66 19.5 -124.5t56.5 -105.5l39 13q38 -46 92 -71t131 -25q124 0 192.5 85t101.5 241q0 -126 -44 -226v-127l44 38h355zM198 180l-22 -47
q-31 36 -51 93t-20 125q0 80 32 152t98.5 117.5t165.5 45.5q55 0 96.5 -17.5t56 -30t52.5 -48.5l-20 -29q30 -36 46.5 -85t16.5 -106q0 -80 -32 -143t-88.5 -98t-128.5 -35q-65 0 -117 28t-85 79v-1zM522.5 117q54.5 33 85.5 93.5t31 139.5t-31 139.5t-85.5 93.5t-122.5 33
t-122.5 -33t-85.5 -93.5t-31 -139.5t31 -139.5t85.5 -93.5t122.5 -33t122.5 33zM649 575q44 -124 44 -212q-19 72 -39 122t-48 85z" />
    <glyph glyph-name="oe" unicode="&#x153;" horiz-adv-x="1164" 
d="M1102 96v-96h-463v108q-43 -59 -104.5 -90.5t-134.5 -31.5q-70 0 -132 24.5t-109 70.5q-6 5 -23 24q-41 48 -63 111t-22 134q0 105 46 188t125.5 129.5t177.5 46.5q73 0 135.5 -28.5t103.5 -80.5v95h460v-96h-352v-194h324v-96h-324v-218h355zM1092 86h-355l-44 -38v315
h326l42 37h-324l-44 -37v289h353l43 38h-440v-115q-50 67 -111.5 98t-137.5 31q-96 0 -173.5 -46t-121.5 -126.5t-44 -181.5q0 -66 19.5 -124.5t56.5 -105.5l39 13q38 -46 92 -71t131 -25q124 0 192.5 85t101.5 241q0 -126 -44 -226v-127l44 38h355zM198 180l-22 -47
q-31 36 -51 93t-20 125q0 80 32 152t98.5 117.5t165.5 45.5q55 0 96.5 -17.5t56 -30t52.5 -48.5l-20 -29q30 -36 46.5 -85t16.5 -106q0 -80 -32 -143t-88.5 -98t-128.5 -35q-65 0 -117 28t-85 79v-1zM522.5 117q54.5 33 85.5 93.5t31 139.5t-31 139.5t-85.5 93.5t-122.5 33
t-122.5 -33t-85.5 -93.5t-31 -139.5t31 -139.5t85.5 -93.5t122.5 -33t122.5 33zM649 575q44 -124 44 -212q-19 72 -39 122t-48 85z" />
    <glyph glyph-name="Racute" unicode="&#x154;" horiz-adv-x="656" 
d="M615 0h-125l-163 295h-138v-295h-108v700h289q72 0 125.5 -25.5t82.5 -70.5t29 -102q0 -74 -44 -125.5t-122 -72.5zM496 10l27 40l-162 292h4q77 0 133 39t56 129l43 -20v12q0 56 -28 98.5t-79.5 66t-119.5 23.5h-279v-680l44 44v288h226l-28 -37zM179 379l-44 -37v311
h232q56 0 98.5 -19t65.5 -51.5t23 -72.5l-45 -20q-2 -54 -40 -82.5t-106 -28.5h-184zM464.5 416.5q34.5 27.5 34.5 80.5t-34.5 81t-101.5 28h-174v-217h174q67 0 101.5 27.5zM457 907l-112 -148h-85l66 148h131zM275 769l49 32l57 96h-49z" />
    <glyph glyph-name="racute" unicode="&#x155;" horiz-adv-x="656" 
d="M615 0h-125l-163 295h-138v-295h-108v700h289q72 0 125.5 -25.5t82.5 -70.5t29 -102q0 -74 -44 -125.5t-122 -72.5zM496 10l27 40l-162 292h4q77 0 133 39t56 129l43 -20v12q0 56 -28 98.5t-79.5 66t-119.5 23.5h-279v-680l44 44v288h226l-28 -37zM179 379l-44 -37v311
h232q56 0 98.5 -19t65.5 -51.5t23 -72.5l-45 -20q-2 -54 -40 -82.5t-106 -28.5h-184zM464.5 416.5q34.5 27.5 34.5 80.5t-34.5 81t-101.5 28h-174v-217h174q67 0 101.5 27.5zM457 907l-112 -148h-85l66 148h131zM275 769l49 32l57 96h-49z" />
    <glyph glyph-name="Rcommaaccent" unicode="&#x156;" horiz-adv-x="656" 
d="M615 0h-125l-163 295h-138v-295h-108v700h289q72 0 125.5 -25.5t82.5 -70.5t29 -102q0 -74 -44 -125.5t-122 -72.5zM496 10l27 40l-162 292h4q77 0 133 39t56 129l43 -20v12q0 56 -28 98.5t-79.5 66t-119.5 23.5h-279v-680l44 44v288h226l-28 -37zM179 379l-44 -37v311
h232q56 0 98.5 -19t65.5 -51.5t23 -72.5l-45 -20q-2 -54 -40 -82.5t-106 -28.5h-184zM464.5 416.5q34.5 27.5 34.5 80.5t-34.5 81t-101.5 28h-174v-217h174q67 0 101.5 27.5zM381 -60v-109l-80 -135l-25 10l40 125h-42v109h107zM327 -159v89h-43v-89h43zM288 -288l5 -2
l52 127h-17z" />
    <glyph glyph-name="rcommaaccent" unicode="&#x157;" horiz-adv-x="656" 
d="M615 0h-125l-163 295h-138v-295h-108v700h289q72 0 125.5 -25.5t82.5 -70.5t29 -102q0 -74 -44 -125.5t-122 -72.5zM496 10l27 40l-162 292h4q77 0 133 39t56 129l43 -20v12q0 56 -28 98.5t-79.5 66t-119.5 23.5h-279v-680l44 44v288h226l-28 -37zM179 379l-44 -37v311
h232q56 0 98.5 -19t65.5 -51.5t23 -72.5l-45 -20q-2 -54 -40 -82.5t-106 -28.5h-184zM464.5 416.5q34.5 27.5 34.5 80.5t-34.5 81t-101.5 28h-174v-217h174q67 0 101.5 27.5zM381 -60v-109l-80 -135l-25 10l40 125h-42v109h107zM327 -159v89h-43v-89h43zM288 -288l5 -2
l52 127h-17z" />
    <glyph glyph-name="Rcaron" unicode="&#x158;" horiz-adv-x="656" 
d="M615 0h-125l-163 295h-138v-295h-108v700h289q72 0 125.5 -25.5t82.5 -70.5t29 -102q0 -74 -44 -125.5t-122 -72.5zM496 10l27 40l-162 292h4q77 0 133 39t56 129l43 -20v12q0 56 -28 98.5t-79.5 66t-119.5 23.5h-279v-680l44 44v288h226l-28 -37zM179 379l-44 -37v311
h232q56 0 98.5 -19t65.5 -51.5t23 -72.5l-45 -20q-2 -54 -40 -82.5t-106 -28.5h-184zM464.5 416.5q34.5 27.5 34.5 80.5t-34.5 81t-101.5 28h-174v-217h174q67 0 101.5 27.5zM472 907l-105 -148h-80l-104 148h81l63 -65l63 65h82zM292 769h34l-93 128h-31zM327 828v-59h1
l95 128h-29z" />
    <glyph glyph-name="rcaron" unicode="&#x159;" horiz-adv-x="656" 
d="M615 0h-125l-163 295h-138v-295h-108v700h289q72 0 125.5 -25.5t82.5 -70.5t29 -102q0 -74 -44 -125.5t-122 -72.5zM496 10l27 40l-162 292h4q77 0 133 39t56 129l43 -20v12q0 56 -28 98.5t-79.5 66t-119.5 23.5h-279v-680l44 44v288h226l-28 -37zM179 379l-44 -37v311
h232q56 0 98.5 -19t65.5 -51.5t23 -72.5l-45 -20q-2 -54 -40 -82.5t-106 -28.5h-184zM464.5 416.5q34.5 27.5 34.5 80.5t-34.5 81t-101.5 28h-174v-217h174q67 0 101.5 27.5zM472 907l-105 -148h-80l-104 148h81l63 -65l63 65h82zM292 769h34l-93 128h-31zM327 828v-59h1
l95 128h-29z" />
    <glyph glyph-name="Sacute" unicode="&#x15a;" horiz-adv-x="651" 
d="M536.5 334q55.5 -50 55.5 -137q0 -57 -31.5 -105.5t-89.5 -77t-135 -28.5q-99 0 -170 44t-100 110l70 75q24 -59 77 -97t122 -38q68 0 108.5 32.5t40.5 80.5q0 53 -42 81.5t-136 46.5q-104 20 -164.5 71t-60.5 135q0 55 30.5 97.5t85 66t124.5 23.5q80 0 143 -33t102 -93
l-70 -69q-28 49 -75 75t-101 26q-59 0 -98 -24t-39 -67q0 -46 44.5 -75.5t138.5 -47.5q115 -22 170.5 -72zM215.5 104.5q-54.5 34.5 -82.5 92.5v-71q10 -22 38 -43.5t71 -35.5t93 -14q59 0 105.5 21t72 55.5t25.5 75.5l44 20q-2 78 -55 124t-163 67q-93 17 -139.5 46.5
t-50.5 74.5l-42 21q0 37 24.5 66t67.5 46t96 17q42 0 79 -12t63 -28.5t36 -30.5v-61l56 55q-39 55 -99 84.5t-134 29.5q-67 0 -119.5 -22.5t-81.5 -62.5t-29 -92v-10l41 21q0 -70 49 -113.5t154 -61.5q105 -17 154 -60t49 -118l-44 18v-10q0 -54 -45 -88.5t-114 -34.5
q-65 0 -119.5 34.5zM450 907l-112 -148h-85l66 148h131zM268 769l49 32l57 96h-49z" />
    <glyph glyph-name="sacute" unicode="&#x15b;" horiz-adv-x="651" 
d="M536.5 334q55.5 -50 55.5 -137q0 -57 -31.5 -105.5t-89.5 -77t-135 -28.5q-99 0 -170 44t-100 110l70 75q24 -59 77 -97t122 -38q68 0 108.5 32.5t40.5 80.5q0 53 -42 81.5t-136 46.5q-104 20 -164.5 71t-60.5 135q0 55 30.5 97.5t85 66t124.5 23.5q80 0 143 -33t102 -93
l-70 -69q-28 49 -75 75t-101 26q-59 0 -98 -24t-39 -67q0 -46 44.5 -75.5t138.5 -47.5q115 -22 170.5 -72zM215.5 104.5q-54.5 34.5 -82.5 92.5v-71q10 -22 38 -43.5t71 -35.5t93 -14q59 0 105.5 21t72 55.5t25.5 75.5l44 20q-2 78 -55 124t-163 67q-93 17 -139.5 46.5
t-50.5 74.5l-42 21q0 37 24.5 66t67.5 46t96 17q42 0 79 -12t63 -28.5t36 -30.5v-61l56 55q-39 55 -99 84.5t-134 29.5q-67 0 -119.5 -22.5t-81.5 -62.5t-29 -92v-10l41 21q0 -70 49 -113.5t154 -61.5q105 -17 154 -60t49 -118l-44 18v-10q0 -54 -45 -88.5t-114 -34.5
q-65 0 -119.5 34.5zM450 907l-112 -148h-85l66 148h131zM268 769l49 32l57 96h-49z" />
    <glyph glyph-name="Scircumflex" unicode="&#x15c;" horiz-adv-x="651" 
d="M536.5 334q55.5 -50 55.5 -137q0 -57 -31.5 -105.5t-89.5 -77t-135 -28.5q-99 0 -170 44t-100 110l70 75q24 -59 77 -97t122 -38q68 0 108.5 32.5t40.5 80.5q0 53 -42 81.5t-136 46.5q-104 20 -164.5 71t-60.5 135q0 55 30.5 97.5t85 66t124.5 23.5q80 0 143 -33t102 -93
l-70 -69q-28 49 -75 75t-101 26q-59 0 -98 -24t-39 -67q0 -46 44.5 -75.5t138.5 -47.5q115 -22 170.5 -72zM215.5 104.5q-54.5 34.5 -82.5 92.5v-71q10 -22 38 -43.5t71 -35.5t93 -14q59 0 105.5 21t72 55.5t25.5 75.5l44 20q-2 78 -55 124t-163 67q-93 17 -139.5 46.5
t-50.5 74.5l-42 21q0 37 24.5 66t67.5 46t96 17q42 0 79 -12t63 -28.5t36 -30.5v-61l56 55q-39 55 -99 84.5t-134 29.5q-67 0 -119.5 -22.5t-81.5 -62.5t-29 -92v-10l41 21q0 -70 49 -113.5t154 -61.5q105 -17 154 -60t49 -118l-44 18v-10q0 -54 -45 -88.5t-114 -34.5
q-65 0 -119.5 34.5zM465 759h-82l-63 65l-63 -65h-81l104 148h80zM195 769h31l93 128h-34zM387 769h30l-96 128h-1v-59z" />
    <glyph glyph-name="scircumflex" unicode="&#x15d;" horiz-adv-x="651" 
d="M536.5 334q55.5 -50 55.5 -137q0 -57 -31.5 -105.5t-89.5 -77t-135 -28.5q-99 0 -170 44t-100 110l70 75q24 -59 77 -97t122 -38q68 0 108.5 32.5t40.5 80.5q0 53 -42 81.5t-136 46.5q-104 20 -164.5 71t-60.5 135q0 55 30.5 97.5t85 66t124.5 23.5q80 0 143 -33t102 -93
l-70 -69q-28 49 -75 75t-101 26q-59 0 -98 -24t-39 -67q0 -46 44.5 -75.5t138.5 -47.5q115 -22 170.5 -72zM215.5 104.5q-54.5 34.5 -82.5 92.5v-71q10 -22 38 -43.5t71 -35.5t93 -14q59 0 105.5 21t72 55.5t25.5 75.5l44 20q-2 78 -55 124t-163 67q-93 17 -139.5 46.5
t-50.5 74.5l-42 21q0 37 24.5 66t67.5 46t96 17q42 0 79 -12t63 -28.5t36 -30.5v-61l56 55q-39 55 -99 84.5t-134 29.5q-67 0 -119.5 -22.5t-81.5 -62.5t-29 -92v-10l41 21q0 -70 49 -113.5t154 -61.5q105 -17 154 -60t49 -118l-44 18v-10q0 -54 -45 -88.5t-114 -34.5
q-65 0 -119.5 34.5zM465 759h-82l-63 65l-63 -65h-81l104 148h80zM195 769h31l93 128h-34zM387 769h30l-96 128h-1v-59z" />
    <glyph glyph-name="Scedilla" unicode="&#x15e;" horiz-adv-x="651" 
d="M536.5 334q55.5 -50 55.5 -137q0 -57 -31.5 -105.5t-89.5 -77t-135 -28.5q-99 0 -170 44t-100 110l70 75q24 -59 77 -97t122 -38q68 0 108.5 32.5t40.5 80.5q0 53 -42 81.5t-136 46.5q-104 20 -164.5 71t-60.5 135q0 55 30.5 97.5t85 66t124.5 23.5q80 0 143 -33t102 -93
l-70 -69q-28 49 -75 75t-101 26q-59 0 -98 -24t-39 -67q0 -46 44.5 -75.5t138.5 -47.5q115 -22 170.5 -72zM215.5 104.5q-54.5 34.5 -82.5 92.5v-71q10 -22 38 -43.5t71 -35.5t93 -14q59 0 105.5 21t72 55.5t25.5 75.5l44 20q-2 78 -55 124t-163 67q-93 17 -139.5 46.5
t-50.5 74.5l-42 21q0 37 24.5 66t67.5 46t96 17q42 0 79 -12t63 -28.5t36 -30.5v-61l56 55q-39 55 -99 84.5t-134 29.5q-67 0 -119.5 -22.5t-81.5 -62.5t-29 -92v-10l41 21q0 -70 49 -113.5t154 -61.5q105 -17 154 -60t49 -118l-44 18v-10q0 -54 -45 -88.5t-114 -34.5
q-65 0 -119.5 34.5zM404 -65.5q22 -21.5 22 -55.5q0 -39 -27 -61t-66 -22q-34 0 -58 16t-31 44l57 15q3 -10 12 -17t21 -7q13 0 21 8.5t8 22.5q0 15 -9 23.5t-24 8.5q-25 0 -45 -18l-34 31l33 93h62l-34 -61l4 -4q17 5 33 5q33 0 55 -21.5zM263 -74l11 -10l35 90h-18z
M311.5 -157q-10.5 6 -16.5 16l-19 -5q21 -34 59 -34q24 0 42 17t18 42q0 26 -15.5 40.5t-41.5 14.5q-17 0 -29.5 -4.5t-33.5 -15.5l10 -9q21 15 45 15q19 0 31 -11.5t12 -30.5q0 -18 -11 -29.5t-28 -11.5q-12 0 -22.5 6z" />
    <glyph glyph-name="scedilla" unicode="&#x15f;" horiz-adv-x="651" 
d="M536.5 334q55.5 -50 55.5 -137q0 -57 -31.5 -105.5t-89.5 -77t-135 -28.5q-99 0 -170 44t-100 110l70 75q24 -59 77 -97t122 -38q68 0 108.5 32.5t40.5 80.5q0 53 -42 81.5t-136 46.5q-104 20 -164.5 71t-60.5 135q0 55 30.5 97.5t85 66t124.5 23.5q80 0 143 -33t102 -93
l-70 -69q-28 49 -75 75t-101 26q-59 0 -98 -24t-39 -67q0 -46 44.5 -75.5t138.5 -47.5q115 -22 170.5 -72zM215.5 104.5q-54.5 34.5 -82.5 92.5v-71q10 -22 38 -43.5t71 -35.5t93 -14q59 0 105.5 21t72 55.5t25.5 75.5l44 20q-2 78 -55 124t-163 67q-93 17 -139.5 46.5
t-50.5 74.5l-42 21q0 37 24.5 66t67.5 46t96 17q42 0 79 -12t63 -28.5t36 -30.5v-61l56 55q-39 55 -99 84.5t-134 29.5q-67 0 -119.5 -22.5t-81.5 -62.5t-29 -92v-10l41 21q0 -70 49 -113.5t154 -61.5q105 -17 154 -60t49 -118l-44 18v-10q0 -54 -45 -88.5t-114 -34.5
q-65 0 -119.5 34.5zM404 -65.5q22 -21.5 22 -55.5q0 -39 -27 -61t-66 -22q-34 0 -58 16t-31 44l57 15q3 -10 12 -17t21 -7q13 0 21 8.5t8 22.5q0 15 -9 23.5t-24 8.5q-25 0 -45 -18l-34 31l33 93h62l-34 -61l4 -4q17 5 33 5q33 0 55 -21.5zM263 -74l11 -10l35 90h-18z
M311.5 -157q-10.5 6 -16.5 16l-19 -5q21 -34 59 -34q24 0 42 17t18 42q0 26 -15.5 40.5t-41.5 14.5q-17 0 -29.5 -4.5t-33.5 -15.5l10 -9q21 15 45 15q19 0 31 -11.5t12 -30.5q0 -18 -11 -29.5t-28 -11.5q-12 0 -22.5 6z" />
    <glyph glyph-name="Scaron" unicode="&#x160;" horiz-adv-x="651" 
d="M536.5 334q55.5 -50 55.5 -137q0 -57 -31.5 -105.5t-89.5 -77t-135 -28.5q-99 0 -170 44t-100 110l70 75q24 -59 77 -97t122 -38q68 0 108.5 32.5t40.5 80.5q0 53 -42 81.5t-136 46.5q-104 20 -164.5 71t-60.5 135q0 55 30.5 97.5t85 66t124.5 23.5q80 0 143 -33t102 -93
l-70 -69q-28 49 -75 75t-101 26q-59 0 -98 -24t-39 -67q0 -46 44.5 -75.5t138.5 -47.5q115 -22 170.5 -72zM215.5 104.5q-54.5 34.5 -82.5 92.5v-71q10 -22 38 -43.5t71 -35.5t93 -14q59 0 105.5 21t72 55.5t25.5 75.5l44 20q-2 78 -55 124t-163 67q-93 17 -139.5 46.5
t-50.5 74.5l-42 21q0 37 24.5 66t67.5 46t96 17q42 0 79 -12t63 -28.5t36 -30.5v-61l56 55q-39 55 -99 84.5t-134 29.5q-67 0 -119.5 -22.5t-81.5 -62.5t-29 -92v-10l41 21q0 -70 49 -113.5t154 -61.5q105 -17 154 -60t49 -118l-44 18v-10q0 -54 -45 -88.5t-114 -34.5
q-65 0 -119.5 34.5zM465 907l-105 -148h-80l-104 148h81l63 -65l63 65h82zM285 769h34l-93 128h-31zM320 828v-59h1l95 128h-29z" />
    <glyph glyph-name="scaron" unicode="&#x161;" horiz-adv-x="651" 
d="M536.5 334q55.5 -50 55.5 -137q0 -57 -31.5 -105.5t-89.5 -77t-135 -28.5q-99 0 -170 44t-100 110l70 75q24 -59 77 -97t122 -38q68 0 108.5 32.5t40.5 80.5q0 53 -42 81.5t-136 46.5q-104 20 -164.5 71t-60.5 135q0 55 30.5 97.5t85 66t124.5 23.5q80 0 143 -33t102 -93
l-70 -69q-28 49 -75 75t-101 26q-59 0 -98 -24t-39 -67q0 -46 44.5 -75.5t138.5 -47.5q115 -22 170.5 -72zM215.5 104.5q-54.5 34.5 -82.5 92.5v-71q10 -22 38 -43.5t71 -35.5t93 -14q59 0 105.5 21t72 55.5t25.5 75.5l44 20q-2 78 -55 124t-163 67q-93 17 -139.5 46.5
t-50.5 74.5l-42 21q0 37 24.5 66t67.5 46t96 17q42 0 79 -12t63 -28.5t36 -30.5v-61l56 55q-39 55 -99 84.5t-134 29.5q-67 0 -119.5 -22.5t-81.5 -62.5t-29 -92v-10l41 21q0 -70 49 -113.5t154 -61.5q105 -17 154 -60t49 -118l-44 18v-10q0 -54 -45 -88.5t-114 -34.5
q-65 0 -119.5 34.5zM465 907l-105 -148h-80l-104 148h81l63 -65l63 65h82zM285 769h34l-93 128h-31zM320 828v-59h1l95 128h-29z" />
    <glyph glyph-name="uni0162" unicode="&#x162;" horiz-adv-x="576" 
d="M318 0l-25 -45l4 -4q17 5 33 5q33 0 55 -21.5t22 -55.5q0 -39 -27 -61t-66 -22q-34 0 -58 16t-31 44l57 15q3 -10 12 -17t21 -7q13 0 21 8.5t8 22.5q0 15 -9 23.5t-24 8.5q-25 0 -45 -18l-34 31l27 77h-25v602h-216v98h540v-98h-216v-602h-24zM244 10l44 44v597h221
l39 39h-520v-78l40 39h220l-44 -39v-602zM288 0h-18l-26 -74l11 -10zM289.5 -70.5q-12.5 -4.5 -33.5 -15.5l10 -9q21 15 45 15q19 0 31 -11.5t12 -30.5q0 -18 -11 -29.5t-28 -11.5q-12 0 -22.5 6t-16.5 16l-19 -5q21 -34 59 -34q24 0 42 17t18 42q0 26 -15.5 40.5
t-41.5 14.5q-17 0 -29.5 -4.5z" />
    <glyph glyph-name="uni0163" unicode="&#x163;" horiz-adv-x="576" 
d="M318 0l-25 -45l4 -4q17 5 33 5q33 0 55 -21.5t22 -55.5q0 -39 -27 -61t-66 -22q-34 0 -58 16t-31 44l57 15q3 -10 12 -17t21 -7q13 0 21 8.5t8 22.5q0 15 -9 23.5t-24 8.5q-25 0 -45 -18l-34 31l27 77h-25v602h-216v98h540v-98h-216v-602h-24zM244 10l44 44v597h221
l39 39h-520v-78l40 39h220l-44 -39v-602zM288 0h-18l-26 -74l11 -10zM289.5 -70.5q-12.5 -4.5 -33.5 -15.5l10 -9q21 15 45 15q19 0 31 -11.5t12 -30.5q0 -18 -11 -29.5t-28 -11.5q-12 0 -22.5 6t-16.5 16l-19 -5q21 -34 59 -34q24 0 42 17t18 42q0 26 -15.5 40.5
t-41.5 14.5q-17 0 -29.5 -4.5z" />
    <glyph glyph-name="Tcaron" unicode="&#x164;" horiz-adv-x="576" 
d="M558 700v-98h-216v-602h-108v602h-216v98h540zM548 690h-520v-78l40 39h220l-44 -39v-602l44 44v597h221zM432 907l-105 -148h-80l-104 148h81l63 -65l63 65h82zM252 769h34l-93 128h-31zM287 828v-59h1l95 128h-29z" />
    <glyph glyph-name="tcaron" unicode="&#x165;" horiz-adv-x="576" 
d="M558 700v-98h-216v-602h-108v602h-216v98h540zM548 690h-520v-78l40 39h220l-44 -39v-602l44 44v597h221zM432 907l-105 -148h-80l-104 148h81l63 -65l63 65h82zM252 769h34l-93 128h-31zM287 828v-59h1l95 128h-29z" />
    <glyph glyph-name="Tbar" unicode="&#x166;" horiz-adv-x="576" 
d="M342 602v-170h143v-82h-143v-350h-108v350h-143v82h143v170h-216v98h540v-98h-216zM332 422l-44 -31v260h221l39 39h-520v-39h260l-44 -39v-190h-143v-62l43 31h144l-44 -31v-350l44 44v337h144l43 31h-143z" />
    <glyph glyph-name="tbar" unicode="&#x167;" horiz-adv-x="576" 
d="M342 602v-170h143v-82h-143v-350h-108v350h-143v82h143v170h-216v98h540v-98h-216zM332 422l-44 -31v260h221l39 39h-520v-39h260l-44 -39v-190h-143v-62l43 31h144l-44 -31v-350l44 44v337h144l43 31h-143z" />
    <glyph glyph-name="Utilde" unicode="&#x168;" horiz-adv-x="686" 
d="M616 700v-451q0 -83 -35 -142t-96.5 -90t-141.5 -31t-141.5 31t-96.5 90t-35 142v451h108v-448q0 -75 44 -121.5t121 -46.5t121 46.5t44 121.5v448h108zM112 115q32 -57 91.5 -88t139.5 -31h4l-20 39l22 -1q83 0 130.5 39t65 90.5t17.5 94.5v432h-44v-438
q0 -80 -46.5 -128.5t-124.5 -49.5l-20 -39q-73 0 -118.5 34t-65 84.5t-19.5 104.5v432h-44v-441q0 -77 32 -134zM515 845q0 -39 -27.5 -62t-65.5 -23q-36 0 -57.5 10.5t-45.5 30.5q-31 25 -50 25q-11 0 -18 -6.5t-7 -17.5q0 -12 7 -26l-67 -14q-13 22 -13 51q0 39 27.5 62
t65.5 23q36 0 58 -10.5t45 -30.5q19 -16 30 -20.5t20 -4.5q11 0 18 6.5t7 17.5q0 12 -7 26l67 14q13 -22 13 -51zM189 773l25 5q-6 15 -6 35q0 21 16 35t42 14q23 0 40.5 -8t37.5 -26q18 -16 34.5 -24t40.5 -8q26 0 43 14.5t17 34.5q0 23 -5 35l-25 -5q3 -10 3 -19
q0 -15 -9.5 -24.5t-25.5 -9.5t-28.5 7t-28.5 20q-22 19 -42 29t-54 10q-36 0 -59.5 -21t-23.5 -54q0 -21 8 -40z" />
    <glyph glyph-name="utilde" unicode="&#x169;" horiz-adv-x="686" 
d="M616 700v-451q0 -83 -35 -142t-96.5 -90t-141.5 -31t-141.5 31t-96.5 90t-35 142v451h108v-448q0 -75 44 -121.5t121 -46.5t121 46.5t44 121.5v448h108zM112 115q32 -57 91.5 -88t139.5 -31h4l-20 39l22 -1q83 0 130.5 39t65 90.5t17.5 94.5v432h-44v-438
q0 -80 -46.5 -128.5t-124.5 -49.5l-20 -39q-73 0 -118.5 34t-65 84.5t-19.5 104.5v432h-44v-441q0 -77 32 -134zM515 845q0 -39 -27.5 -62t-65.5 -23q-36 0 -57.5 10.5t-45.5 30.5q-31 25 -50 25q-11 0 -18 -6.5t-7 -17.5q0 -12 7 -26l-67 -14q-13 22 -13 51q0 39 27.5 62
t65.5 23q36 0 58 -10.5t45 -30.5q19 -16 30 -20.5t20 -4.5q11 0 18 6.5t7 17.5q0 12 -7 26l67 14q13 -22 13 -51zM189 773l25 5q-6 15 -6 35q0 21 16 35t42 14q23 0 40.5 -8t37.5 -26q18 -16 34.5 -24t40.5 -8q26 0 43 14.5t17 34.5q0 23 -5 35l-25 -5q3 -10 3 -19
q0 -15 -9.5 -24.5t-25.5 -9.5t-28.5 7t-28.5 20q-22 19 -42 29t-54 10q-36 0 -59.5 -21t-23.5 -54q0 -21 8 -40z" />
    <glyph glyph-name="Umacron" unicode="&#x16a;" horiz-adv-x="686" 
d="M616 700v-451q0 -83 -35 -142t-96.5 -90t-141.5 -31t-141.5 31t-96.5 90t-35 142v451h108v-448q0 -75 44 -121.5t121 -46.5t121 46.5t44 121.5v448h108zM112 115q32 -57 91.5 -88t139.5 -31h4l-20 39l22 -1q83 0 130.5 39t65 90.5t17.5 94.5v432h-44v-438
q0 -80 -46.5 -128.5t-124.5 -49.5l-20 -39q-73 0 -118.5 34t-65 84.5t-19.5 104.5v432h-44v-441q0 -77 32 -134zM460 880v-82h-234v82h234zM450 870h-214v-62l31 31h152z" />
    <glyph glyph-name="umacron" unicode="&#x16b;" horiz-adv-x="686" 
d="M616 700v-451q0 -83 -35 -142t-96.5 -90t-141.5 -31t-141.5 31t-96.5 90t-35 142v451h108v-448q0 -75 44 -121.5t121 -46.5t121 46.5t44 121.5v448h108zM112 115q32 -57 91.5 -88t139.5 -31h4l-20 39l22 -1q83 0 130.5 39t65 90.5t17.5 94.5v432h-44v-438
q0 -80 -46.5 -128.5t-124.5 -49.5l-20 -39q-73 0 -118.5 34t-65 84.5t-19.5 104.5v432h-44v-441q0 -77 32 -134zM460 880v-82h-234v82h234zM450 870h-214v-62l31 31h152z" />
    <glyph glyph-name="Ubreve" unicode="&#x16c;" horiz-adv-x="686" 
d="M616 700v-451q0 -83 -35 -142t-96.5 -90t-141.5 -31t-141.5 31t-96.5 90t-35 142v451h108v-448q0 -75 44 -121.5t121 -46.5t121 46.5t44 121.5v448h108zM112 115q32 -57 91.5 -88t139.5 -31h4l-20 39l22 -1q83 0 130.5 39t65 90.5t17.5 94.5v432h-44v-438
q0 -80 -46.5 -128.5t-124.5 -49.5l-20 -39q-73 0 -118.5 34t-65 84.5t-19.5 104.5v432h-44v-441q0 -77 32 -134zM451 878q0 -47 -29.5 -77.5t-78.5 -30.5t-78.5 30.5t-29.5 77.5h70q0 -20 10 -31.5t28 -11.5t28 11.5t10 31.5h70zM275.5 804q26.5 -24 67.5 -24v24q61 0 74 64
h-27q-2 -20 -15 -31.5t-32 -11.5v-21q-61 0 -74 64h-24q4 -40 30.5 -64z" />
    <glyph glyph-name="ubreve" unicode="&#x16d;" horiz-adv-x="686" 
d="M616 700v-451q0 -83 -35 -142t-96.5 -90t-141.5 -31t-141.5 31t-96.5 90t-35 142v451h108v-448q0 -75 44 -121.5t121 -46.5t121 46.5t44 121.5v448h108zM112 115q32 -57 91.5 -88t139.5 -31h4l-20 39l22 -1q83 0 130.5 39t65 90.5t17.5 94.5v432h-44v-438
q0 -80 -46.5 -128.5t-124.5 -49.5l-20 -39q-73 0 -118.5 34t-65 84.5t-19.5 104.5v432h-44v-441q0 -77 32 -134zM451 878q0 -47 -29.5 -77.5t-78.5 -30.5t-78.5 30.5t-29.5 77.5h70q0 -20 10 -31.5t28 -11.5t28 11.5t10 31.5h70zM275.5 804q26.5 -24 67.5 -24v24q61 0 74 64
h-27q-2 -20 -15 -31.5t-32 -11.5v-21q-61 0 -74 64h-24q4 -40 30.5 -64z" />
    <glyph glyph-name="Uring" unicode="&#x16e;" horiz-adv-x="686" 
d="M616 700v-451q0 -83 -35 -142t-96.5 -90t-141.5 -31t-141.5 31t-96.5 90t-35 142v451h108v-448q0 -75 44 -121.5t121 -46.5t121 46.5t44 121.5v448h108zM112 115q32 -57 91.5 -88t139.5 -31h4l-20 39l22 -1q83 0 130.5 39t65 90.5t17.5 94.5v432h-44v-438
q0 -80 -46.5 -128.5t-124.5 -49.5l-20 -39q-73 0 -118.5 34t-65 84.5t-19.5 104.5v432h-44v-441q0 -77 32 -134zM411 906.5q28 -27.5 28 -67.5t-28 -67.5t-68 -27.5t-68 27.5t-28 67.5t28 67.5t68 27.5t68 -27.5zM282 899q-25 -25 -25 -60q0 -26 14 -46l22 -2q18 -21 50 -21
q29 0 49.5 20t20.5 47q0 29 -19 50l21 -2q-11 18 -30.5 28.5t-41.5 10.5q-36 0 -61 -25zM294 888.5q21 19.5 49 19.5q30 0 51 -21l-11 -18q9 -12 9 -30q0 -22 -14 -36t-35 -14q-25 0 -40 20l-10 -18q-20 20 -20 49t21 48.5zM371 810.5q11 11.5 11 28.5t-11 28.5t-28 11.5
t-28 -11.5t-11 -28.5t11 -28.5t28 -11.5t28 11.5z" />
    <glyph glyph-name="uring" unicode="&#x16f;" horiz-adv-x="686" 
d="M616 700v-451q0 -83 -35 -142t-96.5 -90t-141.5 -31t-141.5 31t-96.5 90t-35 142v451h108v-448q0 -75 44 -121.5t121 -46.5t121 46.5t44 121.5v448h108zM112 115q32 -57 91.5 -88t139.5 -31h4l-20 39l22 -1q83 0 130.5 39t65 90.5t17.5 94.5v432h-44v-438
q0 -80 -46.5 -128.5t-124.5 -49.5l-20 -39q-73 0 -118.5 34t-65 84.5t-19.5 104.5v432h-44v-441q0 -77 32 -134zM411 906.5q28 -27.5 28 -67.5t-28 -67.5t-68 -27.5t-68 27.5t-28 67.5t28 67.5t68 27.5t68 -27.5zM282 899q-25 -25 -25 -60q0 -26 14 -46l22 -2q18 -21 50 -21
q29 0 49.5 20t20.5 47q0 29 -19 50l21 -2q-11 18 -30.5 28.5t-41.5 10.5q-36 0 -61 -25zM294 888.5q21 19.5 49 19.5q30 0 51 -21l-11 -18q9 -12 9 -30q0 -22 -14 -36t-35 -14q-25 0 -40 20l-10 -18q-20 20 -20 49t21 48.5zM371 810.5q11 11.5 11 28.5t-11 28.5t-28 11.5
t-28 -11.5t-11 -28.5t11 -28.5t28 -11.5t28 11.5z" />
    <glyph glyph-name="Uhungarumlaut" unicode="&#x170;" horiz-adv-x="686" 
d="M616 700v-451q0 -83 -35 -142t-96.5 -90t-141.5 -31t-141.5 31t-96.5 90t-35 142v451h108v-448q0 -75 44 -121.5t121 -46.5t121 46.5t44 121.5v448h108zM112 115q32 -57 91.5 -88t139.5 -31h4l-20 39l22 -1q83 0 130.5 39t65 90.5t17.5 94.5v432h-44v-438
q0 -80 -46.5 -128.5t-124.5 -49.5l-20 -39q-73 0 -118.5 34t-65 84.5t-19.5 104.5v432h-44v-441q0 -77 32 -134zM385 907l-112 -148h-85l66 148h131zM559 907l-112 -148h-85l66 148h131zM203 769l49 32l57 96h-49zM377 769l49 32l57 96h-49z" />
    <glyph glyph-name="uhungarumlaut" unicode="&#x171;" horiz-adv-x="686" 
d="M616 700v-451q0 -83 -35 -142t-96.5 -90t-141.5 -31t-141.5 31t-96.5 90t-35 142v451h108v-448q0 -75 44 -121.5t121 -46.5t121 46.5t44 121.5v448h108zM112 115q32 -57 91.5 -88t139.5 -31h4l-20 39l22 -1q83 0 130.5 39t65 90.5t17.5 94.5v432h-44v-438
q0 -80 -46.5 -128.5t-124.5 -49.5l-20 -39q-73 0 -118.5 34t-65 84.5t-19.5 104.5v432h-44v-441q0 -77 32 -134zM385 907l-112 -148h-85l66 148h131zM559 907l-112 -148h-85l66 148h131zM203 769l49 32l57 96h-49zM377 769l49 32l57 96h-49z" />
    <glyph glyph-name="Uogonek" unicode="&#x172;" horiz-adv-x="686" 
d="M616 700v-451q0 -96 -46.5 -160t-127.5 -89h1q-71 -39 -71 -80q0 -19 12.5 -30t32.5 -11l15 1h-1q3 1 7 1l9 -73q-25 -6 -52 -6q-44 0 -76.5 25t-32.5 68q0 54 44 91q-76 3 -135 34.5t-92 90t-33 138.5v451h108v-448q0 -75 44 -121.5t121 -46.5t121 46.5t44 121.5v448
h108zM112 115q32 -57 91.5 -88t139.5 -31h4l-20 39l22 -1q83 0 130.5 39t65 90.5t17.5 94.5v432h-44v-438q0 -80 -46.5 -128.5t-124.5 -49.5l-20 -39q-73 0 -118.5 34t-65 84.5t-19.5 104.5v432h-44v-441q0 -77 32 -134zM436 -184l-4 29q-15 -3 -31 -3q-31 0 -51.5 14.5
t-20.5 44.5q0 51 46 86q-10 -1 -30 -1q-24 -19 -36.5 -42.5t-12.5 -48.5q0 -37 27.5 -60t71.5 -23q22 0 41 4z" />
    <glyph glyph-name="uogonek" unicode="&#x173;" horiz-adv-x="686" 
d="M616 700v-451q0 -96 -46.5 -160t-127.5 -89h1q-71 -39 -71 -80q0 -19 12.5 -30t32.5 -11l15 1h-1q3 1 7 1l9 -73q-25 -6 -52 -6q-44 0 -76.5 25t-32.5 68q0 54 44 91q-76 3 -135 34.5t-92 90t-33 138.5v451h108v-448q0 -75 44 -121.5t121 -46.5t121 46.5t44 121.5v448
h108zM112 115q32 -57 91.5 -88t139.5 -31h4l-20 39l22 -1q83 0 130.5 39t65 90.5t17.5 94.5v432h-44v-438q0 -80 -46.5 -128.5t-124.5 -49.5l-20 -39q-73 0 -118.5 34t-65 84.5t-19.5 104.5v432h-44v-441q0 -77 32 -134zM436 -184l-4 29q-15 -3 -31 -3q-31 0 -51.5 14.5
t-20.5 44.5q0 51 46 86q-10 -1 -30 -1q-24 -19 -36.5 -42.5t-12.5 -48.5q0 -37 27.5 -60t71.5 -23q22 0 41 4z" />
    <glyph glyph-name="Wcircumflex" unicode="&#x174;" horiz-adv-x="916" 
d="M911 700l-193 -700h-117l-143 552l-143 -552h-117l-193 700h113l124 -485q2 -8 7 -29.5t10 -43.5l10 44t7 30l125 484h114l125 -484q2 -8 7 -30l10 -44q5 22 10 43.5t7 29.5l124 485h113zM206 10h50l-19 54q-24 61 -33 99l-138 527h-47zM259 106v-95l13 36q3 10 16 46.5
t21 69.5l103 406l21 74q4 13 7.5 25t6.5 22h-38l-123 -477zM609 10h45l-14 44q-23 69 -33 109l-107 406q-15 54 -40 121h-2v-99zM657 105v-95l8 19q4 12 21 54.5t26 78.5l138 528h-44l-122 -477zM602 759h-82l-63 65l-63 -65h-81l104 148h80zM332 769h31l93 128h-34z
M524 769h30l-96 128h-1v-59z" />
    <glyph glyph-name="wcircumflex" unicode="&#x175;" horiz-adv-x="916" 
d="M911 700l-193 -700h-117l-143 552l-143 -552h-117l-193 700h113l124 -485q2 -8 7 -29.5t10 -43.5l10 44t7 30l125 484h114l125 -484q2 -8 7 -30l10 -44q5 22 10 43.5t7 29.5l124 485h113zM206 10h50l-19 54q-24 61 -33 99l-138 527h-47zM259 106v-95l13 36q3 10 16 46.5
t21 69.5l103 406l21 74q4 13 7.5 25t6.5 22h-38l-123 -477zM609 10h45l-14 44q-23 69 -33 109l-107 406q-15 54 -40 121h-2v-99zM657 105v-95l8 19q4 12 21 54.5t26 78.5l138 528h-44l-122 -477zM602 759h-82l-63 65l-63 -65h-81l104 148h80zM332 769h31l93 128h-34z
M524 769h30l-96 128h-1v-59z" />
    <glyph glyph-name="Ycircumflex" unicode="&#x176;" horiz-adv-x="578" 
d="M574 700l-231 -419v-281h-108v281l-231 419h119l144 -273l9 -18t13 -29q6 15 13 29l9 18l144 273h119zM245 284v-274l44 44v234l221 402h-49l-141 -268q-5 -8 -14.5 -29t-16.5 -37v-68l-220 402h-48zM433 759h-82l-63 65l-63 -65h-81l104 148h80zM163 769h31l93 128h-34z
M355 769h30l-96 128h-1v-59z" />
    <glyph glyph-name="ycircumflex" unicode="&#x177;" horiz-adv-x="578" 
d="M574 700l-231 -419v-281h-108v281l-231 419h119l144 -273l9 -18t13 -29q6 15 13 29l9 18l144 273h119zM245 284v-274l44 44v234l221 402h-49l-141 -268q-5 -8 -14.5 -29t-16.5 -37v-68l-220 402h-48zM433 759h-82l-63 65l-63 -65h-81l104 148h80zM163 769h31l93 128h-34z
M355 769h30l-96 128h-1v-59z" />
    <glyph glyph-name="Ydieresis" unicode="&#x178;" horiz-adv-x="578" 
d="M574 700l-231 -419v-281h-108v281l-231 419h119l144 -273l9 -18t13 -29q6 15 13 29l9 18l144 273h119zM245 284v-274l44 44v234l221 402h-49l-141 -268q-5 -8 -14.5 -29t-16.5 -37v-68l-220 402h-48zM152 894h105v-108h-105v108zM426 894v-108h-105v108h105zM162 796h43
v88h-43v-88zM331 796h43v88h-43v-88z" />
    <glyph glyph-name="Zacute" unicode="&#x179;" horiz-adv-x="607" 
d="M566 98v-98h-527v96l386 506h-372v98h495v-98l-383 -504h401zM49 10l33 38h428l46 40h-410l-64 -40l17 46l396 519l43 38v39h-475v-78l40 39h435l-93 -39l-396 -519v-83zM433 907l-112 -148h-85l66 148h131zM251 769l49 32l57 96h-49z" />
    <glyph glyph-name="zacute" unicode="&#x17a;" horiz-adv-x="607" 
d="M566 98v-98h-527v96l386 506h-372v98h495v-98l-383 -504h401zM49 10l33 38h428l46 40h-410l-64 -40l17 46l396 519l43 38v39h-475v-78l40 39h435l-93 -39l-396 -519v-83zM433 907l-112 -148h-85l66 148h131zM251 769l49 32l57 96h-49z" />
    <glyph glyph-name="Zdotaccent" unicode="&#x17b;" horiz-adv-x="607" 
d="M566 98v-98h-527v96l386 506h-372v98h495v-98l-383 -504h401zM49 10l33 38h428l46 40h-410l-64 -40l17 46l396 519l43 38v39h-475v-78l40 39h435l-93 -39l-396 -519v-83zM362 894v-115h-116v115h116zM256 789h48v95h-48v-95z" />
    <glyph glyph-name="zdotaccent" unicode="&#x17c;" horiz-adv-x="607" 
d="M566 98v-98h-527v96l386 506h-372v98h495v-98l-383 -504h401zM49 10l33 38h428l46 40h-410l-64 -40l17 46l396 519l43 38v39h-475v-78l40 39h435l-93 -39l-396 -519v-83zM362 894v-115h-116v115h116zM256 789h48v95h-48v-95z" />
    <glyph glyph-name="Zcaron" unicode="&#x17d;" horiz-adv-x="607" 
d="M566 98v-98h-527v96l386 506h-372v98h495v-98l-383 -504h401zM49 10l33 38h428l46 40h-410l-64 -40l17 46l396 519l43 38v39h-475v-78l40 39h435l-93 -39l-396 -519v-83zM448 907l-105 -148h-80l-104 148h81l63 -65l63 65h82zM268 769h34l-93 128h-31zM303 828v-59h1
l95 128h-29z" />
    <glyph glyph-name="zcaron" unicode="&#x17e;" horiz-adv-x="607" 
d="M566 98v-98h-527v96l386 506h-372v98h495v-98l-383 -504h401zM49 10l33 38h428l46 40h-410l-64 -40l17 46l396 519l43 38v39h-475v-78l40 39h435l-93 -39l-396 -519v-83zM448 907l-105 -148h-80l-104 148h81l63 -65l63 65h82zM268 769h34l-93 128h-31zM303 828v-59h1
l95 128h-29z" />
    <glyph glyph-name="florin" unicode="&#x192;" horiz-adv-x="335" 
d="M203 496h112v-82h-112v-465q0 -81 -39 -124t-112 -43q-31 0 -58 9l18 88q15 -5 34 -5q29 0 42 17.5t13 53.5v469h-75v82h75v87q0 78 44.5 122.5t120.5 44.5q29 0 56 -9l-18 -88q-15 5 -34 5q-31 0 -49 -20t-18 -57v-85zM193 486l-41 -31v138q0 55 32.5 83.5t79.5 28.5
q23 0 39 -5l7 34q-21 6 -44 6q-73 0 -114 -41.5t-41 -115.5v-97h-75v-62l37 31h79l-41 -31v-479q0 -81 -65 -81q-14 0 -26 3l-7 -34q25 -5 41 -5q61 0 79.5 41.5t18.5 96.5v489h116l37 31h-112z" />
    <glyph glyph-name="uni01B5" unicode="&#x1b5;" horiz-adv-x="607" 
d="M566 98v-98h-527v96l165 217h-139v82h202l158 207h-372v98h495v-98l-158 -207h146v-82h-208l-163 -215h401zM75 323l33 31h189l198 259l43 38v39h-475v-39h475l-93 -39l-173 -227h-197v-62zM370 385l-72 -31h195l33 31h-156zM49 10l33 38h428l46 40h-410l-64 -40l17 46
l198 260l-73 -31l-175 -230v-83z" />
    <glyph glyph-name="uni01B6" unicode="&#x1b6;" horiz-adv-x="607" 
d="M566 98v-98h-527v96l165 217h-139v82h202l158 207h-372v98h495v-98l-158 -207h146v-82h-208l-163 -215h401zM75 323l33 31h189l198 259l43 38v39h-475v-39h475l-93 -39l-173 -227h-197v-62zM370 385l-72 -31h195l33 31h-156zM49 10l33 38h428l46 40h-410l-64 -40l17 46
l198 260l-73 -31l-175 -230v-83z" />
    <glyph glyph-name="Aringacute" unicode="&#x1fa;" horiz-adv-x="680" 
d="M408 877.5q28 -27.5 28 -67.5t-28 -67.5t-68 -27.5t-68 27.5t-28 67.5t28 67.5t68 27.5t68 -27.5zM279 870q-25 -25 -25 -60q0 -26 14 -46l22 -2q18 -21 50 -21q29 0 49.5 20t20.5 47q0 29 -19 50l21 -2q-11 18 -30.5 28.5t-41.5 10.5q-36 0 -61 -25zM291 859.5
q21 19.5 49 19.5q30 0 51 -21l-11 -18q9 -12 9 -30q0 -22 -14 -36t-35 -14q-25 0 -40 20l-10 -18q-20 20 -20 49t21 48.5zM368 781.5q11 11.5 11 28.5t-11 28.5t-28 11.5t-28 -11.5t-11 -28.5t11 -28.5t28 -11.5t28 11.5zM489 1068l-112 -148h-85l66 148h131zM307 930l49 32
l57 96h-49zM674 0h-114l-75 195h-290l-75 -195h-114l280 700h108zM520 243l-180 447v-85q12 -37 33 -91l90 -235h-235l-69 -36l177 447h-43l-272 -680l61 36l77 197h361zM332 554q-6 -18 -16 -44l-85 -221h218l-85 221q-10 26 -16 44t-8 23q-2 -5 -8 -23zM567 10l33 36
l-79 197l-29 -38z" />
    <glyph glyph-name="aringacute" unicode="&#x1fb;" horiz-adv-x="680" 
d="M408 877.5q28 -27.5 28 -67.5t-28 -67.5t-68 -27.5t-68 27.5t-28 67.5t28 67.5t68 27.5t68 -27.5zM279 870q-25 -25 -25 -60q0 -26 14 -46l22 -2q18 -21 50 -21q29 0 49.5 20t20.5 47q0 29 -19 50l21 -2q-11 18 -30.5 28.5t-41.5 10.5q-36 0 -61 -25zM291 859.5
q21 19.5 49 19.5q30 0 51 -21l-11 -18q9 -12 9 -30q0 -22 -14 -36t-35 -14q-25 0 -40 20l-10 -18q-20 20 -20 49t21 48.5zM368 781.5q11 11.5 11 28.5t-11 28.5t-28 11.5t-28 -11.5t-11 -28.5t11 -28.5t28 -11.5t28 11.5zM489 1068l-112 -148h-85l66 148h131zM307 930l49 32
l57 96h-49zM674 0h-114l-75 195h-290l-75 -195h-114l280 700h108zM520 243l-180 447v-85q12 -37 33 -91l90 -235h-235l-69 -36l177 447h-43l-272 -680l61 36l77 197h361zM332 554q-6 -18 -16 -44l-85 -221h218l-85 221q-10 26 -16 44t-8 23q-2 -5 -8 -23zM567 10l33 36
l-79 197l-29 -38z" />
    <glyph glyph-name="AEacute" unicode="&#x1fc;" horiz-adv-x="959" 
d="M897 96v-96h-463v195h-230l-85 -195h-113l314 700h574v-96h-352v-194h324v-96h-324v-218h355zM887 86h-355l-44 -38v314h324l44 38h-324l-44 -38v290h353l43 38h-558l-305 -680l60 35l90 199l317 -1l-44 -39v-194l44 38h355zM231 280l-60 -36l183 407l134 1l-44 -38v-335
h-213v1zM434 604h-50l-138 -315h188v315zM717 907l-112 -148h-85l66 148h131zM535 769l49 32l57 96h-49z" />
    <glyph glyph-name="aeacute" unicode="&#x1fd;" horiz-adv-x="959" 
d="M897 96v-96h-463v195h-230l-85 -195h-113l314 700h574v-96h-352v-194h324v-96h-324v-218h355zM887 86h-355l-44 -38v314h324l44 38h-324l-44 -38v290h353l43 38h-558l-305 -680l60 35l90 199l317 -1l-44 -39v-194l44 38h355zM231 280l-60 -36l183 407l134 1l-44 -38v-335
h-213v1zM434 604h-50l-138 -315h188v315zM717 907l-112 -148h-85l66 148h131zM535 769l49 32l57 96h-49z" />
    <glyph glyph-name="Scommaaccent" unicode="&#x218;" horiz-adv-x="651" 
d="M536.5 334q55.5 -50 55.5 -137q0 -57 -31.5 -105.5t-89.5 -77t-135 -28.5q-99 0 -170 44t-100 110l70 75q24 -59 77 -97t122 -38q68 0 108.5 32.5t40.5 80.5q0 53 -42 81.5t-136 46.5q-104 20 -164.5 71t-60.5 135q0 55 30.5 97.5t85 66t124.5 23.5q80 0 143 -33t102 -93
l-70 -69q-28 49 -75 75t-101 26q-59 0 -98 -24t-39 -67q0 -46 44.5 -75.5t138.5 -47.5q115 -22 170.5 -72zM215.5 104.5q-54.5 34.5 -82.5 92.5v-71q10 -22 38 -43.5t71 -35.5t93 -14q59 0 105.5 21t72 55.5t25.5 75.5l44 20q-2 78 -55 124t-163 67q-93 17 -139.5 46.5
t-50.5 74.5l-42 21q0 37 24.5 66t67.5 46t96 17q42 0 79 -12t63 -28.5t36 -30.5v-61l56 55q-39 55 -99 84.5t-134 29.5q-67 0 -119.5 -22.5t-81.5 -62.5t-29 -92v-10l41 21q0 -70 49 -113.5t154 -61.5q105 -17 154 -60t49 -118l-44 18v-10q0 -54 -45 -88.5t-114 -34.5
q-65 0 -119.5 34.5zM388 -60v-109l-80 -135l-25 10l40 125h-42v109h107zM334 -159v89h-43v-89h43zM295 -288l5 -2l52 127h-17z" />
    <glyph glyph-name="scommaaccent" unicode="&#x219;" horiz-adv-x="651" 
d="M536.5 334q55.5 -50 55.5 -137q0 -57 -31.5 -105.5t-89.5 -77t-135 -28.5q-99 0 -170 44t-100 110l70 75q24 -59 77 -97t122 -38q68 0 108.5 32.5t40.5 80.5q0 53 -42 81.5t-136 46.5q-104 20 -164.5 71t-60.5 135q0 55 30.5 97.5t85 66t124.5 23.5q80 0 143 -33t102 -93
l-70 -69q-28 49 -75 75t-101 26q-59 0 -98 -24t-39 -67q0 -46 44.5 -75.5t138.5 -47.5q115 -22 170.5 -72zM215.5 104.5q-54.5 34.5 -82.5 92.5v-71q10 -22 38 -43.5t71 -35.5t93 -14q59 0 105.5 21t72 55.5t25.5 75.5l44 20q-2 78 -55 124t-163 67q-93 17 -139.5 46.5
t-50.5 74.5l-42 21q0 37 24.5 66t67.5 46t96 17q42 0 79 -12t63 -28.5t36 -30.5v-61l56 55q-39 55 -99 84.5t-134 29.5q-67 0 -119.5 -22.5t-81.5 -62.5t-29 -92v-10l41 21q0 -70 49 -113.5t154 -61.5q105 -17 154 -60t49 -118l-44 18v-10q0 -54 -45 -88.5t-114 -34.5
q-65 0 -119.5 34.5zM388 -60v-109l-80 -135l-25 10l40 125h-42v109h107zM334 -159v89h-43v-89h43zM295 -288l5 -2l52 127h-17z" />
    <glyph glyph-name="uni021A" unicode="&#x21a;" horiz-adv-x="576" 
d="M558 700v-98h-216v-602h-108v602h-216v98h540zM548 690h-520v-78l40 39h220l-44 -39v-602l44 44v597h221zM341 -60v-109l-80 -135l-25 10l40 125h-42v109h107zM287 -159v89h-43v-89h43zM248 -288l5 -2l52 127h-17z" />
    <glyph glyph-name="uni021B" unicode="&#x21b;" horiz-adv-x="576" 
d="M558 700v-98h-216v-602h-108v602h-216v98h540zM548 690h-520v-78l40 39h220l-44 -39v-602l44 44v597h221zM341 -60v-109l-80 -135l-25 10l40 125h-42v109h107zM287 -159v89h-43v-89h43zM248 -288l5 -2l52 127h-17z" />
    <glyph glyph-name="circumflex" unicode="&#x2c6;" horiz-adv-x="391" 
d="M340 555h-82l-63 65l-63 -65h-81l104 148h80zM70 565h31l93 128h-34zM262 565h30l-96 128h-1v-59z" />
    <glyph glyph-name="caron" unicode="&#x2c7;" horiz-adv-x="391" 
d="M340 703l-105 -148h-80l-104 148h81l63 -65l63 65h82zM160 565h34l-93 128h-31zM195 624v-59h1l95 128h-29z" />
    <glyph glyph-name="uni02C9" unicode="&#x2c9;" horiz-adv-x="322" 
d="M278 676v-82h-234v82h234zM268 666h-214v-62l31 31h152z" />
    <glyph glyph-name="breve" unicode="&#x2d8;" horiz-adv-x="290" 
d="M253 674q0 -47 -29.5 -77.5t-78.5 -30.5t-78.5 30.5t-29.5 77.5h70q0 -20 10 -31.5t28 -11.5t28 11.5t10 31.5h70zM77.5 600q26.5 -24 67.5 -24v24q61 0 74 64h-27q-2 -20 -15 -31.5t-32 -11.5v-21q-63 0 -73 64h-25q4 -40 30.5 -64z" />
    <glyph glyph-name="dotaccent" unicode="&#x2d9;" horiz-adv-x="240" 
d="M178 690v-115h-116v115h116zM72 585h48v95h-48v-95z" />
    <glyph glyph-name="ring" unicode="&#x2da;" horiz-adv-x="284" 
d="M210 702.5q28 -27.5 28 -67.5t-28 -67.5t-68 -27.5t-68 27.5t-28 67.5t28 67.5t68 27.5t68 -27.5zM81 695q-25 -25 -25 -60q0 -26 14 -46l22 -2q18 -21 50 -21q29 0 49.5 20t20.5 47q0 29 -19 50l21 -2q-11 18 -30.5 28.5t-41.5 10.5q-36 0 -61 -25zM93 684.5
q21 19.5 49 19.5q30 0 51 -21l-11 -18q9 -12 9 -30q0 -22 -14 -36t-35 -14q-25 0 -40 20l-10 -18q-20 20 -20 49t21 48.5zM170 606.5q11 11.5 11 28.5t-11 28.5t-28 11.5t-28 -11.5t-11 -28.5t11 -28.5t28 -11.5t28 11.5z" />
    <glyph glyph-name="ogonek" unicode="&#x2db;" horiz-adv-x="216" 
d="M192 -192q-26 -6 -52 -6q-44 0 -76.5 25t-32.5 68q0 36 21.5 66t55.5 49l80 -10q-71 -39 -71 -80q0 -19 12.5 -30t32.5 -11l15 1h-1q3 1 7 1zM181 -184l-4 29q-14 -3 -26 -3q-33 0 -55 16.5t-22 49.5q0 49 59 89l-23 3q-33 -20 -51 -47t-18 -58q0 -37 27.5 -60t71.5 -23
q22 0 41 4z" />
    <glyph glyph-name="tilde" unicode="&#x2dc;" horiz-adv-x="472" 
d="M408 641q0 -39 -27.5 -62t-65.5 -23q-36 0 -57.5 10.5t-45.5 30.5q-31 25 -50 25q-11 0 -18 -6.5t-7 -17.5q0 -12 7 -26l-67 -14q-13 22 -13 51q0 39 27.5 62t65.5 23q36 0 58 -10.5t45 -30.5q19 -16 30 -20.5t20 -4.5q11 0 18 6.5t7 17.5q0 12 -7 26l67 14
q13 -22 13 -51zM82 569l25 5q-6 15 -6 35q0 21 16 35t42 14q23 0 40.5 -8t37.5 -26q18 -16 34.5 -24t40.5 -8q26 0 43 14.5t17 34.5q0 23 -5 35l-25 -5q3 -10 3 -19q0 -15 -9.5 -24.5t-25.5 -9.5t-28.5 7t-28.5 20q-22 19 -42 29t-54 10q-36 0 -59.5 -21t-23.5 -54
q0 -21 8 -40z" />
    <glyph glyph-name="hungarumlaut" unicode="&#x2dd;" horiz-adv-x="489" 
d="M256 703l-112 -148h-85l66 148h131zM430 703l-112 -148h-85l66 148h131zM74 565l49 32l57 96h-49zM248 565l49 32l57 96h-49z" />
    <glyph glyph-name="gravecomb" unicode="&#x300;" 
d="M0 555h-85l-112 148h131zM-80 565l16 32l-57 96h-56z" />
    <glyph glyph-name="acutecomb" unicode="&#x301;" 
d="M0 703l-112 -148h-85l66 148h131zM-182 565l49 32l57 96h-49z" />
    <glyph glyph-name="uni0302" unicode="&#x302;" 
d="M0 555h-82l-63 65l-63 -65h-81l104 148h80zM-270 565h31l93 128h-34zM-78 565h30l-96 128h-1v-59z" />
    <glyph glyph-name="tildecomb" unicode="&#x303;" 
d="M0 641q0 -39 -27.5 -62t-65.5 -23q-36 0 -57.5 10.5t-45.5 30.5q-31 25 -50 25q-11 0 -18 -6.5t-7 -17.5q0 -12 7 -26l-67 -14q-13 22 -13 51q0 39 27.5 62t65.5 23q36 0 58 -10.5t45 -30.5q19 -16 30 -20.5t20 -4.5q11 0 18 6.5t7 17.5q0 12 -7 26l67 14q13 -22 13 -51z
M-326 569l25 5q-6 15 -6 35q0 21 16 35t42 14q23 0 40.5 -8t37.5 -26q18 -16 34.5 -24t40.5 -8q26 0 43 14.5t17 34.5q0 23 -5 35l-25 -5q3 -10 3 -19q0 -15 -9.5 -24.5t-25.5 -9.5t-28.5 7t-28.5 20q-22 19 -42 29t-54 10q-36 0 -59.5 -21t-23.5 -54q0 -21 8 -40z" />
    <glyph glyph-name="uni0304" unicode="&#x304;" 
d="M0 676v-82h-234v82h234zM-10 666h-214v-62l31 31h152z" />
    <glyph glyph-name="uni0306" unicode="&#x306;" 
d="M0 674q0 -47 -29.5 -77.5t-78.5 -30.5t-78.5 30.5t-29.5 77.5h70q0 -20 10 -31.5t28 -11.5t28 11.5t10 31.5h70zM-175.5 600q26.5 -24 67.5 -24v24q61 0 74 64h-27q-2 -20 -15 -31.5t-32 -11.5v-21q-63 0 -73 64h-25q4 -40 30.5 -64z" />
    <glyph glyph-name="uni0307" unicode="&#x307;" 
d="M0 690v-115h-116v115h116zM-106 585h48v95h-48v-95z" />
    <glyph glyph-name="uni0308" unicode="&#x308;" 
d="M-274 690h105v-108h-105v108zM0 690v-108h-105v108h105zM-264 592h43v88h-43v-88zM-95 592h43v88h-43v-88z" />
    <glyph glyph-name="uni030A" unicode="&#x30a;" 
d="M-28 702.5q28 -27.5 28 -67.5t-28 -67.5t-68 -27.5t-68 27.5t-28 67.5t28 67.5t68 27.5t68 -27.5zM-157 695q-25 -25 -25 -60q0 -26 14 -46l22 -2q18 -21 50 -21q29 0 49.5 20t20.5 47q0 29 -19 50l21 -2q-11 18 -30.5 28.5t-41.5 10.5q-36 0 -61 -25zM-145 684.5
q21 19.5 49 19.5q30 0 51 -21l-11 -18q9 -12 9 -30q0 -22 -14 -36t-35 -14q-25 0 -40 20l-10 -18q-20 20 -20 49t21 48.5zM-68 606.5q11 11.5 11 28.5t-11 28.5t-28 11.5t-28 -11.5t-11 -28.5t11 -28.5t28 -11.5t28 11.5z" />
    <glyph glyph-name="uni030B" unicode="&#x30b;" 
d="M-174 703l-112 -148h-85l66 148h131zM0 703l-112 -148h-85l66 148h131zM-356 565l49 32l57 96h-49zM-182 565l49 32l57 96h-49z" />
    <glyph glyph-name="uni030C" unicode="&#x30c;" 
d="M0 703l-105 -148h-80l-104 148h81l63 -65l63 65h82zM-180 565h34l-93 128h-31zM-145 624v-59h1l95 128h-29z" />
    <glyph glyph-name="uni0312" unicode="&#x312;" 
d="M-58 676h45v-113h-112v113l103 131l22 -16zM-115 573h47v99h-21l72 119l-3 2l-95 -120v-100z" />
    <glyph glyph-name="uni0326" unicode="&#x326;" 
d="M0 -60v-109l-80 -135l-25 10l40 125h-42v109h107zM-54 -159v89h-43v-89h43zM-93 -288l5 -2l52 127h-17z" />
    <glyph glyph-name="uni0327" unicode="&#x327;" 
d="M-22 -65.5q22 -21.5 22 -55.5q0 -39 -27 -61t-66 -22q-34 0 -58 16t-31 44l57 15q3 -10 12 -17t21 -7q13 0 21 8.5t8 22.5q0 15 -9 23.5t-24 8.5q-25 0 -45 -18l-34 31l33 93h62l-34 -61l4 -4q17 5 33 5q33 0 55 -21.5zM-163 -74l11 -10l35 90h-18zM-114.5 -157
q-10.5 6 -16.5 16l-19 -5q21 -34 59 -34q24 0 42 17t18 42q0 26 -15.5 40.5t-41.5 14.5q-17 0 -29.5 -4.5t-33.5 -15.5l10 -9q21 15 45 15q19 0 31 -11.5t12 -30.5q0 -18 -11 -29.5t-28 -11.5q-12 0 -22.5 6z" />
    <glyph glyph-name="uni0328" unicode="&#x328;" 
d="M0 -192q-26 -6 -52 -6q-44 0 -76.5 25t-32.5 68q0 36 21.5 66t55.5 49l80 -10q-71 -39 -71 -80q0 -19 12.5 -30t32.5 -11l15 1h-1q3 1 7 1zM-11 -184l-4 29q-14 -3 -26 -3q-33 0 -55 16.5t-22 49.5q0 49 59 89l-23 3q-33 -20 -51 -47t-18 -58q0 -37 27.5 -60t71.5 -23
q22 0 41 4z" />
    <glyph glyph-name="uni0335" unicode="&#x335;" 
d="M0 640v-80h-328v80h328zM-10 630h-308v-60l43 30h223z" />
    <glyph glyph-name="uni0336" unicode="&#x336;" 
d="M0 572v-82h-728v82h728zM-10 562h-708v-62l43 31h620z" />
    <glyph glyph-name="uni0337" unicode="&#x337;" 
d="M0 398v-94l-240 -153v94zM-230 240v-38l220 146v32z" />
    <glyph glyph-name="uni0338" unicode="&#x338;" 
d="M0 491l-312 -529l-70 43l312 529zM-368 8l26 -16l301 512l-26 16z" />
    <glyph glyph-name="uni0374" unicode="&#x374;" horiz-adv-x="290" 
d="M235 703l-105 -263h-75l58 263h122zM67 450h29l72 243h-47z" />
    <glyph glyph-name="uni0375" unicode="&#x375;" horiz-adv-x="290" 
d="M235 130l-58 -263h-122l105 263h75zM70 -123h52l72 243h-27z" />
    <glyph glyph-name="uni037E" unicode="&#x37e;" horiz-adv-x="202" 
d="M163 490v-126h-124v126h124zM49 374h52v106h-52v-106zM44 116h114v-116l-86 -144l-26 11l37 133h-39v116zM54 10h42v96h-42v-96zM58 -127l4 -2l56 129h-25z" />
    <glyph glyph-name="tonos" unicode="&#x384;" horiz-adv-x="293" 
d="M232 700l-92 -148h-79l45 148h126zM74 562l43 27l44 101h-48z" />
    <glyph glyph-name="dieresistonos" unicode="&#x385;" horiz-adv-x="454" 
d="M185 703h126l-92 -148h-79zM192 693l-39 -128l43 27l44 101h-48zM19 690h105v-108h-105v108zM435 690v-108h-105v108h105zM29 592h42v88h-42v-88zM340 592h43v88h-43v-88z" />
    <glyph glyph-name="Alphatonos" unicode="&#x386;" horiz-adv-x="680" 
d="M674 0h-114l-75 195h-290l-75 -195h-114l280 700h108zM520 243l-180 447v-85q12 -37 33 -91l90 -235h-235l-69 -36l177 447h-43l-272 -680l61 36l77 197h361zM332 554q-6 -18 -16 -44l-85 -221h218l-85 221q-10 26 -16 44t-8 23q-2 -5 -8 -23zM567 10l33 36l-79 197
l-29 -38zM216 700l-92 -148h-79l45 148h126zM58 562l43 27l44 101h-48z" />
    <glyph glyph-name="anoteleia" unicode="&#x387;" horiz-adv-x="202" 
d="M163 436v-126h-124v126h124zM49 320h52v106h-52v-106z" />
    <glyph glyph-name="Epsilontonos" unicode="&#x388;" horiz-adv-x="606" 
d="M544 96v-96h-463v700h460v-96h-352v-194h324v-96h-324v-218h355zM91 10l44 38h355l44 38h-352l-47 -38v314h324l44 38h-320l-48 -38v290h353l43 38h-440v-680zM46 700l-92 -148h-79l45 148h126zM-112 562l43 27l44 101h-48z" />
    <glyph glyph-name="Etatonos" unicode="&#x389;" horiz-adv-x="704" 
d="M623 700v-700h-108v308h-326v-308h-108v700h108v-294h326v294h108zM91 10l44 42v305h434l-44 -40v-307h1l43 42v638h-44v-294h-337l-53 -39v333h-44v-680zM46 700l-92 -148h-79l45 148h126zM-112 562l43 27l44 101h-48z" />
    <glyph glyph-name="Iotatonos" unicode="&#x38a;" horiz-adv-x="330" 
d="M41 94h70v512h-70v94h248v-94h-70v-512h70v-94h-248v94zM95 47h140l44 37h-70l-44 -37v606h70l44 37h-228v-74l44 37h70l-44 -37v-532h-70v-74zM16 700l-92 -148h-79l45 148h126zM-142 562l43 27l44 101h-48z" />
    <glyph glyph-name="Omicrontonos" unicode="&#x38c;" horiz-adv-x="800" 
d="M577.5 667.5q79.5 -46.5 125.5 -129.5t46 -188t-46 -188t-125.5 -129.5t-177.5 -46.5t-177.5 46.5t-125.5 129.5t-46 188t46 188t125.5 129.5t177.5 46.5t177.5 -46.5zM226.5 658q-77.5 -46 -121.5 -126.5t-44 -181.5q0 -67 20 -126t57 -106l45 14q38 -44 95 -70.5
t119 -26.5q81 0 149 38t108 109.5t40 167.5q0 64 -18.5 116.5t-55.5 103.5l45 8q-47 59 -115.5 92.5t-149.5 33.5q-96 0 -173.5 -46zM524.5 641q57.5 -27 95.5 -71l-25 -40q54 -75 54 -180q0 -80 -32 -143t-88.5 -98t-128.5 -35q-62 0 -113 26.5t-85 73.5l-19 -42
q-39 49 -58 102t-19 116q0 99 40.5 171t108.5 109.5t151 37.5q61 0 118.5 -27zM522.5 117q54.5 33 85.5 93.5t31 139.5t-31 139.5t-85.5 93.5t-122.5 33t-122.5 -33t-85.5 -93.5t-31 -139.5t31 -139.5t85.5 -93.5t122.5 -33t122.5 33zM140 700l-92 -148h-79l45 148h126z
M-18 562l43 27l44 101h-48z" />
    <glyph glyph-name="Upsilontonos" unicode="&#x38e;" horiz-adv-x="578" 
d="M574 700l-231 -419v-281h-108v281l-231 419h119l144 -273l9 -18t13 -29q6 15 13 29l9 18l144 273h119zM245 284v-274l44 44v234l221 402h-49l-141 -268q-5 -8 -14.5 -29t-16.5 -37v-68l-220 402h-48zM-13 700l-92 -148h-79l45 148h126zM-171 562l43 27l44 101h-48z" />
    <glyph glyph-name="Omegatonos" unicode="&#x38f;" horiz-adv-x="786" 
d="M686.5 209q-48.5 -81 -114.5 -124h147v-85h-273v104q75 38 128 109.5t53 167.5q0 67 -30 120.5t-83.5 84t-120.5 30.5t-120.5 -30.5t-83.5 -84t-30 -120.5q0 -96 53 -167.5t128 -109.5v-104h-273v85h147q-66 43 -114.5 124t-48.5 178q0 93 45 167.5t123 117t174 42.5
t174 -42.5t123 -117t45 -167.5q0 -97 -48.5 -178zM589 218q-48 -75 -133 -120v-53q139 89 192 199q34 71 34 142q0 92 -55 164l49 9q-44 68 -118 106.5t-165 38.5q-94 0 -169.5 -41t-119 -113.5t-43.5 -162.5q0 -92 46 -171l42 7q26 -45 81 -98t100 -81v54q-55 29 -94.5 71
t-61.5 93l-25 -39q-19 27 -31.5 71t-12.5 89q0 87 42 151t108.5 97.5t137.5 33.5q88 0 145.5 -36t88.5 -79l-24 -38q34 -57 34 -131q0 -88 -48 -163zM77 10l38 33h215l-86 32h-167v-65zM542 75l-86 -32h214l39 32h-167zM124 700l-92 -148h-79l45 148h126zM-34 562l43 27
l44 101h-48z" />
    <glyph glyph-name="Alpha" unicode="&#x391;" horiz-adv-x="680" 
d="M674 0h-114l-75 195h-290l-75 -195h-114l280 700h108zM520 243l-180 447v-85q12 -37 33 -91l90 -235h-235l-69 -36l177 447h-43l-272 -680l61 36l77 197h361zM332 554q-6 -18 -16 -44l-85 -221h218l-85 221q-10 26 -16 44t-8 23q-2 -5 -8 -23zM567 10l33 36l-79 197
l-29 -38z" />
    <glyph glyph-name="Beta" unicode="&#x392;" horiz-adv-x="653" 
d="M565.5 316q38.5 -42 38.5 -108q0 -63 -33.5 -110t-90 -72.5t-123.5 -25.5h-276v700h272q103 0 162.5 -46t59.5 -124q0 -55 -31 -96.5t-77 -60.5q60 -15 98.5 -57zM91 10h1l41 37h219q68 0 121 27.5t69 86.5l48 6q4 17 4 41q0 59 -37 101.5t-114 62.5l-94 -1q56 3 95 27
t58.5 59.5t19.5 72.5q0 10 -4 30l45 -6q-9 64 -64.5 100t-145.5 36h-262v-680zM467.5 626.5q40.5 -27.5 50.5 -66.5l-37 -37v-11q0 -51 -34.5 -77.5t-101.5 -26.5h-166l-46 -37v283h220q74 0 114.5 -27.5zM471 512q0 94 -126 94h-156v-188h156q126 0 126 94zM133 371h216
q47 0 93 -16.5t76.5 -53t30.5 -93.5q0 -25 -7 -47l-38 36q-5 -55 -45 -84t-113 -29h-167l-46 -37v324zM455.5 123q38.5 29 38.5 86t-38.5 86t-109.5 29h-157v-230h157q71 0 109.5 29z" />
    <glyph glyph-name="Gamma" unicode="&#x393;" horiz-adv-x="565" 
d="M547 700v-96h-358v-604h-108v700h466zM537 690h-446v-680l44 38v603h358z" />
    <glyph glyph-name="uni0394" unicode="&#x394;" horiz-adv-x="680" 
d="M674 0h-668l280 700h108zM21 10l59 36h520l-174 442q-48 124 -86 201v-81q19 -59 33 -94l166 -430h-392l-67 -38l174 442q42 108 84 202h-45zM156 94h368l-160 416q-10 26 -16 44t-8 23q-2 -5 -8 -23t-16 -44l-154 -401z" />
    <glyph glyph-name="Epsilon" unicode="&#x395;" horiz-adv-x="606" 
d="M544 96v-96h-463v700h460v-96h-352v-194h324v-96h-324v-218h355zM91 10l44 38h355l44 38h-352l-47 -38v314h324l44 38h-320l-48 -38v290h353l43 38h-440v-680z" />
    <glyph glyph-name="Zeta" unicode="&#x396;" horiz-adv-x="607" 
d="M566 98v-98h-527v96l386 506h-372v98h495v-98l-383 -504h401zM49 10l33 38h428l46 40h-410l-64 -40l17 46l396 519l43 38v39h-475v-78l40 39h435l-93 -39l-396 -519v-83z" />
    <glyph glyph-name="Eta" unicode="&#x397;" horiz-adv-x="704" 
d="M623 700v-700h-108v308h-326v-308h-108v700h108v-294h326v294h108zM91 10l44 42v305h434l-44 -40v-307h1l43 42v638h-44v-294h-337l-53 -39v333h-44v-680z" />
    <glyph glyph-name="Theta" unicode="&#x398;" horiz-adv-x="698" 
d="M507.5 666.5q67.5 -47.5 103.5 -130t36 -186.5t-36 -186.5t-103.5 -130t-158.5 -47.5t-158.5 47.5t-103.5 130t-36 186.5t36 186.5t103.5 130t158.5 47.5t158.5 -47.5zM198.5 660q-65.5 -44 -101.5 -124.5t-36 -185.5q0 -138 61 -230l40 13q36 -45 77 -71.5t111 -26.5
q60 0 115 30t92 101.5t37 188.5q0 63 -16.5 120.5t-43.5 94.5l44 8q-38 60 -96 93t-133 33q-85 0 -150.5 -44zM534 570l-25 -38q33 -60 39 -145h-398l-46 -37q1 96 31.5 167t86 109.5t129.5 38.5q116 0 183 -95zM537 397q-10 104 -58.5 161.5t-129.5 57.5t-129.5 -57.5
t-58.5 -161.5h376zM119.5 231.5q-14.5 59.5 -15.5 118.5h490l-46 -37q-8 -114 -60.5 -176.5t-138.5 -62.5q-55 0 -96 25.5t-67 74.5l-24 -41q-28 39 -42.5 98.5zM478.5 141.5q48.5 57.5 58.5 161.5h-376q10 -104 58.5 -161.5t129.5 -57.5t129.5 57.5z" />
    <glyph glyph-name="Iota" unicode="&#x399;" horiz-adv-x="330" 
d="M41 94h70v512h-70v94h248v-94h-70v-512h70v-94h-248v94zM95 47h140l44 37h-70l-44 -37v606h70l44 37h-228v-74l44 37h70l-44 -37v-532h-70v-74z" />
    <glyph glyph-name="Kappa" unicode="&#x39a;" horiz-adv-x="640" 
d="M619 0h-126l-216 360l-88 -92v-268h-108v700h108v-294l48 53l226 241h138l-246 -260zM91 10l44 44v228l153 161l234 -389l79 -44l-259 431l-54 2l233 247h-54l-223 -238l-65 -70l-44 -100v408h-44v-680z" />
    <glyph glyph-name="Lambda" unicode="&#x39b;" horiz-adv-x="640" 
d="M634 0h-116l-172 489q-3 8 -10 31t-16 51q-9 -28 -16 -51t-10 -31l-172 -489h-116l257 700h114zM20 10h1l58 36l237 644h-46zM525 10l36 36l-180 497q-20 54 -61 147v-88q15 -45 24 -73.5t11 -36.5z" />
    <glyph glyph-name="Mu" unicode="&#x39c;" horiz-adv-x="866" 
d="M785 700v-700h-104v485q-8 -23 -19.5 -54.5t-16.5 -44.5l-160 -386h-104l-160 386q-5 12 -16 42t-19 55l-1 -483h-104v700h115l237 -593l237 593h115zM91 10l42 42v638h-42v-680zM733 52v638h-56l-244 -610v-70l258 595v-595zM388 10h45l-247 580v-84q16 -42 28 -74.5
t16 -42.5z" />
    <glyph glyph-name="Nu" unicode="&#x39d;" horiz-adv-x="720" 
d="M639 700v-700h-110l-314 488q-4 6 -14.5 23.5t-14.5 27.5l-1 -529v-10h-104v700h110l314 -488q4 -6 15 -25t15 -28v541h104zM91 10l42 42v638h-42v-680zM545 690v-551l42 -66v617h-42zM534 10l28 28l-376 571v-54q37 -61 37 -62z" />
    <glyph glyph-name="Xi" unicode="&#x39e;" horiz-adv-x="604" 
d="M539 604h-474v96h474v-96zM75 614l43 38h368l43 38h-454v-76zM93 314v96h418v-96h-418zM103 324l43 38h312l43 38h-398v-76zM542 96v-96h-480v96h480zM532 86h-460v-76l43 38h374z" />
    <glyph glyph-name="Omicron" unicode="&#x39f;" horiz-adv-x="800" 
d="M577.5 667.5q79.5 -46.5 125.5 -129.5t46 -188t-46 -188t-125.5 -129.5t-177.5 -46.5t-177.5 46.5t-125.5 129.5t-46 188t46 188t125.5 129.5t177.5 46.5t177.5 -46.5zM226.5 658q-77.5 -46 -121.5 -126.5t-44 -181.5q0 -67 20 -126t57 -106l45 14q38 -44 95 -70.5
t119 -26.5q81 0 149 38t108 109.5t40 167.5q0 64 -18.5 116.5t-55.5 103.5l45 8q-47 59 -115.5 92.5t-149.5 33.5q-96 0 -173.5 -46zM524.5 641q57.5 -27 95.5 -71l-25 -40q54 -75 54 -180q0 -80 -32 -143t-88.5 -98t-128.5 -35q-62 0 -113 26.5t-85 73.5l-19 -42
q-39 49 -58 102t-19 116q0 99 40.5 171t108.5 109.5t151 37.5q61 0 118.5 -27zM522.5 117q54.5 33 85.5 93.5t31 139.5t-31 139.5t-85.5 93.5t-122.5 33t-122.5 -33t-85.5 -93.5t-31 -139.5t31 -139.5t85.5 -93.5t122.5 -33t122.5 33z" />
    <glyph glyph-name="Pi" unicode="&#x3a0;" horiz-adv-x="680" 
d="M599 700v-700h-108v602h-302v-602h-108v700h518zM91 10l44 38v603h410l-44 -39v-601l44 37v603l44 39h-498v-680z" />
    <glyph glyph-name="Rho" unicode="&#x3a1;" horiz-adv-x="689" 
d="M571 640.5q68 -59.5 68 -163.5t-68 -163.5t-184 -59.5h-198v-254h-108v700h306q116 0 184 -59.5zM91 10l44 44v248h250q95 0 147.5 48t52.5 137l44 -19v9q0 99 -65 156t-177 57h-296v-680zM491.5 630q45.5 -22 69.5 -59.5t24 -83.5l-44 -20q-4 -60 -45.5 -93.5
t-112.5 -33.5h-204l-44 -38v350h250q61 0 106.5 -22zM493 384q38 34 38 93t-38 93t-110 34h-194v-254h194q72 0 110 34z" />
    <glyph glyph-name="Sigma" unicode="&#x3a3;" horiz-adv-x="591" 
d="M552 98v-98h-508v98l207 252l-198 252v98h487v-98h-361l194 -252l-205 -252h384zM63 690v-39h420l47 39h-467zM542 88h-395l-93 -39q41 37 106 117l151 184h49l-201 262l-96 38v-1q43 -31 89 -89l159 -210h-47l-210 -256v-45h442z" />
    <glyph glyph-name="Tau" unicode="&#x3a4;" horiz-adv-x="576" 
d="M558 700v-98h-216v-602h-108v602h-216v98h540zM548 690h-520v-78l40 39h220l-44 -39v-602l44 44v597h221z" />
    <glyph glyph-name="Upsilon" unicode="&#x3a5;" horiz-adv-x="578" 
d="M574 700l-231 -419v-281h-108v281l-231 419h119l144 -273l9 -18t13 -29q6 15 13 29l9 18l144 273h119zM245 284v-274l44 44v234l221 402h-49l-141 -268q-5 -8 -14.5 -29t-16.5 -37v-68l-220 402h-48z" />
    <glyph glyph-name="Phi" unicode="&#x3a6;" horiz-adv-x="792" 
d="M600.5 597.5q66.5 -34.5 106.5 -98.5t40 -149t-40 -149t-106.5 -98.5t-142.5 -34.5h-7v-68h-110v68h-7q-76 0 -142.5 34.5t-106.5 98.5t-40 149t40 149t106.5 98.5t142.5 34.5h7v68h110v-68h7q76 0 142.5 -34.5zM351 10l45 44v60h37q96 0 155 36t83.5 91.5t24.5 118.5
l41 -18v8q0 77 -36.5 139.5t-100 97.5t-142.5 35h-17l-45 -36v104h-45v-68h-17q-77 0 -140 -34t-100 -94.5t-39 -135.5l41 -18q4 -111 78 -168.5t189 -57.5h33l-45 -36v-68zM141 360l-45 -20q0 76 32 131.5t89 85t129 29.5h50l-45 -36v-400h-19q-56 0 -99.5 25.5t-67.5 71
t-24 103.5v10zM441 150l-45 -36v472l61 -1q70 -1 124.5 -31.5t84.5 -82t30 -111.5l-45 -19q-2 -56 -27 -99.5t-67.5 -67.5t-96.5 -24h-19zM341 540h-9q-50 0 -91 -22.5t-65.5 -65.5t-24.5 -102t24.5 -102t65.5 -65.5t91 -22.5h9v380zM550.5 182.5q41.5 22.5 66 65.5
t24.5 102t-24.5 102t-65.5 65.5t-91 22.5h-9v-380h9q49 0 90.5 22.5z" />
    <glyph glyph-name="Chi" unicode="&#x3a7;" horiz-adv-x="597" 
d="M593 0h-119l-176 290l-176 -290h-119l234 379l-201 321h117l145 -239l145 239h117l-201 -321zM479 11l28 33l-209 334l195 312h-44l-151 -248v-64l-195 312h-50l195 -312l-228 -367l68 34l210 333v-68z" />
    <glyph glyph-name="Psi" unicode="&#x3a8;" horiz-adv-x="770" 
d="M702 700v-262q0 -130 -69 -201t-194 -71v-166h-108v166q-125 0 -194 71t-69 201v262h108v-257q0 -86 40 -134.5t115 -48.5v440h108v-440q75 0 115 48.5t40 134.5v257h108zM146.5 241.5q68.5 -68.5 194.5 -65.5v-166l44 38v163h38q107 0 166 56t59 184v239h-44v-247
q0 -94 -46.5 -145t-128.5 -48l-44 -39v479h-44v-440l44 -39h-54q-111 0 -160 65.5t-49 174.5v239h-44v-252q0 -128 68.5 -196.5z" />
    <glyph glyph-name="uni03A9" unicode="&#x3a9;" horiz-adv-x="786" 
d="M686.5 209q-48.5 -81 -114.5 -124h147v-85h-273v104q75 38 128 109.5t53 167.5q0 67 -30 120.5t-83.5 84t-120.5 30.5t-120.5 -30.5t-83.5 -84t-30 -120.5q0 -96 53 -167.5t128 -109.5v-104h-273v85h147q-66 43 -114.5 124t-48.5 178q0 93 45 167.5t123 117t174 42.5
t174 -42.5t123 -117t45 -167.5q0 -97 -48.5 -178zM589 218q-48 -75 -133 -120v-53q139 89 192 199q34 71 34 142q0 92 -55 164l49 9q-44 68 -118 106.5t-165 38.5q-94 0 -169.5 -41t-119 -113.5t-43.5 -162.5q0 -92 46 -171l42 7q26 -45 81 -98t100 -81v54q-55 29 -94.5 71
t-61.5 93l-25 -39q-19 27 -31.5 71t-12.5 89q0 87 42 151t108.5 97.5t137.5 33.5q88 0 145.5 -36t88.5 -79l-24 -38q34 -57 34 -131q0 -88 -48 -163zM77 10l38 33h215l-86 32h-167v-65zM542 75l-86 -32h214l39 32h-167z" />
    <glyph glyph-name="Iotadieresis" unicode="&#x3aa;" horiz-adv-x="330" 
d="M41 94h70v512h-70v94h248v-94h-70v-512h70v-94h-248v94zM95 47h140l44 37h-70l-44 -37v606h70l44 37h-228v-74l44 37h70l-44 -37v-532h-70v-74zM28 894h105v-108h-105v108zM302 894v-108h-105v108h105zM38 796h43v88h-43v-88zM207 796h43v88h-43v-88z" />
    <glyph glyph-name="Upsilondieresis" unicode="&#x3ab;" horiz-adv-x="578" 
d="M574 700l-231 -419v-281h-108v281l-231 419h119l144 -273l9 -18t13 -29q6 15 13 29l9 18l144 273h119zM245 284v-274l44 44v234l221 402h-49l-141 -268q-5 -8 -14.5 -29t-16.5 -37v-68l-220 402h-48zM152 894h105v-108h-105v108zM426 894v-108h-105v108h105zM162 796h43
v88h-43v-88zM331 796h43v88h-43v-88z" />
    <glyph glyph-name="alphatonos" unicode="&#x3ac;" horiz-adv-x="680" 
d="M674 0h-114l-75 195h-290l-75 -195h-114l280 700h108zM520 243l-180 447v-85q12 -37 33 -91l90 -235h-235l-69 -36l177 447h-43l-272 -680l61 36l77 197h361zM332 554q-6 -18 -16 -44l-85 -221h218l-85 221q-10 26 -16 44t-8 23q-2 -5 -8 -23zM567 10l33 36l-79 197
l-29 -38zM216 700l-92 -148h-79l45 148h126zM58 562l43 27l44 101h-48z" />
    <glyph glyph-name="epsilontonos" unicode="&#x3ad;" horiz-adv-x="606" 
d="M544 96v-96h-463v700h460v-96h-352v-194h324v-96h-324v-218h355zM91 10l44 38h355l44 38h-352l-47 -38v314h324l44 38h-320l-48 -38v290h353l43 38h-440v-680zM46 700l-92 -148h-79l45 148h126zM-112 562l43 27l44 101h-48z" />
    <glyph glyph-name="etatonos" unicode="&#x3ae;" horiz-adv-x="704" 
d="M623 700v-700h-108v308h-326v-308h-108v700h108v-294h326v294h108zM91 10l44 42v305h434l-44 -40v-307h1l43 42v638h-44v-294h-337l-53 -39v333h-44v-680zM46 700l-92 -148h-79l45 148h126zM-112 562l43 27l44 101h-48z" />
    <glyph glyph-name="iotatonos" unicode="&#x3af;" horiz-adv-x="330" 
d="M41 94h70v512h-70v94h248v-94h-70v-512h70v-94h-248v94zM95 47h140l44 37h-70l-44 -37v606h70l44 37h-228v-74l44 37h70l-44 -37v-532h-70v-74zM16 700l-92 -148h-79l45 148h126zM-142 562l43 27l44 101h-48z" />
    <glyph glyph-name="alpha" unicode="&#x3b1;" horiz-adv-x="680" 
d="M674 0h-114l-75 195h-290l-75 -195h-114l280 700h108zM520 243l-180 447v-85q12 -37 33 -91l90 -235h-235l-69 -36l177 447h-43l-272 -680l61 36l77 197h361zM332 554q-6 -18 -16 -44l-85 -221h218l-85 221q-10 26 -16 44t-8 23q-2 -5 -8 -23zM567 10l33 36l-79 197
l-29 -38z" />
    <glyph glyph-name="beta" unicode="&#x3b2;" horiz-adv-x="653" 
d="M565.5 316q38.5 -42 38.5 -108q0 -63 -33.5 -110t-90 -72.5t-123.5 -25.5h-276v700h272q103 0 162.5 -46t59.5 -124q0 -55 -31 -96.5t-77 -60.5q60 -15 98.5 -57zM91 10h1l41 37h219q68 0 121 27.5t69 86.5l48 6q4 17 4 41q0 59 -37 101.5t-114 62.5l-94 -1q56 3 95 27
t58.5 59.5t19.5 72.5q0 10 -4 30l45 -6q-9 64 -64.5 100t-145.5 36h-262v-680zM467.5 626.5q40.5 -27.5 50.5 -66.5l-37 -37v-11q0 -51 -34.5 -77.5t-101.5 -26.5h-166l-46 -37v283h220q74 0 114.5 -27.5zM471 512q0 94 -126 94h-156v-188h156q126 0 126 94zM133 371h216
q47 0 93 -16.5t76.5 -53t30.5 -93.5q0 -25 -7 -47l-38 36q-5 -55 -45 -84t-113 -29h-167l-46 -37v324zM455.5 123q38.5 29 38.5 86t-38.5 86t-109.5 29h-157v-230h157q71 0 109.5 29z" />
    <glyph glyph-name="gamma" unicode="&#x3b3;" horiz-adv-x="565" 
d="M547 700v-96h-358v-604h-108v700h466zM537 690h-446v-680l44 38v603h358z" />
    <glyph glyph-name="delta" unicode="&#x3b4;" horiz-adv-x="680" 
d="M674 0h-668l280 700h108zM21 10l59 36h520l-174 442q-48 124 -86 201v-81q19 -59 33 -94l166 -430h-392l-67 -38l174 442q42 108 84 202h-45zM156 94h368l-160 416q-10 26 -16 44t-8 23q-2 -5 -8 -23t-16 -44l-154 -401z" />
    <glyph glyph-name="epsilon" unicode="&#x3b5;" horiz-adv-x="606" 
d="M544 96v-96h-463v700h460v-96h-352v-194h324v-96h-324v-218h355zM91 10l44 38h355l44 38h-352l-47 -38v314h324l44 38h-320l-48 -38v290h353l43 38h-440v-680z" />
    <glyph glyph-name="zeta" unicode="&#x3b6;" horiz-adv-x="607" 
d="M566 98v-98h-527v96l386 506h-372v98h495v-98l-383 -504h401zM49 10l33 38h428l46 40h-410l-64 -40l17 46l396 519l43 38v39h-475v-78l40 39h435l-93 -39l-396 -519v-83z" />
    <glyph glyph-name="eta" unicode="&#x3b7;" horiz-adv-x="704" 
d="M623 700v-700h-108v308h-326v-308h-108v700h108v-294h326v294h108zM91 10l44 42v305h434l-44 -40v-307h1l43 42v638h-44v-294h-337l-53 -39v333h-44v-680z" />
    <glyph glyph-name="theta" unicode="&#x3b8;" horiz-adv-x="698" 
d="M507.5 666.5q67.5 -47.5 103.5 -130t36 -186.5t-36 -186.5t-103.5 -130t-158.5 -47.5t-158.5 47.5t-103.5 130t-36 186.5t36 186.5t103.5 130t158.5 47.5t158.5 -47.5zM198.5 660q-65.5 -44 -101.5 -124.5t-36 -185.5q0 -138 61 -230l40 13q36 -45 77 -71.5t111 -26.5
q60 0 115 30t92 101.5t37 188.5q0 63 -16.5 120.5t-43.5 94.5l44 8q-38 60 -96 93t-133 33q-85 0 -150.5 -44zM534 570l-25 -38q33 -60 39 -145h-398l-46 -37q1 96 31.5 167t86 109.5t129.5 38.5q116 0 183 -95zM537 397q-10 104 -58.5 161.5t-129.5 57.5t-129.5 -57.5
t-58.5 -161.5h376zM119.5 231.5q-14.5 59.5 -15.5 118.5h490l-46 -37q-8 -114 -60.5 -176.5t-138.5 -62.5q-55 0 -96 25.5t-67 74.5l-24 -41q-28 39 -42.5 98.5zM478.5 141.5q48.5 57.5 58.5 161.5h-376q10 -104 58.5 -161.5t129.5 -57.5t129.5 57.5z" />
    <glyph glyph-name="iota" unicode="&#x3b9;" horiz-adv-x="330" 
d="M41 94h70v512h-70v94h248v-94h-70v-512h70v-94h-248v94zM95 47h140l44 37h-70l-44 -37v606h70l44 37h-228v-74l44 37h70l-44 -37v-532h-70v-74z" />
    <glyph glyph-name="kappa" unicode="&#x3ba;" horiz-adv-x="640" 
d="M619 0h-126l-216 360l-88 -92v-268h-108v700h108v-294l48 53l226 241h138l-246 -260zM91 10l44 44v228l153 161l234 -389l79 -44l-259 431l-54 2l233 247h-54l-223 -238l-65 -70l-44 -100v408h-44v-680z" />
    <glyph glyph-name="lambda" unicode="&#x3bb;" horiz-adv-x="640" 
d="M634 0h-116l-172 489q-3 8 -10 31t-16 51q-9 -28 -16 -51t-10 -31l-172 -489h-116l257 700h114zM20 10h1l58 36l237 644h-46zM525 10l36 36l-180 497q-20 54 -61 147v-88q15 -45 24 -73.5t11 -36.5z" />
    <glyph glyph-name="uni03BC" unicode="&#x3bc;" horiz-adv-x="866" 
d="M785 700v-700h-104v485q-8 -23 -19.5 -54.5t-16.5 -44.5l-160 -386h-104l-160 386q-5 12 -16 42t-19 55l-1 -483h-104v700h115l237 -593l237 593h115zM91 10l42 42v638h-42v-680zM733 52v638h-56l-244 -610v-70l258 595v-595zM388 10h45l-247 580v-84q16 -42 28 -74.5
t16 -42.5z" />
    <glyph glyph-name="nu" unicode="&#x3bd;" horiz-adv-x="720" 
d="M639 700v-700h-110l-314 488q-4 6 -14.5 23.5t-14.5 27.5l-1 -529v-10h-104v700h110l314 -488q4 -6 15 -25t15 -28v541h104zM91 10l42 42v638h-42v-680zM545 690v-551l42 -66v617h-42zM534 10l28 28l-376 571v-54q37 -61 37 -62z" />
    <glyph glyph-name="xi" unicode="&#x3be;" horiz-adv-x="604" 
d="M539 604h-474v96h474v-96zM75 614l43 38h368l43 38h-454v-76zM93 314v96h418v-96h-418zM103 324l43 38h312l43 38h-398v-76zM542 96v-96h-480v96h480zM532 86h-460v-76l43 38h374z" />
    <glyph glyph-name="omicron" unicode="&#x3bf;" horiz-adv-x="800" 
d="M577.5 667.5q79.5 -46.5 125.5 -129.5t46 -188t-46 -188t-125.5 -129.5t-177.5 -46.5t-177.5 46.5t-125.5 129.5t-46 188t46 188t125.5 129.5t177.5 46.5t177.5 -46.5zM226.5 658q-77.5 -46 -121.5 -126.5t-44 -181.5q0 -67 20 -126t57 -106l45 14q38 -44 95 -70.5
t119 -26.5q81 0 149 38t108 109.5t40 167.5q0 64 -18.5 116.5t-55.5 103.5l45 8q-47 59 -115.5 92.5t-149.5 33.5q-96 0 -173.5 -46zM524.5 641q57.5 -27 95.5 -71l-25 -40q54 -75 54 -180q0 -80 -32 -143t-88.5 -98t-128.5 -35q-62 0 -113 26.5t-85 73.5l-19 -42
q-39 49 -58 102t-19 116q0 99 40.5 171t108.5 109.5t151 37.5q61 0 118.5 -27zM522.5 117q54.5 33 85.5 93.5t31 139.5t-31 139.5t-85.5 93.5t-122.5 33t-122.5 -33t-85.5 -93.5t-31 -139.5t31 -139.5t85.5 -93.5t122.5 -33t122.5 33z" />
    <glyph glyph-name="pi" unicode="&#x3c0;" horiz-adv-x="680" 
d="M599 700v-700h-108v602h-302v-602h-108v700h518zM91 10l44 38v603h410l-44 -39v-601l44 37v603l44 39h-498v-680z" />
    <glyph glyph-name="rho" unicode="&#x3c1;" horiz-adv-x="689" 
d="M571 640.5q68 -59.5 68 -163.5t-68 -163.5t-184 -59.5h-198v-254h-108v700h306q116 0 184 -59.5zM91 10l44 44v248h250q95 0 147.5 48t52.5 137l44 -19v9q0 99 -65 156t-177 57h-296v-680zM491.5 630q45.5 -22 69.5 -59.5t24 -83.5l-44 -20q-4 -60 -45.5 -93.5
t-112.5 -33.5h-204l-44 -38v350h250q61 0 106.5 -22zM493 384q38 34 38 93t-38 93t-110 34h-194v-254h194q72 0 110 34z" />
    <glyph glyph-name="sigma" unicode="&#x3c3;" horiz-adv-x="591" 
d="M552 98v-98h-508v98l207 252l-198 252v98h487v-98h-361l194 -252l-205 -252h384zM63 690v-39h420l47 39h-467zM542 88h-395l-93 -39q41 37 106 117l151 184h49l-201 262l-96 38v-1q43 -31 89 -89l159 -210h-47l-210 -256v-45h442z" />
    <glyph glyph-name="tau" unicode="&#x3c4;" horiz-adv-x="576" 
d="M558 700v-98h-216v-602h-108v602h-216v98h540zM548 690h-520v-78l40 39h220l-44 -39v-602l44 44v597h221z" />
    <glyph glyph-name="upsilon" unicode="&#x3c5;" horiz-adv-x="578" 
d="M574 700l-231 -419v-281h-108v281l-231 419h119l144 -273l9 -18t13 -29q6 15 13 29l9 18l144 273h119zM245 284v-274l44 44v234l221 402h-49l-141 -268q-5 -8 -14.5 -29t-16.5 -37v-68l-220 402h-48z" />
    <glyph glyph-name="phi" unicode="&#x3c6;" horiz-adv-x="792" 
d="M600.5 597.5q66.5 -34.5 106.5 -98.5t40 -149t-40 -149t-106.5 -98.5t-142.5 -34.5h-7v-68h-110v68h-7q-76 0 -142.5 34.5t-106.5 98.5t-40 149t40 149t106.5 98.5t142.5 34.5h7v68h110v-68h7q76 0 142.5 -34.5zM351 10l45 44v60h37q96 0 155 36t83.5 91.5t24.5 118.5
l41 -18v8q0 77 -36.5 139.5t-100 97.5t-142.5 35h-17l-45 -36v104h-45v-68h-17q-77 0 -140 -34t-100 -94.5t-39 -135.5l41 -18q4 -111 78 -168.5t189 -57.5h33l-45 -36v-68zM141 360l-45 -20q0 76 32 131.5t89 85t129 29.5h50l-45 -36v-400h-19q-56 0 -99.5 25.5t-67.5 71
t-24 103.5v10zM441 150l-45 -36v472l61 -1q70 -1 124.5 -31.5t84.5 -82t30 -111.5l-45 -19q-2 -56 -27 -99.5t-67.5 -67.5t-96.5 -24h-19zM341 540h-9q-50 0 -91 -22.5t-65.5 -65.5t-24.5 -102t24.5 -102t65.5 -65.5t91 -22.5h9v380zM550.5 182.5q41.5 22.5 66 65.5
t24.5 102t-24.5 102t-65.5 65.5t-91 22.5h-9v-380h9q49 0 90.5 22.5z" />
    <glyph glyph-name="chi" unicode="&#x3c7;" horiz-adv-x="597" 
d="M593 0h-119l-176 290l-176 -290h-119l234 379l-201 321h117l145 -239l145 239h117l-201 -321zM479 11l28 33l-209 334l195 312h-44l-151 -248v-64l-195 312h-50l195 -312l-228 -367l68 34l210 333v-68z" />
    <glyph glyph-name="psi" unicode="&#x3c8;" horiz-adv-x="770" 
d="M702 700v-262q0 -130 -69 -201t-194 -71v-166h-108v166q-125 0 -194 71t-69 201v262h108v-257q0 -86 40 -134.5t115 -48.5v440h108v-440q75 0 115 48.5t40 134.5v257h108zM146.5 241.5q68.5 -68.5 194.5 -65.5v-166l44 38v163h38q107 0 166 56t59 184v239h-44v-247
q0 -94 -46.5 -145t-128.5 -48l-44 -39v479h-44v-440l44 -39h-54q-111 0 -160 65.5t-49 174.5v239h-44v-252q0 -128 68.5 -196.5z" />
    <glyph glyph-name="omega" unicode="&#x3c9;" horiz-adv-x="786" 
d="M686.5 209q-48.5 -81 -114.5 -124h147v-85h-273v104q75 38 128 109.5t53 167.5q0 67 -30 120.5t-83.5 84t-120.5 30.5t-120.5 -30.5t-83.5 -84t-30 -120.5q0 -96 53 -167.5t128 -109.5v-104h-273v85h147q-66 43 -114.5 124t-48.5 178q0 93 45 167.5t123 117t174 42.5
t174 -42.5t123 -117t45 -167.5q0 -97 -48.5 -178zM589 218q-48 -75 -133 -120v-53q139 89 192 199q34 71 34 142q0 92 -55 164l49 9q-44 68 -118 106.5t-165 38.5q-94 0 -169.5 -41t-119 -113.5t-43.5 -162.5q0 -92 46 -171l42 7q26 -45 81 -98t100 -81v54q-55 29 -94.5 71
t-61.5 93l-25 -39q-19 27 -31.5 71t-12.5 89q0 87 42 151t108.5 97.5t137.5 33.5q88 0 145.5 -36t88.5 -79l-24 -38q34 -57 34 -131q0 -88 -48 -163zM77 10l38 33h215l-86 32h-167v-65zM542 75l-86 -32h214l39 32h-167z" />
    <glyph glyph-name="iotadieresis" unicode="&#x3ca;" horiz-adv-x="330" 
d="M41 94h70v512h-70v94h248v-94h-70v-512h70v-94h-248v94zM95 47h140l44 37h-70l-44 -37v606h70l44 37h-228v-74l44 37h70l-44 -37v-532h-70v-74zM28 894h105v-108h-105v108zM302 894v-108h-105v108h105zM38 796h43v88h-43v-88zM207 796h43v88h-43v-88z" />
    <glyph glyph-name="upsilondieresis" unicode="&#x3cb;" horiz-adv-x="578" 
d="M574 700l-231 -419v-281h-108v281l-231 419h119l144 -273l9 -18t13 -29q6 15 13 29l9 18l144 273h119zM245 284v-274l44 44v234l221 402h-49l-141 -268q-5 -8 -14.5 -29t-16.5 -37v-68l-220 402h-48zM152 894h105v-108h-105v108zM426 894v-108h-105v108h105zM162 796h43
v88h-43v-88zM331 796h43v88h-43v-88z" />
    <glyph glyph-name="omicrontonos" unicode="&#x3cc;" horiz-adv-x="800" 
d="M577.5 667.5q79.5 -46.5 125.5 -129.5t46 -188t-46 -188t-125.5 -129.5t-177.5 -46.5t-177.5 46.5t-125.5 129.5t-46 188t46 188t125.5 129.5t177.5 46.5t177.5 -46.5zM226.5 658q-77.5 -46 -121.5 -126.5t-44 -181.5q0 -67 20 -126t57 -106l45 14q38 -44 95 -70.5
t119 -26.5q81 0 149 38t108 109.5t40 167.5q0 64 -18.5 116.5t-55.5 103.5l45 8q-47 59 -115.5 92.5t-149.5 33.5q-96 0 -173.5 -46zM524.5 641q57.5 -27 95.5 -71l-25 -40q54 -75 54 -180q0 -80 -32 -143t-88.5 -98t-128.5 -35q-62 0 -113 26.5t-85 73.5l-19 -42
q-39 49 -58 102t-19 116q0 99 40.5 171t108.5 109.5t151 37.5q61 0 118.5 -27zM522.5 117q54.5 33 85.5 93.5t31 139.5t-31 139.5t-85.5 93.5t-122.5 33t-122.5 -33t-85.5 -93.5t-31 -139.5t31 -139.5t85.5 -93.5t122.5 -33t122.5 33zM140 700l-92 -148h-79l45 148h126z
M-18 562l43 27l44 101h-48z" />
    <glyph glyph-name="upsilontonos" unicode="&#x3cd;" horiz-adv-x="578" 
d="M574 700l-231 -419v-281h-108v281l-231 419h119l144 -273l9 -18t13 -29q6 15 13 29l9 18l144 273h119zM245 284v-274l44 44v234l221 402h-49l-141 -268q-5 -8 -14.5 -29t-16.5 -37v-68l-220 402h-48zM-13 700l-92 -148h-79l45 148h126zM-171 562l43 27l44 101h-48z" />
    <glyph glyph-name="omegatonos" unicode="&#x3ce;" horiz-adv-x="786" 
d="M686.5 209q-48.5 -81 -114.5 -124h147v-85h-273v104q75 38 128 109.5t53 167.5q0 67 -30 120.5t-83.5 84t-120.5 30.5t-120.5 -30.5t-83.5 -84t-30 -120.5q0 -96 53 -167.5t128 -109.5v-104h-273v85h147q-66 43 -114.5 124t-48.5 178q0 93 45 167.5t123 117t174 42.5
t174 -42.5t123 -117t45 -167.5q0 -97 -48.5 -178zM589 218q-48 -75 -133 -120v-53q139 89 192 199q34 71 34 142q0 92 -55 164l49 9q-44 68 -118 106.5t-165 38.5q-94 0 -169.5 -41t-119 -113.5t-43.5 -162.5q0 -92 46 -171l42 7q26 -45 81 -98t100 -81v54q-55 29 -94.5 71
t-61.5 93l-25 -39q-19 27 -31.5 71t-12.5 89q0 87 42 151t108.5 97.5t137.5 33.5q88 0 145.5 -36t88.5 -79l-24 -38q34 -57 34 -131q0 -88 -48 -163zM77 10l38 33h215l-86 32h-167v-65zM542 75l-86 -32h214l39 32h-167zM124 700l-92 -148h-79l45 148h126zM-34 562l43 27
l44 101h-48z" />
    <glyph glyph-name="uni0400" unicode="&#x400;" horiz-adv-x="606" 
d="M544 96v-96h-463v700h460v-96h-352v-194h324v-96h-324v-218h355zM91 10l44 38h355l44 38h-352l-47 -38v314h324l44 38h-320l-48 -38v290h353l43 38h-440v-680zM383 759h-85l-112 148h131zM303 769l16 32l-57 96h-56z" />
    <glyph glyph-name="uni0401" unicode="&#x401;" horiz-adv-x="606" 
d="M544 96v-96h-463v700h460v-96h-352v-194h324v-96h-324v-218h355zM91 10l44 38h355l44 38h-352l-47 -38v314h324l44 38h-320l-48 -38v290h353l43 38h-440v-680zM178 894h105v-108h-105v108zM452 894v-108h-105v108h105zM188 796h43v88h-43v-88zM357 796h43v88h-43v-88z
" />
    <glyph glyph-name="uni0402" unicode="&#x402;" horiz-adv-x="756" 
d="M646.5 355.5q65.5 -53.5 65.5 -154.5q0 -97 -64 -152.5t-167 -55.5q-48 0 -90 12l15 87q34 -12 75 -12q57 0 93 31t36 91q0 59 -42.5 88t-118.5 29h-126v-319h-108v602h-197v98h531v-98h-226v-193h145q113 0 178.5 -53.5zM414 79l-6 -34q37 -9 73 -9q103 0 142 50.5
t37 124.5l42 -18v8q0 95 -61 146.5t-173 51.5h-155l-44 -35v287l227 -1l43 40h-511v-78l42 39h199l-44 -39v-602l44 44v310h171q95 0 157 -36.5t63 -116.5l-40 -18v1q-3 -58 -40 -91t-99 -33q-35 0 -67 9z" />
    <glyph glyph-name="uni0403" unicode="&#x403;" horiz-adv-x="565" 
d="M547 700v-96h-358v-604h-108v700h466zM537 690h-446v-680l44 38v603h358zM443 907l-112 -148h-85l66 148h131zM261 769l49 32l57 96h-49z" />
    <glyph glyph-name="uni0404" unicode="&#x404;" horiz-adv-x="745" 
d="M692 184q-43 -90 -119 -144t-182 -54q-101 0 -178.5 45.5t-119.5 128t-42 190.5t43.5 190.5t122 128t180.5 45.5q107 0 180.5 -50t112.5 -141l-92 -50q-30 70 -82.5 106.5t-123.5 36.5q-89 0 -152 -57t-79 -156h381v-92h-381q11 -105 73.5 -166t155.5 -61q76 0 128 37
t90 116zM221.5 659.5q-76.5 -44.5 -118.5 -125t-42 -184.5q0 -19 1 -28l43 35q-1 -92 35.5 -165.5t102 -115t147.5 -41.5q101 0 159 46.5t96 120.5l-33 21q-39 -77 -92.5 -113t-129.5 -36q-66 0 -118.5 30.5t-84 86.5t-37.5 130l-45 36h385l42 36h-382l-45 -36
q0 110 42.5 179t108.5 99t140 30q95 0 153.5 -46t90.5 -112l37 20q-39 88 -110 132.5t-170 44.5t-175.5 -44.5z" />
    <glyph glyph-name="uni0405" unicode="&#x405;" horiz-adv-x="651" 
d="M536.5 334q55.5 -50 55.5 -137q0 -57 -31.5 -105.5t-89.5 -77t-135 -28.5q-99 0 -170 44t-100 110l70 75q24 -59 77 -97t122 -38q68 0 108.5 32.5t40.5 80.5q0 53 -42 81.5t-136 46.5q-104 20 -164.5 71t-60.5 135q0 55 30.5 97.5t85 66t124.5 23.5q80 0 143 -33t102 -93
l-70 -69q-28 49 -75 75t-101 26q-59 0 -98 -24t-39 -67q0 -46 44.5 -75.5t138.5 -47.5q115 -22 170.5 -72zM215.5 104.5q-54.5 34.5 -82.5 92.5v-71q10 -22 38 -43.5t71 -35.5t93 -14q59 0 105.5 21t72 55.5t25.5 75.5l44 20q-2 78 -55 124t-163 67q-93 17 -139.5 46.5
t-50.5 74.5l-42 21q0 37 24.5 66t67.5 46t96 17q42 0 79 -12t63 -28.5t36 -30.5v-61l56 55q-39 55 -99 84.5t-134 29.5q-67 0 -119.5 -22.5t-81.5 -62.5t-29 -92v-10l41 21q0 -70 49 -113.5t154 -61.5q105 -17 154 -60t49 -118l-44 18v-10q0 -54 -45 -88.5t-114 -34.5
q-65 0 -119.5 34.5z" />
    <glyph glyph-name="uni0406" unicode="&#x406;" horiz-adv-x="330" 
d="M41 94h70v512h-70v94h248v-94h-70v-512h70v-94h-248v94zM95 47h140l44 37h-70l-44 -37v606h70l44 37h-228v-74l44 37h70l-44 -37v-532h-70v-74z" />
    <glyph glyph-name="uni0407" unicode="&#x407;" horiz-adv-x="330" 
d="M41 94h70v512h-70v94h248v-94h-70v-512h70v-94h-248v94zM95 47h140l44 37h-70l-44 -37v606h70l44 37h-228v-74l44 37h70l-44 -37v-532h-70v-74zM28 894h105v-108h-105v108zM302 894v-108h-105v108h105zM38 796h43v88h-43v-88zM207 796h43v88h-43v-88z" />
    <glyph glyph-name="uni0408" unicode="&#x408;" horiz-adv-x="363" 
d="M322 700v-94h-70v-410q0 -63 -26 -110.5t-72.5 -73.5t-105.5 -26q-12 0 -20 2v98q10 -2 19 -2q44 0 70.5 32t26.5 88v402h-70v94h248zM312 690h-228v-74l44 37h70l-44 -37v-412q0 -59 -29 -94.5t-78 -35.5q-6 0 -9 1v-40q74 0 117 41.5t43 130.5v446h70z" />
    <glyph glyph-name="uni0409" unicode="&#x409;" horiz-adv-x="1049" 
d="M931 363q67 -55 67 -154t-67 -154t-178 -55h-278v604h-175l-53 -473q-8 -70 -43.5 -104.5t-93.5 -34.5q-37 0 -75 9l20 101q21 -8 38 -8q43 0 49 55l61 551h380v-282h170q111 0 178 -55zM485 10l44 37h217q104 0 151 43.5t47 131.5l44 -20v7q0 92 -63 145.5t-172 53.5
h-180l-44 -41v285l44 38h-361l-60 -542q-4 -31 -19 -47.5t-40 -16.5q-17 0 -30 5l-8 -39q18 -6 53 -6q32 0 55.5 24t29.5 73l60 511h276l-44 -38v-604zM529 47v320h211q82 0 143 -34t61 -111l-46 -20q-3 -57 -44.5 -87.5t-115.5 -30.5h-165zM848.5 123q39.5 29 39.5 86
t-39.5 86t-110.5 29h-155v-230h155q71 0 110.5 29z" />
    <glyph glyph-name="uni040A" unicode="&#x40a;" horiz-adv-x="1049" 
d="M931 353q67 -53 67 -152q0 -98 -66.5 -149.5t-178.5 -51.5h-276v308h-288v-308h-108v700h108v-294h288v294h108v-294h168q111 0 178 -53zM487 10l44 38l215 -1q90 0 144.5 38.5t53.5 130.5l44 -21v6q0 91 -62.5 143t-172.5 52h-178l-44 -39v333h-44v-294h-307l-45 -40
v334h-44v-680l44 42v304l396 1l-44 -39v-308zM531 48v309h216q76 0 136 -34t61 -107l-46 -16q-1 -57 -40.5 -86.5t-114.5 -29.5h-168zM888 201q0 107 -145 107h-158v-214h158q145 0 145 107z" />
    <glyph glyph-name="uni040B" unicode="&#x40b;" horiz-adv-x="731" 
d="M614 422q47 -46 47 -122v-300h-102v265q0 51 -28 80t-79 29q-36 0 -65.5 -18.5t-47 -52t-17.5 -76.5v-227h-108v602h-196v98h540v-98h-236v-228q27 44 70.5 69t96.5 25q78 0 125 -46zM569 265v-255h41v239q0 47 -4 69t-18 47l48 8q-18 40 -56.5 62.5t-90.5 22.5
q-51 0 -94.5 -26.5t-82.5 -84.5l-44 -118v422h241l39 39h-520v-78l40 39h200l-44 -39v-602l44 44v175q35 86 80.5 137.5t122.5 51.5q48 0 76.5 -15t40.5 -38l-29 -46q10 -21 10 -54z" />
    <glyph glyph-name="uni040C" unicode="&#x40c;" horiz-adv-x="640" 
d="M619 0h-126l-216 360l-88 -92v-268h-108v700h108v-294l48 53l226 241h138l-246 -260zM91 10l44 44v228l153 161l234 -389l79 -44l-259 431l-54 2l233 247h-54l-223 -238l-65 -70l-44 -100v408h-44v-680zM449 907l-112 -148h-85l66 148h131zM267 769l49 32l57 96h-49z" />
    <glyph glyph-name="uni040D" unicode="&#x40d;" horiz-adv-x="720" 
d="M639 700v-700h-104v543q-4 -9 -15 -28t-15 -25l-312 -490h-112v700h104v-543q4 9 15 28t15 25l312 490h112zM91 10l42 28q44 22 87 90l250 391q60 93 116 171h-54l-309 -485q-19 -30 -48 -87l-42 -80v652h-42v-680zM545 10l42 43v637l-42 -111v-569zM428 759h-85
l-112 148h131zM348 769l16 32l-57 96h-56z" />
    </font>
</defs>
</svg>
