<?xml version="1.0" standalone="no"?>
<!DOCTYPE svg PUBLIC "-//W3C//DTD SVG 1.1//EN" "http://www.w3.org/Graphics/SVG/1.1/DTD/svg11.dtd" >
<svg xmlns="http://www.w3.org/2000/svg" xmlns:xlink="http://www.w3.org/1999/xlink" version="1.1">
<metadata>
Created by FontForge 20200427 at Wed Nov 29 21:06:38 2017
 By www
Copyright (c) 2015 by Colophon Foundry. All rights reserved.
</metadata>
<defs>
<font id="ChelseaBasisBeta-Regular" horiz-adv-x="0" >
  <font-face 
    font-family="Chelsea Basis Beta"
    font-weight="400"
    font-stretch="normal"
    units-per-em="1000"
    panose-1="2 11 5 3 3 6 4 4 1 3"
    ascent="782"
    descent="-218"
    x-height="496"
    cap-height="700"
    bbox="-714 -285 1260 934"
    underline-thickness="62"
    underline-position="-160"
    unicode-range="U+000D-FB02"
  />
<missing-glyph horiz-adv-x="500" 
 />
    <glyph glyph-name="fi" unicode="fi" horiz-adv-x="532" 
d="M101 434h-78v62h78v99q0 71 40 113t113 42q26 0 43 -5v-71q-6 4 -18 6t-22 2q-37 0 -57.5 -21.5t-20.5 -66.5v-98h277v-496h-78v434h-199v-434h-78v434zM370 680h94v-98h-94v98z" />
    <glyph glyph-name="fl" unicode="fl" horiz-adv-x="546" 
d="M101 434h-78v62h78v99q0 71 40 113t113 42q26 0 43 -5v-71q-6 4 -18 6t-22 2q-37 0 -57.5 -21.5t-20.5 -66.5v-98h114v-62h-114v-434h-78v434zM470 700v-700h-78v700h78z" />
    <glyph glyph-name="f_f" unicode="ff" horiz-adv-x="580" 
d="M101 434h-78v62h78v99q0 71 40 113t113 42q26 0 43 -5v-71q-6 4 -18 6t-22 2q-37 0 -57.5 -21.5t-20.5 -66.5v-98h186v99q0 71 40 113t113 42q26 0 43 -5v-71q-6 4 -18 6t-22 2q-37 0 -57.5 -21.5t-20.5 -66.5v-98h114v-62h-114v-434h-78v434h-186v-434h-78v434z" />
    <glyph glyph-name="f_f_i" unicode="ffi" horiz-adv-x="796" 
d="M101 434h-78v62h78v99q0 71 40 113t113 42q26 0 43 -5v-71q-6 4 -18 6t-22 2q-37 0 -57.5 -21.5t-20.5 -66.5v-98h186v99q0 71 40 113t113 42q26 0 43 -5v-71q-6 4 -18 6t-22 2q-37 0 -57.5 -21.5t-20.5 -66.5v-98h277v-496h-78v434h-199v-434h-78v434h-186v-434h-78v434
zM634 680h94v-98h-94v98z" />
    <glyph glyph-name="f_f_l" unicode="ffl" horiz-adv-x="810" 
d="M101 434h-78v62h78v99q0 71 40 113t113 42q26 0 43 -5v-71q-6 4 -18 6t-22 2q-37 0 -57.5 -21.5t-20.5 -66.5v-98h186v99q0 71 40 113t113 42q26 0 43 -5v-71q-6 4 -18 6t-22 2q-37 0 -57.5 -21.5t-20.5 -66.5v-98h114v-62h-114v-434h-78v434h-186v-434h-78v434zM734 700
v-700h-78v700h78z" />
    <glyph glyph-name=".notdef" horiz-adv-x="500" 
 />
    <glyph glyph-name=".null" 
 />
    <glyph glyph-name="nonmarkingreturn" unicode="&#xd;" horiz-adv-x="289" 
 />
    <glyph glyph-name="space" unicode=" " horiz-adv-x="276" 
 />
    <glyph glyph-name="exclam" unicode="!" horiz-adv-x="268" 
d="M92 477v223h84v-223l-11 -289h-62zM88 100h92v-100h-92v100z" />
    <glyph glyph-name="quotedbl" unicode="&#x22;" horiz-adv-x="344" 
d="M62 644v56h80v-56l-13 -156h-54zM202 644v56h80v-56l-13 -156h-54z" />
    <glyph glyph-name="numbersign" unicode="#" horiz-adv-x="659" 
d="M154 222h-100v62h111l25 132h-116v62h127l42 222h76l-42 -222h159l41 222h76l-41 -222h98v-62h-109l-25 -132h114v-62h-125l-42 -222h-76l42 222h-159l-41 -222h-76zM400 284l25 132h-159l-25 -132h159z" />
    <glyph glyph-name="dollar" unicode="$" horiz-adv-x="655" 
d="M295 -12q-100 10 -164 69.5t-78 145.5l74 39q12 -79 56 -124t112 -55v268q-97 21 -151 70t-54 128q0 74 56.5 124.5t148.5 58.5v88h72v-89q78 -9 134.5 -52.5t79.5 -112.5l-68 -40q-19 54 -57 88t-89 45v-246q113 -21 168.5 -69t55.5 -129q0 -54 -28 -99t-79 -73.5
t-117 -34.5v-88h-72v88zM295 640q-56 -7 -90.5 -36.5t-34.5 -74.5q0 -42 31 -71t94 -48v230zM469.5 104q37.5 35 37.5 85q0 51 -34 80t-106 47v-254q65 7 102.5 42z" />
    <glyph glyph-name="percent" unicode="%" horiz-adv-x="885" 
d="M134 387.5q-39 23.5 -60.5 63.5t-21.5 88t21.5 88t60.5 63.5t88 23.5t88 -23.5t60.5 -63.5t21.5 -88t-21.5 -88t-60.5 -63.5t-88 -23.5t-88 23.5zM199 35l435 665l52 -35l-435 -665zM297.5 457q28.5 31 28.5 82t-28.5 82t-75.5 31t-75.5 -31t-28.5 -82t28.5 -82t75.5 -31
t75.5 31zM575 9.5q-39 23.5 -60.5 63.5t-21.5 88t21.5 88t60.5 63.5t88 23.5t88 -23.5t60.5 -63.5t21.5 -88t-21.5 -88t-60.5 -63.5t-88 -23.5t-88 23.5zM738.5 79q28.5 31 28.5 82t-28.5 82t-75.5 31t-75.5 -31t-28.5 -82t28.5 -82t75.5 -31t75.5 31z" />
    <glyph glyph-name="ampersand" unicode="&#x26;" horiz-adv-x="640" 
d="M167 13.5q-50 27.5 -78 75.5t-28 107q0 73 37.5 123.5t99.5 88.5q-49 68 -49 147q0 45 22 81t59 57t81 21q71 0 113 -37.5t42 -101.5q0 -46 -22.5 -79.5t-55 -55.5t-85.5 -50l161 -213q35 64 51 152l65 -36q-25 -106 -70 -177l88 -116h-90l-45 59q-73 -73 -182 -73
q-64 0 -114 27.5zM344 486q28 19 39 38.5t11 45.5q0 35 -24.5 56.5t-58.5 21.5q-39 0 -63.5 -26t-24.5 -66q0 -60 40 -114q53 25 81 44zM420 116l-181 238q-47 -32 -72.5 -69.5t-25.5 -89.5q0 -42 20 -73.5t53.5 -48.5t71.5 -17q76 0 134 60z" />
    <glyph glyph-name="quotesingle" unicode="'" horiz-adv-x="204" 
d="M62 644v56h80v-56l-13 -156h-54z" />
    <glyph glyph-name="parenleft" unicode="(" horiz-adv-x="350" 
d="M105.5 41.5q-29.5 109.5 -29.5 234.5t29.5 234.5t76.5 189.5h76q-45 -85 -71.5 -196.5t-26.5 -227.5t26.5 -227.5t71.5 -196.5h-76q-47 80 -76.5 189.5z" />
    <glyph glyph-name="parenright" unicode=")" horiz-adv-x="350" 
d="M163.5 48.5q26.5 111.5 26.5 227.5t-26.5 227.5t-71.5 196.5h76q47 -80 76.5 -189.5t29.5 -234.5t-29.5 -234.5t-76.5 -189.5h-76q45 85 71.5 196.5z" />
    <glyph glyph-name="asterisk" unicode="*" horiz-adv-x="434" 
d="M194 500l-102 -72l-36 68l111 42l-111 42l36 68l102 -72l-16 124h78l-16 -124l102 72l36 -68l-111 -42l111 -42l-36 -68l-102 72l16 -124h-78z" />
    <glyph glyph-name="plus" unicode="+" horiz-adv-x="506" 
d="M222 334h-174v62h174v174h62v-174h174v-62h-174v-174h-62v174z" />
    <glyph glyph-name="comma" unicode="," horiz-adv-x="190" 
d="M48 -118l33 118h-33v98h94v-98l-70 -127z" />
    <glyph glyph-name="hyphen" unicode="-" horiz-adv-x="456" 
d="M48 342h360v-62h-360v62z" />
    <glyph glyph-name="period" unicode="." horiz-adv-x="190" 
d="M48 98h94v-98h-94v98z" />
    <glyph glyph-name="slash" unicode="/" horiz-adv-x="496" 
d="M406 730h84l-400 -760h-84z" />
    <glyph glyph-name="zero" unicode="0" horiz-adv-x="716" 
d="M201 31.5q-69 45.5 -108 128.5t-39 190t39 190t108 128.5t157 45.5t157 -45.5t108 -128.5t39 -190t-39 -190t-108 -128.5t-157 -45.5t-157 45.5zM472.5 95q49.5 35 77.5 100.5t28 154.5t-28 154.5t-77.5 100.5t-114.5 35t-114.5 -35t-77.5 -100.5t-28 -154.5t28 -154.5
t77.5 -100.5t114.5 -35t114.5 35z" />
    <glyph glyph-name="one" unicode="1" horiz-adv-x="470" 
d="M415 74v-74h-360v74h143v513q-28 -27 -60.5 -37t-82.5 -10v72q57 0 91 21t60 67h76v-626h133z" />
    <glyph glyph-name="two" unicode="2" horiz-adv-x="585" 
d="M57 55l270 271q55 55 76 95t21 88q0 60 -40.5 97.5t-103.5 37.5q-60 0 -100 -39t-40 -101q0 -26 9 -49h-78q-9 28 -9 58q0 51 28 97.5t78.5 75t114.5 28.5q66 0 117 -25t78.5 -69.5t27.5 -99.5q0 -63 -27.5 -119.5t-96.5 -125.5l-200 -201h327v-74h-452v55z" />
    <glyph glyph-name="three" unicode="3" horiz-adv-x="590" 
d="M173 15q-54 29 -83.5 74.5t-29.5 95.5q0 27 8 49h83q-7 -18 -7 -43q0 -57 44 -94t110 -37q71 0 111.5 37.5t40.5 106.5q0 70 -53.5 104t-141.5 34v68q86 0 124.5 35.5t38.5 89.5q0 49 -36.5 79t-93.5 30q-54 0 -92 -32t-38 -83q0 -23 6 -35h-75q-6 19 -6 45q0 48 27 88
t74 63.5t105 23.5q63 0 111 -22t74 -60.5t26 -86.5q0 -53 -30 -98t-87 -63q68 -17 109.5 -62t41.5 -113t-31.5 -118.5t-85 -77.5t-119.5 -27q-71 0 -125 29z" />
    <glyph glyph-name="four" unicode="4" horiz-adv-x="592" 
d="M394 140h-345v74l345 486h84v-486h79v-74h-79v-140h-84v140zM394 214v364l-256 -364h256z" />
    <glyph glyph-name="five" unicode="5" horiz-adv-x="597" 
d="M170 11q-53 25 -82 68t-29 94q0 21 6 42h83q-7 -19 -7 -38q0 -57 42 -87t109 -30q74 0 120.5 46.5t46.5 127.5t-45.5 127.5t-116.5 46.5q-54 0 -98 -30.5t-68 -74.5l-68 19l33 378h402v-74h-335l-20 -236q29 42 74.5 65t95.5 23q71 0 123 -31t79.5 -86t27.5 -127
q0 -71 -31.5 -127.5t-88.5 -88.5t-131 -32q-69 0 -122 25z" />
    <glyph glyph-name="six" unicode="6" horiz-adv-x="607" 
d="M175 24q-58 38 -89.5 111t-31.5 174q0 126 41 230q33 84 91.5 129.5t133.5 45.5q96 0 152.5 -45.5t56.5 -121.5q0 -21 -7 -44h-79q6 28 6 45q0 40 -36 66t-93 26q-52 0 -92 -37t-63 -103t-26 -152q29 52 81 81t109 29q64 0 116 -30t82 -83t30 -120q0 -65 -32 -120
t-88.5 -87t-125.5 -32q-78 0 -136 38zM391 79.5q37 19.5 59.5 56.5t22.5 86t-22.5 86t-59.5 56.5t-80 19.5t-80.5 -19.5t-60 -56.5t-22.5 -86t22.5 -86t60 -56.5t80.5 -19.5t80 19.5z" />
    <glyph glyph-name="seven" unicode="7" horiz-adv-x="539" 
d="M410 626h-367v74h452v-68l-283 -632h-82z" />
    <glyph glyph-name="eight" unicode="8" horiz-adv-x="580" 
d="M170.5 12q-53.5 26 -84 73.5t-30.5 108.5t31.5 107.5t84.5 73.5q-44 24 -69 66t-25 92q0 52 28 93.5t76.5 64.5t107.5 23t107.5 -23t76.5 -64.5t28 -93.5q0 -50 -25 -92t-69 -66q53 -27 84.5 -73.5t31.5 -107.5t-30.5 -108.5t-84 -73.5t-119.5 -26t-119.5 26zM386 437.5
q38 33.5 38 88.5q0 59 -39 91.5t-95 32.5t-95 -32.5t-39 -91.5q0 -55 38 -88.5t96 -33.5t96 33.5zM400 93.5q42 39.5 42 103.5q0 42 -20.5 74.5t-55.5 50.5t-76 18t-76 -18t-55.5 -50.5t-20.5 -74.5q0 -64 42 -103.5t110 -39.5t110 39.5z" />
    <glyph glyph-name="nine" unicode="9" horiz-adv-x="607" 
d="M144.5 31.5q-56.5 45.5 -56.5 121.5q0 21 7 44h79q-6 -28 -6 -45q0 -40 36 -66t93 -26q52 0 92 37t63 103t26 152q-29 -52 -81 -81t-109 -29q-64 0 -116 30t-82 83t-30 120q0 65 32 120t88.5 87t125.5 32q78 0 136 -38t89.5 -111t31.5 -174q0 -126 -41 -230
q-33 -84 -91.5 -129.5t-133.5 -45.5q-96 0 -152.5 45.5zM386.5 335.5q37.5 19.5 60 56.5t22.5 86t-22.5 86t-60 56.5t-80.5 19.5t-80 -19.5t-59.5 -56.5t-22.5 -86t22.5 -86t59.5 -56.5t80 -19.5t80.5 19.5z" />
    <glyph glyph-name="colon" unicode=":" horiz-adv-x="190" 
d="M48 476h94v-98h-94v98zM48 98h94v-98h-94v98z" />
    <glyph glyph-name="semicolon" unicode=";" horiz-adv-x="190" 
d="M48 476h94v-98h-94v98zM48 -118l33 118h-33v98h94v-98l-70 -127z" />
    <glyph glyph-name="less" unicode="&#x3c;" horiz-adv-x="517" 
d="M48 272v76l410 201v-80l-334 -159l334 -159v-80z" />
    <glyph glyph-name="equal" unicode="=" horiz-adv-x="506" 
d="M48 476h410v-62h-410v62zM48 286h410v-62h-410v62z" />
    <glyph glyph-name="greater" unicode="&#x3e;" horiz-adv-x="517" 
d="M59 151l334 159l-334 159v80l410 -201v-76l-410 -201v80z" />
    <glyph glyph-name="question" unicode="?" horiz-adv-x="536" 
d="M215 217q0 37 20.5 71.5t71.5 76.5q56 47 74.5 79.5t18.5 81.5q0 51 -37.5 84.5t-98.5 33.5q-57 0 -95.5 -33.5t-38.5 -97.5q0 -20 5 -42l-73 -13q-12 28 -12 69q0 48 27.5 91t76.5 69.5t110 26.5q66 0 115.5 -24t76 -66t26.5 -94q0 -63 -27 -108.5t-98 -105.5
q-31 -27 -43.5 -53.5t-12.5 -67.5h-86v22zM213 100h92v-100h-92v100z" />
    <glyph glyph-name="at" unicode="@" horiz-adv-x="949" 
d="M260 -107q-90 45 -148 140t-58 236q0 122 56.5 224t157.5 161.5t227 59.5q108 0 197.5 -40.5t143 -124.5t53.5 -208q0 -90 -33 -161.5t-89 -112t-120 -40.5q-40 0 -62 20t-22 58q0 14 3 30q-20 -47 -65.5 -77.5t-95.5 -30.5q-48 0 -87 25t-61 72t-22 110q0 97 36.5 166.5
t94 104.5t118.5 35q42 0 75.5 -20t48.5 -62l10 66h72l-55 -378l-1 -16q0 -18 9 -27.5t27 -9.5q33 0 67 28t57 83t23 132q0 92 -39 162.5t-113.5 110t-179.5 39.5q-95 0 -177.5 -49t-132 -135.5t-49.5 -194.5q0 -115 45.5 -195t121.5 -120t166 -40q57 0 100.5 14t80.5 40
l36 -58q-48 -33 -100 -47.5t-128 -14.5q-98 0 -188 45zM502.5 129q41.5 36 66 95t24.5 124q0 63 -28 94.5t-76 31.5q-45 0 -86 -28t-66.5 -82t-25.5 -126q0 -74 30.5 -109.5t72.5 -35.5q47 0 88.5 36z" />
    <glyph glyph-name="A" unicode="A" horiz-adv-x="656" 
d="M284 700h88l278 -700h-86l-81 207h-310l-81 -207h-86zM455 277l-106 272q-2 6 -8.5 23t-12.5 35q-6 -18 -12.5 -35t-8.5 -23l-107 -272h255z" />
    <glyph glyph-name="B" unicode="B" horiz-adv-x="645" 
d="M344 700q66 0 116 -21.5t77 -60t27 -87.5q0 -58 -33.5 -96t-88.5 -58q69 -23 108 -64.5t39 -111.5q0 -60 -33 -105.5t-89 -70.5t-121 -25h-258v700h256zM338 406q66 0 106 27.5t40 84.5t-40 84.5t-106 27.5h-166v-224h166zM333 70q79 0 127.5 32t48.5 101t-48.5 101
t-127.5 32h-161v-266h161z" />
    <glyph glyph-name="C" unicode="C" horiz-adv-x="748" 
d="M220 33.5q-77 47.5 -120.5 130.5t-43.5 186q0 102 46 185.5t124.5 131t171.5 47.5q90 0 163 -34.5t117 -96.5l-55 -57q-46 62 -101 88t-126 26q-70 0 -128.5 -38t-92 -104.5t-33.5 -147.5q0 -82 32 -148t89.5 -104t131.5 -38q72 0 124.5 28t95.5 91l56 -57
q-102 -136 -278 -136q-96 0 -173 47.5z" />
    <glyph glyph-name="D" unicode="D" horiz-adv-x="693" 
d="M281 700q104 0 184.5 -41.5t126 -120.5t45.5 -188t-45.5 -188t-126 -120.5t-184.5 -41.5h-193v700h193zM477 143q74 69 74 207t-74 207t-201 69h-104v-552h104q127 0 201 69z" />
    <glyph glyph-name="E" unicode="E" horiz-adv-x="597" 
d="M526 700v-74h-354v-227h326v-74h-326v-251h357v-74h-441v700h438z" />
    <glyph glyph-name="F" unicode="F" horiz-adv-x="596" 
d="M88 700h448v-74h-364v-247h334v-74h-334v-305h-84v700z" />
    <glyph glyph-name="G" unicode="G" horiz-adv-x="758" 
d="M216 33q-76 47 -118 130t-42 187q0 102 46.5 185.5t125 131t170.5 47.5q86 0 156 -33t116 -92l-51 -60q-48 58 -101.5 84.5t-120.5 26.5q-68 0 -126.5 -37t-93.5 -103.5t-35 -149.5q0 -85 31 -151t87.5 -102.5t131.5 -36.5q68 0 119.5 22.5t91.5 70.5v128h-193v70h277
v-225q-50 -67 -126.5 -103.5t-171.5 -36.5q-97 0 -173 47z" />
    <glyph glyph-name="H" unicode="H" horiz-adv-x="690" 
d="M172 700v-306h346v306h84v-700h-84v320h-346v-320h-84v700h84z" />
    <glyph glyph-name="I" unicode="I" horiz-adv-x="320" 
d="M202 628v-556h72v-72h-228v72h72v556h-72v72h228v-72h-72z" />
    <glyph glyph-name="J" unicode="J" horiz-adv-x="358" 
d="M312 628h-72v-430q0 -98 -51 -155t-135 -57q-11 0 -22 3v75q11 -4 22 -4q47 0 74.5 36t27.5 103v429h-72v72h228v-72z" />
    <glyph glyph-name="K" unicode="K" horiz-adv-x="619" 
d="M88 700h84v-319l58 64l242 255h105l-244 -259l264 -441h-98l-226 378l-101 -107v-271h-84v700z" />
    <glyph glyph-name="L" unicode="L" horiz-adv-x="573" 
d="M88 700h84v-626h351v-74h-435v700z" />
    <glyph glyph-name="M" unicode="M" horiz-adv-x="860" 
d="M178 700l252 -630l252 630h90v-700h-80v540q-8 -23 -19.5 -54t-16.5 -44l-183 -442h-86l-183 442q-5 13 -16.5 44t-19.5 54v-540h-80v700h90z" />
    <glyph glyph-name="N" unicode="N" horiz-adv-x="708" 
d="M177 700l333 -527q4 -6 15 -26t15 -29v582h80v-700h-89l-333 527q-4 6 -15 26t-15 29v-582h-80v700h89z" />
    <glyph glyph-name="O" unicode="O" horiz-adv-x="788" 
d="M687 160.5q-45 -82.5 -122 -128.5t-171 -46t-171 46t-122 128.5t-45 189.5t45 189.5t122 128.5t171 46t171 -46t122 -128.5t45 -189.5t-45 -189.5zM523.5 96.5q57.5 36.5 90 102.5t32.5 151t-33 151t-90 102.5t-129 36.5t-129.5 -36.5t-90 -102.5t-32.5 -151t33 -151
t90 -102.5t129 -36.5t129.5 36.5z" />
    <glyph glyph-name="P" unicode="P" horiz-adv-x="678" 
d="M88 700h294q73 0 128 -27t84.5 -76.5t29.5 -114.5t-29.5 -114.5t-84.5 -76.5t-128 -27h-210v-264h-84v700zM378 338q77 0 119.5 36.5t42.5 107.5t-42.5 107.5t-119.5 36.5h-206v-288h206z" />
    <glyph glyph-name="Q" unicode="Q" horiz-adv-x="788" 
d="M694 -20l-84 84q-45 -38 -100 -58t-116 -20q-94 0 -171 46t-122 128.5t-45 189.5t45 189.5t122 128.5t171 46t171 -46t122 -128.5t45 -189.5q0 -134 -72 -232l86 -86zM554 119l-161 160l53 52l155 -155q45 73 45 174q0 85 -33 151t-90 102.5t-129 36.5t-129.5 -36.5
t-90 -102.5t-32.5 -151t33 -151t90 -102.5t129 -36.5q93 0 160 59z" />
    <glyph glyph-name="R" unicode="R" horiz-adv-x="640" 
d="M172 304v-304h-84v700h279q68 0 119 -25.5t78.5 -70.5t27.5 -102q0 -73 -46 -125t-125 -68l175 -309h-94l-172 304h-158zM352 378q75 0 115.5 32t40.5 92t-40.5 92t-115.5 32h-180v-248h180z" />
    <glyph glyph-name="S" unicode="S" horiz-adv-x="649" 
d="M171.5 26q-69.5 40 -102.5 101l60 66q27 -62 80 -97.5t123 -35.5q53 0 91 17.5t58 47t20 64.5q0 59 -45.5 92t-139.5 50q-107 19 -168.5 68t-61.5 133q0 53 30 94.5t83.5 64.5t120.5 23q78 0 138.5 -33.5t95.5 -90.5l-57 -54q-34 51 -77 78.5t-100 27.5q-67 0 -109.5 -29
t-42.5 -81q0 -51 46.5 -83t144.5 -50q114 -21 170 -71t56 -133q0 -58 -32 -105.5t-89.5 -75.5t-131.5 -28q-91 0 -160.5 40z" />
    <glyph glyph-name="T" unicode="T" horiz-adv-x="558" 
d="M539 700v-74h-218v-626h-84v626h-218v74h520z" />
    <glyph glyph-name="U" unicode="U" horiz-adv-x="670" 
d="M561.5 101.5q-32.5 -56.5 -91.5 -86t-135 -29.5t-135 29.5t-91.5 86t-32.5 133.5v465h84v-470q0 -73 46 -121.5t129 -48.5t129 48.5t46 121.5v470h84v-465q0 -77 -32.5 -133.5z" />
    <glyph glyph-name="V" unicode="V" horiz-adv-x="608" 
d="M86 700l192 -529q3 -8 10 -31t16 -52q9 29 16 52t10 31l192 529h84l-258 -700h-88l-258 700h84z" />
    <glyph glyph-name="W" unicode="W" horiz-adv-x="892" 
d="M5 700h83l142 -527l17 -73l10 44t7 30l137 526h90l137 -526q2 -8 7 -30l10 -44l17 73l142 527h83l-197 -700h-87l-157 596l-157 -596h-87z" />
    <glyph glyph-name="X" unicode="X" horiz-adv-x="577" 
d="M447 700h93l-202 -319l235 -381h-95l-190 310l-189 -310h-96l237 376l-202 324h97l153 -258z" />
    <glyph glyph-name="Y" unicode="Y" horiz-adv-x="552" 
d="M234 287l-230 413h91l159 -296q2 -4 8.5 -17.5t13.5 -31.5q7 18 13.5 31.5t8.5 17.5l159 296h91l-230 -413v-287h-84v287z" />
    <glyph glyph-name="Z" unicode="Z" horiz-adv-x="598" 
d="M536 700v-74l-400 -552h417v-74h-511v72l403 554h-388v74h479z" />
    <glyph glyph-name="bracketleft" unicode="[" horiz-adv-x="323" 
d="M88 700h181v-70h-103v-710h103v-70h-181v850z" />
    <glyph glyph-name="backslash" unicode="\" horiz-adv-x="496" 
d="M6 730h84l400 -760h-84z" />
    <glyph glyph-name="bracketright" unicode="]" horiz-adv-x="323" 
d="M54 -80h103v710h-103v70h181v-850h-181v70z" />
    <glyph glyph-name="asciicircum" unicode="^" horiz-adv-x="456" 
d="M186 700h84l165 -255h-79l-128 197l-128 -197h-79z" />
    <glyph glyph-name="underscore" unicode="_" horiz-adv-x="437" 
d="M8 -7h421v-62h-421v62z" />
    <glyph glyph-name="grave" unicode="`" horiz-adv-x="297" 
d="M63 700h107l64 -138h-71z" />
    <glyph glyph-name="a" unicode="a" horiz-adv-x="599" 
d="M155.5 19.5q-53.5 33.5 -83.5 93t-30 135.5q0 75 31.5 134.5t84.5 93.5t115 34q63 0 107.5 -26t64.5 -74v86h78v-496h-78v89q-25 -50 -67.5 -76.5t-99.5 -26.5q-69 0 -122.5 33.5zM371.5 81.5q37.5 23.5 58.5 67t21 99.5t-21 99.5t-58.5 67t-84.5 23.5t-84.5 -23.5
t-59 -67t-21.5 -99.5t21.5 -99.5t59 -67t84.5 -23.5t84.5 23.5z" />
    <glyph glyph-name="b" unicode="b" horiz-adv-x="607" 
d="M154 700v-294q28 48 76.5 76t105.5 28q64 0 116.5 -33.5t82.5 -93.5t30 -135t-31 -135t-85.5 -93.5t-121.5 -33.5q-57 0 -103.5 29t-69.5 74v-89h-78v700h78zM401.5 81.5q38.5 23.5 61 67t22.5 99.5t-22.5 99.5t-61 67t-85.5 23.5t-85.5 -23.5t-60.5 -67t-22 -99.5
t22 -99.5t60.5 -67t85.5 -23.5t85.5 23.5z" />
    <glyph glyph-name="c" unicode="c" horiz-adv-x="557" 
d="M427 23q-57 -37 -131 -37q-71 0 -129 33.5t-91.5 93.5t-33.5 135t34.5 134.5t93 93.5t126.5 34q79 0 136 -36t84 -100l-59 -39q-49 105 -160 105q-50 0 -90 -23.5t-63.5 -67t-23.5 -101.5t23 -101.5t63 -67t91 -23.5q59 0 98 27.5t68 81.5l56 -36q-35 -69 -92 -106z" />
    <glyph glyph-name="d" unicode="d" horiz-adv-x="607" 
d="M453 0v89q-28 -50 -71.5 -76.5t-99.5 -26.5q-69 0 -123.5 33.5t-85.5 93.5t-31 135q0 74 32.5 134t86.5 94t116 34q61 0 107 -27.5t69 -76.5v294h78v-700h-78zM376.5 81.5q38.5 23.5 60.5 67t22 99.5t-22 99.5t-60.5 67t-85.5 23.5t-85.5 -23.5t-61 -67t-22.5 -99.5
t22.5 -99.5t61 -67t85.5 -23.5t85.5 23.5z" />
    <glyph glyph-name="e" unicode="e" horiz-adv-x="574" 
d="M412.5 15.5q-52.5 -29.5 -124.5 -29.5q-67 0 -123.5 33.5t-89.5 93.5t-33 135t33 135t90 93.5t126 33.5q73 0 127 -31.5t83 -87.5t29 -129v-27h-410q4 -80 50 -131.5t121 -51.5q100 0 150 82l56 -35q-32 -54 -84.5 -83.5zM183 404.5q-43 -39.5 -57 -105.5h326
q-2 45 -26 78t-60 50t-75 17q-65 0 -108 -39.5z" />
    <glyph glyph-name="f" unicode="f" horiz-adv-x="316" 
d="M101 434h-78v62h78v99q0 71 40 113t113 42q26 0 43 -5v-71q-6 4 -18 6t-22 2q-37 0 -57.5 -21.5t-20.5 -66.5v-98h114v-62h-114v-434h-78v434z" />
    <glyph glyph-name="g" unicode="g" horiz-adv-x="587" 
d="M142.5 -183.5q-55.5 34.5 -75.5 85.5l67 35q18 -40 56.5 -62.5t91.5 -22.5q82 0 120.5 43t38.5 130v85q-25 -48 -68.5 -75t-98.5 -27q-65 0 -117.5 31t-83.5 88t-31 132q0 77 31 134t83 87t115 30q59 0 104.5 -27.5t65.5 -75.5v89h78v-470q0 -115 -62 -179.5t-175 -64.5
q-84 0 -139.5 34.5zM367 100q37 22 58.5 63t21.5 96t-21.5 96t-58.5 63t-84 22q-71 0 -116 -49t-45 -132t45 -132t116 -49q47 0 84 22z" />
    <glyph glyph-name="h" unicode="h" horiz-adv-x="577" 
d="M423 0v321q0 57 -33.5 88t-87.5 31q-39 0 -73 -20.5t-54.5 -58t-20.5 -86.5v-275h-78v700h78v-291q24 46 70 73.5t99 27.5q75 0 126.5 -44.5t51.5 -130.5v-335h-78z" />
    <glyph glyph-name="i" unicode="i" horiz-adv-x="230" 
d="M154 496v-496h-78v496h78zM68 680h94v-98h-94v98z" />
    <glyph glyph-name="j" unicode="j" horiz-adv-x="230" 
d="M68 680h94v-98h-94v98zM-29 -203l10 70q19 -8 39 -8q31 0 43.5 16t12.5 54v567h78v-554q0 -72 -31 -112.5t-104 -40.5q-19 0 -48 8z" />
    <glyph glyph-name="k" unicode="k" horiz-adv-x="495" 
d="M76 700h78v-408l182 204h93l-196 -220l222 -276h-92l-209 257v-257h-78v700z" />
    <glyph glyph-name="l" unicode="l" horiz-adv-x="230" 
d="M154 700v-700h-78v700h78z" />
    <glyph glyph-name="m" unicode="m" horiz-adv-x="816" 
d="M662 0v349q0 43 -23.5 67t-69.5 24q-53 0 -87.5 -42.5t-34.5 -129.5v-268h-78v340q0 48 -23 74t-68 26q-53 0 -88.5 -43.5t-35.5 -130.5v-266h-78v496h78v-79q19 39 58.5 66t88.5 27q48 0 84.5 -23.5t50.5 -70.5q53 94 157 94q65 0 106 -36.5t41 -96.5v-377h-78z" />
    <glyph glyph-name="n" unicode="n" horiz-adv-x="571" 
d="M417 0v323q0 57 -32.5 87t-86.5 30q-38 0 -71 -20.5t-53 -58t-20 -86.5v-275h-78v496h78v-87q27 47 70.5 74t96.5 27q73 0 123.5 -43.5t50.5 -129.5v-337h-78z" />
    <glyph glyph-name="o" unicode="o" horiz-adv-x="602" 
d="M522.5 107.5q-37.5 -59.5 -97.5 -90.5t-124 -31t-124 31t-97.5 90.5t-37.5 140.5t37.5 140.5t97.5 90.5t124 31t124 -31t97.5 -90.5t37.5 -140.5t-37.5 -140.5zM392 81q41 25 64.5 68.5t23.5 98.5t-23.5 98.5t-64.5 68.5t-91 25t-91 -25t-64.5 -68.5t-23.5 -98.5
t23.5 -98.5t64.5 -68.5t91 -25t91 25z" />
    <glyph glyph-name="p" unicode="p" horiz-adv-x="608" 
d="M154 496v-89q23 45 71 74t107 29q65 0 118.5 -32t84.5 -92t31 -138t-32 -137.5t-86.5 -92t-120.5 -32.5q-56 0 -101 24.5t-72 68.5v-283h-78v700h78zM230.5 414.5q-38.5 -23.5 -60.5 -67t-22 -99.5t22 -99.5t60.5 -67t86.5 -23.5t86.5 23.5t60.5 67t22 99.5t-22 99.5
t-60.5 67t-86.5 23.5t-86.5 -23.5z" />
    <glyph glyph-name="q" unicode="q" horiz-adv-x="608" 
d="M454 -204v289q-24 -44 -69.5 -71.5t-101.5 -27.5q-66 0 -121 32.5t-87.5 92.5t-32.5 137t32.5 137t87.5 92.5t122 32.5q58 0 104 -28t66 -75v89h78v-700h-78zM204.5 414.5q-38.5 -23.5 -60.5 -66.5t-22 -100t22 -100t60.5 -66.5t86.5 -23.5t86.5 23.5t60.5 66.5t22 100
t-22 100t-60.5 66.5t-86.5 23.5t-86.5 -23.5z" />
    <glyph glyph-name="r" unicode="r" horiz-adv-x="348" 
d="M76 496h78v-90q22 47 58 75.5t86 28.5q13 0 28 -3v-78q-18 9 -46 9q-34 0 -63 -20.5t-46 -58.5t-17 -88v-271h-78v496z" />
    <glyph glyph-name="s" unicode="s" horiz-adv-x="491" 
d="M137.5 15q-50.5 29 -78.5 78l56 55q17 -42 54.5 -68t85.5 -26q51 0 82.5 23.5t31.5 64.5q0 36 -30.5 56.5t-96.5 32.5q-74 14 -120 49.5t-46 95.5q0 61 50 97.5t121 36.5q63 0 107.5 -24.5t69.5 -65.5l-46 -46q-30 38 -60.5 54t-69.5 16q-44 0 -72 -16.5t-28 -48.5
q0 -36 33.5 -56t98.5 -32q82 -16 124.5 -51t42.5 -95q0 -43 -23 -79t-66.5 -58t-102.5 -22q-67 0 -117.5 29z" />
    <glyph glyph-name="t" unicode="t" horiz-adv-x="340" 
d="M147 17.5q-35 31.5 -35 101.5v315h-83v62h83v134h78v-134h114v-62h-114v-300q0 -43 13.5 -61.5t54.5 -18.5q23 0 41 6v-66q-27 -8 -63 -8q-54 0 -89 31.5z" />
    <glyph glyph-name="u" unicode="u" horiz-adv-x="571" 
d="M154 496v-323q0 -57 32 -87t85 -30q39 0 72.5 20t53.5 57t20 85v278h78v-496h-78v87q-25 -48 -68 -74.5t-97 -26.5q-75 0 -125.5 45t-50.5 138v327h78z" />
    <glyph glyph-name="v" unicode="v" horiz-adv-x="494" 
d="M208 0l-200 496h84l155 -406l155 406h84l-200 -496h-78z" />
    <glyph glyph-name="w" unicode="w" horiz-adv-x="682" 
d="M595 496h80l-140 -496h-84l-110 404l-110 -404h-84l-140 496h80l101 -398l112 398h82l112 -398z" />
    <glyph glyph-name="x" unicode="x" horiz-adv-x="434" 
d="M327 496h89l-154 -230l171 -266h-88l-128 202l-129 -202h-89l176 264l-156 232h89l109 -173z" />
    <glyph glyph-name="y" unicode="y" horiz-adv-x="493" 
d="M108 -141q23 0 36 11t24 38l37 94l-200 494h86l157 -389l155 389h84l-249 -613q-21 -52 -51.5 -73t-78.5 -21q-28 0 -52 10l12 70q20 -10 40 -10z" />
    <glyph glyph-name="z" unicode="z" horiz-adv-x="484" 
d="M441 0h-398v70l295 356h-282v70h370v-70l-297 -356h312v-70z" />
    <glyph glyph-name="braceleft" unicode="{" horiz-adv-x="368" 
d="M169 -108q-36 42 -36 138v117q0 52 -18.5 72.5t-56.5 20.5v70q38 0 56.5 20.5t18.5 72.5v117q0 96 36 138t114 42h31v-70h-32q-71 0 -71 -87v-145q0 -55 -15.5 -80.5t-53.5 -42.5q38 -17 53.5 -42.5t15.5 -80.5v-145q0 -87 71 -87h32v-70h-31q-78 0 -114 42z" />
    <glyph glyph-name="bar" unicode="|" horiz-adv-x="256" 
d="M88 740h80v-850h-80v850z" />
    <glyph glyph-name="braceright" unicode="}" horiz-adv-x="368" 
d="M54 -80h32q71 0 71 87v145q0 55 15.5 80.5t53.5 42.5q-38 17 -53.5 42.5t-15.5 80.5v145q0 87 -71 87h-32v70h31q78 0 114 -42t36 -138v-117q0 -52 18.5 -72.5t56.5 -20.5v-70q-38 0 -56.5 -20.5t-18.5 -72.5v-117q0 -96 -36 -138t-114 -42h-31v70z" />
    <glyph glyph-name="asciitilde" unicode="~" horiz-adv-x="447" 
d="M51.5 286.5q-3.5 12.5 -3.5 22.5q0 42 28.5 66t68.5 24q34 0 55.5 -10.5t45.5 -30.5q16 -13 27.5 -19.5t25.5 -6.5q12 0 20.5 8t8.5 19q0 12 -7 26l66 12q5 -7 8.5 -19.5t3.5 -22.5q0 -42 -28.5 -66t-68.5 -24q-34 0 -55.5 10.5t-45.5 30.5q-16 13 -27.5 19.5t-25.5 6.5
q-12 0 -20.5 -8t-8.5 -19q0 -12 7 -26l-66 -12q-5 7 -8.5 19.5z" />
    <glyph glyph-name="uni00A0" unicode="&#xa0;" horiz-adv-x="276" 
 />
    <glyph glyph-name="exclamdown" unicode="&#xa1;" horiz-adv-x="268" 
d="M88 496h92v-100h-92v100zM92 19l11 289h62l11 -289v-223h-84v223z" />
    <glyph glyph-name="cent" unicode="&#xa2;" horiz-adv-x="569" 
d="M449.5 32q-47.5 -36 -109.5 -44v-98h-72v98q-62 8 -112 43.5t-78 91.5t-28 125q0 68 29 124t78.5 91t110.5 44v113h72v-112q66 -7 113.5 -42t70.5 -92l-59 -39q-42 89 -125 102v-378q44 7 75 33.5t56 72.5l56 -36q-30 -61 -77.5 -97zM166.5 121.5q38.5 -50.5 101.5 -62.5
v377q-62 -12 -101 -62.5t-39 -125.5q0 -76 38.5 -126.5z" />
    <glyph glyph-name="sterling" unicode="&#xa3;" horiz-adv-x="565" 
d="M73 58q30 49 43 92.5t13 92.5q0 45 -6 73h-90v64h73q-9 33 -14 59.5t-5 58.5q0 65 30 114t80 75.5t110 26.5q62 0 110.5 -22t75 -61t26.5 -88q0 -35 -16 -70l-74 13q10 30 10 52q0 46 -38 74t-95 28q-63 0 -99 -38.5t-36 -102.5q0 -26 5 -52t16 -67h191v-64h-178
q6 -28 6 -69q0 -54 -16 -95.5t-42 -77.5h355v-74h-435v58z" />
    <glyph glyph-name="currency" unicode="&#xa4;" horiz-adv-x="636" 
d="M70 154l66 66q-40 54 -40 130t40 130l-66 66l52 52l66 -66q28 20 62 30.5t68 10.5t68 -10.5t62 -30.5l66 66l52 -52l-66 -66q40 -54 40 -130t-40 -130l66 -66l-52 -52l-66 66q-28 -20 -62 -30.5t-68 -10.5t-68 10.5t-62 30.5l-66 -66zM424.5 238.5q41.5 43.5 41.5 111.5
t-41.5 111.5t-106.5 43.5t-106.5 -43.5t-41.5 -111.5t41.5 -111.5t106.5 -43.5t106.5 43.5z" />
    <glyph glyph-name="yen" unicode="&#xa5;" horiz-adv-x="552" 
d="M234 146h-149v62h149v79h-149v62h116l-185 351h90l149 -298q2 -4 9.5 -18.5t11.5 -26.5q4 12 11.5 26.5t9.5 18.5l149 298h90l-185 -351h116v-62h-149v-79h149v-62h-149v-146h-84v146z" />
    <glyph glyph-name="brokenbar" unicode="&#xa6;" horiz-adv-x="256" 
d="M88 740h80v-358h-80v358zM88 248h80v-358h-80v358z" />
    <glyph glyph-name="section" unicode="&#xa7;" horiz-adv-x="523" 
d="M136.5 -56.5q-53.5 36.5 -79.5 95.5l65 47q44 -107 146 -107q45 0 76.5 22t31.5 64q0 41 -34.5 70.5t-119.5 47.5q-83 18 -121 55.5t-38 94.5q0 31 14.5 58t39.5 47q-50 47 -50 115q0 51 26 87.5t69.5 55t94.5 18.5q76 0 129.5 -36.5t79.5 -95.5l-65 -47
q-44 107 -146 107q-45 0 -76.5 -22t-31.5 -64q0 -41 34.5 -70.5t119.5 -47.5q83 -18 121 -55.5t38 -94.5q0 -60 -55 -105q51 -46 51 -115q0 -51 -26 -87.5t-69.5 -55t-94.5 -18.5q-76 0 -129.5 36.5zM382 277q0 34 -28.5 57t-98.5 39q-50 11 -85 29q-29 -26 -29 -58
q0 -34 28.5 -57t98.5 -39q45 -10 84 -29q30 27 30 58z" />
    <glyph glyph-name="dieresis" unicode="&#xa8;" horiz-adv-x="390" 
d="M70 680h92v-92h-92v92zM228 680h92v-92h-92v92z" />
    <glyph glyph-name="copyright" unicode="&#xa9;" horiz-adv-x="848" 
d="M241.5 35q-83.5 49 -132.5 132.5t-49 182.5t49 182.5t132.5 132.5t182.5 49t182.5 -49t132.5 -132.5t49 -182.5t-49 -182.5t-132.5 -132.5t-182.5 -49t-182.5 49zM577 85q70 41 110.5 111.5t40.5 153.5t-40.5 153.5t-110.5 111.5t-153 41t-153 -41t-110.5 -111.5
t-40.5 -153.5t40.5 -153.5t110.5 -111.5t153 -41t153 41zM325 172q-45 26 -71 73t-26 105t27 104.5t72 73t98 26.5q62 0 106.5 -28t64.5 -78l-46 -30q-38 82 -124 82q-59 0 -98.5 -41t-39.5 -109t39 -108.5t99 -40.5q46 0 76.5 21t52.5 63l44 -28q-27 -53 -71.5 -82
t-102.5 -29q-55 0 -100 26z" />
    <glyph glyph-name="ordfeminine" unicode="&#xaa;" horiz-adv-x="385" 
d="M286.5 326.5q-5.5 14.5 -5.5 40.5q-15 -36 -45 -55t-70 -19q-52 0 -84 29.5t-32 75.5q0 47 32 75.5t87 37.5l112 18v11q0 69 -77 69q-37 0 -56.5 -14t-19.5 -36l1 -10l-55 -18q-5 11 -5 27q0 26 17 49t48 36.5t70 13.5q67 0 103 -30t36 -85v-153q0 -30 4.5 -49.5
t16.5 -39.5h-62q-10 12 -15.5 26.5zM252 383.5q29 35.5 29 87.5v10l-102 -16q-30 -5 -48.5 -21t-18.5 -41q0 -26 17 -40.5t45 -14.5q49 0 78 35.5z" />
    <glyph glyph-name="guillemotleft" unicode="&#xab;" horiz-adv-x="505" 
d="M48 275l156 199h93l-152 -199l152 -199h-93zM220 275l156 199h93l-152 -199l152 -199h-93z" />
    <glyph glyph-name="logicalnot" unicode="&#xac;" horiz-adv-x="534" 
d="M380 334h-332v62h410v-196h-78v134z" />
    <glyph glyph-name="uni00AD" unicode="&#xad;" horiz-adv-x="456" 
d="M48 342h360v-62h-360v62z" />
    <glyph glyph-name="registered" unicode="&#xae;" horiz-adv-x="848" 
d="M241.5 35q-83.5 49 -132.5 132.5t-49 182.5t49 182.5t132.5 132.5t182.5 49t182.5 -49t132.5 -132.5t49 -182.5t-49 -182.5t-132.5 -132.5t-182.5 -49t-182.5 49zM577 85q70 41 110.5 111.5t40.5 153.5t-40.5 153.5t-110.5 111.5t-153 41t-153 -41t-110.5 -111.5
t-40.5 -153.5t40.5 -153.5t110.5 -111.5t153 -41t153 41zM286 549h162q59 0 93.5 -31.5t34.5 -81.5q0 -43 -27.5 -71.5t-69.5 -37.5l99 -176h-68l-98 173h-66v-173h-60v398zM439 375q40 0 59 16.5t19 44.5q0 27 -18.5 43.5t-59.5 16.5h-93v-121h93z" />
    <glyph glyph-name="macron" unicode="&#xaf;" horiz-adv-x="316" 
d="M48 670h220v-70h-220v70z" />
    <glyph glyph-name="degree" unicode="&#xb0;" horiz-adv-x="360" 
d="M111 462q-31 18 -49 49t-18 68t18 68t49 49t69 18t69 -18t49 -49t18 -68t-18 -68t-49 -49t-69 -18t-69 18zM233.5 525.5q20.5 21.5 20.5 53.5t-20.5 53.5t-53.5 21.5t-53.5 -21.5t-20.5 -53.5t20.5 -53.5t53.5 -21.5t53.5 21.5z" />
    <glyph glyph-name="plusminus" unicode="&#xb1;" horiz-adv-x="506" 
d="M222 334h-174v62h174v174h62v-174h174v-62h-174v-174h-62v174zM48 62h410v-62h-410v62z" />
    <glyph glyph-name="uni00B2" unicode="&#xb2;" horiz-adv-x="339" 
d="M62 392l129 126q25 24 34 44t9 43q0 20 -15 35t-42 15q-26 0 -42.5 -14.5t-16.5 -41.5q0 -12 4 -21l-54 -7q-6 14 -6 33q0 26 14 49.5t40.5 38.5t60.5 15q54 0 85.5 -28t31.5 -72q0 -33 -15 -62t-50 -63l-79 -78h148v-54h-236v42z" />
    <glyph glyph-name="uni00B3" unicode="&#xb3;" horiz-adv-x="346" 
d="M110.5 357.5q-28.5 14.5 -43.5 37.5t-15 48q0 20 8 34l53 -12q-3 -9 -3 -19q0 -24 19 -37.5t49 -13.5q31 0 48.5 15.5t17.5 45.5q0 29 -26 44t-68 15v45q76 0 76 57q0 19 -15.5 30.5t-38.5 11.5q-24 0 -40.5 -13.5t-16.5 -35.5q0 -6 2 -16l-49 -6q-5 14 -5 31
q0 37 30.5 62.5t78.5 25.5q51 0 82 -24.5t31 -60.5q0 -54 -52 -79q30 -9 49.5 -32.5t19.5 -56.5q0 -51 -35.5 -81t-88.5 -30q-39 0 -67.5 14.5z" />
    <glyph glyph-name="acute" unicode="&#xb4;" horiz-adv-x="297" 
d="M127 700h107l-100 -138h-71z" />
    <glyph glyph-name="uni00B5" unicode="&#xb5;" horiz-adv-x="571" 
d="M76 496h78v-323q0 -57 32 -87t85 -30q39 0 72.5 20t53.5 57t20 85v278h78v-496h-78v87q-25 -48 -68 -74.5t-97 -26.5q-30 0 -56.5 9t-43.5 23q2 -46 2 -75v-147h-78v700z" />
    <glyph glyph-name="paragraph" unicode="&#xb6;" horiz-adv-x="623" 
d="M291 308h-28q-62 0 -112 24t-78.5 68.5t-28.5 103.5t28.5 103.5t78.5 68.5t112 24h323v-74h-51v-746h-84v746h-76v-746h-84v428z" />
    <glyph glyph-name="periodcentered" unicode="&#xb7;" horiz-adv-x="190" 
d="M48 408h94v-98h-94v98z" />
    <glyph glyph-name="cedilla" unicode="&#xb8;" horiz-adv-x="304" 
d="M93.5 -188q-22.5 16 -29.5 45l48 12q4 -11 14 -19t23 -8q16 0 25.5 10t9.5 27q0 16 -10 25.5t-27 9.5q-24 0 -47 -18l-31 28l34 92h54l-37 -71q19 11 44 11q32 0 54 -21.5t22 -55.5q0 -39 -26 -61t-65 -22q-33 0 -55.5 16z" />
    <glyph glyph-name="uni00B9" unicode="&#xb9;" horiz-adv-x="251" 
d="M121 623q-13 -11 -30.5 -15t-44.5 -4v53q32 0 50.5 10t28.5 33h56v-350h-60v273z" />
    <glyph glyph-name="ordmasculine" unicode="&#xba;" horiz-adv-x="458" 
d="M382.5 377.5q-26.5 -41.5 -68 -63t-85.5 -21.5t-85.5 21.5t-68 63t-26.5 97.5t26.5 97.5t68 63t85.5 21.5t85.5 -21.5t68 -63t26.5 -97.5t-26.5 -97.5zM313 385q34 36 34 90t-34 90t-84 36t-84 -36t-34 -90t34 -90t84 -36t84 36z" />
    <glyph glyph-name="guillemotright" unicode="&#xbb;" horiz-adv-x="505" 
d="M188 275l-152 199h93l156 -199l-156 -199h-93zM360 275l-152 199h93l156 -199l-156 -199h-93z" />
    <glyph glyph-name="onequarter" unicode="&#xbc;" horiz-adv-x="745" 
d="M121 623q-13 -11 -30.5 -15t-44.5 -4v53q32 0 50.5 10t28.5 33h56v-350h-60v273zM123 35l435 665l52 -35l-435 -665zM590 66h-165v52l165 232h62v-232h39v-52h-39v-66h-62v66zM590 118v144l-105 -144h105z" />
    <glyph glyph-name="onehalf" unicode="&#xbd;" horiz-adv-x="756" 
d="M121 623q-13 -11 -30.5 -15t-44.5 -4v53q32 0 50.5 10t28.5 33h56v-350h-60v273zM123 35l435 665l52 -35l-435 -665zM479 42l129 126q25 24 34 44t9 43q0 20 -15 35t-42 15q-26 0 -42.5 -14.5t-16.5 -41.5q0 -12 4 -21l-54 -7q-6 14 -6 33q0 26 14 49.5t40.5 38.5
t60.5 15q54 0 85.5 -28t31.5 -72q0 -33 -15 -62t-50 -63l-79 -78h148v-54h-236v42z" />
    <glyph glyph-name="threequarters" unicode="&#xbe;" horiz-adv-x="773" 
d="M180 35l435 665l52 -35l-435 -665zM618 66h-165v52l165 232h62v-232h39v-52h-39v-66h-62v66zM618 118v144l-105 -144h105zM110.5 357.5q-28.5 14.5 -43.5 37.5t-15 48q0 20 8 34l53 -12q-3 -9 -3 -19q0 -24 19 -37.5t49 -13.5q31 0 48.5 15.5t17.5 45.5q0 29 -26 44
t-68 15v45q76 0 76 57q0 19 -15.5 30.5t-38.5 11.5q-24 0 -40.5 -13.5t-16.5 -35.5q0 -6 2 -16l-49 -6q-5 14 -5 31q0 37 30.5 62.5t78.5 25.5q51 0 82 -24.5t31 -60.5q0 -54 -52 -79q30 -9 49.5 -32.5t19.5 -56.5q0 -51 -35.5 -81t-88.5 -30q-39 0 -67.5 14.5z" />
    <glyph glyph-name="questiondown" unicode="&#xbf;" horiz-adv-x="536" 
d="M323 396h-92v100h92v-100zM321 279q0 -37 -20.5 -71.5t-71.5 -76.5q-56 -47 -74.5 -79.5t-18.5 -81.5q0 -51 37.5 -84.5t98.5 -33.5q57 0 95.5 33.5t38.5 97.5q0 20 -5 42l73 13q12 -28 12 -69q0 -48 -27.5 -91t-76.5 -69.5t-110 -26.5q-66 0 -115.5 24t-76 66t-26.5 94
q0 63 27 108.5t98 105.5q31 27 43.5 53.5t12.5 67.5h86v-22z" />
    <glyph glyph-name="Agrave" unicode="&#xc0;" horiz-adv-x="656" 
d="M284 700h88l278 -700h-86l-81 207h-310l-81 -207h-86zM455 277l-106 272q-2 6 -8.5 23t-12.5 35q-6 -18 -12.5 -35t-8.5 -23l-107 -272h255zM213 904h107l64 -138h-71z" />
    <glyph glyph-name="Aacute" unicode="&#xc1;" horiz-adv-x="656" 
d="M284 700h88l278 -700h-86l-81 207h-310l-81 -207h-86zM455 277l-106 272q-2 6 -8.5 23t-12.5 35q-6 -18 -12.5 -35t-8.5 -23l-107 -272h255zM336 904h107l-100 -138h-71z" />
    <glyph glyph-name="Acircumflex" unicode="&#xc2;" horiz-adv-x="656" 
d="M284 700h88l278 -700h-86l-81 207h-310l-81 -207h-86zM455 277l-106 272q-2 6 -8.5 23t-12.5 35q-6 -18 -12.5 -35t-8.5 -23l-107 -272h255zM294 904h68l100 -138h-68l-66 68l-66 -68h-68z" />
    <glyph glyph-name="Atilde" unicode="&#xc3;" horiz-adv-x="656" 
d="M284 700h88l278 -700h-86l-81 207h-310l-81 -207h-86zM455 277l-106 272q-2 6 -8.5 23t-12.5 35q-6 -18 -12.5 -35t-8.5 -23l-107 -272h255zM350.5 775q-19.5 10 -42.5 30q-15 14 -26 20.5t-26 6.5q-12 0 -20.5 -8t-8.5 -19q0 -12 7 -26l-60 -12q-12 18 -12 46
q0 37 27 58.5t63 21.5q34 0 53.5 -10t42.5 -30q15 -14 26 -20.5t26 -6.5q12 0 20.5 8t8.5 19q0 12 -7 26l60 12q12 -18 12 -46q0 -38 -27 -59t-63 -21q-34 0 -53.5 10z" />
    <glyph glyph-name="Adieresis" unicode="&#xc4;" horiz-adv-x="656" 
d="M284 700h88l278 -700h-86l-81 207h-310l-81 -207h-86zM455 277l-106 272q-2 6 -8.5 23t-12.5 35q-6 -18 -12.5 -35t-8.5 -23l-107 -272h255zM203 884h92v-92h-92v92zM361 884h92v-92h-92v92z" />
    <glyph glyph-name="Aring" unicode="&#xc5;" horiz-adv-x="656" 
d="M284 700h88l278 -700h-86l-81 207h-310l-81 -207h-86zM455 277l-106 272q-2 6 -8.5 23t-12.5 35q-6 -18 -12.5 -35t-8.5 -23l-107 -272h255zM259 771.5q-27 27.5 -27 67.5t28 67.5t68 27.5t68 -27.5t28 -67.5t-27 -67.5t-69 -27.5t-69 27.5zM361 805.5q13 13.5 13 33.5
t-13 33.5t-33 13.5t-33 -13.5t-13 -33.5t13 -33.5t33 -13.5t33 13.5z" />
    <glyph glyph-name="AE" unicode="&#xc6;" horiz-adv-x="932" 
d="M182 207l-90 -207h-86l308 700h547v-74h-354v-227h326v-74h-326v-251h357v-74h-441v207h-241zM423 277v349h-57l-153 -349h210z" />
    <glyph glyph-name="Ccedilla" unicode="&#xc7;" horiz-adv-x="748" 
d="M220 33.5q-77 47.5 -120.5 130.5t-43.5 186q0 102 46 185.5t124.5 131t171.5 47.5q90 0 163 -34.5t117 -96.5l-55 -57q-46 62 -101 88t-126 26q-70 0 -128.5 -38t-92 -104.5t-33.5 -147.5q0 -82 32 -148t89.5 -104t131.5 -38q72 0 124.5 28t95.5 91l56 -57
q-102 -136 -278 -136q-96 0 -173 47.5zM344.5 -173q-22.5 16 -29.5 45l48 12q4 -11 14 -19t23 -8q16 0 25.5 10t9.5 27q0 16 -10 25.5t-27 9.5q-24 0 -47 -18l-31 28l34 92h54l-37 -71q19 11 44 11q32 0 54 -21.5t22 -55.5q0 -39 -26 -61t-65 -22q-33 0 -55.5 16z" />
    <glyph glyph-name="Egrave" unicode="&#xc8;" horiz-adv-x="597" 
d="M526 700v-74h-354v-227h326v-74h-326v-251h357v-74h-441v700h438zM192 904h107l64 -138h-71z" />
    <glyph glyph-name="Eacute" unicode="&#xc9;" horiz-adv-x="597" 
d="M526 700v-74h-354v-227h326v-74h-326v-251h357v-74h-441v700h438zM315 904h107l-100 -138h-71z" />
    <glyph glyph-name="Ecircumflex" unicode="&#xca;" horiz-adv-x="597" 
d="M526 700v-74h-354v-227h326v-74h-326v-251h357v-74h-441v700h438zM273 904h68l100 -138h-68l-66 68l-66 -68h-68z" />
    <glyph glyph-name="Edieresis" unicode="&#xcb;" horiz-adv-x="597" 
d="M526 700v-74h-354v-227h326v-74h-326v-251h357v-74h-441v700h438zM182 884h92v-92h-92v92zM340 884h92v-92h-92v92z" />
    <glyph glyph-name="Igrave" unicode="&#xcc;" horiz-adv-x="320" 
d="M202 628v-556h72v-72h-228v72h72v556h-72v72h228v-72h-72zM45 904h107l64 -138h-71z" />
    <glyph glyph-name="Iacute" unicode="&#xcd;" horiz-adv-x="320" 
d="M202 628v-556h72v-72h-228v72h72v556h-72v72h228v-72h-72zM168 904h107l-100 -138h-71z" />
    <glyph glyph-name="Icircumflex" unicode="&#xce;" horiz-adv-x="320" 
d="M202 628v-556h72v-72h-228v72h72v556h-72v72h228v-72h-72zM126 904h68l100 -138h-68l-66 68l-66 -68h-68z" />
    <glyph glyph-name="Idieresis" unicode="&#xcf;" horiz-adv-x="320" 
d="M202 628v-556h72v-72h-228v72h72v556h-72v72h228v-72h-72zM35 884h92v-92h-92v92zM193 884h92v-92h-92v92z" />
    <glyph glyph-name="Eth" unicode="&#xd0;" horiz-adv-x="717" 
d="M112 385v315h193q104 0 184.5 -41.5t126 -120.5t45.5 -188t-45.5 -188t-126 -120.5t-184.5 -41.5h-193v315h-72v70h72zM501 143q74 69 74 207t-74 207t-201 69h-104v-241h154v-70h-154v-241h104q127 0 201 69z" />
    <glyph glyph-name="Ntilde" unicode="&#xd1;" horiz-adv-x="708" 
d="M177 700l333 -527q4 -6 15 -26t15 -29v582h80v-700h-89l-333 527q-4 6 -15 26t-15 29v-582h-80v700h89zM376.5 775q-19.5 10 -42.5 30q-15 14 -26 20.5t-26 6.5q-12 0 -20.5 -8t-8.5 -19q0 -12 7 -26l-60 -12q-12 18 -12 46q0 37 27 58.5t63 21.5q34 0 53.5 -10t42.5 -30
q15 -14 26 -20.5t26 -6.5q12 0 20.5 8t8.5 19q0 12 -7 26l60 12q12 -18 12 -46q0 -38 -27 -59t-63 -21q-34 0 -53.5 10z" />
    <glyph glyph-name="Ograve" unicode="&#xd2;" horiz-adv-x="788" 
d="M687 160.5q-45 -82.5 -122 -128.5t-171 -46t-171 46t-122 128.5t-45 189.5t45 189.5t122 128.5t171 46t171 -46t122 -128.5t45 -189.5t-45 -189.5zM523.5 96.5q57.5 36.5 90 102.5t32.5 151t-33 151t-90 102.5t-129 36.5t-129.5 -36.5t-90 -102.5t-32.5 -151t33 -151
t90 -102.5t129 -36.5t129.5 36.5zM279 904h107l64 -138h-71z" />
    <glyph glyph-name="Oacute" unicode="&#xd3;" horiz-adv-x="788" 
d="M687 160.5q-45 -82.5 -122 -128.5t-171 -46t-171 46t-122 128.5t-45 189.5t45 189.5t122 128.5t171 46t171 -46t122 -128.5t45 -189.5t-45 -189.5zM523.5 96.5q57.5 36.5 90 102.5t32.5 151t-33 151t-90 102.5t-129 36.5t-129.5 -36.5t-90 -102.5t-32.5 -151t33 -151
t90 -102.5t129 -36.5t129.5 36.5zM402 904h107l-100 -138h-71z" />
    <glyph glyph-name="Ocircumflex" unicode="&#xd4;" horiz-adv-x="788" 
d="M687 160.5q-45 -82.5 -122 -128.5t-171 -46t-171 46t-122 128.5t-45 189.5t45 189.5t122 128.5t171 46t171 -46t122 -128.5t45 -189.5t-45 -189.5zM523.5 96.5q57.5 36.5 90 102.5t32.5 151t-33 151t-90 102.5t-129 36.5t-129.5 -36.5t-90 -102.5t-32.5 -151t33 -151
t90 -102.5t129 -36.5t129.5 36.5zM360 904h68l100 -138h-68l-66 68l-66 -68h-68z" />
    <glyph glyph-name="Otilde" unicode="&#xd5;" horiz-adv-x="788" 
d="M687 160.5q-45 -82.5 -122 -128.5t-171 -46t-171 46t-122 128.5t-45 189.5t45 189.5t122 128.5t171 46t171 -46t122 -128.5t45 -189.5t-45 -189.5zM523.5 96.5q57.5 36.5 90 102.5t32.5 151t-33 151t-90 102.5t-129 36.5t-129.5 -36.5t-90 -102.5t-32.5 -151t33 -151
t90 -102.5t129 -36.5t129.5 36.5zM416.5 775q-19.5 10 -42.5 30q-15 14 -26 20.5t-26 6.5q-12 0 -20.5 -8t-8.5 -19q0 -12 7 -26l-60 -12q-12 18 -12 46q0 37 27 58.5t63 21.5q34 0 53.5 -10t42.5 -30q15 -14 26 -20.5t26 -6.5q12 0 20.5 8t8.5 19q0 12 -7 26l60 12
q12 -18 12 -46q0 -38 -27 -59t-63 -21q-34 0 -53.5 10z" />
    <glyph glyph-name="Odieresis" unicode="&#xd6;" horiz-adv-x="788" 
d="M687 160.5q-45 -82.5 -122 -128.5t-171 -46t-171 46t-122 128.5t-45 189.5t45 189.5t122 128.5t171 46t171 -46t122 -128.5t45 -189.5t-45 -189.5zM523.5 96.5q57.5 36.5 90 102.5t32.5 151t-33 151t-90 102.5t-129 36.5t-129.5 -36.5t-90 -102.5t-32.5 -151t33 -151
t90 -102.5t129 -36.5t129.5 36.5zM269 884h92v-92h-92v92zM427 884h92v-92h-92v92z" />
    <glyph glyph-name="multiply" unicode="&#xd7;" horiz-adv-x="506" 
d="M86 242l123 123l-123 123l44 44l123 -123l123 123l44 -44l-123 -123l123 -123l-44 -44l-123 123l-123 -123z" />
    <glyph glyph-name="Oslash" unicode="&#xd8;" horiz-adv-x="788" 
d="M687 160.5q-45 -82.5 -122 -128.5t-171 -46t-171 46t-122 128.5t-45 189.5t45 189.5t122 128.5t171 46t171 -46t122 -128.5t45 -189.5t-45 -189.5zM523.5 96.5q57.5 36.5 90 102.5t32.5 151t-33 151t-90 102.5t-129 36.5t-129.5 -36.5t-90 -102.5t-32.5 -151t33 -151
t90 -102.5t129 -36.5t129.5 36.5zM171 0l384 734l62 -34l-384 -734z" />
    <glyph glyph-name="Ugrave" unicode="&#xd9;" horiz-adv-x="670" 
d="M561.5 101.5q-32.5 -56.5 -91.5 -86t-135 -29.5t-135 29.5t-91.5 86t-32.5 133.5v465h84v-470q0 -73 46 -121.5t129 -48.5t129 48.5t46 121.5v470h84v-465q0 -77 -32.5 -133.5zM220 904h107l64 -138h-71z" />
    <glyph glyph-name="Uacute" unicode="&#xda;" horiz-adv-x="670" 
d="M561.5 101.5q-32.5 -56.5 -91.5 -86t-135 -29.5t-135 29.5t-91.5 86t-32.5 133.5v465h84v-470q0 -73 46 -121.5t129 -48.5t129 48.5t46 121.5v470h84v-465q0 -77 -32.5 -133.5zM343 904h107l-100 -138h-71z" />
    <glyph glyph-name="Ucircumflex" unicode="&#xdb;" horiz-adv-x="670" 
d="M561.5 101.5q-32.5 -56.5 -91.5 -86t-135 -29.5t-135 29.5t-91.5 86t-32.5 133.5v465h84v-470q0 -73 46 -121.5t129 -48.5t129 48.5t46 121.5v470h84v-465q0 -77 -32.5 -133.5zM301 904h68l100 -138h-68l-66 68l-66 -68h-68z" />
    <glyph glyph-name="Udieresis" unicode="&#xdc;" horiz-adv-x="670" 
d="M561.5 101.5q-32.5 -56.5 -91.5 -86t-135 -29.5t-135 29.5t-91.5 86t-32.5 133.5v465h84v-470q0 -73 46 -121.5t129 -48.5t129 48.5t46 121.5v470h84v-465q0 -77 -32.5 -133.5zM210 884h92v-92h-92v92zM368 884h92v-92h-92v92z" />
    <glyph glyph-name="Yacute" unicode="&#xdd;" horiz-adv-x="552" 
d="M234 287l-230 413h91l159 -296q2 -4 8.5 -17.5t13.5 -31.5q7 18 13.5 31.5t8.5 17.5l159 296h91l-230 -413v-287h-84v287zM284 904h107l-100 -138h-71z" />
    <glyph glyph-name="Thorn" unicode="&#xde;" horiz-adv-x="678" 
d="M172 700v-132h210q73 0 128 -27t84.5 -76.5t29.5 -114.5t-29.5 -114.5t-84.5 -76.5t-128 -27h-210v-132h-84v700h84zM378 206q77 0 119.5 36.5t42.5 107.5t-42.5 107.5t-119.5 36.5h-206v-288h206z" />
    <glyph glyph-name="germandbls" unicode="&#xdf;" horiz-adv-x="594" 
d="M202 39l38 61q27 -23 51 -34.5t58 -11.5q51 0 84 39.5t33 100.5q0 75 -56 115t-137 40h-24v66h23q69 0 110.5 33t41.5 92q0 48 -36 77t-85 29q-51 0 -86.5 -33t-35.5 -99v-514h-78v434h-78v62h78v14q0 67 29 113t74.5 68.5t96.5 22.5q57 0 101.5 -21.5t69 -59t24.5 -85.5
q0 -61 -35.5 -100.5t-89.5 -56.5q79 -22 125 -70t46 -126q0 -59 -25 -106.5t-69 -75t-99 -27.5q-83 0 -149 53z" />
    <glyph glyph-name="agrave" unicode="&#xe0;" horiz-adv-x="599" 
d="M155.5 19.5q-53.5 33.5 -83.5 93t-30 135.5q0 75 31.5 134.5t84.5 93.5t115 34q63 0 107.5 -26t64.5 -74v86h78v-496h-78v89q-25 -50 -67.5 -76.5t-99.5 -26.5q-69 0 -122.5 33.5zM371.5 81.5q37.5 23.5 58.5 67t21 99.5t-21 99.5t-58.5 67t-84.5 23.5t-84.5 -23.5
t-59 -67t-21.5 -99.5t21.5 -99.5t59 -67t84.5 -23.5t84.5 23.5zM164 700h107l64 -138h-71z" />
    <glyph glyph-name="aacute" unicode="&#xe1;" horiz-adv-x="599" 
d="M155.5 19.5q-53.5 33.5 -83.5 93t-30 135.5q0 75 31.5 134.5t84.5 93.5t115 34q63 0 107.5 -26t64.5 -74v86h78v-496h-78v89q-25 -50 -67.5 -76.5t-99.5 -26.5q-69 0 -122.5 33.5zM371.5 81.5q37.5 23.5 58.5 67t21 99.5t-21 99.5t-58.5 67t-84.5 23.5t-84.5 -23.5
t-59 -67t-21.5 -99.5t21.5 -99.5t59 -67t84.5 -23.5t84.5 23.5zM298 700h107l-100 -138h-71z" />
    <glyph glyph-name="acircumflex" unicode="&#xe2;" horiz-adv-x="599" 
d="M155.5 19.5q-53.5 33.5 -83.5 93t-30 135.5q0 75 31.5 134.5t84.5 93.5t115 34q63 0 107.5 -26t64.5 -74v86h78v-496h-78v89q-25 -50 -67.5 -76.5t-99.5 -26.5q-69 0 -122.5 33.5zM371.5 81.5q37.5 23.5 58.5 67t21 99.5t-21 99.5t-58.5 67t-84.5 23.5t-84.5 -23.5
t-59 -67t-21.5 -99.5t21.5 -99.5t59 -67t84.5 -23.5t84.5 23.5zM256 700h68l100 -138h-68l-66 68l-66 -68h-68z" />
    <glyph glyph-name="atilde" unicode="&#xe3;" horiz-adv-x="599" 
d="M155.5 19.5q-53.5 33.5 -83.5 93t-30 135.5q0 75 31.5 134.5t84.5 93.5t115 34q63 0 107.5 -26t64.5 -74v86h78v-496h-78v89q-25 -50 -67.5 -76.5t-99.5 -26.5q-69 0 -122.5 33.5zM371.5 81.5q37.5 23.5 58.5 67t21 99.5t-21 99.5t-58.5 67t-84.5 23.5t-84.5 -23.5
t-59 -67t-21.5 -99.5t21.5 -99.5t59 -67t84.5 -23.5t84.5 23.5zM312.5 571q-19.5 10 -42.5 30q-15 14 -26 20.5t-26 6.5q-12 0 -20.5 -8t-8.5 -19q0 -12 7 -26l-60 -12q-12 18 -12 46q0 37 27 58.5t63 21.5q34 0 53.5 -10t42.5 -30q15 -14 26 -20.5t26 -6.5q12 0 20.5 8
t8.5 19q0 12 -7 26l60 12q12 -18 12 -46q0 -38 -27 -59t-63 -21q-34 0 -53.5 10z" />
    <glyph glyph-name="adieresis" unicode="&#xe4;" horiz-adv-x="599" 
d="M155.5 19.5q-53.5 33.5 -83.5 93t-30 135.5q0 75 31.5 134.5t84.5 93.5t115 34q63 0 107.5 -26t64.5 -74v86h78v-496h-78v89q-25 -50 -67.5 -76.5t-99.5 -26.5q-69 0 -122.5 33.5zM371.5 81.5q37.5 23.5 58.5 67t21 99.5t-21 99.5t-58.5 67t-84.5 23.5t-84.5 -23.5
t-59 -67t-21.5 -99.5t21.5 -99.5t59 -67t84.5 -23.5t84.5 23.5zM165 680h92v-92h-92v92zM323 680h92v-92h-92v92z" />
    <glyph glyph-name="aring" unicode="&#xe5;" horiz-adv-x="599" 
d="M155.5 19.5q-53.5 33.5 -83.5 93t-30 135.5q0 75 31.5 134.5t84.5 93.5t115 34q63 0 107.5 -26t64.5 -74v86h78v-496h-78v89q-25 -50 -67.5 -76.5t-99.5 -26.5q-69 0 -122.5 33.5zM371.5 81.5q37.5 23.5 58.5 67t21 99.5t-21 99.5t-58.5 67t-84.5 23.5t-84.5 -23.5
t-59 -67t-21.5 -99.5t21.5 -99.5t59 -67t84.5 -23.5t84.5 23.5zM221 567.5q-27 27.5 -27 67.5t28 67.5t68 27.5t68 -27.5t28 -67.5t-27 -67.5t-69 -27.5t-69 27.5zM323 601.5q13 13.5 13 33.5t-13 33.5t-33 13.5t-33 -13.5t-13 -33.5t13 -33.5t33 -13.5t33 13.5z" />
    <glyph glyph-name="ae" unicode="&#xe6;" horiz-adv-x="983" 
d="M155.5 19.5q-53.5 33.5 -83.5 93t-30 135.5q0 75 31.5 134.5t84.5 93.5t115 34q63 0 107.5 -26t64.5 -74v86h78v-77q26 41 74 66t103 25q73 0 127 -31.5t83 -87.5t29 -129v-27h-410q4 -80 50 -131.5t121 -51.5q63 0 101.5 29.5t65.5 83.5l57 -34q-36 -71 -91 -108
t-136 -37q-58 0 -102.5 24.5t-71.5 65.5v-76h-78v89q-25 -50 -67.5 -76.5t-99.5 -26.5q-69 0 -122.5 33.5zM861 299q-2 45 -26 78t-60 50t-75 17q-65 0 -108 -39.5t-57 -105.5h326zM371.5 81.5q37.5 23.5 58.5 67t21 99.5t-21 99.5t-58.5 67t-84.5 23.5t-84.5 -23.5t-59 -67
t-21.5 -99.5t21.5 -99.5t59 -67t84.5 -23.5t84.5 23.5z" />
    <glyph glyph-name="ccedilla" unicode="&#xe7;" horiz-adv-x="557" 
d="M427 23q-57 -37 -131 -37q-71 0 -129 33.5t-91.5 93.5t-33.5 135t34.5 134.5t93 93.5t126.5 34q79 0 136 -36t84 -100l-59 -39q-49 105 -160 105q-50 0 -90 -23.5t-63.5 -67t-23.5 -101.5t23 -101.5t63 -67t91 -23.5q59 0 98 27.5t68 81.5l56 -36q-35 -69 -92 -106z
M237.5 -188q-22.5 16 -29.5 45l48 12q4 -11 14 -19t23 -8q16 0 25.5 10t9.5 27q0 16 -10 25.5t-27 9.5q-24 0 -47 -18l-31 28l34 92h54l-37 -71q19 11 44 11q32 0 54 -21.5t22 -55.5q0 -39 -26 -61t-65 -22q-33 0 -55.5 16z" />
    <glyph glyph-name="egrave" unicode="&#xe8;" horiz-adv-x="574" 
d="M412.5 15.5q-52.5 -29.5 -124.5 -29.5q-67 0 -123.5 33.5t-89.5 93.5t-33 135t33 135t90 93.5t126 33.5q73 0 127 -31.5t83 -87.5t29 -129v-27h-410q4 -80 50 -131.5t121 -51.5q100 0 150 82l56 -35q-32 -54 -84.5 -83.5zM183 404.5q-43 -39.5 -57 -105.5h326
q-2 45 -26 78t-60 50t-75 17q-65 0 -108 -39.5zM161 700h107l64 -138h-71z" />
    <glyph glyph-name="eacute" unicode="&#xe9;" horiz-adv-x="574" 
d="M412.5 15.5q-52.5 -29.5 -124.5 -29.5q-67 0 -123.5 33.5t-89.5 93.5t-33 135t33 135t90 93.5t126 33.5q73 0 127 -31.5t83 -87.5t29 -129v-27h-410q4 -80 50 -131.5t121 -51.5q100 0 150 82l56 -35q-32 -54 -84.5 -83.5zM183 404.5q-43 -39.5 -57 -105.5h326
q-2 45 -26 78t-60 50t-75 17q-65 0 -108 -39.5zM295 700h107l-100 -138h-71z" />
    <glyph glyph-name="ecircumflex" unicode="&#xea;" horiz-adv-x="574" 
d="M412.5 15.5q-52.5 -29.5 -124.5 -29.5q-67 0 -123.5 33.5t-89.5 93.5t-33 135t33 135t90 93.5t126 33.5q73 0 127 -31.5t83 -87.5t29 -129v-27h-410q4 -80 50 -131.5t121 -51.5q100 0 150 82l56 -35q-32 -54 -84.5 -83.5zM183 404.5q-43 -39.5 -57 -105.5h326
q-2 45 -26 78t-60 50t-75 17q-65 0 -108 -39.5zM253 700h68l100 -138h-68l-66 68l-66 -68h-68z" />
    <glyph glyph-name="edieresis" unicode="&#xeb;" horiz-adv-x="574" 
d="M412.5 15.5q-52.5 -29.5 -124.5 -29.5q-67 0 -123.5 33.5t-89.5 93.5t-33 135t33 135t90 93.5t126 33.5q73 0 127 -31.5t83 -87.5t29 -129v-27h-410q4 -80 50 -131.5t121 -51.5q100 0 150 82l56 -35q-32 -54 -84.5 -83.5zM183 404.5q-43 -39.5 -57 -105.5h326
q-2 45 -26 78t-60 50t-75 17q-65 0 -108 -39.5zM162 680h92v-92h-92v92zM320 680h92v-92h-92v92z" />
    <glyph glyph-name="igrave" unicode="&#xec;" horiz-adv-x="230" 
d="M154 496v-496h-78v496h78zM-11 700h107l64 -138h-71z" />
    <glyph glyph-name="iacute" unicode="&#xed;" horiz-adv-x="230" 
d="M154 496v-496h-78v496h78zM123 700h107l-100 -138h-71z" />
    <glyph glyph-name="icircumflex" unicode="&#xee;" horiz-adv-x="230" 
d="M154 496v-496h-78v496h78zM81 700h68l100 -138h-68l-66 68l-66 -68h-68z" />
    <glyph glyph-name="idieresis" unicode="&#xef;" horiz-adv-x="230" 
d="M154 496v-496h-78v496h78zM-10 680h92v-92h-92v92zM148 680h92v-92h-92v92z" />
    <glyph glyph-name="eth" unicode="&#xf0;" horiz-adv-x="580" 
d="M174 12.5q-55 26.5 -90 80.5t-35 131t34.5 130.5t88.5 80.5t112 27q54 0 100 -25.5t69 -64.5q-22 103 -105 186l-125 -48l-23 61l93 36q-63 48 -135 77l36 58q102 -50 171 -107l99 38l24 -61l-71 -27q114 -127 114 -311q0 -100 -34.5 -164.5t-89 -94t-117.5 -29.5
q-61 0 -116 26.5zM368 75.5q37 19.5 60 57.5t23 91t-23 91t-60 57.5t-78 19.5t-78 -19.5t-60 -57.5t-23 -91t23 -91t60 -57.5t78 -19.5t78 19.5z" />
    <glyph glyph-name="ntilde" unicode="&#xf1;" horiz-adv-x="571" 
d="M417 0v323q0 57 -32.5 87t-86.5 30q-38 0 -71 -20.5t-53 -58t-20 -86.5v-275h-78v496h78v-87q27 47 70.5 74t96.5 27q73 0 123.5 -43.5t50.5 -129.5v-337h-78zM318.5 571q-19.5 10 -42.5 30q-15 14 -26 20.5t-26 6.5q-12 0 -20.5 -8t-8.5 -19q0 -12 7 -26l-60 -12
q-12 18 -12 46q0 37 27 58.5t63 21.5q34 0 53.5 -10t42.5 -30q15 -14 26 -20.5t26 -6.5q12 0 20.5 8t8.5 19q0 12 -7 26l60 12q12 -18 12 -46q0 -38 -27 -59t-63 -21q-34 0 -53.5 10z" />
    <glyph glyph-name="ograve" unicode="&#xf2;" horiz-adv-x="602" 
d="M522.5 107.5q-37.5 -59.5 -97.5 -90.5t-124 -31t-124 31t-97.5 90.5t-37.5 140.5t37.5 140.5t97.5 90.5t124 31t124 -31t97.5 -90.5t37.5 -140.5t-37.5 -140.5zM392 81q41 25 64.5 68.5t23.5 98.5t-23.5 98.5t-64.5 68.5t-91 25t-91 -25t-64.5 -68.5t-23.5 -98.5
t23.5 -98.5t64.5 -68.5t91 -25t91 25zM175 700h107l64 -138h-71z" />
    <glyph glyph-name="oacute" unicode="&#xf3;" horiz-adv-x="602" 
d="M522.5 107.5q-37.5 -59.5 -97.5 -90.5t-124 -31t-124 31t-97.5 90.5t-37.5 140.5t37.5 140.5t97.5 90.5t124 31t124 -31t97.5 -90.5t37.5 -140.5t-37.5 -140.5zM392 81q41 25 64.5 68.5t23.5 98.5t-23.5 98.5t-64.5 68.5t-91 25t-91 -25t-64.5 -68.5t-23.5 -98.5
t23.5 -98.5t64.5 -68.5t91 -25t91 25zM309 700h107l-100 -138h-71z" />
    <glyph glyph-name="ocircumflex" unicode="&#xf4;" horiz-adv-x="602" 
d="M522.5 107.5q-37.5 -59.5 -97.5 -90.5t-124 -31t-124 31t-97.5 90.5t-37.5 140.5t37.5 140.5t97.5 90.5t124 31t124 -31t97.5 -90.5t37.5 -140.5t-37.5 -140.5zM392 81q41 25 64.5 68.5t23.5 98.5t-23.5 98.5t-64.5 68.5t-91 25t-91 -25t-64.5 -68.5t-23.5 -98.5
t23.5 -98.5t64.5 -68.5t91 -25t91 25zM267 700h68l100 -138h-68l-66 68l-66 -68h-68z" />
    <glyph glyph-name="otilde" unicode="&#xf5;" horiz-adv-x="602" 
d="M522.5 107.5q-37.5 -59.5 -97.5 -90.5t-124 -31t-124 31t-97.5 90.5t-37.5 140.5t37.5 140.5t97.5 90.5t124 31t124 -31t97.5 -90.5t37.5 -140.5t-37.5 -140.5zM392 81q41 25 64.5 68.5t23.5 98.5t-23.5 98.5t-64.5 68.5t-91 25t-91 -25t-64.5 -68.5t-23.5 -98.5
t23.5 -98.5t64.5 -68.5t91 -25t91 25zM323.5 571q-19.5 10 -42.5 30q-15 14 -26 20.5t-26 6.5q-12 0 -20.5 -8t-8.5 -19q0 -12 7 -26l-60 -12q-12 18 -12 46q0 37 27 58.5t63 21.5q34 0 53.5 -10t42.5 -30q15 -14 26 -20.5t26 -6.5q12 0 20.5 8t8.5 19q0 12 -7 26l60 12
q12 -18 12 -46q0 -38 -27 -59t-63 -21q-34 0 -53.5 10z" />
    <glyph glyph-name="odieresis" unicode="&#xf6;" horiz-adv-x="602" 
d="M522.5 107.5q-37.5 -59.5 -97.5 -90.5t-124 -31t-124 31t-97.5 90.5t-37.5 140.5t37.5 140.5t97.5 90.5t124 31t124 -31t97.5 -90.5t37.5 -140.5t-37.5 -140.5zM392 81q41 25 64.5 68.5t23.5 98.5t-23.5 98.5t-64.5 68.5t-91 25t-91 -25t-64.5 -68.5t-23.5 -98.5
t23.5 -98.5t64.5 -68.5t91 -25t91 25zM176 680h92v-92h-92v92zM334 680h92v-92h-92v92z" />
    <glyph glyph-name="divide" unicode="&#xf7;" horiz-adv-x="506" 
d="M206 476h94v-98h-94v98zM206 98h94v-98h-94v98zM48 269h410v-62h-410v62z" />
    <glyph glyph-name="oslash" unicode="&#xf8;" horiz-adv-x="602" 
d="M522.5 107.5q-37.5 -59.5 -97.5 -90.5t-124 -31t-124 31t-97.5 90.5t-37.5 140.5t37.5 140.5t97.5 90.5t124 31t124 -31t97.5 -90.5t37.5 -140.5t-37.5 -140.5zM392 81q41 25 64.5 68.5t23.5 98.5t-23.5 98.5t-64.5 68.5t-91 25t-91 -25t-64.5 -68.5t-23.5 -98.5
t23.5 -98.5t64.5 -68.5t91 -25t91 25zM117 0l307 530l61 -34l-307 -530z" />
    <glyph glyph-name="ugrave" unicode="&#xf9;" horiz-adv-x="571" 
d="M154 496v-323q0 -57 32 -87t85 -30q39 0 72.5 20t53.5 57t20 85v278h78v-496h-78v87q-25 -48 -68 -74.5t-97 -26.5q-75 0 -125.5 45t-50.5 138v327h78zM160 700h107l64 -138h-71z" />
    <glyph glyph-name="uacute" unicode="&#xfa;" horiz-adv-x="571" 
d="M154 496v-323q0 -57 32 -87t85 -30q39 0 72.5 20t53.5 57t20 85v278h78v-496h-78v87q-25 -48 -68 -74.5t-97 -26.5q-75 0 -125.5 45t-50.5 138v327h78zM294 700h107l-100 -138h-71z" />
    <glyph glyph-name="ucircumflex" unicode="&#xfb;" horiz-adv-x="571" 
d="M154 496v-323q0 -57 32 -87t85 -30q39 0 72.5 20t53.5 57t20 85v278h78v-496h-78v87q-25 -48 -68 -74.5t-97 -26.5q-75 0 -125.5 45t-50.5 138v327h78zM252 700h68l100 -138h-68l-66 68l-66 -68h-68z" />
    <glyph glyph-name="udieresis" unicode="&#xfc;" horiz-adv-x="571" 
d="M154 496v-323q0 -57 32 -87t85 -30q39 0 72.5 20t53.5 57t20 85v278h78v-496h-78v87q-25 -48 -68 -74.5t-97 -26.5q-75 0 -125.5 45t-50.5 138v327h78zM161 680h92v-92h-92v92zM319 680h92v-92h-92v92z" />
    <glyph glyph-name="yacute" unicode="&#xfd;" horiz-adv-x="493" 
d="M108 -141q23 0 36 11t24 38l37 94l-200 494h86l157 -389l155 389h84l-249 -613q-21 -52 -51.5 -73t-78.5 -21q-28 0 -52 10l12 70q20 -10 40 -10zM255 700h107l-100 -138h-71z" />
    <glyph glyph-name="thorn" unicode="&#xfe;" horiz-adv-x="608" 
d="M154 700v-293q23 45 71 74t107 29q65 0 118.5 -32t84.5 -92t31 -138t-32 -137.5t-86.5 -92t-120.5 -32.5q-56 0 -101 24.5t-72 68.5v-283h-78v904h78zM230.5 414.5q-38.5 -23.5 -60.5 -67t-22 -99.5t22 -99.5t60.5 -67t86.5 -23.5t86.5 23.5t60.5 67t22 99.5t-22 99.5
t-60.5 67t-86.5 23.5t-86.5 -23.5z" />
    <glyph glyph-name="ydieresis" unicode="&#xff;" horiz-adv-x="493" 
d="M108 -141q23 0 36 11t24 38l37 94l-200 494h86l157 -389l155 389h84l-249 -613q-21 -52 -51.5 -73t-78.5 -21q-28 0 -52 10l12 70q20 -10 40 -10zM122 680h92v-92h-92v92zM280 680h92v-92h-92v92z" />
    <glyph glyph-name="Amacron" unicode="&#x100;" horiz-adv-x="656" 
d="M284 700h88l278 -700h-86l-81 207h-310l-81 -207h-86zM455 277l-106 272q-2 6 -8.5 23t-12.5 35q-6 -18 -12.5 -35t-8.5 -23l-107 -272h255zM218 874h220v-70h-220v70z" />
    <glyph glyph-name="amacron" unicode="&#x101;" horiz-adv-x="599" 
d="M155.5 19.5q-53.5 33.5 -83.5 93t-30 135.5q0 75 31.5 134.5t84.5 93.5t115 34q63 0 107.5 -26t64.5 -74v86h78v-496h-78v89q-25 -50 -67.5 -76.5t-99.5 -26.5q-69 0 -122.5 33.5zM371.5 81.5q37.5 23.5 58.5 67t21 99.5t-21 99.5t-58.5 67t-84.5 23.5t-84.5 -23.5
t-59 -67t-21.5 -99.5t21.5 -99.5t59 -67t84.5 -23.5t84.5 23.5zM180 670h220v-70h-220v70z" />
    <glyph glyph-name="Abreve" unicode="&#x102;" horiz-adv-x="656" 
d="M284 700h88l278 -700h-86l-81 207h-310l-81 -207h-86zM455 277l-106 272q-2 6 -8.5 23t-12.5 35q-6 -18 -12.5 -35t-8.5 -23l-107 -272h255zM254 801q-29 29 -29 75h64q0 -20 10 -32t29 -12t29 12t10 32h64q0 -46 -29 -75t-74 -29t-74 29z" />
    <glyph glyph-name="abreve" unicode="&#x103;" horiz-adv-x="599" 
d="M155.5 19.5q-53.5 33.5 -83.5 93t-30 135.5q0 75 31.5 134.5t84.5 93.5t115 34q63 0 107.5 -26t64.5 -74v86h78v-496h-78v89q-25 -50 -67.5 -76.5t-99.5 -26.5q-69 0 -122.5 33.5zM371.5 81.5q37.5 23.5 58.5 67t21 99.5t-21 99.5t-58.5 67t-84.5 23.5t-84.5 -23.5
t-59 -67t-21.5 -99.5t21.5 -99.5t59 -67t84.5 -23.5t84.5 23.5zM216 597q-29 29 -29 75h64q0 -20 10 -32t29 -12t29 12t10 32h64q0 -46 -29 -75t-74 -29t-74 29z" />
    <glyph glyph-name="Aogonek" unicode="&#x104;" horiz-adv-x="656" 
d="M284 700h88l278 -700h-86l-81 207h-310l-81 -207h-86zM455 277l-106 272q-2 6 -8.5 23t-12.5 35q-6 -18 -12.5 -35t-8.5 -23l-107 -272h255zM538.5 -173.5q-30.5 24.5 -30.5 68.5q0 69 77 114l65 -9q-71 -38 -71 -83q0 -21 13 -33t36 -12q5 0 19 2l9 -66q-21 -6 -45 -6
q-42 0 -72.5 24.5z" />
    <glyph glyph-name="aogonek" unicode="&#x105;" horiz-adv-x="599" 
d="M155.5 19.5q-53.5 33.5 -83.5 93t-30 135.5q0 75 31.5 134.5t84.5 93.5t115 34q63 0 107.5 -26t64.5 -74v86h78v-496h-78v89q-25 -50 -67.5 -76.5t-99.5 -26.5q-69 0 -122.5 33.5zM371.5 81.5q37.5 23.5 58.5 67t21 99.5t-21 99.5t-58.5 67t-84.5 23.5t-84.5 -23.5
t-59 -67t-21.5 -99.5t21.5 -99.5t59 -67t84.5 -23.5t84.5 23.5zM411.5 -173.5q-30.5 24.5 -30.5 68.5q0 69 77 114l65 -9q-71 -38 -71 -83q0 -21 13 -33t36 -12q5 0 19 2l9 -66q-21 -6 -45 -6q-42 0 -72.5 24.5z" />
    <glyph glyph-name="Cacute" unicode="&#x106;" horiz-adv-x="748" 
d="M220 33.5q-77 47.5 -120.5 130.5t-43.5 186q0 102 46 185.5t124.5 131t171.5 47.5q90 0 163 -34.5t117 -96.5l-55 -57q-46 62 -101 88t-126 26q-70 0 -128.5 -38t-92 -104.5t-33.5 -147.5q0 -82 32 -148t89.5 -104t131.5 -38q72 0 124.5 28t95.5 91l56 -57
q-102 -136 -278 -136q-96 0 -173 47.5zM403 904h107l-100 -138h-71z" />
    <glyph glyph-name="cacute" unicode="&#x107;" horiz-adv-x="557" 
d="M427 23q-57 -37 -131 -37q-71 0 -129 33.5t-91.5 93.5t-33.5 135t34.5 134.5t93 93.5t126.5 34q79 0 136 -36t84 -100l-59 -39q-49 105 -160 105q-50 0 -90 -23.5t-63.5 -67t-23.5 -101.5t23 -101.5t63 -67t91 -23.5q59 0 98 27.5t68 81.5l56 -36q-35 -69 -92 -106z
M303 700h107l-100 -138h-71z" />
    <glyph glyph-name="Ccircumflex" unicode="&#x108;" horiz-adv-x="748" 
d="M220 33.5q-77 47.5 -120.5 130.5t-43.5 186q0 102 46 185.5t124.5 131t171.5 47.5q90 0 163 -34.5t117 -96.5l-55 -57q-46 62 -101 88t-126 26q-70 0 -128.5 -38t-92 -104.5t-33.5 -147.5q0 -82 32 -148t89.5 -104t131.5 -38q72 0 124.5 28t95.5 91l56 -57
q-102 -136 -278 -136q-96 0 -173 47.5zM361 904h68l100 -138h-68l-66 68l-66 -68h-68z" />
    <glyph glyph-name="ccircumflex" unicode="&#x109;" horiz-adv-x="557" 
d="M427 23q-57 -37 -131 -37q-71 0 -129 33.5t-91.5 93.5t-33.5 135t34.5 134.5t93 93.5t126.5 34q79 0 136 -36t84 -100l-59 -39q-49 105 -160 105q-50 0 -90 -23.5t-63.5 -67t-23.5 -101.5t23 -101.5t63 -67t91 -23.5q59 0 98 27.5t68 81.5l56 -36q-35 -69 -92 -106z
M261 700h68l100 -138h-68l-66 68l-66 -68h-68z" />
    <glyph glyph-name="Cdotaccent" unicode="&#x10a;" horiz-adv-x="748" 
d="M220 33.5q-77 47.5 -120.5 130.5t-43.5 186q0 102 46 185.5t124.5 131t171.5 47.5q90 0 163 -34.5t117 -96.5l-55 -57q-46 62 -101 88t-126 26q-70 0 -128.5 -38t-92 -104.5t-33.5 -147.5q0 -82 32 -148t89.5 -104t131.5 -38q72 0 124.5 28t95.5 91l56 -57
q-102 -136 -278 -136q-96 0 -173 47.5zM348 884h94v-98h-94v98z" />
    <glyph glyph-name="cdotaccent" unicode="&#x10b;" horiz-adv-x="557" 
d="M427 23q-57 -37 -131 -37q-71 0 -129 33.5t-91.5 93.5t-33.5 135t34.5 134.5t93 93.5t126.5 34q79 0 136 -36t84 -100l-59 -39q-49 105 -160 105q-50 0 -90 -23.5t-63.5 -67t-23.5 -101.5t23 -101.5t63 -67t91 -23.5q59 0 98 27.5t68 81.5l56 -36q-35 -69 -92 -106z
M248 680h94v-98h-94v98z" />
    <glyph glyph-name="Ccaron" unicode="&#x10c;" horiz-adv-x="748" 
d="M220 33.5q-77 47.5 -120.5 130.5t-43.5 186q0 102 46 185.5t124.5 131t171.5 47.5q90 0 163 -34.5t117 -96.5l-55 -57q-46 62 -101 88t-126 26q-70 0 -128.5 -38t-92 -104.5t-33.5 -147.5q0 -82 32 -148t89.5 -104t131.5 -38q72 0 124.5 28t95.5 91l56 -57
q-102 -136 -278 -136q-96 0 -173 47.5zM261 904h68l66 -68l66 68h68l-100 -138h-68z" />
    <glyph glyph-name="ccaron" unicode="&#x10d;" horiz-adv-x="557" 
d="M427 23q-57 -37 -131 -37q-71 0 -129 33.5t-91.5 93.5t-33.5 135t34.5 134.5t93 93.5t126.5 34q79 0 136 -36t84 -100l-59 -39q-49 105 -160 105q-50 0 -90 -23.5t-63.5 -67t-23.5 -101.5t23 -101.5t63 -67t91 -23.5q59 0 98 27.5t68 81.5l56 -36q-35 -69 -92 -106z
M161 700h68l66 -68l66 68h68l-100 -138h-68z" />
    <glyph glyph-name="Dcaron" unicode="&#x10e;" horiz-adv-x="693" 
d="M281 700q104 0 184.5 -41.5t126 -120.5t45.5 -188t-45.5 -188t-126 -120.5t-184.5 -41.5h-193v700h193zM477 143q74 69 74 207t-74 207t-201 69h-104v-552h104q127 0 201 69zM122 904h68l66 -68l66 68h68l-100 -138h-68z" />
    <glyph glyph-name="dcaron" unicode="&#x10f;" horiz-adv-x="694" 
d="M453 0v89q-28 -50 -71.5 -76.5t-99.5 -26.5q-69 0 -123.5 33.5t-85.5 93.5t-31 135q0 74 32.5 134t86.5 94t116 34q61 0 107 -27.5t69 -76.5v294h78v-700h-78zM376.5 81.5q38.5 23.5 60.5 67t22 99.5t-22 99.5t-60.5 67t-85.5 23.5t-85.5 -23.5t-61 -67t-22.5 -99.5
t22.5 -99.5t61 -67t85.5 -23.5t85.5 23.5zM607 518l36 94h-35v88h86v-88l-65 -107z" />
    <glyph glyph-name="Dcroat" unicode="&#x110;" horiz-adv-x="717" 
d="M112 385v315h193q104 0 184.5 -41.5t126 -120.5t45.5 -188t-45.5 -188t-126 -120.5t-184.5 -41.5h-193v315h-72v70h72zM501 143q74 69 74 207t-74 207t-201 69h-104v-241h154v-70h-154v-241h104q127 0 201 69z" />
    <glyph glyph-name="dcroat" unicode="&#x111;" horiz-adv-x="607" 
d="M453 0v89q-28 -50 -71.5 -76.5t-99.5 -26.5q-69 0 -123.5 33.5t-85.5 93.5t-31 135q0 74 32.5 134t86.5 94t116 34q61 0 107 -27.5t69 -76.5v294h78v-700h-78zM376.5 81.5q38.5 23.5 60.5 67t22 99.5t-22 99.5t-60.5 67t-85.5 23.5t-85.5 -23.5t-61 -67t-22.5 -99.5
t22.5 -99.5t61 -67t85.5 -23.5t85.5 23.5zM289 632h307v-64h-307v64z" />
    <glyph glyph-name="Emacron" unicode="&#x112;" horiz-adv-x="597" 
d="M526 700v-74h-354v-227h326v-74h-326v-251h357v-74h-441v700h438zM197 874h220v-70h-220v70z" />
    <glyph glyph-name="emacron" unicode="&#x113;" horiz-adv-x="574" 
d="M412.5 15.5q-52.5 -29.5 -124.5 -29.5q-67 0 -123.5 33.5t-89.5 93.5t-33 135t33 135t90 93.5t126 33.5q73 0 127 -31.5t83 -87.5t29 -129v-27h-410q4 -80 50 -131.5t121 -51.5q100 0 150 82l56 -35q-32 -54 -84.5 -83.5zM183 404.5q-43 -39.5 -57 -105.5h326
q-2 45 -26 78t-60 50t-75 17q-65 0 -108 -39.5zM177 670h220v-70h-220v70z" />
    <glyph glyph-name="Ebreve" unicode="&#x114;" horiz-adv-x="597" 
d="M526 700v-74h-354v-227h326v-74h-326v-251h357v-74h-441v700h438zM233 801q-29 29 -29 75h64q0 -20 10 -32t29 -12t29 12t10 32h64q0 -46 -29 -75t-74 -29t-74 29z" />
    <glyph glyph-name="ebreve" unicode="&#x115;" horiz-adv-x="574" 
d="M412.5 15.5q-52.5 -29.5 -124.5 -29.5q-67 0 -123.5 33.5t-89.5 93.5t-33 135t33 135t90 93.5t126 33.5q73 0 127 -31.5t83 -87.5t29 -129v-27h-410q4 -80 50 -131.5t121 -51.5q100 0 150 82l56 -35q-32 -54 -84.5 -83.5zM183 404.5q-43 -39.5 -57 -105.5h326
q-2 45 -26 78t-60 50t-75 17q-65 0 -108 -39.5zM213 597q-29 29 -29 75h64q0 -20 10 -32t29 -12t29 12t10 32h64q0 -46 -29 -75t-74 -29t-74 29z" />
    <glyph glyph-name="Edotaccent" unicode="&#x116;" horiz-adv-x="597" 
d="M526 700v-74h-354v-227h326v-74h-326v-251h357v-74h-441v700h438zM260 884h94v-98h-94v98z" />
    <glyph glyph-name="edotaccent" unicode="&#x117;" horiz-adv-x="574" 
d="M412.5 15.5q-52.5 -29.5 -124.5 -29.5q-67 0 -123.5 33.5t-89.5 93.5t-33 135t33 135t90 93.5t126 33.5q73 0 127 -31.5t83 -87.5t29 -129v-27h-410q4 -80 50 -131.5t121 -51.5q100 0 150 82l56 -35q-32 -54 -84.5 -83.5zM183 404.5q-43 -39.5 -57 -105.5h326
q-2 45 -26 78t-60 50t-75 17q-65 0 -108 -39.5zM240 680h94v-98h-94v98z" />
    <glyph glyph-name="Eogonek" unicode="&#x118;" horiz-adv-x="597" 
d="M526 700v-74h-354v-227h326v-74h-326v-251h357v-74h-441v700h438zM417.5 -173.5q-30.5 24.5 -30.5 68.5q0 69 77 114l65 -9q-71 -38 -71 -83q0 -21 13 -33t36 -12q5 0 19 2l9 -66q-21 -6 -45 -6q-42 0 -72.5 24.5z" />
    <glyph glyph-name="eogonek" unicode="&#x119;" horiz-adv-x="574" 
d="M412.5 15.5q-52.5 -29.5 -124.5 -29.5q-67 0 -123.5 33.5t-89.5 93.5t-33 135t33 135t90 93.5t126 33.5q73 0 127 -31.5t83 -87.5t29 -129v-27h-410q4 -80 50 -131.5t121 -51.5q100 0 150 82l56 -35q-32 -54 -84.5 -83.5zM183 404.5q-43 -39.5 -57 -105.5h326
q-2 45 -26 78t-60 50t-75 17q-65 0 -108 -39.5zM265.5 -173.5q-30.5 24.5 -30.5 68.5q0 69 77 114l65 -9q-71 -38 -71 -83q0 -21 13 -33t36 -12q5 0 19 2l9 -66q-21 -6 -45 -6q-42 0 -72.5 24.5z" />
    <glyph glyph-name="Ecaron" unicode="&#x11a;" horiz-adv-x="597" 
d="M526 700v-74h-354v-227h326v-74h-326v-251h357v-74h-441v700h438zM173 904h68l66 -68l66 68h68l-100 -138h-68z" />
    <glyph glyph-name="ecaron" unicode="&#x11b;" horiz-adv-x="574" 
d="M412.5 15.5q-52.5 -29.5 -124.5 -29.5q-67 0 -123.5 33.5t-89.5 93.5t-33 135t33 135t90 93.5t126 33.5q73 0 127 -31.5t83 -87.5t29 -129v-27h-410q4 -80 50 -131.5t121 -51.5q100 0 150 82l56 -35q-32 -54 -84.5 -83.5zM183 404.5q-43 -39.5 -57 -105.5h326
q-2 45 -26 78t-60 50t-75 17q-65 0 -108 -39.5zM153 700h68l66 -68l66 68h68l-100 -138h-68z" />
    <glyph glyph-name="Gcircumflex" unicode="&#x11c;" horiz-adv-x="758" 
d="M216 33q-76 47 -118 130t-42 187q0 102 46.5 185.5t125 131t170.5 47.5q86 0 156 -33t116 -92l-51 -60q-48 58 -101.5 84.5t-120.5 26.5q-68 0 -126.5 -37t-93.5 -103.5t-35 -149.5q0 -85 31 -151t87.5 -102.5t131.5 -36.5q68 0 119.5 22.5t91.5 70.5v128h-193v70h277
v-225q-50 -67 -126.5 -103.5t-171.5 -36.5q-97 0 -173 47zM363 904h68l100 -138h-68l-66 68l-66 -68h-68z" />
    <glyph glyph-name="gcircumflex" unicode="&#x11d;" horiz-adv-x="587" 
d="M142.5 -183.5q-55.5 34.5 -75.5 85.5l67 35q18 -40 56.5 -62.5t91.5 -22.5q82 0 120.5 43t38.5 130v85q-25 -48 -68.5 -75t-98.5 -27q-65 0 -117.5 31t-83.5 88t-31 132q0 77 31 134t83 87t115 30q59 0 104.5 -27.5t65.5 -75.5v89h78v-470q0 -115 -62 -179.5t-175 -64.5
q-84 0 -139.5 34.5zM367 100q37 22 58.5 63t21.5 96t-21.5 96t-58.5 63t-84 22q-71 0 -116 -49t-45 -132t45 -132t116 -49q47 0 84 22zM248 700h68l100 -138h-68l-66 68l-66 -68h-68z" />
    <glyph glyph-name="Gbreve" unicode="&#x11e;" horiz-adv-x="758" 
d="M216 33q-76 47 -118 130t-42 187q0 102 46.5 185.5t125 131t170.5 47.5q86 0 156 -33t116 -92l-51 -60q-48 58 -101.5 84.5t-120.5 26.5q-68 0 -126.5 -37t-93.5 -103.5t-35 -149.5q0 -85 31 -151t87.5 -102.5t131.5 -36.5q68 0 119.5 22.5t91.5 70.5v128h-193v70h277
v-225q-50 -67 -126.5 -103.5t-171.5 -36.5q-97 0 -173 47zM323 801q-29 29 -29 75h64q0 -20 10 -32t29 -12t29 12t10 32h64q0 -46 -29 -75t-74 -29t-74 29z" />
    <glyph glyph-name="gbreve" unicode="&#x11f;" horiz-adv-x="587" 
d="M142.5 -183.5q-55.5 34.5 -75.5 85.5l67 35q18 -40 56.5 -62.5t91.5 -22.5q82 0 120.5 43t38.5 130v85q-25 -48 -68.5 -75t-98.5 -27q-65 0 -117.5 31t-83.5 88t-31 132q0 77 31 134t83 87t115 30q59 0 104.5 -27.5t65.5 -75.5v89h78v-470q0 -115 -62 -179.5t-175 -64.5
q-84 0 -139.5 34.5zM367 100q37 22 58.5 63t21.5 96t-21.5 96t-58.5 63t-84 22q-71 0 -116 -49t-45 -132t45 -132t116 -49q47 0 84 22zM208 597q-29 29 -29 75h64q0 -20 10 -32t29 -12t29 12t10 32h64q0 -46 -29 -75t-74 -29t-74 29z" />
    <glyph glyph-name="Gdotaccent" unicode="&#x120;" horiz-adv-x="758" 
d="M216 33q-76 47 -118 130t-42 187q0 102 46.5 185.5t125 131t170.5 47.5q86 0 156 -33t116 -92l-51 -60q-48 58 -101.5 84.5t-120.5 26.5q-68 0 -126.5 -37t-93.5 -103.5t-35 -149.5q0 -85 31 -151t87.5 -102.5t131.5 -36.5q68 0 119.5 22.5t91.5 70.5v128h-193v70h277
v-225q-50 -67 -126.5 -103.5t-171.5 -36.5q-97 0 -173 47zM350 884h94v-98h-94v98z" />
    <glyph glyph-name="gdotaccent" unicode="&#x121;" horiz-adv-x="587" 
d="M142.5 -183.5q-55.5 34.5 -75.5 85.5l67 35q18 -40 56.5 -62.5t91.5 -22.5q82 0 120.5 43t38.5 130v85q-25 -48 -68.5 -75t-98.5 -27q-65 0 -117.5 31t-83.5 88t-31 132q0 77 31 134t83 87t115 30q59 0 104.5 -27.5t65.5 -75.5v89h78v-470q0 -115 -62 -179.5t-175 -64.5
q-84 0 -139.5 34.5zM367 100q37 22 58.5 63t21.5 96t-21.5 96t-58.5 63t-84 22q-71 0 -116 -49t-45 -132t45 -132t116 -49q47 0 84 22zM235 680h94v-98h-94v98z" />
    <glyph glyph-name="Gcommaaccent" unicode="&#x122;" horiz-adv-x="758" 
d="M216 33q-76 47 -118 130t-42 187q0 102 46.5 185.5t125 131t170.5 47.5q86 0 156 -33t116 -92l-51 -60q-48 58 -101.5 84.5t-120.5 26.5q-68 0 -126.5 -37t-93.5 -103.5t-35 -149.5q0 -85 31 -151t87.5 -102.5t131.5 -36.5q68 0 119.5 22.5t91.5 70.5v128h-193v70h277
v-225q-50 -67 -126.5 -103.5t-171.5 -36.5q-97 0 -173 47zM436 -60v-98l-70 -127l-24 9l33 118h-33v98h94z" />
    <glyph glyph-name="gcommaaccent" unicode="&#x123;" horiz-adv-x="587" 
d="M142.5 -183.5q-55.5 34.5 -75.5 85.5l67 35q18 -40 56.5 -62.5t91.5 -22.5q82 0 120.5 43t38.5 130v85q-25 -48 -68.5 -75t-98.5 -27q-65 0 -117.5 31t-83.5 88t-31 132q0 77 31 134t83 87t115 30q59 0 104.5 -27.5t65.5 -75.5v89h78v-470q0 -115 -62 -179.5t-175 -64.5
q-84 0 -139.5 34.5zM367 100q37 22 58.5 63t21.5 96t-21.5 96t-58.5 63t-84 22q-71 0 -116 -49t-45 -132t45 -132t116 -49q47 0 84 22zM229 661l86 111l20 -15l-49 -96h37v-98h-94v98z" />
    <glyph glyph-name="Hcircumflex" unicode="&#x124;" horiz-adv-x="690" 
d="M172 700v-306h346v306h84v-700h-84v320h-346v-320h-84v700h84zM311 904h68l100 -138h-68l-66 68l-66 -68h-68z" />
    <glyph glyph-name="hcircumflex" unicode="&#x125;" horiz-adv-x="577" 
d="M423 0v321q0 57 -33.5 88t-87.5 31q-39 0 -73 -20.5t-54.5 -58t-20.5 -86.5v-275h-78v700h78v-291q24 46 70 73.5t99 27.5q75 0 126.5 -44.5t51.5 -130.5v-335h-78zM155 904h68l100 -138h-68l-66 68l-66 -68h-68z" />
    <glyph glyph-name="Hbar" unicode="&#x126;" horiz-adv-x="690" 
d="M172 700v-306h346v306h84v-700h-84v320h-346v-320h-84v700h84zM-12 566h714v-70h-714v70z" />
    <glyph glyph-name="hbar" unicode="&#x127;" horiz-adv-x="577" 
d="M423 0v321q0 57 -33.5 88t-87.5 31q-39 0 -73 -20.5t-54.5 -58t-20.5 -86.5v-275h-78v700h78v-291q24 46 70 73.5t99 27.5q75 0 126.5 -44.5t51.5 -130.5v-335h-78zM10 632h307v-64h-307v64z" />
    <glyph glyph-name="Itilde" unicode="&#x128;" horiz-adv-x="320" 
d="M202 628v-556h72v-72h-228v72h72v556h-72v72h228v-72h-72zM182.5 775q-19.5 10 -42.5 30q-15 14 -26 20.5t-26 6.5q-12 0 -20.5 -8t-8.5 -19q0 -12 7 -26l-60 -12q-12 18 -12 46q0 37 27 58.5t63 21.5q34 0 53.5 -10t42.5 -30q15 -14 26 -20.5t26 -6.5q12 0 20.5 8
t8.5 19q0 12 -7 26l60 12q12 -18 12 -46q0 -38 -27 -59t-63 -21q-34 0 -53.5 10z" />
    <glyph glyph-name="itilde" unicode="&#x129;" horiz-adv-x="230" 
d="M154 496v-496h-78v496h78zM137.5 571q-19.5 10 -42.5 30q-15 14 -26 20.5t-26 6.5q-12 0 -20.5 -8t-8.5 -19q0 -12 7 -26l-60 -12q-12 18 -12 46q0 37 27 58.5t63 21.5q34 0 53.5 -10t42.5 -30q15 -14 26 -20.5t26 -6.5q12 0 20.5 8t8.5 19q0 12 -7 26l60 12
q12 -18 12 -46q0 -38 -27 -59t-63 -21q-34 0 -53.5 10z" />
    <glyph glyph-name="Imacron" unicode="&#x12a;" horiz-adv-x="320" 
d="M202 628v-556h72v-72h-228v72h72v556h-72v72h228v-72h-72zM50 874h220v-70h-220v70z" />
    <glyph glyph-name="imacron" unicode="&#x12b;" horiz-adv-x="230" 
d="M154 496v-496h-78v496h78zM5 670h220v-70h-220v70z" />
    <glyph glyph-name="Ibreve" unicode="&#x12c;" horiz-adv-x="320" 
d="M202 628v-556h72v-72h-228v72h72v556h-72v72h228v-72h-72zM86 801q-29 29 -29 75h64q0 -20 10 -32t29 -12t29 12t10 32h64q0 -46 -29 -75t-74 -29t-74 29z" />
    <glyph glyph-name="ibreve" unicode="&#x12d;" horiz-adv-x="230" 
d="M154 496v-496h-78v496h78zM41 597q-29 29 -29 75h64q0 -20 10 -32t29 -12t29 12t10 32h64q0 -46 -29 -75t-74 -29t-74 29z" />
    <glyph glyph-name="Iogonek" unicode="&#x12e;" horiz-adv-x="320" 
d="M202 628v-556h72v-72h-228v72h72v556h-72v72h228v-72h-72zM90.5 -173.5q-30.5 24.5 -30.5 68.5q0 69 77 114l65 -9q-71 -38 -71 -83q0 -21 13 -33t36 -12q5 0 19 2l9 -66q-21 -6 -45 -6q-42 0 -72.5 24.5z" />
    <glyph glyph-name="iogonek" unicode="&#x12f;" horiz-adv-x="230" 
d="M68 680h94v-98h-94v98zM42.5 -173.5q-30.5 24.5 -30.5 68.5q0 62 64 106v495h78v-496q-71 -38 -71 -83q0 -21 13 -33t36 -12q5 0 19 2l9 -66q-21 -6 -45 -6q-42 0 -72.5 24.5z" />
    <glyph glyph-name="Idotaccent" unicode="&#x130;" horiz-adv-x="320" 
d="M202 628v-556h72v-72h-228v72h72v556h-72v72h228v-72h-72zM113 884h94v-98h-94v98z" />
    <glyph glyph-name="dotlessi" unicode="&#x131;" horiz-adv-x="230" 
d="M154 496v-496h-78v496h78z" />
    <glyph glyph-name="IJ" unicode="&#x132;" horiz-adv-x="659" 
d="M202 628v-556h72v-72h-228v72h72v556h-72v72h228v-72h-72zM613 628h-72v-430q0 -98 -51 -155t-135 -57q-11 0 -22 3v75q11 -4 22 -4q47 0 74.5 36t27.5 103v429h-72v72h228v-72z" />
    <glyph glyph-name="ij" unicode="&#x133;" horiz-adv-x="460" 
d="M154 496v-496h-78v496h78zM68 680h94v-98h-94v98zM298 680h94v-98h-94v98zM201 -203l10 70q19 -8 39 -8q31 0 43.5 16t12.5 54v567h78v-554q0 -72 -31 -112.5t-104 -40.5q-19 0 -48 8z" />
    <glyph glyph-name="Jcircumflex" unicode="&#x134;" horiz-adv-x="358" 
d="M312 628h-72v-430q0 -98 -51 -155t-135 -57q-11 0 -22 3v75q11 -4 22 -4q47 0 74.5 36t27.5 103v429h-72v72h228v-72zM164 904h68l100 -138h-68l-66 68l-66 -68h-68z" />
    <glyph glyph-name="jcircumflex" unicode="&#x135;" horiz-adv-x="230" 
d="M20 -141q31 0 43.5 16t12.5 54v567h78v-554q0 -72 -31 -112.5t-104 -40.5q-19 0 -48 8l10 70q19 -8 39 -8zM81 700h68l100 -138h-68l-66 68l-66 -68h-68z" />
    <glyph glyph-name="Kcommaaccent" unicode="&#x136;" horiz-adv-x="619" 
d="M88 700h84v-319l58 64l242 255h105l-244 -259l264 -441h-98l-226 378l-101 -107v-271h-84v700zM367 -60v-98l-70 -127l-24 9l33 118h-33v98h94z" />
    <glyph glyph-name="kcommaaccent" unicode="&#x137;" horiz-adv-x="495" 
d="M76 700h78v-408l182 204h93l-196 -220l222 -276h-92l-209 257v-257h-78v700zM299 -60v-98l-70 -127l-24 9l33 118h-33v98h94z" />
    <glyph glyph-name="kgreenlandic" unicode="&#x138;" horiz-adv-x="495" 
d="M76 496h78v-204l182 204h93l-196 -220l222 -276h-92l-209 257v-257h-78v496z" />
    <glyph glyph-name="Lacute" unicode="&#x139;" horiz-adv-x="573" 
d="M88 700h84v-626h351v-74h-435v700zM153 904h107l-100 -138h-71z" />
    <glyph glyph-name="lacute" unicode="&#x13a;" horiz-adv-x="230" 
d="M154 700v-700h-78v700h78zM123 904h107l-100 -138h-71z" />
    <glyph glyph-name="Lcommaaccent" unicode="&#x13b;" horiz-adv-x="573" 
d="M88 700h84v-626h351v-74h-435v700zM352 -60v-98l-70 -127l-24 9l33 118h-33v98h94z" />
    <glyph glyph-name="lcommaaccent" unicode="&#x13c;" horiz-adv-x="230" 
d="M154 700v-700h-78v700h78zM162 -60v-98l-70 -127l-24 9l33 118h-33v98h94z" />
    <glyph glyph-name="Lcaron" unicode="&#x13d;" horiz-adv-x="573" 
d="M88 700h84v-626h351v-74h-435v700zM436 518l36 94h-35v88h86v-88l-65 -107z" />
    <glyph glyph-name="lcaron" unicode="&#x13e;" horiz-adv-x="317" 
d="M154 700v-700h-78v700h78zM230 518l36 94h-35v88h86v-88l-65 -107z" />
    <glyph glyph-name="Ldot" unicode="&#x13f;" horiz-adv-x="573" 
d="M88 700h84v-626h351v-74h-435v700zM369 399h94v-98h-94v98z" />
    <glyph glyph-name="ldot" unicode="&#x140;" horiz-adv-x="324" 
d="M154 700v-700h-78v700h78zM230 399h94v-98h-94v98z" />
    <glyph glyph-name="Lslash" unicode="&#x141;" horiz-adv-x="573" 
d="M88 700h84v-626h351v-74h-435v700zM1 242l331 210v-84l-331 -210v84z" />
    <glyph glyph-name="lslash" unicode="&#x142;" horiz-adv-x="230" 
d="M154 700v-700h-78v700h78zM2 242l226 143v-78l-226 -143v78z" />
    <glyph glyph-name="Nacute" unicode="&#x143;" horiz-adv-x="708" 
d="M177 700l333 -527q4 -6 15 -26t15 -29v582h80v-700h-89l-333 527q-4 6 -15 26t-15 29v-582h-80v700h89zM362 904h107l-100 -138h-71z" />
    <glyph glyph-name="nacute" unicode="&#x144;" horiz-adv-x="571" 
d="M417 0v323q0 57 -32.5 87t-86.5 30q-38 0 -71 -20.5t-53 -58t-20 -86.5v-275h-78v496h78v-87q27 47 70.5 74t96.5 27q73 0 123.5 -43.5t50.5 -129.5v-337h-78zM304 700h107l-100 -138h-71z" />
    <glyph glyph-name="Ncommaaccent" unicode="&#x145;" horiz-adv-x="708" 
d="M177 700l333 -527q4 -6 15 -26t15 -29v582h80v-700h-89l-333 527q-4 6 -15 26t-15 29v-582h-80v700h89zM401 -60v-98l-70 -127l-24 9l33 118h-33v98h94z" />
    <glyph glyph-name="ncommaaccent" unicode="&#x146;" horiz-adv-x="571" 
d="M417 0v323q0 57 -32.5 87t-86.5 30q-38 0 -71 -20.5t-53 -58t-20 -86.5v-275h-78v496h78v-87q27 47 70.5 74t96.5 27q73 0 123.5 -43.5t50.5 -129.5v-337h-78zM333 -60v-98l-70 -127l-24 9l33 118h-33v98h94z" />
    <glyph glyph-name="Ncaron" unicode="&#x147;" horiz-adv-x="708" 
d="M177 700l333 -527q4 -6 15 -26t15 -29v582h80v-700h-89l-333 527q-4 6 -15 26t-15 29v-582h-80v700h89zM220 904h68l66 -68l66 68h68l-100 -138h-68z" />
    <glyph glyph-name="ncaron" unicode="&#x148;" horiz-adv-x="571" 
d="M417 0v323q0 57 -32.5 87t-86.5 30q-38 0 -71 -20.5t-53 -58t-20 -86.5v-275h-78v496h78v-87q27 47 70.5 74t96.5 27q73 0 123.5 -43.5t50.5 -129.5v-337h-78zM162 700h68l66 -68l66 68h68l-100 -138h-68z" />
    <glyph glyph-name="napostrophe" unicode="&#x149;" horiz-adv-x="637" 
d="M104 632h-37v98h94v-98l-86 -108l-21 14zM483 0v323q0 57 -32.5 87t-86.5 30q-38 0 -71 -20.5t-53 -58t-20 -86.5v-275h-78v496h78v-87q27 47 70.5 74t96.5 27q73 0 123.5 -43.5t50.5 -129.5v-337h-78z" />
    <glyph glyph-name="Eng" unicode="&#x14a;" horiz-adv-x="708" 
d="M392 -213q-24 5 -39 13l30 71q10 -6 28 -10.5t37 -4.5q47 0 69.5 31t22.5 88v25l-342 520q-4 6 -15 26t-15 29v-575h-80v700h86l336 -514q4 -6 15 -26t15 -29v569h80v-717q0 -96 -44.5 -148.5t-131.5 -52.5q-28 0 -52 5z" />
    <glyph glyph-name="eng" unicode="&#x14b;" horiz-adv-x="571" 
d="M312 -203l10 70q19 -8 39 -8q31 0 43.5 16.5t12.5 54.5v393q0 57 -32.5 87t-86.5 30q-38 0 -71 -20.5t-53 -58t-20 -86.5v-275h-78v496h78v-87q27 47 70.5 74t96.5 27q73 0 123.5 -43.5t50.5 -129.5v-395q0 -72 -31 -112.5t-104 -40.5q-19 0 -48 8z" />
    <glyph glyph-name="Omacron" unicode="&#x14c;" horiz-adv-x="788" 
d="M687 160.5q-45 -82.5 -122 -128.5t-171 -46t-171 46t-122 128.5t-45 189.5t45 189.5t122 128.5t171 46t171 -46t122 -128.5t45 -189.5t-45 -189.5zM523.5 96.5q57.5 36.5 90 102.5t32.5 151t-33 151t-90 102.5t-129 36.5t-129.5 -36.5t-90 -102.5t-32.5 -151t33 -151
t90 -102.5t129 -36.5t129.5 36.5zM284 874h220v-70h-220v70z" />
    <glyph glyph-name="omacron" unicode="&#x14d;" horiz-adv-x="602" 
d="M522.5 107.5q-37.5 -59.5 -97.5 -90.5t-124 -31t-124 31t-97.5 90.5t-37.5 140.5t37.5 140.5t97.5 90.5t124 31t124 -31t97.5 -90.5t37.5 -140.5t-37.5 -140.5zM392 81q41 25 64.5 68.5t23.5 98.5t-23.5 98.5t-64.5 68.5t-91 25t-91 -25t-64.5 -68.5t-23.5 -98.5
t23.5 -98.5t64.5 -68.5t91 -25t91 25zM191 670h220v-70h-220v70z" />
    <glyph glyph-name="Obreve" unicode="&#x14e;" horiz-adv-x="788" 
d="M687 160.5q-45 -82.5 -122 -128.5t-171 -46t-171 46t-122 128.5t-45 189.5t45 189.5t122 128.5t171 46t171 -46t122 -128.5t45 -189.5t-45 -189.5zM523.5 96.5q57.5 36.5 90 102.5t32.5 151t-33 151t-90 102.5t-129 36.5t-129.5 -36.5t-90 -102.5t-32.5 -151t33 -151
t90 -102.5t129 -36.5t129.5 36.5zM320 801q-29 29 -29 75h64q0 -20 10 -32t29 -12t29 12t10 32h64q0 -46 -29 -75t-74 -29t-74 29z" />
    <glyph glyph-name="obreve" unicode="&#x14f;" horiz-adv-x="602" 
d="M522.5 107.5q-37.5 -59.5 -97.5 -90.5t-124 -31t-124 31t-97.5 90.5t-37.5 140.5t37.5 140.5t97.5 90.5t124 31t124 -31t97.5 -90.5t37.5 -140.5t-37.5 -140.5zM392 81q41 25 64.5 68.5t23.5 98.5t-23.5 98.5t-64.5 68.5t-91 25t-91 -25t-64.5 -68.5t-23.5 -98.5
t23.5 -98.5t64.5 -68.5t91 -25t91 25zM227 597q-29 29 -29 75h64q0 -20 10 -32t29 -12t29 12t10 32h64q0 -46 -29 -75t-74 -29t-74 29z" />
    <glyph glyph-name="Ohungarumlaut" unicode="&#x150;" horiz-adv-x="788" 
d="M687 160.5q-45 -82.5 -122 -128.5t-171 -46t-171 46t-122 128.5t-45 189.5t45 189.5t122 128.5t171 46t171 -46t122 -128.5t45 -189.5t-45 -189.5zM523.5 96.5q57.5 36.5 90 102.5t32.5 151t-33 151t-90 102.5t-129 36.5t-129.5 -36.5t-90 -102.5t-32.5 -151t33 -151
t90 -102.5t129 -36.5t129.5 36.5zM324 904h107l-100 -138h-71zM480 904h107l-100 -138h-71z" />
    <glyph glyph-name="ohungarumlaut" unicode="&#x151;" horiz-adv-x="602" 
d="M522.5 107.5q-37.5 -59.5 -97.5 -90.5t-124 -31t-124 31t-97.5 90.5t-37.5 140.5t37.5 140.5t97.5 90.5t124 31t124 -31t97.5 -90.5t37.5 -140.5t-37.5 -140.5zM392 81q41 25 64.5 68.5t23.5 98.5t-23.5 98.5t-64.5 68.5t-91 25t-91 -25t-64.5 -68.5t-23.5 -98.5
t23.5 -98.5t64.5 -68.5t91 -25t91 25zM231 700h107l-100 -138h-71zM387 700h107l-100 -138h-71z" />
    <glyph glyph-name="OE" unicode="&#x152;" horiz-adv-x="1157" 
d="M223 32q-77 46 -122 128.5t-45 189.5t45 189.5t122 128.5t171 46q84 0 150 -33.5t104 -100.5v120h438v-74h-354v-227h326v-74h-326v-251h357v-74h-441v126q-44 -68 -109 -104t-145 -36q-94 0 -171 46zM523.5 96.5q57.5 36.5 90 102.5t32.5 151t-33 151t-90 102.5
t-129 36.5t-129.5 -36.5t-90 -102.5t-32.5 -151t33 -151t90 -102.5t129 -36.5t129.5 36.5z" />
    <glyph glyph-name="oe" unicode="&#x153;" horiz-adv-x="1014" 
d="M177 17q-60 31 -97.5 90.5t-37.5 140.5t37.5 140.5t97.5 90.5t124 31q63 0 123 -31.5t96 -87.5q33 55 89 87t122 32q73 0 127 -31.5t83 -87.5t29 -129v-27h-410q4 -80 50 -131.5t121 -51.5q63 0 101.5 29.5t65.5 83.5l57 -34q-36 -71 -91 -108t-136 -37
q-65 0 -120.5 31.5t-87.5 87.5q-36 -57 -95.5 -88t-123.5 -31t-124 31zM892 299q-2 45 -26 78t-60 50t-75 17q-65 0 -108 -39.5t-57 -105.5h326zM392 81q41 25 64.5 68.5t23.5 98.5t-23.5 98.5t-64.5 68.5t-91 25t-91 -25t-64.5 -68.5t-23.5 -98.5t23.5 -98.5t64.5 -68.5
t91 -25t91 25z" />
    <glyph glyph-name="Racute" unicode="&#x154;" horiz-adv-x="640" 
d="M172 304v-304h-84v700h279q68 0 119 -25.5t78.5 -70.5t27.5 -102q0 -73 -46 -125t-125 -68l175 -309h-94l-172 304h-158zM352 378q75 0 115.5 32t40.5 92t-40.5 92t-115.5 32h-180v-248h180zM318 904h107l-100 -138h-71z" />
    <glyph glyph-name="racute" unicode="&#x155;" horiz-adv-x="348" 
d="M76 496h78v-90q22 47 58 75.5t86 28.5q13 0 28 -3v-78q-18 9 -46 9q-34 0 -63 -20.5t-46 -58.5t-17 -88v-271h-78v496zM207 700h107l-100 -138h-71z" />
    <glyph glyph-name="Rcommaaccent" unicode="&#x156;" horiz-adv-x="640" 
d="M172 304v-304h-84v700h279q68 0 119 -25.5t78.5 -70.5t27.5 -102q0 -73 -46 -125t-125 -68l175 -309h-94l-172 304h-158zM352 378q75 0 115.5 32t40.5 92t-40.5 92t-115.5 32h-180v-248h180zM367 -60v-98l-70 -127l-24 9l33 118h-33v98h94z" />
    <glyph glyph-name="rcommaaccent" unicode="&#x157;" horiz-adv-x="348" 
d="M76 496h78v-90q22 47 58 75.5t86 28.5q13 0 28 -3v-78q-18 9 -46 9q-34 0 -63 -20.5t-46 -58.5t-17 -88v-271h-78v496zM162 -60v-98l-70 -127l-24 9l33 118h-33v98h94z" />
    <glyph glyph-name="Rcaron" unicode="&#x158;" horiz-adv-x="640" 
d="M172 304v-304h-84v700h279q68 0 119 -25.5t78.5 -70.5t27.5 -102q0 -73 -46 -125t-125 -68l175 -309h-94l-172 304h-158zM352 378q75 0 115.5 32t40.5 92t-40.5 92t-115.5 32h-180v-248h180zM176 904h68l66 -68l66 68h68l-100 -138h-68z" />
    <glyph glyph-name="rcaron" unicode="&#x159;" horiz-adv-x="348" 
d="M76 496h78v-90q22 47 58 75.5t86 28.5q13 0 28 -3v-78q-18 9 -46 9q-34 0 -63 -20.5t-46 -58.5t-17 -88v-271h-78v496zM65 700h68l66 -68l66 68h68l-100 -138h-68z" />
    <glyph glyph-name="Sacute" unicode="&#x15a;" horiz-adv-x="649" 
d="M171.5 26q-69.5 40 -102.5 101l60 66q27 -62 80 -97.5t123 -35.5q53 0 91 17.5t58 47t20 64.5q0 59 -45.5 92t-139.5 50q-107 19 -168.5 68t-61.5 133q0 53 30 94.5t83.5 64.5t120.5 23q78 0 138.5 -33.5t95.5 -90.5l-57 -54q-34 51 -77 78.5t-100 27.5q-67 0 -109.5 -29
t-42.5 -81q0 -51 46.5 -83t144.5 -50q114 -21 170 -71t56 -133q0 -58 -32 -105.5t-89.5 -75.5t-131.5 -28q-91 0 -160.5 40zM328 904h107l-100 -138h-71z" />
    <glyph glyph-name="sacute" unicode="&#x15b;" horiz-adv-x="491" 
d="M137.5 15q-50.5 29 -78.5 78l56 55q17 -42 54.5 -68t85.5 -26q51 0 82.5 23.5t31.5 64.5q0 36 -30.5 56.5t-96.5 32.5q-74 14 -120 49.5t-46 95.5q0 61 50 97.5t121 36.5q63 0 107.5 -24.5t69.5 -65.5l-46 -46q-30 38 -60.5 54t-69.5 16q-44 0 -72 -16.5t-28 -48.5
q0 -36 33.5 -56t98.5 -32q82 -16 124.5 -51t42.5 -95q0 -43 -23 -79t-66.5 -58t-102.5 -22q-67 0 -117.5 29zM254 700h107l-100 -138h-71z" />
    <glyph glyph-name="Scircumflex" unicode="&#x15c;" horiz-adv-x="649" 
d="M171.5 26q-69.5 40 -102.5 101l60 66q27 -62 80 -97.5t123 -35.5q53 0 91 17.5t58 47t20 64.5q0 59 -45.5 92t-139.5 50q-107 19 -168.5 68t-61.5 133q0 53 30 94.5t83.5 64.5t120.5 23q78 0 138.5 -33.5t95.5 -90.5l-57 -54q-34 51 -77 78.5t-100 27.5q-67 0 -109.5 -29
t-42.5 -81q0 -51 46.5 -83t144.5 -50q114 -21 170 -71t56 -133q0 -58 -32 -105.5t-89.5 -75.5t-131.5 -28q-91 0 -160.5 40zM286 904h68l100 -138h-68l-66 68l-66 -68h-68z" />
    <glyph glyph-name="scircumflex" unicode="&#x15d;" horiz-adv-x="491" 
d="M137.5 15q-50.5 29 -78.5 78l56 55q17 -42 54.5 -68t85.5 -26q51 0 82.5 23.5t31.5 64.5q0 36 -30.5 56.5t-96.5 32.5q-74 14 -120 49.5t-46 95.5q0 61 50 97.5t121 36.5q63 0 107.5 -24.5t69.5 -65.5l-46 -46q-30 38 -60.5 54t-69.5 16q-44 0 -72 -16.5t-28 -48.5
q0 -36 33.5 -56t98.5 -32q82 -16 124.5 -51t42.5 -95q0 -43 -23 -79t-66.5 -58t-102.5 -22q-67 0 -117.5 29zM212 700h68l100 -138h-68l-66 68l-66 -68h-68z" />
    <glyph glyph-name="Scedilla" unicode="&#x15e;" horiz-adv-x="649" 
d="M171.5 26q-69.5 40 -102.5 101l60 66q27 -62 80 -97.5t123 -35.5q53 0 91 17.5t58 47t20 64.5q0 59 -45.5 92t-139.5 50q-107 19 -168.5 68t-61.5 133q0 53 30 94.5t83.5 64.5t120.5 23q78 0 138.5 -33.5t95.5 -90.5l-57 -54q-34 51 -77 78.5t-100 27.5q-67 0 -109.5 -29
t-42.5 -81q0 -51 46.5 -83t144.5 -50q114 -21 170 -71t56 -133q0 -58 -32 -105.5t-89.5 -75.5t-131.5 -28q-91 0 -160.5 40zM268.5 -188q-22.5 16 -29.5 45l48 12q4 -11 14 -19t23 -8q16 0 25.5 10t9.5 27q0 16 -10 25.5t-27 9.5q-24 0 -47 -18l-31 28l34 92h54l-37 -71
q19 11 44 11q32 0 54 -21.5t22 -55.5q0 -39 -26 -61t-65 -22q-33 0 -55.5 16z" />
    <glyph glyph-name="scedilla" unicode="&#x15f;" horiz-adv-x="491" 
d="M137.5 15q-50.5 29 -78.5 78l56 55q17 -42 54.5 -68t85.5 -26q51 0 82.5 23.5t31.5 64.5q0 36 -30.5 56.5t-96.5 32.5q-74 14 -120 49.5t-46 95.5q0 61 50 97.5t121 36.5q63 0 107.5 -24.5t69.5 -65.5l-46 -46q-30 38 -60.5 54t-69.5 16q-44 0 -72 -16.5t-28 -48.5
q0 -36 33.5 -56t98.5 -32q82 -16 124.5 -51t42.5 -95q0 -43 -23 -79t-66.5 -58t-102.5 -22q-67 0 -117.5 29zM198.5 -188q-22.5 16 -29.5 45l48 12q4 -11 14 -19t23 -8q16 0 25.5 10t9.5 27q0 16 -10 25.5t-27 9.5q-24 0 -47 -18l-31 28l34 92h54l-37 -71q19 11 44 11
q32 0 54 -21.5t22 -55.5q0 -39 -26 -61t-65 -22q-33 0 -55.5 16z" />
    <glyph glyph-name="Scaron" unicode="&#x160;" horiz-adv-x="649" 
d="M171.5 26q-69.5 40 -102.5 101l60 66q27 -62 80 -97.5t123 -35.5q53 0 91 17.5t58 47t20 64.5q0 59 -45.5 92t-139.5 50q-107 19 -168.5 68t-61.5 133q0 53 30 94.5t83.5 64.5t120.5 23q78 0 138.5 -33.5t95.5 -90.5l-57 -54q-34 51 -77 78.5t-100 27.5q-67 0 -109.5 -29
t-42.5 -81q0 -51 46.5 -83t144.5 -50q114 -21 170 -71t56 -133q0 -58 -32 -105.5t-89.5 -75.5t-131.5 -28q-91 0 -160.5 40zM186 904h68l66 -68l66 68h68l-100 -138h-68z" />
    <glyph glyph-name="scaron" unicode="&#x161;" horiz-adv-x="491" 
d="M137.5 15q-50.5 29 -78.5 78l56 55q17 -42 54.5 -68t85.5 -26q51 0 82.5 23.5t31.5 64.5q0 36 -30.5 56.5t-96.5 32.5q-74 14 -120 49.5t-46 95.5q0 61 50 97.5t121 36.5q63 0 107.5 -24.5t69.5 -65.5l-46 -46q-30 38 -60.5 54t-69.5 16q-44 0 -72 -16.5t-28 -48.5
q0 -36 33.5 -56t98.5 -32q82 -16 124.5 -51t42.5 -95q0 -43 -23 -79t-66.5 -58t-102.5 -22q-67 0 -117.5 29zM112 700h68l66 -68l66 68h68l-100 -138h-68z" />
    <glyph glyph-name="uni0162" unicode="&#x162;" horiz-adv-x="558" 
d="M539 700v-74h-218v-626h-84v626h-218v74h520zM249.5 -188q-22.5 16 -29.5 45l48 12q4 -11 14 -19t23 -8q16 0 25.5 10t9.5 27q0 16 -10 25.5t-27 9.5q-24 0 -47 -18l-31 28l34 92h54l-37 -71q19 11 44 11q32 0 54 -21.5t22 -55.5q0 -39 -26 -61t-65 -22q-33 0 -55.5 16z
" />
    <glyph glyph-name="uni0163" unicode="&#x163;" horiz-adv-x="340" 
d="M147 17.5q-35 31.5 -35 101.5v315h-83v62h83v134h78v-134h114v-62h-114v-300q0 -43 13.5 -61.5t54.5 -18.5q23 0 41 6v-66q-27 -8 -63 -8q-54 0 -89 31.5zM158.5 -188q-22.5 16 -29.5 45l48 12q4 -11 14 -19t23 -8q16 0 25.5 10t9.5 27q0 16 -10 25.5t-27 9.5
q-24 0 -47 -18l-31 28l34 92h54l-37 -71q19 11 44 11q32 0 54 -21.5t22 -55.5q0 -39 -26 -61t-65 -22q-33 0 -55.5 16z" />
    <glyph glyph-name="Tcaron" unicode="&#x164;" horiz-adv-x="558" 
d="M539 700v-74h-218v-626h-84v626h-218v74h520zM145 904h68l66 -68l66 68h68l-100 -138h-68z" />
    <glyph glyph-name="tcaron" unicode="&#x165;" horiz-adv-x="340" 
d="M147 17.5q-35 31.5 -35 101.5v315h-83v62h83v134h78v-134h114v-62h-114v-300q0 -43 13.5 -61.5t54.5 -18.5q23 0 41 6v-66q-27 -8 -63 -8q-54 0 -89 31.5zM253 563l36 94h-35v88h86v-88l-65 -107z" />
    <glyph glyph-name="Tbar" unicode="&#x166;" horiz-adv-x="558" 
d="M539 700v-74h-218v-200h148v-70h-148v-356h-84v356h-148v70h148v200h-218v74h520z" />
    <glyph glyph-name="tbar" unicode="&#x167;" horiz-adv-x="340" 
d="M190 434v-141h104v-62h-104v-97q0 -43 13.5 -61.5t54.5 -18.5q23 0 41 6v-66q-27 -8 -63 -8q-54 0 -89 31.5t-35 101.5v112h-73v62h73v141h-83v62h83v134h78v-134h114v-62h-114z" />
    <glyph glyph-name="Utilde" unicode="&#x168;" horiz-adv-x="670" 
d="M561.5 101.5q-32.5 -56.5 -91.5 -86t-135 -29.5t-135 29.5t-91.5 86t-32.5 133.5v465h84v-470q0 -73 46 -121.5t129 -48.5t129 48.5t46 121.5v470h84v-465q0 -77 -32.5 -133.5zM357.5 775q-19.5 10 -42.5 30q-15 14 -26 20.5t-26 6.5q-12 0 -20.5 -8t-8.5 -19
q0 -12 7 -26l-60 -12q-12 18 -12 46q0 37 27 58.5t63 21.5q34 0 53.5 -10t42.5 -30q15 -14 26 -20.5t26 -6.5q12 0 20.5 8t8.5 19q0 12 -7 26l60 12q12 -18 12 -46q0 -38 -27 -59t-63 -21q-34 0 -53.5 10z" />
    <glyph glyph-name="utilde" unicode="&#x169;" horiz-adv-x="571" 
d="M154 496v-323q0 -57 32 -87t85 -30q39 0 72.5 20t53.5 57t20 85v278h78v-496h-78v87q-25 -48 -68 -74.5t-97 -26.5q-75 0 -125.5 45t-50.5 138v327h78zM308.5 571q-19.5 10 -42.5 30q-15 14 -26 20.5t-26 6.5q-12 0 -20.5 -8t-8.5 -19q0 -12 7 -26l-60 -12q-12 18 -12 46
q0 37 27 58.5t63 21.5q34 0 53.5 -10t42.5 -30q15 -14 26 -20.5t26 -6.5q12 0 20.5 8t8.5 19q0 12 -7 26l60 12q12 -18 12 -46q0 -38 -27 -59t-63 -21q-34 0 -53.5 10z" />
    <glyph glyph-name="Umacron" unicode="&#x16a;" horiz-adv-x="670" 
d="M561.5 101.5q-32.5 -56.5 -91.5 -86t-135 -29.5t-135 29.5t-91.5 86t-32.5 133.5v465h84v-470q0 -73 46 -121.5t129 -48.5t129 48.5t46 121.5v470h84v-465q0 -77 -32.5 -133.5zM225 874h220v-70h-220v70z" />
    <glyph glyph-name="umacron" unicode="&#x16b;" horiz-adv-x="571" 
d="M154 496v-323q0 -57 32 -87t85 -30q39 0 72.5 20t53.5 57t20 85v278h78v-496h-78v87q-25 -48 -68 -74.5t-97 -26.5q-75 0 -125.5 45t-50.5 138v327h78zM176 670h220v-70h-220v70z" />
    <glyph glyph-name="Ubreve" unicode="&#x16c;" horiz-adv-x="670" 
d="M561.5 101.5q-32.5 -56.5 -91.5 -86t-135 -29.5t-135 29.5t-91.5 86t-32.5 133.5v465h84v-470q0 -73 46 -121.5t129 -48.5t129 48.5t46 121.5v470h84v-465q0 -77 -32.5 -133.5zM261 801q-29 29 -29 75h64q0 -20 10 -32t29 -12t29 12t10 32h64q0 -46 -29 -75t-74 -29
t-74 29z" />
    <glyph glyph-name="ubreve" unicode="&#x16d;" horiz-adv-x="571" 
d="M154 496v-323q0 -57 32 -87t85 -30q39 0 72.5 20t53.5 57t20 85v278h78v-496h-78v87q-25 -48 -68 -74.5t-97 -26.5q-75 0 -125.5 45t-50.5 138v327h78zM212 597q-29 29 -29 75h64q0 -20 10 -32t29 -12t29 12t10 32h64q0 -46 -29 -75t-74 -29t-74 29z" />
    <glyph glyph-name="Uring" unicode="&#x16e;" horiz-adv-x="670" 
d="M561.5 101.5q-32.5 -56.5 -91.5 -86t-135 -29.5t-135 29.5t-91.5 86t-32.5 133.5v465h84v-470q0 -73 46 -121.5t129 -48.5t129 48.5t46 121.5v470h84v-465q0 -77 -32.5 -133.5zM266 771.5q-27 27.5 -27 67.5t28 67.5t68 27.5t68 -27.5t28 -67.5t-27 -67.5t-69 -27.5
t-69 27.5zM368 805.5q13 13.5 13 33.5t-13 33.5t-33 13.5t-33 -13.5t-13 -33.5t13 -33.5t33 -13.5t33 13.5z" />
    <glyph glyph-name="uring" unicode="&#x16f;" horiz-adv-x="571" 
d="M154 496v-323q0 -57 32 -87t85 -30q39 0 72.5 20t53.5 57t20 85v278h78v-496h-78v87q-25 -48 -68 -74.5t-97 -26.5q-75 0 -125.5 45t-50.5 138v327h78zM217 567.5q-27 27.5 -27 67.5t28 67.5t68 27.5t68 -27.5t28 -67.5t-27 -67.5t-69 -27.5t-69 27.5zM319 601.5
q13 13.5 13 33.5t-13 33.5t-33 13.5t-33 -13.5t-13 -33.5t13 -33.5t33 -13.5t33 13.5z" />
    <glyph glyph-name="Uhungarumlaut" unicode="&#x170;" horiz-adv-x="670" 
d="M561.5 101.5q-32.5 -56.5 -91.5 -86t-135 -29.5t-135 29.5t-91.5 86t-32.5 133.5v465h84v-470q0 -73 46 -121.5t129 -48.5t129 48.5t46 121.5v470h84v-465q0 -77 -32.5 -133.5zM265 904h107l-100 -138h-71zM421 904h107l-100 -138h-71z" />
    <glyph glyph-name="uhungarumlaut" unicode="&#x171;" horiz-adv-x="571" 
d="M154 496v-323q0 -57 32 -87t85 -30q39 0 72.5 20t53.5 57t20 85v278h78v-496h-78v87q-25 -48 -68 -74.5t-97 -26.5q-75 0 -125.5 45t-50.5 138v327h78zM216 700h107l-100 -138h-71zM372 700h107l-100 -138h-71z" />
    <glyph glyph-name="Uogonek" unicode="&#x172;" horiz-adv-x="670" 
d="M561.5 101.5q-32.5 -56.5 -91.5 -86t-135 -29.5t-135 29.5t-91.5 86t-32.5 133.5v465h84v-470q0 -73 46 -121.5t129 -48.5t129 48.5t46 121.5v470h84v-465q0 -77 -32.5 -133.5zM320.5 -173.5q-30.5 24.5 -30.5 68.5q0 69 77 114l65 -9q-71 -38 -71 -83q0 -21 13 -33
t36 -12q5 0 19 2l9 -66q-21 -6 -45 -6q-42 0 -72.5 24.5z" />
    <glyph glyph-name="uogonek" unicode="&#x173;" horiz-adv-x="571" 
d="M154 496v-323q0 -57 32 -87t85 -30q39 0 72.5 20t53.5 57t20 85v278h78v-496h-78v87q-25 -48 -68 -74.5t-97 -26.5q-75 0 -125.5 45t-50.5 138v327h78zM383.5 -173.5q-30.5 24.5 -30.5 68.5q0 69 77 114l65 -9q-71 -38 -71 -83q0 -21 13 -33t36 -12q5 0 19 2l9 -66
q-21 -6 -45 -6q-42 0 -72.5 24.5z" />
    <glyph glyph-name="Wcircumflex" unicode="&#x174;" horiz-adv-x="892" 
d="M5 700h83l142 -527l17 -73l10 44t7 30l137 526h90l137 -526q2 -8 7 -30l10 -44l17 73l142 527h83l-197 -700h-87l-157 596l-157 -596h-87zM412 904h68l100 -138h-68l-66 68l-66 -68h-68z" />
    <glyph glyph-name="wcircumflex" unicode="&#x175;" horiz-adv-x="682" 
d="M595 496h80l-140 -496h-84l-110 404l-110 -404h-84l-140 496h80l101 -398l112 398h82l112 -398zM307 700h68l100 -138h-68l-66 68l-66 -68h-68z" />
    <glyph glyph-name="Ycircumflex" unicode="&#x176;" horiz-adv-x="552" 
d="M234 287l-230 413h91l159 -296q2 -4 8.5 -17.5t13.5 -31.5q7 18 13.5 31.5t8.5 17.5l159 296h91l-230 -413v-287h-84v287zM242 904h68l100 -138h-68l-66 68l-66 -68h-68z" />
    <glyph glyph-name="ycircumflex" unicode="&#x177;" horiz-adv-x="493" 
d="M108 -141q23 0 36 11t24 38l37 94l-200 494h86l157 -389l155 389h84l-249 -613q-21 -52 -51.5 -73t-78.5 -21q-28 0 -52 10l12 70q20 -10 40 -10zM213 700h68l100 -138h-68l-66 68l-66 -68h-68z" />
    <glyph glyph-name="Ydieresis" unicode="&#x178;" horiz-adv-x="552" 
d="M234 287l-230 413h91l159 -296q2 -4 8.5 -17.5t13.5 -31.5q7 18 13.5 31.5t8.5 17.5l159 296h91l-230 -413v-287h-84v287zM151 884h92v-92h-92v92zM309 884h92v-92h-92v92z" />
    <glyph glyph-name="Zacute" unicode="&#x179;" horiz-adv-x="598" 
d="M536 700v-74l-400 -552h417v-74h-511v72l403 554h-388v74h479zM307 904h107l-100 -138h-71z" />
    <glyph glyph-name="zacute" unicode="&#x17a;" horiz-adv-x="484" 
d="M441 0h-398v70l295 356h-282v70h370v-70l-297 -356h312v-70zM250 700h107l-100 -138h-71z" />
    <glyph glyph-name="Zdotaccent" unicode="&#x17b;" horiz-adv-x="598" 
d="M536 700v-74l-400 -552h417v-74h-511v72l403 554h-388v74h479zM252 884h94v-98h-94v98z" />
    <glyph glyph-name="zdotaccent" unicode="&#x17c;" horiz-adv-x="484" 
d="M441 0h-398v70l295 356h-282v70h370v-70l-297 -356h312v-70zM195 680h94v-98h-94v98z" />
    <glyph glyph-name="Zcaron" unicode="&#x17d;" horiz-adv-x="598" 
d="M536 700v-74l-400 -552h417v-74h-511v72l403 554h-388v74h479zM165 904h68l66 -68l66 68h68l-100 -138h-68z" />
    <glyph glyph-name="zcaron" unicode="&#x17e;" horiz-adv-x="484" 
d="M441 0h-398v70l295 356h-282v70h370v-70l-297 -356h312v-70zM108 700h68l66 -68l66 68h68l-100 -138h-68z" />
    <glyph glyph-name="longs" unicode="&#x17f;" horiz-adv-x="319" 
d="M101 434h-78v62h78v99q0 71 40 113t113 42q26 0 43 -5v-71q-6 4 -18 6t-22 2q-37 0 -57.5 -21.5t-20.5 -66.5v-594h-78v434z" />
    <glyph glyph-name="florin" unicode="&#x192;" horiz-adv-x="316" 
d="M-6 -211l12 66q15 -5 31 -5q32 0 48 18t16 59v507h-78v62h78v99q0 71 40 113t113 42q28 0 48 -7l-12 -66q-15 5 -33 5q-37 0 -57.5 -21.5t-20.5 -66.5v-98h114v-62h-114v-508q0 -70 -34 -107t-98 -37q-33 0 -53 7z" />
    <glyph glyph-name="uni01B5" unicode="&#x1b5;" horiz-adv-x="598" 
d="M536 700v-74l-172 -237h156v-70h-207l-177 -245h417v-74h-511v72l179 247h-151v70h202l173 237h-388v74h479z" />
    <glyph glyph-name="uni01B6" unicode="&#x1b6;" horiz-adv-x="484" 
d="M225 290l113 136h-282v70h370v-70l-113 -136h97v-64h-151l-130 -156h312v-70h-398v70l129 156h-96v64h149z" />
    <glyph glyph-name="Aringacute" unicode="&#x1fa;" horiz-adv-x="656" 
d="M284 700h88l278 -700h-86l-81 207h-310l-81 -207h-86zM455 277l-106 272q-2 6 -8.5 23t-12.5 35q-6 -18 -12.5 -35t-8.5 -23l-107 -272h255zM259 679.5q-27 27.5 -27 67.5t28 67.5t68 27.5t68 -27.5t28 -67.5t-27 -67.5t-69 -27.5t-69 27.5zM361 713.5q13 13.5 13 33.5
t-13 33.5t-33 13.5t-33 -13.5t-13 -33.5t13 -33.5t33 -13.5t33 13.5zM353 932h107l-100 -138h-71z" />
    <glyph glyph-name="AEacute" unicode="&#x1fc;" horiz-adv-x="932" 
d="M182 207l-90 -207h-86l308 700h547v-74h-354v-227h326v-74h-326v-251h357v-74h-441v207h-241zM423 277v349h-57l-153 -349h210zM583 904h107l-100 -138h-71z" />
    <glyph glyph-name="aeacute" unicode="&#x1fd;" horiz-adv-x="983" 
d="M155.5 19.5q-53.5 33.5 -83.5 93t-30 135.5q0 75 31.5 134.5t84.5 93.5t115 34q63 0 107.5 -26t64.5 -74v86h78v-77q26 41 74 66t103 25q73 0 127 -31.5t83 -87.5t29 -129v-27h-410q4 -80 50 -131.5t121 -51.5q63 0 101.5 29.5t65.5 83.5l57 -34q-36 -71 -91 -108
t-136 -37q-58 0 -102.5 24.5t-71.5 65.5v-76h-78v89q-25 -50 -67.5 -76.5t-99.5 -26.5q-69 0 -122.5 33.5zM861 299q-2 45 -26 78t-60 50t-75 17q-65 0 -108 -39.5t-57 -105.5h326zM371.5 81.5q37.5 23.5 58.5 67t21 99.5t-21 99.5t-58.5 67t-84.5 23.5t-84.5 -23.5t-59 -67
t-21.5 -99.5t21.5 -99.5t59 -67t84.5 -23.5t84.5 23.5zM494 700h107l-100 -138h-71z" />
    <glyph glyph-name="Scommaaccent" unicode="&#x218;" horiz-adv-x="649" 
d="M171.5 26q-69.5 40 -102.5 101l60 66q27 -62 80 -97.5t123 -35.5q53 0 91 17.5t58 47t20 64.5q0 59 -45.5 92t-139.5 50q-107 19 -168.5 68t-61.5 133q0 53 30 94.5t83.5 64.5t120.5 23q78 0 138.5 -33.5t95.5 -90.5l-57 -54q-34 51 -77 78.5t-100 27.5q-67 0 -109.5 -29
t-42.5 -81q0 -51 46.5 -83t144.5 -50q114 -21 170 -71t56 -133q0 -58 -32 -105.5t-89.5 -75.5t-131.5 -28q-91 0 -160.5 40zM379 -60v-98l-70 -127l-24 9l33 118h-33v98h94z" />
    <glyph glyph-name="scommaaccent" unicode="&#x219;" horiz-adv-x="491" 
d="M137.5 15q-50.5 29 -78.5 78l56 55q17 -42 54.5 -68t85.5 -26q51 0 82.5 23.5t31.5 64.5q0 36 -30.5 56.5t-96.5 32.5q-74 14 -120 49.5t-46 95.5q0 61 50 97.5t121 36.5q63 0 107.5 -24.5t69.5 -65.5l-46 -46q-30 38 -60.5 54t-69.5 16q-44 0 -72 -16.5t-28 -48.5
q0 -36 33.5 -56t98.5 -32q82 -16 124.5 -51t42.5 -95q0 -43 -23 -79t-66.5 -58t-102.5 -22q-67 0 -117.5 29zM305 -60v-98l-70 -127l-24 9l33 118h-33v98h94z" />
    <glyph glyph-name="uni021A" unicode="&#x21a;" horiz-adv-x="558" 
d="M539 700v-74h-218v-626h-84v626h-218v74h520zM326 -60v-98l-70 -127l-24 9l33 118h-33v98h94z" />
    <glyph glyph-name="uni021B" unicode="&#x21b;" horiz-adv-x="340" 
d="M147 17.5q-35 31.5 -35 101.5v315h-83v62h83v134h78v-134h114v-62h-114v-300q0 -43 13.5 -61.5t54.5 -18.5q23 0 41 6v-66q-27 -8 -63 -8q-54 0 -89 31.5zM265 -60v-98l-70 -127l-24 9l33 118h-33v98h94z" />
    <glyph glyph-name="uni0237" unicode="&#x237;" horiz-adv-x="230" 
d="M20 -141q31 0 43.5 16t12.5 54v567h78v-554q0 -72 -31 -112.5t-104 -40.5q-19 0 -48 8l10 70q19 -8 39 -8z" />
    <glyph glyph-name="circumflex" unicode="&#x2c6;" horiz-adv-x="378" 
d="M155 700h68l100 -138h-68l-66 68l-66 -68h-68z" />
    <glyph glyph-name="caron" unicode="&#x2c7;" horiz-adv-x="378" 
d="M55 700h68l66 -68l66 68h68l-100 -138h-68z" />
    <glyph glyph-name="uni02C9" unicode="&#x2c9;" horiz-adv-x="316" 
d="M48 670h220v-70h-220v70z" />
    <glyph glyph-name="breve" unicode="&#x2d8;" horiz-adv-x="286" 
d="M69 597q-29 29 -29 75h64q0 -20 10 -32t29 -12t29 12t10 32h64q0 -46 -29 -75t-74 -29t-74 29z" />
    <glyph glyph-name="dotaccent" unicode="&#x2d9;" horiz-adv-x="230" 
d="M68 680h94v-98h-94v98z" />
    <glyph glyph-name="ring" unicode="&#x2da;" horiz-adv-x="292" 
d="M77 567.5q-27 27.5 -27 67.5t28 67.5t68 27.5t68 -27.5t28 -67.5t-27 -67.5t-69 -27.5t-69 27.5zM179 601.5q13 13.5 13 33.5t-13 33.5t-33 13.5t-33 -13.5t-13 -33.5t13 -33.5t33 -13.5t33 13.5z" />
    <glyph glyph-name="ogonek" unicode="&#x2db;" horiz-adv-x="208" 
d="M64.5 -173.5q-30.5 24.5 -30.5 68.5q0 69 77 114l65 -9q-71 -38 -71 -83q0 -21 13 -33t36 -12q5 0 19 2l9 -66q-21 -6 -45 -6q-42 0 -72.5 24.5z" />
    <glyph glyph-name="tilde" unicode="&#x2dc;" horiz-adv-x="472" 
d="M258.5 571q-19.5 10 -42.5 30q-15 14 -26 20.5t-26 6.5q-12 0 -20.5 -8t-8.5 -19q0 -12 7 -26l-60 -12q-12 18 -12 46q0 37 27 58.5t63 21.5q34 0 53.5 -10t42.5 -30q15 -14 26 -20.5t26 -6.5q12 0 20.5 8t8.5 19q0 12 -7 26l60 12q12 -18 12 -46q0 -38 -27 -59t-63 -21
q-34 0 -53.5 10z" />
    <glyph glyph-name="hungarumlaut" unicode="&#x2dd;" horiz-adv-x="455" 
d="M128 700h107l-100 -138h-71zM284 700h107l-100 -138h-71z" />
    <glyph glyph-name="gravecomb" unicode="&#x300;" 
d="M-171 700h107l64 -138h-71z" />
    <glyph glyph-name="acutecomb" unicode="&#x301;" 
d="M-107 700h107l-100 -138h-71z" />
    <glyph glyph-name="uni0302" unicode="&#x302;" 
d="M-168 700h68l100 -138h-68l-66 68l-66 -68h-68z" />
    <glyph glyph-name="tildecomb" unicode="&#x303;" 
d="M-143.5 571q-19.5 10 -42.5 30q-15 14 -26 20.5t-26 6.5q-12 0 -20.5 -8t-8.5 -19q0 -12 7 -26l-60 -12q-12 18 -12 46q0 37 27 58.5t63 21.5q34 0 53.5 -10t42.5 -30q15 -14 26 -20.5t26 -6.5q12 0 20.5 8t8.5 19q0 12 -7 26l60 12q12 -18 12 -46q0 -38 -27 -59t-63 -21
q-34 0 -53.5 10z" />
    <glyph glyph-name="uni0304" unicode="&#x304;" 
d="M-220 670h220v-70h-220v70z" />
    <glyph glyph-name="uni0306" unicode="&#x306;" 
d="M-177 597q-29 29 -29 75h64q0 -20 10 -32t29 -12t29 12t10 32h64q0 -46 -29 -75t-74 -29t-74 29z" />
    <glyph glyph-name="uni0307" unicode="&#x307;" 
d="M-94 680h94v-98h-94v98z" />
    <glyph glyph-name="uni0308" unicode="&#x308;" 
d="M-250 680h92v-92h-92v92zM-92 680h92v-92h-92v92z" />
    <glyph glyph-name="uni030A" unicode="&#x30a;" 
d="M-165 567.5q-27 27.5 -27 67.5t28 67.5t68 27.5t68 -27.5t28 -67.5t-27 -67.5t-69 -27.5t-69 27.5zM-63 601.5q13 13.5 13 33.5t-13 33.5t-33 13.5t-33 -13.5t-13 -33.5t13 -33.5t33 -13.5t33 13.5z" />
    <glyph glyph-name="uni030B" unicode="&#x30b;" 
d="M-263 700h107l-100 -138h-71zM-107 700h107l-100 -138h-71z" />
    <glyph glyph-name="uni030C" unicode="&#x30c;" 
d="M-268 700h68l66 -68l66 68h68l-100 -138h-68z" />
    <glyph glyph-name="uni0312" unicode="&#x312;" 
d="M-106 661l86 111l20 -15l-49 -96h37v-98h-94v98z" />
    <glyph glyph-name="uni0326" unicode="&#x326;" 
d="M0 -60v-98l-70 -127l-24 9l33 118h-33v98h94z" />
    <glyph glyph-name="uni0327" unicode="&#x327;" 
d="M-146.5 -188q-22.5 16 -29.5 45l48 12q4 -11 14 -19t23 -8q16 0 25.5 10t9.5 27q0 16 -10 25.5t-27 9.5q-24 0 -47 -18l-31 28l34 92h54l-37 -71q19 11 44 11q32 0 54 -21.5t22 -55.5q0 -39 -26 -61t-65 -22q-33 0 -55.5 16z" />
    <glyph glyph-name="uni0328" unicode="&#x328;" 
d="M-117.5 -173.5q-30.5 24.5 -30.5 68.5q0 69 77 114l65 -9q-71 -38 -71 -83q0 -21 13 -33t36 -12q5 0 19 2l9 -66q-21 -6 -45 -6q-42 0 -72.5 24.5z" />
    <glyph glyph-name="uni0335" unicode="&#x335;" 
d="M-307 632h307v-64h-307v64z" />
    <glyph glyph-name="uni0336" unicode="&#x336;" 
d="M-714 566h714v-70h-714v70z" />
    <glyph glyph-name="uni0337" unicode="&#x337;" 
d="M-226 242l226 143v-78l-226 -143v78z" />
    <glyph glyph-name="uni0338" unicode="&#x338;" 
d="M-368 0l307 530l61 -34l-307 -530z" />
    <glyph glyph-name="uni0374" unicode="&#x374;" horiz-adv-x="274" 
d="M117 700h97l-93 -240h-61z" />
    <glyph glyph-name="uni0375" unicode="&#x375;" horiz-adv-x="274" 
d="M153 130h61l-57 -240h-97z" />
    <glyph glyph-name="uni037A" unicode="&#x37a;" horiz-adv-x="210" 
d="M69.5 -173q-26.5 25 -26.5 75v78h70v-64q0 -44 49 -44q13 0 23 3v-68q-22 -5 -43 -5q-46 0 -72.5 25z" />
    <glyph glyph-name="uni037E" unicode="&#x37e;" horiz-adv-x="190" 
d="M48 476h94v-98h-94v98zM48 -118l33 118h-33v98h94v-98l-70 -127z" />
    <glyph glyph-name="tonos" unicode="&#x384;" horiz-adv-x="283" 
d="M110 700h107l-80 -138h-71z" />
    <glyph glyph-name="dieresistonos" unicode="&#x385;" horiz-adv-x="412" 
d="M179 700h100l-78 -138h-64zM20 680h92v-92h-92v92zM300 680h92v-92h-92v92z" />
    <glyph glyph-name="Alphatonos" unicode="&#x386;" horiz-adv-x="656" 
d="M284 700h88l278 -700h-86l-81 207h-310l-81 -207h-86zM455 277l-106 272q-2 6 -8.5 23t-12.5 35q-6 -18 -12.5 -35t-8.5 -23l-107 -272h255zM95 700h107l-80 -138h-71z" />
    <glyph glyph-name="anoteleia" unicode="&#x387;" horiz-adv-x="190" 
d="M48 408h94v-98h-94v98z" />
    <glyph glyph-name="Epsilontonos" unicode="&#x388;" horiz-adv-x="597" 
d="M526 700v-74h-354v-227h326v-74h-326v-251h357v-74h-441v700h438zM-50 700h107l-80 -138h-71z" />
    <glyph glyph-name="Etatonos" unicode="&#x389;" horiz-adv-x="690" 
d="M172 700v-306h346v306h84v-700h-84v320h-346v-320h-84v700h84zM-50 700h107l-80 -138h-71z" />
    <glyph glyph-name="Iotatonos" unicode="&#x38a;" horiz-adv-x="320" 
d="M202 628v-556h72v-72h-228v72h72v556h-72v72h228v-72h-72zM-90 700h107l-80 -138h-71z" />
    <glyph glyph-name="Omicrontonos" unicode="&#x38c;" horiz-adv-x="788" 
d="M687 160.5q-45 -82.5 -122 -128.5t-171 -46t-171 46t-122 128.5t-45 189.5t45 189.5t122 128.5t171 46t171 -46t122 -128.5t45 -189.5t-45 -189.5zM523.5 96.5q57.5 36.5 90 102.5t32.5 151t-33 151t-90 102.5t-129 36.5t-129.5 -36.5t-90 -102.5t-32.5 -151t33 -151
t90 -102.5t129 -36.5t129.5 36.5zM20 700h107l-80 -138h-71z" />
    <glyph glyph-name="Upsilontonos" unicode="&#x38e;" horiz-adv-x="552" 
d="M234 287l-230 413h91l159 -296q2 -4 8.5 -17.5t13.5 -31.5q7 18 13.5 31.5t8.5 17.5l159 296h91l-230 -413v-287h-84v287zM-136 700h107l-80 -138h-71z" />
    <glyph glyph-name="Omegatonos" unicode="&#x38f;" horiz-adv-x="788" 
d="M77 74h157q-45 26 -86 73t-66.5 108t-25.5 128q0 94 44.5 170t121.5 118.5t172 42.5t172 -42.5t121.5 -118.5t44.5 -170q0 -67 -25.5 -128t-66.5 -108t-86 -73h157v-74h-257v88q48 20 91.5 59.5t72 98.5t28.5 132q0 74 -32 134t-89.5 94t-130.5 34t-130.5 -34t-89.5 -94
t-32 -134q0 -73 28.5 -132t72 -98.5t91.5 -59.5v-88h-257v74zM20 700h107l-80 -138h-71z" />
    <glyph glyph-name="iotadieresistonos" unicode="&#x390;" horiz-adv-x="288" 
d="M108 17q-32 31 -32 102v377h78v-372q0 -35 14 -52.5t47 -17.5q17 0 37 6l7 -65q-31 -9 -66 -9q-53 0 -85 31zM88 700h100l-78 -138h-64zM-71 680h92v-92h-92v92zM209 680h92v-92h-92v92z" />
    <glyph glyph-name="Alpha" unicode="&#x391;" horiz-adv-x="656" 
d="M284 700h88l278 -700h-86l-81 207h-310l-81 -207h-86zM455 277l-106 272q-2 6 -8.5 23t-12.5 35q-6 -18 -12.5 -35t-8.5 -23l-107 -272h255z" />
    <glyph glyph-name="Beta" unicode="&#x392;" horiz-adv-x="645" 
d="M344 700q66 0 116 -21.5t77 -60t27 -87.5q0 -58 -33.5 -96t-88.5 -58q69 -23 108 -64.5t39 -111.5q0 -60 -33 -105.5t-89 -70.5t-121 -25h-258v700h256zM338 406q66 0 106 27.5t40 84.5t-40 84.5t-106 27.5h-166v-224h166zM333 70q79 0 127.5 32t48.5 101t-48.5 101
t-127.5 32h-161v-266h161z" />
    <glyph glyph-name="Gamma" unicode="&#x393;" horiz-adv-x="555" 
d="M88 700h448v-74h-364v-626h-84v700z" />
    <glyph glyph-name="uni0394" unicode="&#x394;" horiz-adv-x="656" 
d="M284 700h88l278 -700h-644zM536 70l-187 479q-9 24 -14.5 39t-6.5 19q-1 -4 -6.5 -19t-14.5 -39l-188 -479h417z" />
    <glyph glyph-name="Epsilon" unicode="&#x395;" horiz-adv-x="597" 
d="M526 700v-74h-354v-227h326v-74h-326v-251h357v-74h-441v700h438z" />
    <glyph glyph-name="Zeta" unicode="&#x396;" horiz-adv-x="598" 
d="M536 700v-74l-400 -552h417v-74h-511v72l403 554h-388v74h479z" />
    <glyph glyph-name="Eta" unicode="&#x397;" horiz-adv-x="690" 
d="M172 700v-306h346v306h84v-700h-84v320h-346v-320h-84v700h84z" />
    <glyph glyph-name="Theta" unicode="&#x398;" horiz-adv-x="692" 
d="M194 33q-66 47 -102 130t-36 187t36 187t102 130t152 47t152 -47t102 -130t36 -187t-36 -187t-102 -130t-152 -47t-152 47zM550 385q-7 119 -60 187t-144 68t-144 -68t-60 -187h408zM490 128q53 68 60 187h-408q7 -119 60 -187t144 -68t144 68z" />
    <glyph glyph-name="Iota" unicode="&#x399;" horiz-adv-x="320" 
d="M202 628v-556h72v-72h-228v72h72v556h-72v72h228v-72h-72z" />
    <glyph glyph-name="Kappa" unicode="&#x39a;" horiz-adv-x="619" 
d="M88 700h84v-319l58 64l242 255h105l-244 -259l264 -441h-98l-226 378l-101 -107v-271h-84v700z" />
    <glyph glyph-name="Lambda" unicode="&#x39b;" horiz-adv-x="608" 
d="M258 700h92l252 -700h-86l-186 529q-3 8 -10 31t-16 51q-9 -28 -16 -51t-10 -31l-186 -529h-86z" />
    <glyph glyph-name="Mu" unicode="&#x39c;" horiz-adv-x="860" 
d="M178 700l252 -630l252 630h90v-700h-80v540q-8 -23 -19.5 -54t-16.5 -44l-183 -442h-86l-183 442q-5 13 -16.5 44t-19.5 54v-540h-80v700h90z" />
    <glyph glyph-name="Nu" unicode="&#x39d;" horiz-adv-x="708" 
d="M177 700l333 -527q4 -6 15 -26t15 -29v582h80v-700h-89l-333 527q-4 6 -15 26t-15 29v-582h-80v700h89z" />
    <glyph glyph-name="Xi" unicode="&#x39e;" horiz-adv-x="597" 
d="M71 700h455v-74h-455v74zM99 399h399v-74h-399v74zM68 74h461v-74h-461v74z" />
    <glyph glyph-name="Omicron" unicode="&#x39f;" horiz-adv-x="788" 
d="M687 160.5q-45 -82.5 -122 -128.5t-171 -46t-171 46t-122 128.5t-45 189.5t45 189.5t122 128.5t171 46t171 -46t122 -128.5t45 -189.5t-45 -189.5zM523.5 96.5q57.5 36.5 90 102.5t32.5 151t-33 151t-90 102.5t-129 36.5t-129.5 -36.5t-90 -102.5t-32.5 -151t33 -151
t90 -102.5t129 -36.5t129.5 36.5z" />
    <glyph glyph-name="Pi" unicode="&#x3a0;" horiz-adv-x="670" 
d="M88 700h494v-700h-84v626h-326v-626h-84v700z" />
    <glyph glyph-name="Rho" unicode="&#x3a1;" horiz-adv-x="678" 
d="M88 700h294q73 0 128 -27t84.5 -76.5t29.5 -114.5t-29.5 -114.5t-84.5 -76.5t-128 -27h-210v-264h-84v700zM378 338q77 0 119.5 36.5t42.5 107.5t-42.5 107.5t-119.5 36.5h-206v-288h206z" />
    <glyph glyph-name="Sigma" unicode="&#x3a3;" horiz-adv-x="585" 
d="M48 74l221 276l-213 276v74h475v-74h-378l209 -276l-220 -276h401v-74h-495v74z" />
    <glyph glyph-name="Tau" unicode="&#x3a4;" horiz-adv-x="558" 
d="M539 700v-74h-218v-626h-84v626h-218v74h520z" />
    <glyph glyph-name="Upsilon" unicode="&#x3a5;" horiz-adv-x="552" 
d="M234 287l-230 413h91l159 -296q2 -4 8.5 -17.5t13.5 -31.5q7 18 13.5 31.5t8.5 17.5l159 296h91l-230 -413v-287h-84v287z" />
    <glyph glyph-name="Phi" unicode="&#x3a6;" horiz-adv-x="766" 
d="M341 76h-8q-79 0 -143.5 34t-102.5 96.5t-38 143.5t38 143.5t102.5 96.5t143.5 34h8v76h84v-76h8q79 0 143.5 -34t102.5 -96.5t38 -143.5t-38 -143.5t-102.5 -96.5t-143.5 -34h-8v-76h-84v76zM341 150v400h-9q-56 0 -101.5 -23.5t-71.5 -69t-26 -107.5t26 -107.5
t71.5 -69t101.5 -23.5h9zM434 150q56 0 101.5 23.5t71.5 69t26 107.5t-26 107.5t-71.5 69t-101.5 23.5h-9v-400h9z" />
    <glyph glyph-name="Chi" unicode="&#x3a7;" horiz-adv-x="577" 
d="M447 700h93l-202 -319l235 -381h-95l-190 310l-189 -310h-96l237 376l-202 324h97l153 -258z" />
    <glyph glyph-name="Psi" unicode="&#x3a8;" horiz-adv-x="744" 
d="M330 172q-119 0 -187.5 69.5t-68.5 190.5v268h84v-263q0 -88 43.5 -139.5t128.5 -51.5v454h84v-454q85 0 128.5 51.5t43.5 139.5v263h84v-268q0 -121 -68.5 -190.5t-187.5 -69.5v-172h-84v172z" />
    <glyph glyph-name="uni03A9" unicode="&#x3a9;" horiz-adv-x="788" 
d="M77 74h157q-45 26 -86 73t-66.5 108t-25.5 128q0 94 44.5 170t121.5 118.5t172 42.5t172 -42.5t121.5 -118.5t44.5 -170q0 -67 -25.5 -128t-66.5 -108t-86 -73h157v-74h-257v88q48 20 91.5 59.5t72 98.5t28.5 132q0 74 -32 134t-89.5 94t-130.5 34t-130.5 -34t-89.5 -94
t-32 -134q0 -73 28.5 -132t72 -98.5t91.5 -59.5v-88h-257v74z" />
    <glyph glyph-name="Iotadieresis" unicode="&#x3aa;" horiz-adv-x="320" 
d="M202 628v-556h72v-72h-228v72h72v556h-72v72h228v-72h-72zM35 884h92v-92h-92v92zM193 884h92v-92h-92v92z" />
    <glyph glyph-name="Upsilondieresis" unicode="&#x3ab;" horiz-adv-x="552" 
d="M234 287l-230 413h91l159 -296q2 -4 8.5 -17.5t13.5 -31.5q7 18 13.5 31.5t8.5 17.5l159 296h91l-230 -413v-287h-84v287zM151 884h92v-92h-92v92zM309 884h92v-92h-92v92z" />
    <glyph glyph-name="alphatonos" unicode="&#x3ac;" horiz-adv-x="649" 
d="M159 19.5q-54 33.5 -85.5 93.5t-31.5 135t31.5 135t85.5 93.5t120 33.5q70 0 121 -35t73 -93l20 114h78l-58 -295q6 -77 25 -110t50 -33q15 0 26 5l13 -68q-26 -9 -50 -9q-39 0 -69 25.5t-45 72.5q-33 -51 -78.5 -74.5t-105.5 -23.5q-66 0 -120 33.5zM361.5 81.5
q36.5 23.5 58 67t21.5 99.5t-21.5 99.5t-58 67t-80.5 23.5t-80 -23.5t-57.5 -67t-21.5 -99.5t21.5 -99.5t57.5 -67t80 -23.5t80.5 23.5zM324 700h107l-80 -138h-71z" />
    <glyph glyph-name="epsilontonos" unicode="&#x3ad;" horiz-adv-x="471" 
d="M135 7.5q-43 21.5 -64 57t-21 76.5q0 49 29 80.5t68 43.5q-37 14 -61.5 42.5t-24.5 71.5q0 35 21 65t60.5 48t93.5 18q82 0 127.5 -35.5t45.5 -96.5q0 -24 -11 -44l-62 24q3 11 3 21q0 31 -29.5 49t-73.5 18q-48 0 -74.5 -19t-26.5 -51q0 -39 29 -61t89 -22v-60
q-56 0 -90.5 -22.5t-34.5 -65.5q0 -42 28 -66.5t83 -24.5q47 0 79.5 20.5t32.5 59.5q0 15 -5 30l67 23q10 -23 10 -53q0 -65 -48.5 -106.5t-133.5 -41.5q-63 0 -106 21.5zM245 700h107l-80 -138h-71z" />
    <glyph glyph-name="etatonos" unicode="&#x3ae;" horiz-adv-x="571" 
d="M417 323q0 57 -32.5 87t-86.5 30q-38 0 -71 -20.5t-53 -58t-20 -86.5v-275h-78v496h78v-87q27 47 70.5 74t96.5 27q73 0 123.5 -43.5t50.5 -129.5v-541h-78v527zM305 700h107l-80 -138h-71z" />
    <glyph glyph-name="iotatonos" unicode="&#x3af;" horiz-adv-x="288" 
d="M108 17q-32 31 -32 102v377h78v-372q0 -35 14 -52.5t47 -17.5q17 0 37 6l7 -65q-31 -9 -66 -9q-53 0 -85 31zM124 700h107l-80 -138h-71z" />
    <glyph glyph-name="upsilondieresistonos" unicode="&#x3b0;" horiz-adv-x="562" 
d="M133.5 37.5q-57.5 51.5 -57.5 146.5v312h78v-315q0 -58 33.5 -91.5t93.5 -33.5t93.5 33.5t33.5 91.5v315h78v-312q0 -95 -57.5 -146.5t-147.5 -51.5t-147.5 51.5zM254 700h100l-78 -138h-64zM95 680h92v-92h-92v92zM375 680h92v-92h-92v92z" />
    <glyph glyph-name="alpha" unicode="&#x3b1;" horiz-adv-x="649" 
d="M159 19.5q-54 33.5 -85.5 93.5t-31.5 135t31.5 135t85.5 93.5t120 33.5q70 0 121 -35t73 -93l20 114h78l-58 -295q6 -77 25 -110t50 -33q15 0 26 5l13 -68q-26 -9 -50 -9q-39 0 -69 25.5t-45 72.5q-33 -51 -78.5 -74.5t-105.5 -23.5q-66 0 -120 33.5zM361.5 81.5
q36.5 23.5 58 67t21.5 99.5t-21.5 99.5t-58 67t-80.5 23.5t-80 -23.5t-57.5 -67t-21.5 -99.5t21.5 -99.5t57.5 -67t80 -23.5t80.5 23.5z" />
    <glyph glyph-name="beta" unicode="&#x3b2;" horiz-adv-x="559" 
d="M76 503q0 71 29 118.5t74.5 70t96.5 22.5q57 0 99.5 -22t65.5 -59.5t23 -83.5q0 -113 -113 -158q71 -21 115 -70t44 -121q0 -63 -29 -112t-76.5 -75.5t-102.5 -26.5q-46 0 -87.5 21t-60.5 54v-265h-78v707zM392.5 93q39.5 39 39.5 104q0 49 -26 83.5t-67.5 51.5t-87.5 17
h-24v66h23q60 0 100 35t40 91q0 48 -32.5 76.5t-81.5 28.5q-50 0 -86 -34t-36 -98v-312q0 -72 41 -110t100 -38q58 0 97.5 39z" />
    <glyph glyph-name="gamma" unicode="&#x3b3;" horiz-adv-x="504" 
d="M213 12l-197 484h89l147 -391l147 391h89l-197 -484v-216h-78v216z" />
    <glyph glyph-name="delta" unicode="&#x3b4;" horiz-adv-x="574" 
d="M169 13.5q-54 27.5 -87 81.5t-33 129q0 67 32 120t88 82.5t125 29.5l-202 178v66h334v-66h-219l212 -197q34 -31 55.5 -58t36 -65t14.5 -90q0 -70 -33 -124t-88 -84t-117 -30q-64 0 -118 27.5zM371 77.5q37 21.5 58.5 59.5t21.5 87q0 48 -22 86.5t-59.5 60t-82.5 21.5
t-82.5 -21.5t-59.5 -60t-22 -86.5q0 -49 21.5 -87t58.5 -59.5t84 -21.5t84 21.5z" />
    <glyph glyph-name="epsilon" unicode="&#x3b5;" horiz-adv-x="471" 
d="M135 7.5q-43 21.5 -64 57t-21 76.5q0 49 29 80.5t68 43.5q-37 14 -61.5 42.5t-24.5 71.5q0 35 21 65t60.5 48t93.5 18q82 0 127.5 -35.5t45.5 -96.5q0 -24 -11 -44l-62 24q3 11 3 21q0 31 -29.5 49t-73.5 18q-48 0 -74.5 -19t-26.5 -51q0 -39 29 -61t89 -22v-60
q-56 0 -90.5 -22.5t-34.5 -65.5q0 -42 28 -66.5t83 -24.5q47 0 79.5 20.5t32.5 59.5q0 15 -5 30l67 23q10 -23 10 -53q0 -65 -48.5 -106.5t-133.5 -41.5q-63 0 -106 21.5z" />
    <glyph glyph-name="zeta" unicode="&#x3b6;" horiz-adv-x="470" 
d="M357 -70q12 15 12 33t-14.5 27.5t-39.5 9.5q-266 0 -266 239q0 214 242 399h-237v62h335v-62q-136 -100 -199 -191.5t-63 -191.5q0 -90 45.5 -137.5t138.5 -47.5q63 0 99.5 -26.5t36.5 -77.5q0 -44 -35 -79z" />
    <glyph glyph-name="eta" unicode="&#x3b7;" horiz-adv-x="571" 
d="M417 323q0 57 -32.5 87t-86.5 30q-38 0 -71 -20.5t-53 -58t-20 -86.5v-275h-78v496h78v-87q27 47 70.5 74t96.5 27q73 0 123.5 -43.5t50.5 -129.5v-541h-78v527z" />
    <glyph glyph-name="theta" unicode="&#x3b8;" horiz-adv-x="624" 
d="M173.5 29.5q-59.5 43.5 -92 125.5t-32.5 195t32.5 195t92 125.5t138.5 43.5t138.5 -43.5t92 -125.5t32.5 -195t-32.5 -195t-92 -125.5t-138.5 -43.5t-138.5 43.5zM495 385q-7 126 -56.5 192.5t-126.5 66.5t-126.5 -66.5t-56.5 -192.5h366zM438.5 122.5
q49.5 66.5 56.5 192.5h-366q7 -126 56.5 -192.5t126.5 -66.5t126.5 66.5z" />
    <glyph glyph-name="iota" unicode="&#x3b9;" horiz-adv-x="288" 
d="M108 17q-32 31 -32 102v377h78v-372q0 -35 14 -52.5t47 -17.5q17 0 37 6l7 -65q-31 -9 -66 -9q-53 0 -85 31z" />
    <glyph glyph-name="kappa" unicode="&#x3ba;" horiz-adv-x="495" 
d="M76 496h78v-204l182 204h93l-196 -220l222 -276h-92l-209 257v-257h-78v496z" />
    <glyph glyph-name="lambda" unicode="&#x3bb;" horiz-adv-x="495" 
d="M206 494l-37 93q-11 27 -24 38t-36 11q-20 0 -40 -10l-12 70q26 11 52 11q48 0 79.5 -21.5t52.5 -73.5l248 -612h-85l-155 389l-154 -389h-89z" />
    <glyph glyph-name="uni03BC" unicode="&#x3bc;" horiz-adv-x="571" 
d="M76 496h78v-323q0 -57 32 -87t85 -30q39 0 72.5 20t53.5 57t20 85v278h78v-496h-78v87q-25 -48 -68 -74.5t-97 -26.5q-30 0 -56.5 9t-43.5 23q2 -46 2 -75v-147h-78v700z" />
    <glyph glyph-name="nu" unicode="&#x3bd;" horiz-adv-x="494" 
d="M208 0l-200 496h84l155 -406l155 406h84l-200 -496h-78z" />
    <glyph glyph-name="xi" unicode="&#x3be;" horiz-adv-x="506" 
d="M367 -70q12 15 12 33t-14.5 27.5t-39.5 9.5q-128 0 -201 50t-73 155q0 67 37 111t99 68q-54 20 -83.5 63.5t-29.5 93.5q0 49 26 88.5t72.5 62t105.5 22.5q89 0 140.5 -40.5t51.5 -106.5q0 -27 -8 -51l-73 11q5 13 5 27q0 45 -31.5 67.5t-84.5 22.5q-58 0 -92 -29.5
t-34 -79.5q0 -54 38.5 -89.5t124.5 -35.5v-68q-83 0 -134.5 -32.5t-51.5 -100.5q0 -67 50 -103t139 -36q67 0 103 -26t36 -76q0 -41 -39 -78z" />
    <glyph glyph-name="omicron" unicode="&#x3bf;" horiz-adv-x="602" 
d="M522.5 107.5q-37.5 -59.5 -97.5 -90.5t-124 -31t-124 31t-97.5 90.5t-37.5 140.5t37.5 140.5t97.5 90.5t124 31t124 -31t97.5 -90.5t37.5 -140.5t-37.5 -140.5zM392 81q41 25 64.5 68.5t23.5 98.5t-23.5 98.5t-64.5 68.5t-91 25t-91 -25t-64.5 -68.5t-23.5 -98.5
t23.5 -98.5t64.5 -68.5t91 -25t91 25z" />
    <glyph glyph-name="pi" unicode="&#x3c0;" horiz-adv-x="649" 
d="M460 15q-33 29 -33 96v323h-215v-434h-78v434h-104v62h579v-62h-104v-308q0 -40 14.5 -56t49.5 -16q17 0 37 6l7 -65q-25 -9 -66 -9q-54 0 -87 29z" />
    <glyph glyph-name="rho" unicode="&#x3c1;" horiz-adv-x="608" 
d="M76 248q0 78 32.5 137.5t88.5 92t123 32.5q74 0 130 -32t86 -91t30 -139q0 -78 -31.5 -138t-85 -92t-119.5 -32q-57 0 -105.5 25.5t-70.5 67.5v-283h-78v452zM405.5 81.5q37.5 23.5 59 66.5t21.5 100t-21.5 100t-59 66.5t-85.5 23.5t-85.5 -23.5t-59 -66.5t-21.5 -100
t21.5 -100t59 -66.5t85.5 -23.5t85.5 23.5z" />
    <glyph glyph-name="uni03C2" unicode="&#x3c2;" horiz-adv-x="549" 
d="M324 -100q29 23 29 45q0 16 -14 27t-43 14q-71 7 -128.5 41t-91.5 91t-34 130q0 75 34.5 134.5t93 93.5t126.5 34q79 0 133.5 -35.5t81.5 -100.5l-60 -39q-27 57 -64.5 81t-89.5 24q-49 0 -89.5 -23.5t-64 -66t-23.5 -98.5q0 -88 51.5 -136t135.5 -62q70 -12 97 -35.5
t27 -67.5q0 -28 -16 -52t-44 -46z" />
    <glyph glyph-name="sigma" unicode="&#x3c3;" horiz-adv-x="633" 
d="M177 17q-60 31 -97.5 90.5t-37.5 140.5t37.5 140.5t99 90.5t131.5 31h293v-70h-147q48 -30 76 -80t28 -112q0 -81 -37.5 -140.5t-97.5 -90.5t-124 -31t-124 31zM392 81q41 25 64.5 68.5t23.5 98.5t-23.5 98.5t-64.5 68.5t-91 25t-91 -25t-64.5 -68.5t-23.5 -98.5
t23.5 -98.5t64.5 -68.5t91 -25t91 25z" />
    <glyph glyph-name="tau" unicode="&#x3c4;" horiz-adv-x="430" 
d="M202 17q-33 31 -33 102v309h-148v68h374v-68h-148v-297q0 -41 12.5 -59t50.5 -18q17 0 37 6l7 -65q-26 -9 -66 -9q-53 0 -86 31z" />
    <glyph glyph-name="upsilon" unicode="&#x3c5;" horiz-adv-x="562" 
d="M133.5 37.5q-57.5 51.5 -57.5 146.5v312h78v-315q0 -58 33.5 -91.5t93.5 -33.5t93.5 33.5t33.5 91.5v315h78v-312q0 -95 -57.5 -146.5t-147.5 -51.5t-147.5 51.5z" />
    <glyph glyph-name="phi" unicode="&#x3c6;" horiz-adv-x="698" 
d="M310 0h-23q-64 0 -120.5 30t-90.5 86.5t-34 131.5q0 76 33.5 132t92 86t131.5 30h100q73 0 131.5 -30t92 -86t33.5 -132q0 -75 -34 -131.5t-90.5 -86.5t-120.5 -30h-23v-204h-78v204zM310 72v352h-16q-46 0 -85 -19.5t-63 -59.5t-24 -97t24 -97t63 -59.5t85 -19.5h16z
M404 72q46 0 85 19.5t63 59.5t24 97t-24 97t-63 59.5t-85 19.5h-16v-352h16z" />
    <glyph glyph-name="chi" unicode="&#x3c7;" horiz-adv-x="526" 
d="M410.5 -191.5q-25.5 19.5 -43.5 62.5l-93 214l-145 -289h-84l191 366l-106 243q-12 28 -38 28q-19 0 -39 -17l-27 57q38 30 81 30q34 0 54 -14t33 -45l84 -191l115 243h85l-161 -326l118 -268q11 -25 22 -35t30 -10q16 0 38 13l18 -64q-16 -9 -30 -13t-37 -4
q-40 0 -65.5 19.5z" />
    <glyph glyph-name="psi" unicode="&#x3c8;" horiz-adv-x="666" 
d="M294 -14q-101 0 -159.5 58.5t-58.5 158.5v293h78v-296q0 -63 38 -103.5t102 -40.5v440h78v-440q64 0 102 40.5t38 103.5v296h78v-293q0 -100 -58.5 -158.5t-159.5 -58.5v-190h-78v190z" />
    <glyph glyph-name="omega" unicode="&#x3c9;" horiz-adv-x="790" 
d="M114 52q-46 66 -46 176q0 75 21 147t55 135l71 -34q-34 -64 -51.5 -125.5t-17.5 -135.5q0 -71 30 -115t85 -44q44 0 69.5 34.5t25.5 93.5v160h78v-160q0 -59 25.5 -93.5t69.5 -34.5q55 0 85 44t30 115q0 74 -17.5 135.5t-51.5 125.5l71 34q34 -63 55 -135t21 -147
q0 -110 -46 -176t-137 -66q-106 0 -144 118q-38 -118 -144 -118q-91 0 -137 66z" />
    <glyph glyph-name="iotadieresis" unicode="&#x3ca;" horiz-adv-x="288" 
d="M108 17q-32 31 -32 102v377h78v-372q0 -35 14 -52.5t47 -17.5q17 0 37 6l7 -65q-31 -9 -66 -9q-53 0 -85 31zM-10 680h92v-92h-92v92zM148 680h92v-92h-92v92z" />
    <glyph glyph-name="upsilondieresis" unicode="&#x3cb;" horiz-adv-x="562" 
d="M133.5 37.5q-57.5 51.5 -57.5 146.5v312h78v-315q0 -58 33.5 -91.5t93.5 -33.5t93.5 33.5t33.5 91.5v315h78v-312q0 -95 -57.5 -146.5t-147.5 -51.5t-147.5 51.5zM156 680h92v-92h-92v92zM314 680h92v-92h-92v92z" />
    <glyph glyph-name="omicrontonos" unicode="&#x3cc;" horiz-adv-x="602" 
d="M522.5 107.5q-37.5 -59.5 -97.5 -90.5t-124 -31t-124 31t-97.5 90.5t-37.5 140.5t37.5 140.5t97.5 90.5t124 31t124 -31t97.5 -90.5t37.5 -140.5t-37.5 -140.5zM392 81q41 25 64.5 68.5t23.5 98.5t-23.5 98.5t-64.5 68.5t-91 25t-91 -25t-64.5 -68.5t-23.5 -98.5
t23.5 -98.5t64.5 -68.5t91 -25t91 25zM309 700h107l-100 -138h-71z" />
    <glyph glyph-name="upsilontonos" unicode="&#x3cd;" horiz-adv-x="562" 
d="M133.5 37.5q-57.5 51.5 -57.5 146.5v312h78v-315q0 -58 33.5 -91.5t93.5 -33.5t93.5 33.5t33.5 91.5v315h78v-312q0 -95 -57.5 -146.5t-147.5 -51.5t-147.5 51.5zM290 700h107l-80 -138h-71z" />
    <glyph glyph-name="omegatonos" unicode="&#x3ce;" horiz-adv-x="790" 
d="M114 52q-46 66 -46 176q0 75 21 147t55 135l71 -34q-34 -64 -51.5 -125.5t-17.5 -135.5q0 -71 30 -115t85 -44q44 0 69.5 34.5t25.5 93.5v160h78v-160q0 -59 25.5 -93.5t69.5 -34.5q55 0 85 44t30 115q0 74 -17.5 135.5t-51.5 125.5l71 34q34 -63 55 -135t21 -147
q0 -110 -46 -176t-137 -66q-106 0 -144 118q-38 -118 -144 -118q-91 0 -137 66zM404 700h107l-80 -138h-71z" />
    <glyph glyph-name="uni0400" unicode="&#x400;" horiz-adv-x="597" 
d="M526 700v-74h-354v-227h326v-74h-326v-251h357v-74h-441v700h438zM192 904h107l64 -138h-71z" />
    <glyph glyph-name="uni0401" unicode="&#x401;" horiz-adv-x="597" 
d="M526 700v-74h-354v-227h326v-74h-326v-251h357v-74h-441v700h438zM182 884h92v-92h-92v92zM340 884h92v-92h-92v92z" />
    <glyph glyph-name="uni0402" unicode="&#x402;" horiz-adv-x="748" 
d="M383 5l12 70q38 -12 77 -12q65 0 106.5 35t41.5 105t-45.5 101.5t-123.5 31.5h-151v-336h-84v626h-197v74h520v-74h-239v-220h164q109 0 172.5 -52.5t63.5 -150.5t-63 -154t-167 -56q-48 0 -87 12z" />
    <glyph glyph-name="uni0403" unicode="&#x403;" horiz-adv-x="555" 
d="M88 700h448v-74h-364v-626h-84v700zM320 904h107l-100 -138h-71z" />
    <glyph glyph-name="uni0404" unicode="&#x404;" horiz-adv-x="739" 
d="M219.5 31q-76.5 45 -120 127.5t-43.5 191.5q0 108 45.5 190.5t123 128t171.5 45.5q100 0 171 -47t109 -139l-67 -36q-38 78 -89 113t-124 35q-66 0 -120 -29.5t-89.5 -85t-44.5 -131.5h385v-74h-385q6 -79 40 -138t89 -90.5t124 -31.5q78 0 131.5 41t91.5 119l63 -40
q-46 -92 -114.5 -143t-173.5 -51q-97 0 -173.5 45z" />
    <glyph glyph-name="uni0405" unicode="&#x405;" horiz-adv-x="649" 
d="M171.5 26q-69.5 40 -102.5 101l60 66q27 -62 80 -97.5t123 -35.5q53 0 91 17.5t58 47t20 64.5q0 59 -45.5 92t-139.5 50q-107 19 -168.5 68t-61.5 133q0 53 30 94.5t83.5 64.5t120.5 23q78 0 138.5 -33.5t95.5 -90.5l-57 -54q-34 51 -77 78.5t-100 27.5q-67 0 -109.5 -29
t-42.5 -81q0 -51 46.5 -83t144.5 -50q114 -21 170 -71t56 -133q0 -58 -32 -105.5t-89.5 -75.5t-131.5 -28q-91 0 -160.5 40z" />
    <glyph glyph-name="uni0406" unicode="&#x406;" horiz-adv-x="320" 
d="M202 628v-556h72v-72h-228v72h72v556h-72v72h228v-72h-72z" />
    <glyph glyph-name="uni0407" unicode="&#x407;" horiz-adv-x="320" 
d="M202 628v-556h72v-72h-228v72h72v556h-72v72h228v-72h-72zM35 884h92v-92h-92v92zM193 884h92v-92h-92v92z" />
    <glyph glyph-name="uni0408" unicode="&#x408;" horiz-adv-x="358" 
d="M312 628h-72v-430q0 -98 -51 -155t-135 -57q-11 0 -22 3v75q11 -4 22 -4q47 0 74.5 36t27.5 103v429h-72v72h228v-72z" />
    <glyph glyph-name="uni0409" unicode="&#x409;" horiz-adv-x="1033" 
d="M38 -1l15 80q17 -6 28 -6q51 0 58 64l61 563h360v-294h174q110 0 176.5 -53t66.5 -150t-66.5 -150t-176.5 -53h-258v626h-200l-54 -489q-9 -78 -40.5 -111t-90.5 -33q-29 0 -53 6zM721 70q79 0 127.5 32t48.5 101t-48.5 101t-127.5 32h-161v-266h161z" />
    <glyph glyph-name="uni040A" unicode="&#x40a;" horiz-adv-x="1031" 
d="M88 700h84v-306h314v306h84v-306h162q110 0 176.5 -51t66.5 -148q0 -96 -66 -145.5t-177 -49.5h-246v320h-314v-320h-84v700zM719 70q81 0 128.5 28.5t47.5 96.5t-47.5 96.5t-128.5 28.5h-149v-250h149z" />
    <glyph glyph-name="uni040B" unicode="&#x40b;" horiz-adv-x="706" 
d="M216 626h-197v74h520v-74h-239v-255q25 45 67 71t94 26q75 0 122 -44t47 -119v-305h-80v285q0 54 -29.5 83.5t-81.5 29.5q-38 0 -69.5 -20.5t-50.5 -56.5t-19 -81v-240h-84v626z" />
    <glyph glyph-name="uni040C" unicode="&#x40c;" horiz-adv-x="619" 
d="M88 700h84v-319l58 64l242 255h105l-244 -259l264 -441h-98l-226 378l-101 -107v-271h-84v700zM318 904h107l-100 -138h-71z" />
    <glyph glyph-name="uni040D" unicode="&#x40d;" horiz-adv-x="708" 
d="M88 700h80v-582q4 9 15 29t15 26l333 527h89v-700h-80v582q-4 -9 -15 -29t-15 -26l-333 -527h-89v700zM239 904h107l64 -138h-71z" />
    <glyph glyph-name="uni040E" unicode="&#x40e;" horiz-adv-x="516" 
d="M86 -2l17 72q18 -10 31 -10q27 0 40 33l57 144l-218 463h86l170 -367l148 367h84l-257 -635q-15 -37 -40.5 -58t-58.5 -21q-34 0 -59 12zM192 801q-29 29 -29 75h64q0 -20 10 -32t29 -12t29 12t10 32h64q0 -46 -29 -75t-74 -29t-74 29z" />
    <glyph glyph-name="uni040F" unicode="&#x40f;" horiz-adv-x="670" 
d="M295 0h-207v700h84v-626h326v626h84v-700h-207v-116h-80v116z" />
    <glyph glyph-name="uni0410" unicode="&#x410;" horiz-adv-x="656" 
d="M284 700h88l278 -700h-86l-81 207h-310l-81 -207h-86zM455 277l-106 272q-2 6 -8.5 23t-12.5 35q-6 -18 -12.5 -35t-8.5 -23l-107 -272h255z" />
    <glyph glyph-name="uni0411" unicode="&#x411;" horiz-adv-x="645" 
d="M88 700h419v-70h-335v-224h174q66 0 121.5 -23.5t88.5 -69.5t33 -110t-33 -110t-88.5 -69.5t-121.5 -23.5h-258v700zM333 70q79 0 127.5 32t48.5 101t-48.5 101t-127.5 32h-161v-266h161z" />
    <glyph glyph-name="uni0412" unicode="&#x412;" horiz-adv-x="645" 
d="M344 700q66 0 116 -21.5t77 -60t27 -87.5q0 -58 -33.5 -96t-88.5 -58q69 -23 108 -64.5t39 -111.5q0 -60 -33 -105.5t-89 -70.5t-121 -25h-258v700h256zM338 406q66 0 106 27.5t40 84.5t-40 84.5t-106 27.5h-166v-224h166zM333 70q79 0 127.5 32t48.5 101t-48.5 101
t-127.5 32h-161v-266h161z" />
    <glyph glyph-name="uni0413" unicode="&#x413;" horiz-adv-x="555" 
d="M88 700h448v-74h-364v-626h-84v700z" />
    <glyph glyph-name="uni0414" unicode="&#x414;" horiz-adv-x="677" 
d="M18 74h66q37 73 55 139.5t30 175.5l35 311h385v-626h66v-190h-80v116h-477v-116h-80v190zM505 74v552h-223l-28 -250q-12 -108 -29 -170t-49 -132h329z" />
    <glyph glyph-name="uni0415" unicode="&#x415;" horiz-adv-x="597" 
d="M526 700v-74h-354v-227h326v-74h-326v-251h357v-74h-441v700h438z" />
    <glyph glyph-name="uni0416" unicode="&#x416;" horiz-adv-x="964" 
d="M281 441l-240 259h105l248 -270q5 -6 19 -22t27 -33v325h84v-325q13 17 27 33t19 22l248 270h105l-240 -259l259 -441h-94l-223 380l-101 -109v-271h-84v271l-101 109l-223 -380h-94z" />
    <glyph glyph-name="uni0417" unicode="&#x417;" horiz-adv-x="577" 
d="M165 14.5q-52 28.5 -78.5 73t-26.5 93.5q0 28 8 53h79q-3 -16 -3 -43q0 -58 41 -94.5t106 -36.5q70 0 108 37t38 106q0 70 -51.5 104.5t-137.5 34.5v68q86 0 123 35.5t37 89.5q0 49 -34.5 79t-90.5 30t-90 -30.5t-34 -83.5q0 -21 6 -37h-74q-8 21 -8 46q0 48 26 88
t71.5 63.5t103.5 23.5q63 0 110 -22t71.5 -60.5t24.5 -86.5q0 -53 -30 -98t-87 -63q66 -18 107 -64t41 -114q0 -67 -29.5 -117t-81.5 -76.5t-119 -26.5q-74 0 -126 28.5z" />
    <glyph glyph-name="uni0418" unicode="&#x418;" horiz-adv-x="708" 
d="M88 700h80v-582q4 9 15 29t15 26l333 527h89v-700h-80v582q-4 -9 -15 -29t-15 -26l-333 -527h-89v700z" />
    <glyph glyph-name="uni0419" unicode="&#x419;" horiz-adv-x="708" 
d="M88 700h80v-582q4 9 15 29t15 26l333 527h89v-700h-80v582q-4 -9 -15 -29t-15 -26l-333 -527h-89v700zM280 801q-29 29 -29 75h64q0 -20 10 -32t29 -12t29 12t10 32h64q0 -46 -29 -75t-74 -29t-74 29z" />
    <glyph glyph-name="uni041A" unicode="&#x41a;" horiz-adv-x="619" 
d="M88 700h84v-319l58 64l242 255h105l-244 -259l264 -441h-98l-226 378l-101 -107v-271h-84v700z" />
    <glyph glyph-name="uni041B" unicode="&#x41b;" horiz-adv-x="673" 
d="M38 -2l15 80q17 -6 28 -6q51 0 58 64l61 564h385v-700h-84v626h-225l-54 -490q-9 -78 -40.5 -111t-90.5 -33q-29 0 -53 6z" />
    <glyph glyph-name="uni041C" unicode="&#x41c;" horiz-adv-x="860" 
d="M178 700l252 -630l252 630h90v-700h-80v540q-8 -23 -19.5 -54t-16.5 -44l-183 -442h-86l-183 442q-5 13 -16.5 44t-19.5 54v-540h-80v700h90z" />
    <glyph glyph-name="uni041D" unicode="&#x41d;" horiz-adv-x="690" 
d="M172 700v-306h346v306h84v-700h-84v320h-346v-320h-84v700h84z" />
    <glyph glyph-name="uni041E" unicode="&#x41e;" horiz-adv-x="788" 
d="M687 160.5q-45 -82.5 -122 -128.5t-171 -46t-171 46t-122 128.5t-45 189.5t45 189.5t122 128.5t171 46t171 -46t122 -128.5t45 -189.5t-45 -189.5zM523.5 96.5q57.5 36.5 90 102.5t32.5 151t-33 151t-90 102.5t-129 36.5t-129.5 -36.5t-90 -102.5t-32.5 -151t33 -151
t90 -102.5t129 -36.5t129.5 36.5z" />
    <glyph glyph-name="uni041F" unicode="&#x41f;" horiz-adv-x="670" 
d="M88 700h494v-700h-84v626h-326v-626h-84v700z" />
    <glyph glyph-name="uni0420" unicode="&#x420;" horiz-adv-x="678" 
d="M88 700h294q73 0 128 -27t84.5 -76.5t29.5 -114.5t-29.5 -114.5t-84.5 -76.5t-128 -27h-210v-264h-84v700zM378 338q77 0 119.5 36.5t42.5 107.5t-42.5 107.5t-119.5 36.5h-206v-288h206z" />
    <glyph glyph-name="uni0421" unicode="&#x421;" horiz-adv-x="748" 
d="M220 33.5q-77 47.5 -120.5 130.5t-43.5 186q0 102 46 185.5t124.5 131t171.5 47.5q90 0 163 -34.5t117 -96.5l-55 -57q-46 62 -101 88t-126 26q-70 0 -128.5 -38t-92 -104.5t-33.5 -147.5q0 -82 32 -148t89.5 -104t131.5 -38q72 0 124.5 28t95.5 91l56 -57
q-102 -136 -278 -136q-96 0 -173 47.5z" />
    <glyph glyph-name="uni0422" unicode="&#x422;" horiz-adv-x="558" 
d="M539 700v-74h-218v-626h-84v626h-218v74h520z" />
    <glyph glyph-name="uni0423" unicode="&#x423;" horiz-adv-x="516" 
d="M86 -2l17 72q18 -10 31 -10q27 0 40 33l57 144l-218 463h86l170 -367l148 367h84l-257 -635q-15 -37 -40.5 -58t-58.5 -21q-34 0 -59 12z" />
    <glyph glyph-name="uni0424" unicode="&#x424;" horiz-adv-x="766" 
d="M341 76h-8q-79 0 -143.5 34t-102.5 96.5t-38 143.5t38 143.5t102.5 96.5t143.5 34h8v76h84v-76h8q79 0 143.5 -34t102.5 -96.5t38 -143.5t-38 -143.5t-102.5 -96.5t-143.5 -34h-8v-76h-84v76zM341 150v400h-9q-56 0 -101.5 -23.5t-71.5 -69t-26 -107.5t26 -107.5
t71.5 -69t101.5 -23.5h9zM434 150q56 0 101.5 23.5t71.5 69t26 107.5t-26 107.5t-71.5 69t-101.5 23.5h-9v-400h9z" />
    <glyph glyph-name="uni0425" unicode="&#x425;" horiz-adv-x="577" 
d="M447 700h93l-202 -319l235 -381h-95l-190 310l-189 -310h-96l237 376l-202 324h97l153 -258z" />
    <glyph glyph-name="uni0426" unicode="&#x426;" horiz-adv-x="692" 
d="M568 0h-480v700h84v-626h326v626h84v-626h66v-190h-80v116z" />
    <glyph glyph-name="uni0427" unicode="&#x427;" horiz-adv-x="623" 
d="M451 329q-24 -44 -65 -68.5t-94 -24.5q-97 0 -156 63t-59 176v225h84v-230q0 -72 37.5 -116t104.5 -44q66 0 107 44.5t41 114.5v231h84v-700h-84v329z" />
    <glyph glyph-name="uni0428" unicode="&#x428;" horiz-adv-x="840" 
d="M88 700h84v-626h206v626h84v-626h206v626h84v-700h-664v700z" />
    <glyph glyph-name="uni0429" unicode="&#x429;" horiz-adv-x="862" 
d="M738 0h-650v700h84v-626h206v626h84v-626h206v626h84v-626h66v-190h-80v116z" />
    <glyph glyph-name="uni042A" unicode="&#x42a;" horiz-adv-x="703" 
d="M146 626h-117v74h201v-294h174q110 0 176.5 -53t66.5 -150t-66.5 -150t-176.5 -53h-258v626zM391 70q79 0 127.5 32t48.5 101t-48.5 101t-127.5 32h-161v-266h161z" />
    <glyph glyph-name="uni042B" unicode="&#x42b;" horiz-adv-x="965" 
d="M88 700h84v-294h174q110 0 176.5 -53t66.5 -150t-66.5 -150t-176.5 -53h-258v700zM333 70q79 0 127.5 32t48.5 101t-48.5 101t-127.5 32h-161v-266h161zM847 628v-556h72v-72h-228v72h72v556h-72v72h228v-72h-72z" />
    <glyph glyph-name="uni042C" unicode="&#x42c;" horiz-adv-x="645" 
d="M88 700h84v-294h174q110 0 176.5 -53t66.5 -150t-66.5 -150t-176.5 -53h-258v700zM333 70q79 0 127.5 32t48.5 101t-48.5 101t-127.5 32h-161v-266h161z" />
    <glyph glyph-name="uni042D" unicode="&#x42d;" horiz-adv-x="725" 
d="M172.5 36.5q-73.5 50.5 -114.5 138.5l65 44q36 -79 94.5 -119t134.5 -40q101 0 162 69t69 191h-385v74h385q-13 114 -75.5 180t-160.5 66q-69 0 -125.5 -37.5t-92.5 -108.5l-65 35q42 90 115.5 137.5t167.5 47.5q95 0 168 -45.5t113.5 -128t40.5 -190.5
q0 -109 -39.5 -191t-112 -127.5t-167.5 -45.5q-104 0 -177.5 50.5z" />
    <glyph glyph-name="uni042E" unicode="&#x42e;" horiz-adv-x="982" 
d="M426 26.5q-74 40.5 -120.5 115t-54.5 171.5h-79v-313h-84v700h84v-313h79q8 97 54.5 171.5t120.5 115t162 40.5q94 0 171 -46t122 -128.5t45 -189.5t-45 -189.5t-122 -128.5t-171 -46q-88 0 -162 40.5zM717.5 96.5q57.5 36.5 90 102.5t32.5 151t-33 151t-90 102.5
t-129 36.5t-129.5 -36.5t-90 -102.5t-32.5 -151t33 -151t90 -102.5t129 -36.5t129.5 36.5z" />
    <glyph glyph-name="uni042F" unicode="&#x42f;" horiz-adv-x="640" 
d="M468 304v-304h84v700h-279q-68 0 -119 -25.5t-78.5 -70.5t-27.5 -102q0 -73 46 -125t125 -68l-175 -309h94l172 304h158zM288 378q-75 0 -115.5 32t-40.5 92t40.5 92t115.5 32h180v-248h-180z" />
    <glyph glyph-name="uni0430" unicode="&#x430;" horiz-adv-x="599" 
d="M155.5 19.5q-53.5 33.5 -83.5 93t-30 135.5q0 75 31.5 134.5t84.5 93.5t115 34q63 0 107.5 -26t64.5 -74v86h78v-496h-78v89q-25 -50 -67.5 -76.5t-99.5 -26.5q-69 0 -122.5 33.5zM371.5 81.5q37.5 23.5 58.5 67t21 99.5t-21 99.5t-58.5 67t-84.5 23.5t-84.5 -23.5
t-59 -67t-21.5 -99.5t21.5 -99.5t59 -67t84.5 -23.5t84.5 23.5z" />
    <glyph glyph-name="uni0431" unicode="&#x431;" horiz-adv-x="593" 
d="M115 76q-66 90 -66 245q0 119 50 221q40 81 110 119.5t151 38.5q26 0 42 3t34 11l22 -59q-25 -14 -45.5 -19.5t-51.5 -5.5q-102 0 -162.5 -68.5t-65.5 -192.5q28 53 76.5 85t105.5 32q66 0 118 -31.5t81.5 -88t29.5 -127.5t-31 -129t-86.5 -91t-124.5 -33q-121 0 -187 90
zM386 79.5q37 23.5 57.5 64.5t20.5 92t-20.5 92t-57.5 64.5t-84 23.5t-84 -23.5t-57.5 -64.5t-20.5 -92t20.5 -92t57.5 -64.5t84 -23.5t84 23.5z" />
    <glyph glyph-name="uni0432" unicode="&#x432;" horiz-adv-x="516" 
d="M76 496h211q47 0 82.5 -17t54.5 -46t19 -63q0 -42 -23 -69t-61 -40q49 -14 75.5 -42t26.5 -78q0 -62 -47.5 -101.5t-125.5 -39.5h-212v496zM288 290q36 0 58.5 18.5t22.5 52.5t-22.5 52.5t-58.5 18.5h-134v-142h134zM294 68q40 0 64.5 21.5t24.5 57.5t-24.5 57.5
t-64.5 21.5h-140v-158h140z" />
    <glyph glyph-name="uni0433" unicode="&#x433;" horiz-adv-x="415" 
d="M76 496h301v-68h-223v-428h-78v496z" />
    <glyph glyph-name="uni0434" unicode="&#x434;" horiz-adv-x="597" 
d="M45 68h46q21 40 33 79.5t17 88.5l26 260h332v-428h46v-174h-70v106h-360v-106h-70v174zM421 68v360h-182l-19 -197q-6 -55 -16 -89.5t-29 -73.5h246z" />
    <glyph glyph-name="uni0435" unicode="&#x435;" horiz-adv-x="574" 
d="M412.5 15.5q-52.5 -29.5 -124.5 -29.5q-67 0 -123.5 33.5t-89.5 93.5t-33 135t33 135t90 93.5t126 33.5q73 0 127 -31.5t83 -87.5t29 -129v-27h-410q4 -80 50 -131.5t121 -51.5q100 0 150 82l56 -35q-32 -54 -84.5 -83.5zM183 404.5q-43 -39.5 -57 -105.5h326
q-2 45 -26 78t-60 50t-75 17q-65 0 -108 -39.5z" />
    <glyph glyph-name="uni0436" unicode="&#x436;" horiz-adv-x="760" 
d="M240 297l-179 199h93l187 -216v216h78v-216l187 216h93l-179 -199l216 -297h-86l-178 242l-53 -59v-183h-78v183l-53 59l-178 -242h-86z" />
    <glyph glyph-name="uni0437" unicode="&#x437;" horiz-adv-x="486" 
d="M102 27q-50 41 -50 106q0 30 12 54l67 -23q-5 -15 -5 -30q0 -40 33 -60t83 -20q52 0 79.5 24.5t27.5 66.5t-37.5 65t-94.5 23v60q60 0 88 22t28 61q0 32 -25.5 51t-70.5 19q-43 0 -70.5 -19.5t-27.5 -50.5q0 -10 3 -21l-62 -24q-11 20 -11 44q0 61 45 98t123 37
q54 0 92.5 -18t58 -48t19.5 -65q0 -44 -24 -72t-60 -42q41 -13 72.5 -44.5t31.5 -79.5q0 -41 -21 -76t-64 -57t-104 -22q-86 0 -136 41z" />
    <glyph glyph-name="uni0438" unicode="&#x438;" horiz-adv-x="560" 
d="M76 496h78v-391l242 391h88v-496h-78v391l-242 -391h-88v496z" />
    <glyph glyph-name="uni0439" unicode="&#x439;" horiz-adv-x="560" 
d="M76 496h78v-391l242 391h88v-496h-78v391l-242 -391h-88v496zM206 597q-29 29 -29 75h64q0 -20 10 -32t29 -12t29 12t10 32h64q0 -46 -29 -75t-74 -29t-74 29z" />
    <glyph glyph-name="uni043A" unicode="&#x43a;" horiz-adv-x="495" 
d="M76 496h78v-204l182 204h93l-196 -220l222 -276h-92l-209 257v-257h-78v496z" />
    <glyph glyph-name="uni043B" unicode="&#x43b;" horiz-adv-x="544" 
d="M20 0l11 68q13 -5 23 -5q15 0 21.5 9t8.5 28l38 396h346v-496h-78v428h-196l-33 -346q-4 -44 -28.5 -66.5t-62.5 -22.5q-24 0 -50 7z" />
    <glyph glyph-name="uni043C" unicode="&#x43c;" horiz-adv-x="644" 
d="M76 496h86l160 -428l160 428h86v-496h-78v346l-128 -346h-80l-128 346v-346h-78v496z" />
    <glyph glyph-name="uni043D" unicode="&#x43d;" horiz-adv-x="550" 
d="M76 496h78v-200h242v200h78v-496h-78v228h-242v-228h-78v496z" />
    <glyph glyph-name="uni043E" unicode="&#x43e;" horiz-adv-x="602" 
d="M522.5 107.5q-37.5 -59.5 -97.5 -90.5t-124 -31t-124 31t-97.5 90.5t-37.5 140.5t37.5 140.5t97.5 90.5t124 31t124 -31t97.5 -90.5t37.5 -140.5t-37.5 -140.5zM392 81q41 25 64.5 68.5t23.5 98.5t-23.5 98.5t-64.5 68.5t-91 25t-91 -25t-64.5 -68.5t-23.5 -98.5
t23.5 -98.5t64.5 -68.5t91 -25t91 25z" />
    <glyph glyph-name="uni043F" unicode="&#x43f;" horiz-adv-x="550" 
d="M76 496h398v-496h-78v428h-242v-428h-78v496z" />
    <glyph glyph-name="uni0440" unicode="&#x440;" horiz-adv-x="608" 
d="M154 496v-89q23 45 71 74t107 29q65 0 118.5 -32t84.5 -92t31 -138t-32 -137.5t-86.5 -92t-120.5 -32.5q-56 0 -101 24.5t-72 68.5v-283h-78v700h78zM230.5 414.5q-38.5 -23.5 -60.5 -67t-22 -99.5t22 -99.5t60.5 -67t86.5 -23.5t86.5 23.5t60.5 67t22 99.5t-22 99.5
t-60.5 67t-86.5 23.5t-86.5 -23.5z" />
    <glyph glyph-name="uni0441" unicode="&#x441;" horiz-adv-x="557" 
d="M427 23q-57 -37 -131 -37q-71 0 -129 33.5t-91.5 93.5t-33.5 135t34.5 134.5t93 93.5t126.5 34q79 0 136 -36t84 -100l-59 -39q-49 105 -160 105q-50 0 -90 -23.5t-63.5 -67t-23.5 -101.5t23 -101.5t63 -67t91 -23.5q59 0 98 27.5t68 81.5l56 -36q-35 -69 -92 -106z" />
    <glyph glyph-name="uni0442" unicode="&#x442;" horiz-adv-x="438" 
d="M180 428h-148v68h374v-68h-148v-428h-78v428z" />
    <glyph glyph-name="uni0443" unicode="&#x443;" horiz-adv-x="493" 
d="M108 -141q23 0 36 11t24 38l37 94l-200 494h86l157 -389l155 389h84l-249 -613q-21 -52 -51.5 -73t-78.5 -21q-28 0 -52 10l12 70q20 -10 40 -10z" />
    <glyph glyph-name="uni0444" unicode="&#x444;" horiz-adv-x="898" 
d="M410 72q-26 -44 -61.5 -65t-86.5 -21q-58 0 -108.5 33.5t-81 93t-30.5 135.5t28.5 136t77 93t106.5 33q103 0 156 -87v277h78v-277q23 39 64 63t95 24q56 0 104 -33t76.5 -93t28.5 -136t-30.5 -135.5t-81 -93t-108.5 -33.5q-51 0 -88.5 22t-59.5 64v-276h-78v276z
M376 108.5q40 50.5 40 139.5t-40 139.5t-107 50.5t-107 -50.5t-40 -139.5t40 -139.5t107 -50.5t107 50.5zM736 108.5q40 50.5 40 139.5t-40 139.5t-107 50.5t-107 -50.5t-40 -139.5t40 -139.5t107 -50.5t107 50.5z" />
    <glyph glyph-name="uni0445" unicode="&#x445;" horiz-adv-x="434" 
d="M327 496h89l-154 -230l171 -266h-88l-128 202l-129 -202h-89l176 264l-156 232h89l109 -173z" />
    <glyph glyph-name="uni0446" unicode="&#x446;" horiz-adv-x="572" 
d="M450 0h-374v496h78v-428h242v428h78v-428h46v-174h-70v106z" />
    <glyph glyph-name="uni0447" unicode="&#x447;" horiz-adv-x="552" 
d="M398 234q-18 -46 -57.5 -71.5t-92.5 -25.5q-74 0 -123 50t-49 147v162h78v-165q0 -61 30.5 -92.5t84.5 -31.5q60 0 94.5 45t34.5 120v124h78v-496h-78v234z" />
    <glyph glyph-name="uni0448" unicode="&#x448;" horiz-adv-x="752" 
d="M76 496h78v-428h183v428h78v-428h183v428h78v-496h-600v496z" />
    <glyph glyph-name="uni0449" unicode="&#x449;" horiz-adv-x="774" 
d="M652 0h-576v496h78v-428h183v428h78v-428h183v428h78v-428h46v-174h-70v106z" />
    <glyph glyph-name="uni044A" unicode="&#x44a;" horiz-adv-x="552" 
d="M117 428h-99v68h177v-206h134q81 0 127 -42t46 -107q0 -63 -47.5 -102t-125.5 -39h-212v428zM335 68q40 0 64.5 21.5t24.5 57.5t-24.5 57.5t-64.5 21.5h-140v-158h140z" />
    <glyph glyph-name="uni044B" unicode="&#x44b;" horiz-adv-x="741" 
d="M76 496h78v-206h134q81 0 127 -42t46 -107q0 -63 -47.5 -102t-125.5 -39h-212v496zM294 68q40 0 64.5 21.5t24.5 57.5t-24.5 57.5t-64.5 21.5h-140v-158h140zM665 496v-496h-78v496h78z" />
    <glyph glyph-name="uni044C" unicode="&#x44c;" horiz-adv-x="511" 
d="M76 496h78v-206h134q81 0 127 -42t46 -107q0 -63 -47.5 -102t-125.5 -39h-212v496zM294 68q40 0 64.5 21.5t24.5 57.5t-24.5 57.5t-64.5 21.5h-140v-158h140z" />
    <glyph glyph-name="uni044D" unicode="&#x44d;" horiz-adv-x="550" 
d="M130.5 26.5q-60.5 40.5 -92.5 107.5l61 42q28 -57 67.5 -88.5t103.5 -31.5q65 0 107.5 41t50.5 116h-264v70h264q-8 75 -51 116t-111 41q-51 0 -93 -26.5t-70 -80.5l-60 38q35 65 92 102t131 37q72 0 127 -33t85 -92.5t30 -136.5q0 -76 -31 -136t-85.5 -93t-121.5 -33
q-79 0 -139.5 40.5z" />
    <glyph glyph-name="uni044E" unicode="&#x44e;" horiz-adv-x="770" 
d="M361.5 13q-54.5 27 -92 78.5t-45.5 122.5h-70v-214h-78v496h78v-214h70q8 71 45.5 122.5t92 78.5t113.5 27q64 0 122 -31t94.5 -90.5t36.5 -140.5t-36.5 -140.5t-94.5 -90.5t-122 -31q-59 0 -113.5 27zM564.5 81q39.5 25 61.5 68.5t22 98.5t-22 98.5t-61.5 68.5t-89.5 25
t-89.5 -25t-61.5 -68.5t-22 -98.5t22 -98.5t61.5 -68.5t89.5 -25t89.5 25z" />
    <glyph glyph-name="uni044F" unicode="&#x44f;" horiz-adv-x="499" 
d="M173 221q-54 10 -85.5 46.5t-31.5 89.5q0 61 43 100t117 39h207v-496h-78v218h-89l-122 -218h-84zM345 282v150h-133q-37 0 -59.5 -19.5t-22.5 -55.5t22.5 -55.5t59.5 -19.5h133z" />
    <glyph glyph-name="uni0450" unicode="&#x450;" horiz-adv-x="574" 
d="M412.5 15.5q-52.5 -29.5 -124.5 -29.5q-67 0 -123.5 33.5t-89.5 93.5t-33 135t33 135t90 93.5t126 33.5q73 0 127 -31.5t83 -87.5t29 -129v-27h-410q4 -80 50 -131.5t121 -51.5q100 0 150 82l56 -35q-32 -54 -84.5 -83.5zM183 404.5q-43 -39.5 -57 -105.5h326
q-2 45 -26 78t-60 50t-75 17q-65 0 -108 -39.5zM161 700h107l64 -138h-71z" />
    <glyph glyph-name="uni0451" unicode="&#x451;" horiz-adv-x="574" 
d="M412.5 15.5q-52.5 -29.5 -124.5 -29.5q-67 0 -123.5 33.5t-89.5 93.5t-33 135t33 135t90 93.5t126 33.5q73 0 127 -31.5t83 -87.5t29 -129v-27h-410q4 -80 50 -131.5t121 -51.5q100 0 150 82l56 -35q-32 -54 -84.5 -83.5zM183 404.5q-43 -39.5 -57 -105.5h326
q-2 45 -26 78t-60 50t-75 17q-65 0 -108 -39.5zM162 680h92v-92h-92v92zM320 680h92v-92h-92v92z" />
    <glyph glyph-name="uni0452" unicode="&#x452;" horiz-adv-x="577" 
d="M318 -203l10 70q19 -8 39 -8q31 0 43.5 16.5t12.5 54.5v391q0 57 -33.5 88t-87.5 31q-39 0 -73 -20.5t-54.5 -58t-20.5 -86.5v-275h-78v568h-66v64h66v68h78v-68h163v-64h-163v-159q24 46 70 73.5t99 27.5q75 0 126.5 -44.5t51.5 -130.5v-393q0 -72 -31 -112.5
t-104 -40.5q-19 0 -48 8z" />
    <glyph glyph-name="uni0453" unicode="&#x453;" horiz-adv-x="415" 
d="M76 496h301v-68h-223v-428h-78v496zM234 700h107l-100 -138h-71z" />
    <glyph glyph-name="uni0454" unicode="&#x454;" horiz-adv-x="545" 
d="M159.5 19q-55.5 33 -86.5 93t-31 136t31.5 136t87.5 93t127 33q81 0 134 -34.5t84 -99.5l-60 -38q-52 102 -158 102q-68 0 -112.5 -41.5t-53.5 -115.5h264v-70h-264q9 -73 54 -115t112 -42q59 0 96.5 27.5t65.5 81.5l57 -35q-31 -68 -87 -106t-135 -38q-70 0 -125.5 33z
" />
    <glyph glyph-name="uni0455" unicode="&#x455;" horiz-adv-x="491" 
d="M137.5 15q-50.5 29 -78.5 78l56 55q17 -42 54.5 -68t85.5 -26q51 0 82.5 23.5t31.5 64.5q0 36 -30.5 56.5t-96.5 32.5q-74 14 -120 49.5t-46 95.5q0 61 50 97.5t121 36.5q63 0 107.5 -24.5t69.5 -65.5l-46 -46q-30 38 -60.5 54t-69.5 16q-44 0 -72 -16.5t-28 -48.5
q0 -36 33.5 -56t98.5 -32q82 -16 124.5 -51t42.5 -95q0 -43 -23 -79t-66.5 -58t-102.5 -22q-67 0 -117.5 29z" />
    <glyph glyph-name="uni0456" unicode="&#x456;" horiz-adv-x="230" 
d="M154 496v-496h-78v496h78zM68 680h94v-98h-94v98z" />
    <glyph glyph-name="uni0457" unicode="&#x457;" horiz-adv-x="230" 
d="M154 496v-496h-78v496h78zM-10 680h92v-92h-92v92zM148 680h92v-92h-92v92z" />
    <glyph glyph-name="uni0458" unicode="&#x458;" horiz-adv-x="230" 
d="M68 680h94v-98h-94v98zM-29 -203l10 70q19 -8 39 -8q31 0 43.5 16t12.5 54v567h78v-554q0 -72 -31 -112.5t-104 -40.5q-19 0 -48 8z" />
    <glyph glyph-name="uni0459" unicode="&#x459;" horiz-adv-x="782" 
d="M20 0l11 68q13 -5 23 -5q15 0 21.5 9t8.5 28l38 396h303v-206h134q81 0 127 -42t46 -107q0 -63 -47.5 -102t-125.5 -39h-212v428h-153l-33 -346q-4 -44 -28.5 -66.5t-62.5 -22.5q-24 0 -50 7zM565 68q40 0 64.5 21.5t24.5 57.5t-24.5 57.5t-64.5 21.5h-140v-158h140z" />
    <glyph glyph-name="uni045A" unicode="&#x45a;" horiz-adv-x="809" 
d="M76 496h78v-200h220v200h78v-200h134q81 0 127 -41t46 -107t-46 -107t-127 -41h-212v228h-220v-228h-78v496zM592 68q40 0 64.5 21t24.5 59t-24.5 59t-64.5 21h-140v-160h140z" />
    <glyph glyph-name="uni045B" unicode="&#x45b;" horiz-adv-x="577" 
d="M423 0v321q0 57 -33.5 88t-87.5 31q-39 0 -73 -20.5t-54.5 -58t-20.5 -86.5v-275h-78v700h78v-291q24 46 70 73.5t99 27.5q75 0 126.5 -44.5t51.5 -130.5v-335h-78zM10 632h307v-64h-307v64z" />
    <glyph glyph-name="uni045C" unicode="&#x45c;" horiz-adv-x="495" 
d="M76 496h78v-204l182 204h93l-196 -220l222 -276h-92l-209 257v-257h-78v496zM256 700h107l-100 -138h-71z" />
    <glyph glyph-name="uni045D" unicode="&#x45d;" horiz-adv-x="560" 
d="M76 496h78v-391l242 391h88v-496h-78v391l-242 -391h-88v496zM154 700h107l64 -138h-71z" />
    <glyph glyph-name="uni045E" unicode="&#x45e;" horiz-adv-x="493" 
d="M108 -141q23 0 36 11t24 38l37 94l-200 494h86l157 -389l155 389h84l-249 -613q-21 -52 -51.5 -73t-78.5 -21q-28 0 -52 10l12 70q20 -10 40 -10zM173 597q-29 29 -29 75h64q0 -20 10 -32t29 -12t29 12t10 32h64q0 -46 -29 -75t-74 -29t-74 29z" />
    <glyph glyph-name="uni045F" unicode="&#x45f;" horiz-adv-x="550" 
d="M240 0h-164v496h78v-428h242v428h78v-496h-164v-106h-70v106z" />
    <glyph glyph-name="uni0462" unicode="&#x462;" horiz-adv-x="715" 
d="M592.5 353q66.5 -53 66.5 -150t-66.5 -150t-176.5 -53h-258v529h-138v70h138v101h84v-101h228v-70h-228v-123h174q110 0 176.5 -53zM530.5 102q48.5 32 48.5 101t-48.5 101t-127.5 32h-161v-266h161q79 0 127.5 32z" />
    <glyph glyph-name="uni0463" unicode="&#x463;" horiz-adv-x="532" 
d="M436 248q46 -42 46 -107q0 -63 -47.5 -102t-125.5 -39h-212v432h-97v64h97v204h78v-204h158v-64h-158v-142h134q81 0 127 -42zM379.5 89.5q24.5 21.5 24.5 57.5t-24.5 57.5t-64.5 21.5h-140v-158h140q40 0 64.5 21.5z" />
    <glyph glyph-name="uni0472" unicode="&#x472;" horiz-adv-x="788" 
d="M565 668q77 -46 122 -128.5t45 -189.5t-45 -189.5t-122 -128.5t-171 -46t-171 46t-122 128.5t-45 189.5t45 189.5t122 128.5t171 46t171 -46zM278.5 611.5q-52.5 -28.5 -87.5 -81.5t-45 -123q52 20 105 20q44 0 80.5 -11t84.5 -33q40 -18 66 -27t55 -9q58 0 108 26
q-4 79 -37.5 140t-89 94t-124.5 33q-63 0 -115.5 -28.5zM509.5 88.5q52.5 28.5 87.5 81t45 122.5q-55 -19 -105 -19q-44 0 -80.5 11t-84.5 33q-40 18 -66 27t-55 9q-58 0 -108 -26q4 -79 37.5 -140t89 -94t124.5 -33q63 0 115.5 28.5z" />
    <glyph glyph-name="uni0473" unicode="&#x473;" horiz-adv-x="600" 
d="M425 479q60 -31 97.5 -90.5t37.5 -140.5t-37.5 -140.5t-97.5 -90.5t-124 -31t-124 31t-97.5 90.5t-37.5 140.5t37.5 140.5t97.5 90.5t124 31t124 -31zM190.5 401q-47.5 -39 -62.5 -102q36 12 76 12q28 0 51 -7.5t55 -22.5q29 -14 49 -21t43 -7q40 0 77 15
q-4 49 -28.5 88.5t-63.5 61.5t-86 22q-63 0 -110.5 -39zM411.5 95q47.5 39 62.5 102q-36 -12 -76 -12q-28 0 -51 7.5t-55 22.5q-29 14 -49 21t-43 7q-40 0 -77 -15q4 -49 28.5 -88.5t63.5 -61.5t86 -22q63 0 110.5 39z" />
    <glyph glyph-name="uni0474" unicode="&#x474;" horiz-adv-x="735" 
d="M2 700h84l192 -529q3 -8 10 -31t16 -52q9 29 16 52t10 31l159 438q19 53 48 79t77 26q73 0 101 -51l-52 -49q-18 26 -48 26q-17 0 -28.5 -12.5t-21.5 -39.5l-217 -588h-88z" />
    <glyph glyph-name="uni0475" unicode="&#x475;" horiz-adv-x="601" 
d="M8 496h84l155 -406l128 334q33 86 116 86q34 0 60 -15.5t38 -39.5l-51 -49q-9 18 -19 26t-25 8q-17 0 -28.5 -11t-21.5 -35l-158 -394h-78z" />
    <glyph glyph-name="uni0490" unicode="&#x490;" horiz-adv-x="555" 
d="M536 790v-164h-364v-626h-84v700h364v90h84z" />
    <glyph glyph-name="uni0491" unicode="&#x491;" horiz-adv-x="415" 
d="M377 586v-158h-223v-428h-78v496h223v90h78z" />
    <glyph glyph-name="Wgrave" unicode="&#x1e80;" horiz-adv-x="892" 
d="M5 700h83l142 -527l17 -73l10 44t7 30l137 526h90l137 -526q2 -8 7 -30l10 -44l17 73l142 527h83l-197 -700h-87l-157 596l-157 -596h-87zM331 904h107l64 -138h-71z" />
    <glyph glyph-name="wgrave" unicode="&#x1e81;" horiz-adv-x="682" 
d="M595 496h80l-140 -496h-84l-110 404l-110 -404h-84l-140 496h80l101 -398l112 398h82l112 -398zM215 700h107l64 -138h-71z" />
    <glyph glyph-name="Wacute" unicode="&#x1e82;" horiz-adv-x="892" 
d="M5 700h83l142 -527l17 -73l10 44t7 30l137 526h90l137 -526q2 -8 7 -30l10 -44l17 73l142 527h83l-197 -700h-87l-157 596l-157 -596h-87zM454 904h107l-100 -138h-71z" />
    <glyph glyph-name="wacute" unicode="&#x1e83;" horiz-adv-x="682" 
d="M595 496h80l-140 -496h-84l-110 404l-110 -404h-84l-140 496h80l101 -398l112 398h82l112 -398zM349 700h107l-100 -138h-71z" />
    <glyph glyph-name="Wdieresis" unicode="&#x1e84;" horiz-adv-x="892" 
d="M5 700h83l142 -527l17 -73l10 44t7 30l137 526h90l137 -526q2 -8 7 -30l10 -44l17 73l142 527h83l-197 -700h-87l-157 596l-157 -596h-87zM321 884h92v-92h-92v92zM479 884h92v-92h-92v92z" />
    <glyph glyph-name="wdieresis" unicode="&#x1e85;" horiz-adv-x="682" 
d="M595 496h80l-140 -496h-84l-110 404l-110 -404h-84l-140 496h80l101 -398l112 398h82l112 -398zM216 680h92v-92h-92v92zM374 680h92v-92h-92v92z" />
    <glyph glyph-name="uni1E9E" unicode="&#x1e9e;" horiz-adv-x="661" 
d="M281.5 15.5q-47.5 29.5 -70.5 73.5l61 58q24 -41 53 -61.5t72 -20.5q54 0 89 38t35 105q0 77 -60 117.5t-163 40.5v64l138 196h-129q-65 0 -100 -35t-35 -100v-491h-84v485q0 104 55.5 159.5t159.5 55.5h223v-74l-134 -190q59 -8 107.5 -37t77 -77.5t28.5 -111.5
q0 -64 -27 -115t-75 -80t-110 -29q-64 0 -111.5 29.5z" />
    <glyph glyph-name="Ygrave" unicode="&#x1ef2;" horiz-adv-x="552" 
d="M234 287l-230 413h91l159 -296q2 -4 8.5 -17.5t13.5 -31.5q7 18 13.5 31.5t8.5 17.5l159 296h91l-230 -413v-287h-84v287zM161 904h107l64 -138h-71z" />
    <glyph glyph-name="ygrave" unicode="&#x1ef3;" horiz-adv-x="493" 
d="M108 -141q23 0 36 11t24 38l37 94l-200 494h86l157 -389l155 389h84l-249 -613q-21 -52 -51.5 -73t-78.5 -21q-28 0 -52 10l12 70q20 -10 40 -10zM121 700h107l64 -138h-71z" />
    <glyph glyph-name="endash" unicode="&#x2013;" horiz-adv-x="517" 
d="M48 342h421v-62h-421v62z" />
    <glyph glyph-name="emdash" unicode="&#x2014;" horiz-adv-x="797" 
d="M48 342h701v-62h-701v62z" />
    <glyph glyph-name="quoteleft" unicode="&#x2018;" horiz-adv-x="196" 
d="M45 579l97 128l20 -15l-60 -113h37v-98h-94v98z" />
    <glyph glyph-name="quoteright" unicode="&#x2019;" horiz-adv-x="196" 
d="M34 489l60 113h-37v98h94v-98l-97 -128z" />
    <glyph glyph-name="quotesinglbase" unicode="&#x201a;" horiz-adv-x="196" 
d="M34 -113l60 113h-37v98h94v-98l-97 -128z" />
    <glyph glyph-name="quotedblleft" unicode="&#x201c;" horiz-adv-x="332" 
d="M45 579l97 128l20 -15l-60 -113h37v-98h-94v98zM181 579l97 128l20 -15l-60 -113h37v-98h-94v98z" />
    <glyph glyph-name="quotedblright" unicode="&#x201d;" horiz-adv-x="332" 
d="M34 489l60 113h-37v98h94v-98l-97 -128zM170 489l60 113h-37v98h94v-98l-97 -128z" />
    <glyph glyph-name="quotedblbase" unicode="&#x201e;" horiz-adv-x="332" 
d="M34 -113l60 113h-37v98h94v-98l-97 -128zM170 -113l60 113h-37v98h94v-98l-97 -128z" />
    <glyph glyph-name="dagger" unicode="&#x2020;" horiz-adv-x="456" 
d="M188 428h-140v68h140v244h80v-244h140v-68h-140v-538h-80v538z" />
    <glyph glyph-name="daggerdbl" unicode="&#x2021;" horiz-adv-x="456" 
d="M188 134h-140v68h140v226h-140v68h140v244h80v-244h140v-68h-140v-226h140v-68h-140v-244h-80v244z" />
    <glyph glyph-name="bullet" unicode="&#x2022;" horiz-adv-x="286" 
d="M79 211q-27 27 -27 64q0 38 27 64.5t64 26.5q38 0 64.5 -26.5t26.5 -64.5q0 -37 -26.5 -64t-64.5 -27q-37 0 -64 27z" />
    <glyph glyph-name="ellipsis" unicode="&#x2026;" horiz-adv-x="550" 
d="M48 98h94v-98h-94v98zM228 98h94v-98h-94v98zM408 98h94v-98h-94v98z" />
    <glyph glyph-name="perthousand" unicode="&#x2030;" horiz-adv-x="1159" 
d="M134 387.5q-39 23.5 -60.5 63.5t-21.5 88t21.5 88t60.5 63.5t88 23.5t88 -23.5t60.5 -63.5t21.5 -88t-21.5 -88t-60.5 -63.5t-88 -23.5t-88 23.5zM199 35l435 665l52 -35l-435 -665zM297.5 457q28.5 31 28.5 82t-28.5 82t-75.5 31t-75.5 -31t-28.5 -82t28.5 -82t75.5 -31
t75.5 31zM575 9.5q-39 23.5 -60.5 63.5t-21.5 88t21.5 88t60.5 63.5t88 23.5q43 0 78.5 -18.5t58.5 -50.5q23 32 58.5 50.5t78.5 18.5q49 0 88 -23.5t60.5 -63.5t21.5 -88t-21.5 -88t-60.5 -63.5t-88 -23.5q-43 0 -78.5 18t-58.5 50q-23 -32 -58.5 -50t-78.5 -18
q-49 0 -88 23.5zM738.5 79q28.5 31 28.5 82t-28.5 82t-75.5 31t-75.5 -31t-28.5 -82t28.5 -82t75.5 -31t75.5 31zM1012.5 79q28.5 31 28.5 82t-28.5 82t-75.5 31t-75.5 -31t-28.5 -82t28.5 -82t75.5 -31t75.5 31z" />
    <glyph glyph-name="guilsinglleft" unicode="&#x2039;" horiz-adv-x="333" 
d="M48 275l156 199h93l-152 -199l152 -199h-93z" />
    <glyph glyph-name="guilsinglright" unicode="&#x203a;" horiz-adv-x="333" 
d="M188 275l-152 199h93l156 -199l-156 -199h-93z" />
    <glyph glyph-name="fraction" unicode="&#x2044;" horiz-adv-x="527" 
d="M20 35l435 665l52 -35l-435 -665z" />
    <glyph glyph-name="uni2070" unicode="&#x2070;" horiz-adv-x="384" 
d="M113.5 366q-34.5 23 -54 64t-19.5 95t19.5 95t54 64t78.5 23t78.5 -23t54 -64t19.5 -95t-19.5 -95t-54 -64t-78.5 -23t-78.5 23zM259 433q25 33 25 92t-25 92t-67 33t-67 -33t-25 -92t25 -92t67 -33t67 33z" />
    <glyph glyph-name="uni2074" unicode="&#x2074;" horiz-adv-x="377" 
d="M222 416h-165v52l165 232h62v-232h39v-52h-39v-66h-62v66zM222 468v144l-105 -144h105z" />
    <glyph glyph-name="uni2075" unicode="&#x2075;" horiz-adv-x="356" 
d="M92 372q-34 29 -34 69q0 15 4 27l57 -10q-3 -7 -3 -16q0 -24 19 -36.5t50 -12.5q33 0 52 20t19 53t-19 53t-50 20q-26 0 -45.5 -12.5t-30.5 -30.5l-49 14l18 190h217v-50h-168l-13 -98q14 17 36.5 27t45.5 10q54 0 86 -33t32 -89q0 -54 -36 -89t-95 -35t-93 29z" />
    <glyph glyph-name="uni2076" unicode="&#x2076;" horiz-adv-x="357" 
d="M92.5 386q-36.5 43 -36.5 118q0 65 20 115q16 41 49.5 64.5t72.5 23.5q45 0 75.5 -23.5t30.5 -63.5q0 -13 -5 -25l-53 10q4 11 4 18q0 14 -14 24t-38 10q-39 0 -60.5 -35t-23.5 -88q11 19 34 31.5t51 12.5q50 0 83 -32t33 -84t-36.5 -85.5t-90.5 -33.5q-59 0 -95.5 43z
M238.5 409.5q20.5 19.5 20.5 51.5t-20.5 51.5t-50.5 19.5q-29 0 -50 -19.5t-21 -51.5t21 -51.5t50 -19.5q30 0 50.5 19.5z" />
    <glyph glyph-name="uni2077" unicode="&#x2077;" horiz-adv-x="311" 
d="M216 650h-164v50h226v-47l-141 -303h-61z" />
    <glyph glyph-name="uni2078" unicode="&#x2078;" horiz-adv-x="340" 
d="M80.5 373q-35.5 30 -35.5 77q0 59 55 88q-43 29 -43 75q0 41 32 67.5t81 26.5t81 -26.5t32 -67.5q0 -46 -43 -75q55 -29 55 -88q0 -47 -35.5 -77t-89.5 -30t-89.5 30zM210.5 573q15.5 14 15.5 37t-16 37t-40 14t-40 -14t-16 -37t15.5 -37t40.5 -14t40.5 14zM215 407.5
q18 16.5 18 44.5q0 29 -18.5 45t-44.5 16t-44.5 -16t-18.5 -45q0 -28 18 -44.5t45 -16.5t45 16.5z" />
    <glyph glyph-name="uni2079" unicode="&#x2079;" horiz-adv-x="340" 
d="M92.5 365.5q-31.5 22.5 -31.5 59.5q0 15 5 30l53 -10q-4 -11 -4 -18q0 -14 14 -24t38 -10q40 0 61.5 34t23.5 93q-10 -21 -32.5 -34.5t-50.5 -13.5q-49 0 -84 32.5t-35 83.5q0 52 36.5 85.5t90.5 33.5q61 0 96.5 -42.5t35.5 -118.5q0 -65 -20 -115q-16 -42 -48.5 -65
t-71.5 -23q-45 0 -76.5 22.5zM227.5 537.5q21.5 19.5 21.5 51.5t-21.5 51.5t-50.5 19.5q-30 0 -50.5 -19.5t-20.5 -51.5t20.5 -51.5t50.5 -19.5q29 0 50.5 19.5z" />
    <glyph glyph-name="uni2080" unicode="&#x2080;" horiz-adv-x="384" 
d="M113.5 -188q-34.5 23 -54 64t-19.5 95t19.5 95t54 64t78.5 23t78.5 -23t54 -64t19.5 -95t-19.5 -95t-54 -64t-78.5 -23t-78.5 23zM259 -121q25 33 25 92t-25 92t-67 33t-67 -33t-25 -92t25 -92t67 -33t67 33z" />
    <glyph glyph-name="uni2081" unicode="&#x2081;" horiz-adv-x="251" 
d="M121 69q-13 -11 -30.5 -15t-44.5 -4v53q32 0 50.5 10t28.5 33h56v-350h-60v273z" />
    <glyph glyph-name="uni2082" unicode="&#x2082;" horiz-adv-x="339" 
d="M62 -162l129 126q25 24 34 44t9 43q0 20 -15 35t-42 15q-26 0 -42.5 -14.5t-16.5 -41.5q0 -12 4 -21l-54 -7q-6 14 -6 33q0 26 14 49.5t40.5 38.5t60.5 15q54 0 85.5 -28t31.5 -72q0 -33 -15 -62t-50 -63l-79 -78h148v-54h-236v42z" />
    <glyph glyph-name="uni2083" unicode="&#x2083;" horiz-adv-x="346" 
d="M110.5 -196.5q-28.5 14.5 -43.5 37.5t-15 48q0 20 8 34l53 -12q-3 -9 -3 -19q0 -24 19 -37.5t49 -13.5q31 0 48.5 15.5t17.5 45.5q0 29 -26 44t-68 15v45q76 0 76 57q0 19 -15.5 30.5t-38.5 11.5q-24 0 -40.5 -13.5t-16.5 -35.5q0 -6 2 -16l-49 -6q-5 14 -5 31
q0 37 30.5 62.5t78.5 25.5q51 0 82 -24.5t31 -60.5q0 -54 -52 -79q30 -9 49.5 -32.5t19.5 -56.5q0 -51 -35.5 -81t-88.5 -30q-39 0 -67.5 14.5z" />
    <glyph glyph-name="uni2084" unicode="&#x2084;" horiz-adv-x="377" 
d="M222 -138h-165v52l165 232h62v-232h39v-52h-39v-66h-62v66zM222 -86v144l-105 -144h105z" />
    <glyph glyph-name="uni2085" unicode="&#x2085;" horiz-adv-x="356" 
d="M92 -182q-34 29 -34 69q0 15 4 27l57 -10q-3 -7 -3 -16q0 -24 19 -36.5t50 -12.5q33 0 52 20t19 53t-19 53t-50 20q-26 0 -45.5 -12.5t-30.5 -30.5l-49 14l18 190h217v-50h-168l-13 -98q14 17 36.5 27t45.5 10q54 0 86 -33t32 -89q0 -54 -36 -89t-95 -35t-93 29z" />
    <glyph glyph-name="uni2086" unicode="&#x2086;" horiz-adv-x="357" 
d="M92.5 -168q-36.5 43 -36.5 118q0 65 20 115q16 41 49.5 64.5t72.5 23.5q45 0 75.5 -23.5t30.5 -63.5q0 -13 -5 -25l-53 10q4 11 4 18q0 14 -14 24t-38 10q-39 0 -60.5 -35t-23.5 -88q11 19 34 31.5t51 12.5q50 0 83 -32t33 -84t-36.5 -85.5t-90.5 -33.5q-59 0 -95.5 43z
M238.5 -144.5q20.5 19.5 20.5 51.5t-20.5 51.5t-50.5 19.5q-29 0 -50 -19.5t-21 -51.5t21 -51.5t50 -19.5q30 0 50.5 19.5z" />
    <glyph glyph-name="uni2087" unicode="&#x2087;" horiz-adv-x="311" 
d="M216 96h-164v50h226v-47l-141 -303h-61z" />
    <glyph glyph-name="uni2088" unicode="&#x2088;" horiz-adv-x="340" 
d="M80.5 -181q-35.5 30 -35.5 77q0 59 55 88q-43 29 -43 75q0 41 32 67.5t81 26.5t81 -26.5t32 -67.5q0 -46 -43 -75q55 -29 55 -88q0 -47 -35.5 -77t-89.5 -30t-89.5 30zM210.5 19q15.5 14 15.5 37t-16 37t-40 14t-40 -14t-16 -37t15.5 -37t40.5 -14t40.5 14zM215 -146.5
q18 16.5 18 44.5q0 29 -18.5 45t-44.5 16t-44.5 -16t-18.5 -45q0 -28 18 -44.5t45 -16.5t45 16.5z" />
    <glyph glyph-name="uni2089" unicode="&#x2089;" horiz-adv-x="340" 
d="M92.5 -188.5q-31.5 22.5 -31.5 59.5q0 15 5 30l53 -10q-4 -11 -4 -18q0 -14 14 -24t38 -10q40 0 61.5 34t23.5 93q-10 -21 -32.5 -34.5t-50.5 -13.5q-49 0 -84 32.5t-35 83.5q0 52 36.5 85.5t90.5 33.5q61 0 96.5 -42.5t35.5 -118.5q0 -65 -20 -115q-16 -42 -48.5 -65
t-71.5 -23q-45 0 -76.5 22.5zM227.5 -16.5q21.5 19.5 21.5 51.5t-21.5 51.5t-50.5 19.5q-30 0 -50.5 -19.5t-20.5 -51.5t20.5 -51.5t50.5 -19.5q29 0 50.5 19.5z" />
    <glyph glyph-name="Euro" unicode="&#x20ac;" horiz-adv-x="759" 
d="M234.5 55q-81.5 69 -107.5 189h-85l28 62h48q-2 28 -2 44t2 44h-76l28 62h57q17 78 61.5 136.5t107 90t133.5 31.5q214 0 273 -190l-73 -28q-23 75 -73.5 109.5t-126.5 34.5q-81 0 -137.5 -48t-77.5 -136h286l-28 -62h-268q-2 -28 -2 -44t2 -44h296l-28 -62h-259
q21 -87 77 -135.5t137 -48.5q79 0 126.5 39.5t74.5 122.5l75 -26q-30 -99 -101 -154.5t-175 -55.5q-111 0 -192.5 69z" />
    <glyph glyph-name="uni20B4" unicode="&#x20b4;" horiz-adv-x="649" 
d="M23 441h407q51 36 51 91q0 52 -42.5 81t-109.5 29q-69 0 -116.5 -33.5t-69.5 -96.5l-68 40q26 76 93.5 119t160.5 43q67 0 120.5 -22.5t83.5 -62t30 -87.5q0 -34 -12 -58t-37 -43h114v-60h-605v60zM186.5 11q-57.5 25 -90 67t-32.5 93q0 23 7.5 44t21.5 36h-70v60h605
v-60h-463q-17 -24 -17 -66q0 -53 45 -89t124 -36t125 32.5t64 98.5l77 -16q-17 -84 -84.5 -136.5t-181.5 -52.5q-73 0 -130.5 25z" />
    <glyph glyph-name="uni20BA" unicode="&#x20ba;" horiz-adv-x="536" 
d="M486 298v-20q0 -136 -83.5 -207t-225.5 -71h-82v214l-78 -37v80l78 37v94l-78 -37v80l78 37v232h82v-193l131 62v-80l-131 -62v-94l131 62v-80l-131 -62v-179q106 0 167.5 51t61.5 153v20h80z" />
    <glyph glyph-name="uni20BD" unicode="&#x20bd;" horiz-adv-x="614" 
d="M446 673q55 -27 84.5 -76.5t29.5 -114.5t-29.5 -114.5t-84.5 -76.5t-128 -27h-143v-91h137v-74h-137v-99h-84v99h-79v74h79v91h-79v74h79v362h227q73 0 128 -27zM433.5 374.5q42.5 36.5 42.5 107.5t-42.5 107.5t-119.5 36.5h-139v-288h139q77 0 119.5 36.5z" />
    <glyph glyph-name="uni2113" unicode="&#x2113;" horiz-adv-x="551" 
d="M312.5 84.5q31.5 26.5 69.5 97.5l56 -36q-39 -79 -89.5 -119.5t-119.5 -40.5q-57 0 -95.5 42.5t-44.5 126.5q-25 -7 -64 -16v80l64 15q7 149 53 258t114 165.5t138 56.5q64 0 95.5 -39.5t31.5 -111.5q0 -122 -93.5 -222.5t-261.5 -160.5q2 -65 20.5 -93.5t51.5 -28.5
q43 0 74.5 26.5zM288 595q-47 -52 -79.5 -141t-40.5 -196q134 49 204.5 125.5t70.5 175.5q0 40 -15.5 64t-45.5 24q-47 0 -94 -52z" />
    <glyph glyph-name="uni2116" unicode="&#x2116;" horiz-adv-x="1302" 
d="M1222.5 311.5q-37.5 -59.5 -97.5 -90.5t-124 -31t-124 31t-97.5 90.5t-37.5 140.5t37.5 140.5t97.5 90.5t124 31t124 -31t97.5 -90.5t37.5 -140.5t-37.5 -140.5zM177 700l333 -527q4 -6 15 -26t15 -29v582h80v-700h-89l-333 527q-4 6 -15 26t-15 29v-582h-80v700h89z
M1092 285q41 25 64.5 68.5t23.5 98.5t-23.5 98.5t-64.5 68.5t-91 25t-91 -25t-64.5 -68.5t-23.5 -98.5t23.5 -98.5t64.5 -68.5t91 -25t91 25zM776 62h450v-62h-450v62z" />
    <glyph glyph-name="uni2117" unicode="&#x2117;" horiz-adv-x="848" 
d="M241.5 35q-83.5 49 -132.5 132.5t-49 182.5t49 182.5t132.5 132.5t182.5 49t182.5 -49t132.5 -132.5t49 -182.5t-49 -182.5t-132.5 -132.5t-182.5 -49t-182.5 49zM577 85q70 41 110.5 111.5t40.5 153.5t-40.5 153.5t-110.5 111.5t-153 41t-153 -41t-110.5 -111.5
t-40.5 -153.5t40.5 -153.5t110.5 -111.5t153 -41t153 41zM286 549h173q63 0 98 -32t35 -85t-35 -84.5t-98 -31.5h-113v-165h-60v398zM455 367q78 0 78 65q0 64 -78 64h-109v-129h109z" />
    <glyph glyph-name="uni2120" unicode="&#x2120;" horiz-adv-x="873" 
d="M100.5 326q-40.5 33 -58.5 90l51 24q28 -97 113 -97q43 0 68 19t25 51q0 29 -26.5 46t-77.5 26q-63 10 -98.5 38t-35.5 75q0 48 38 79t96 31q114 0 151 -99l-43 -27q-16 40 -41.5 58t-66.5 18q-36 0 -58 -16t-22 -43q0 -28 28.5 -44.5t84.5 -26.5q59 -11 92 -37.5
t33 -70.5q0 -56 -39.5 -91.5t-107.5 -35.5q-65 0 -105.5 33zM415 700h56l146 -339l146 339h56v-400h-52v291l-121 -291h-58l-121 291v-291h-52v400z" />
    <glyph glyph-name="trademark" unicode="&#x2122;" horiz-adv-x="848" 
d="M158 650h-120v50h298v-50h-120v-350h-58v350zM390 700h56l146 -339l146 339h56v-400h-52v291l-121 -291h-58l-121 291v-291h-52v400z" />
    <glyph glyph-name="uni2126" unicode="&#x2126;" horiz-adv-x="788" 
d="M77 74h157q-45 26 -86 73t-66.5 108t-25.5 128q0 94 44.5 170t121.5 118.5t172 42.5t172 -42.5t121.5 -118.5t44.5 -170q0 -67 -25.5 -128t-66.5 -108t-86 -73h157v-74h-257v88q48 20 91.5 59.5t72 98.5t28.5 132q0 74 -32 134t-89.5 94t-130.5 34t-130.5 -34t-89.5 -94
t-32 -134q0 -73 28.5 -132t72 -98.5t91.5 -59.5v-88h-257v74z" />
    <glyph glyph-name="estimated" unicode="&#x212e;" horiz-adv-x="848" 
d="M596.5 83q77.5 51 115.5 135h51q-26 -68 -77 -120.5t-118.5 -82t-143.5 -29.5q-99 0 -182.5 49t-132.5 132.5t-49 182.5t49 182.5t132.5 132.5t182.5 49t182.5 -49t132.5 -132.5t49 -182.5h-596v-217q44 -47 104 -74t128 -27q95 0 172.5 51zM296 641q-60 -27 -104 -74
v-171h464v171q-44 47 -104 74t-128 27t-128 -27z" />
    <glyph glyph-name="uni2153" unicode="&#x2153;" horiz-adv-x="768" 
d="M532.5 7.5q-28.5 14.5 -43.5 37.5t-15 48q0 20 8 34l53 -12q-3 -9 -3 -19q0 -24 19 -37.5t49 -13.5q31 0 48.5 15.5t17.5 45.5q0 29 -26 44t-68 15v45q76 0 76 57q0 19 -15.5 30.5t-38.5 11.5q-24 0 -40.5 -13.5t-16.5 -35.5q0 -6 2 -16l-49 -6q-5 14 -5 31
q0 37 30.5 62.5t78.5 25.5q51 0 82 -24.5t31 -60.5q0 -54 -52 -79q30 -9 49.5 -32.5t19.5 -56.5q0 -51 -35.5 -81t-88.5 -30q-39 0 -67.5 14.5zM122 35l435 665l52 -35l-435 -665zM121 623q-13 -11 -30.5 -15t-44.5 -4v53q32 0 50.5 10t28.5 33h56v-350h-60v273z" />
    <glyph glyph-name="uni2154" unicode="&#x2154;" horiz-adv-x="845" 
d="M609.5 7.5q-28.5 14.5 -43.5 37.5t-15 48q0 20 8 34l53 -12q-3 -9 -3 -19q0 -24 19 -37.5t49 -13.5q31 0 48.5 15.5t17.5 45.5q0 29 -26 44t-68 15v45q76 0 76 57q0 19 -15.5 30.5t-38.5 11.5q-24 0 -40.5 -13.5t-16.5 -35.5q0 -6 2 -16l-49 -6q-5 14 -5 31
q0 37 30.5 62.5t78.5 25.5q51 0 82 -24.5t31 -60.5q0 -54 -52 -79q30 -9 49.5 -32.5t19.5 -56.5q0 -51 -35.5 -81t-88.5 -30q-39 0 -67.5 14.5zM200 35l435 665l52 -35l-435 -665zM62 392l129 126q25 24 34 44t9 43q0 20 -15 35t-42 15q-26 0 -42.5 -14.5t-16.5 -41.5
q0 -12 4 -21l-54 -7q-6 14 -6 33q0 26 14 49.5t40.5 38.5t60.5 15q54 0 85.5 -28t31.5 -72q0 -33 -15 -62t-50 -63l-79 -78h148v-54h-236v42z" />
    <glyph glyph-name="oneeighth" unicode="&#x215b;" horiz-adv-x="765" 
d="M121 623q-13 -11 -30.5 -15t-44.5 -4v53q32 0 50.5 10t28.5 33h56v-350h-60v273zM123 35l435 665l52 -35l-435 -665zM505.5 23q-35.5 30 -35.5 77q0 59 55 88q-43 29 -43 75q0 41 32 67.5t81 26.5t81 -26.5t32 -67.5q0 -46 -43 -75q55 -29 55 -88q0 -47 -35.5 -77
t-89.5 -30t-89.5 30zM635.5 223q15.5 14 15.5 37t-16 37t-40 14t-40 -14t-16 -37t15.5 -37t40.5 -14t40.5 14zM640 57.5q18 16.5 18 44.5q0 29 -18.5 45t-44.5 16t-44.5 -16t-18.5 -45q0 -28 18 -44.5t45 -16.5t45 16.5z" />
    <glyph glyph-name="threeeighths" unicode="&#x215c;" horiz-adv-x="822" 
d="M110.5 357.5q-28.5 14.5 -43.5 37.5t-15 48q0 20 8 34l53 -12q-3 -9 -3 -19q0 -24 19 -37.5t49 -13.5q31 0 48.5 15.5t17.5 45.5q0 29 -26 44t-68 15v45q76 0 76 57q0 19 -15.5 30.5t-38.5 11.5q-24 0 -40.5 -13.5t-16.5 -35.5q0 -6 2 -16l-49 -6q-5 14 -5 31
q0 37 30.5 62.5t78.5 25.5q51 0 82 -24.5t31 -60.5q0 -54 -52 -79q30 -9 49.5 -32.5t19.5 -56.5q0 -51 -35.5 -81t-88.5 -30q-39 0 -67.5 14.5zM180 35l435 665l52 -35l-435 -665zM562.5 23q-35.5 30 -35.5 77q0 59 55 88q-43 29 -43 75q0 41 32 67.5t81 26.5t81 -26.5
t32 -67.5q0 -46 -43 -75q55 -29 55 -88q0 -47 -35.5 -77t-89.5 -30t-89.5 30zM692.5 223q15.5 14 15.5 37t-16 37t-40 14t-40 -14t-16 -37t15.5 -37t40.5 -14t40.5 14zM697 57.5q18 16.5 18 44.5q0 29 -18.5 45t-44.5 16t-44.5 -16t-18.5 -45q0 -28 18 -44.5t45 -16.5
t45 16.5z" />
    <glyph glyph-name="fiveeighths" unicode="&#x215d;" horiz-adv-x="822" 
d="M92 372q-34 29 -34 69q0 15 4 27l57 -10q-3 -7 -3 -16q0 -24 19 -36.5t50 -12.5q33 0 52 20t19 53t-19 53t-50 20q-26 0 -45.5 -12.5t-30.5 -30.5l-49 14l18 190h217v-50h-168l-13 -98q14 17 36.5 27t45.5 10q54 0 86 -33t32 -89q0 -54 -36 -89t-95 -35t-93 29zM180 35
l435 665l52 -35l-435 -665zM562.5 23q-35.5 30 -35.5 77q0 59 55 88q-43 29 -43 75q0 41 32 67.5t81 26.5t81 -26.5t32 -67.5q0 -46 -43 -75q55 -29 55 -88q0 -47 -35.5 -77t-89.5 -30t-89.5 30zM692.5 223q15.5 14 15.5 37t-16 37t-40 14t-40 -14t-16 -37t15.5 -37
t40.5 -14t40.5 14zM697 57.5q18 16.5 18 44.5q0 29 -18.5 45t-44.5 16t-44.5 -16t-18.5 -45q0 -28 18 -44.5t45 -16.5t45 16.5z" />
    <glyph glyph-name="seveneighths" unicode="&#x215e;" horiz-adv-x="731" 
d="M216 650h-164v50h226v-47l-141 -303h-61zM89 35l435 665l52 -35l-435 -665zM471.5 23q-35.5 30 -35.5 77q0 59 55 88q-43 29 -43 75q0 41 32 67.5t81 26.5t81 -26.5t32 -67.5q0 -46 -43 -75q55 -29 55 -88q0 -47 -35.5 -77t-89.5 -30t-89.5 30zM601.5 223
q15.5 14 15.5 37t-16 37t-40 14t-40 -14t-16 -37t15.5 -37t40.5 -14t40.5 14zM606 57.5q18 16.5 18 44.5q0 29 -18.5 45t-44.5 16t-44.5 -16t-18.5 -45q0 -28 18 -44.5t45 -16.5t45 16.5z" />
    <glyph glyph-name="arrowleft" unicode="&#x2190;" horiz-adv-x="559" 
d="M56 311l202 202l47 -46l-125 -125h329v-62h-329l125 -125l-47 -46z" />
    <glyph glyph-name="arrowup" unicode="&#x2191;" horiz-adv-x="496" 
d="M217 473l-125 -125l-46 47l202 202l202 -202l-46 -47l-125 125v-329h-62v329z" />
    <glyph glyph-name="arrowright" unicode="&#x2192;" horiz-adv-x="559" 
d="M254 155l125 125h-329v62h329l-125 125l47 46l202 -202l-202 -202z" />
    <glyph glyph-name="arrowdown" unicode="&#x2193;" horiz-adv-x="496" 
d="M46 346l46 47l125 -125v329h62v-329l125 125l46 -47l-202 -202z" />
    <glyph glyph-name="arrowboth" unicode="&#x2194;" horiz-adv-x="766" 
d="M56 311l202 202l47 -46l-125 -125h406l-125 125l47 46l202 -202l-202 -202l-47 46l125 125h-406l125 -125l-47 -46z" />
    <glyph glyph-name="arrowupdn" unicode="&#x2195;" horiz-adv-x="496" 
d="M46 225l46 47l125 -125v406l-125 -125l-46 47l202 202l202 -202l-46 -47l-125 125v-406l125 125l46 -47l-202 -202z" />
    <glyph glyph-name="uni2196" unicode="&#x2196;" horiz-adv-x="518" 
d="M159 361v-176h-66v286h286v-66h-176l233 -232l-44 -44z" />
    <glyph glyph-name="uni2197" unicode="&#x2197;" horiz-adv-x="518" 
d="M82 173l233 232h-176v66h286v-286h-66v176l-233 -232z" />
    <glyph glyph-name="uni2198" unicode="&#x2198;" horiz-adv-x="518" 
d="M139 195h176l-233 232l44 44l233 -232v176h66v-286h-286v66z" />
    <glyph glyph-name="uni2199" unicode="&#x2199;" horiz-adv-x="518" 
d="M93 415h66v-176l233 232l44 -44l-233 -232h176v-66h-286v286z" />
    <glyph glyph-name="partialdiff" unicode="&#x2202;" horiz-adv-x="585" 
d="M166 12q-52 26 -84.5 77.5t-32.5 124.5q0 67 30.5 124t86.5 90.5t130 33.5q55 0 95.5 -22.5t62.5 -60.5q-3 67 -25 127.5t-65.5 99t-107.5 38.5q-45 0 -73 -20t-28 -47q0 -13 6 -27l-66 -28q-13 24 -13 52q0 36 22.5 68.5t63.5 52t94 19.5q92 0 153.5 -56t91 -152.5
t29.5 -220.5q0 -83 -31 -151t-90.5 -108t-140.5 -40q-56 0 -108 26zM367.5 79q38.5 23 61.5 64.5t23 94.5q0 73 -45 113.5t-110 40.5q-49 0 -87.5 -25t-59.5 -66t-21 -89q0 -50 22.5 -85.5t57.5 -53t74 -17.5q46 0 84.5 23z" />
    <glyph glyph-name="uni2206" unicode="&#x2206;" horiz-adv-x="656" 
d="M284 700h88l278 -700h-644zM536 70l-187 479q-9 24 -14.5 39t-6.5 19q-1 -4 -6.5 -19t-14.5 -39l-188 -479h417z" />
    <glyph glyph-name="product" unicode="&#x220f;" horiz-adv-x="672" 
d="M88 700h496v-904h-84v830h-328v-830h-84v904z" />
    <glyph glyph-name="summation" unicode="&#x2211;" horiz-adv-x="569" 
d="M36 -46l221 336l-213 336v74h475v-74h-383l214 -336l-227 -336h408v-74h-495v74z" />
    <glyph glyph-name="minus" unicode="&#x2212;" horiz-adv-x="506" 
d="M48 396h410v-62h-410v62z" />
    <glyph glyph-name="uni2215" unicode="&#x2215;" horiz-adv-x="496" 
d="M406 730h84l-400 -760h-84z" />
    <glyph glyph-name="uni2219" unicode="&#x2219;" horiz-adv-x="286" 
d="M79 211q-27 27 -27 64q0 38 27 64.5t64 26.5q38 0 64.5 -26.5t26.5 -64.5q0 -37 -26.5 -64t-64.5 -27q-37 0 -64 27z" />
    <glyph glyph-name="radical" unicode="&#x221a;" horiz-adv-x="594" 
d="M130 294h-98v62h160l83 -246l219 590h78l-260 -700h-78z" />
    <glyph glyph-name="infinity" unicode="&#x221e;" horiz-adv-x="774" 
d="M96 186q-44 45 -44 114t44 114t114 45q56 0 97.5 -28t79.5 -77q39 49 79.5 77t97.5 28q70 0 114 -45t44 -114t-44 -114t-114 -45q-57 0 -98 27.5t-79 76.5q-38 -49 -79.5 -76.5t-97.5 -27.5q-70 0 -114 45zM284.5 232q28.5 23 61.5 68q-34 45 -62 68t-64 23
q-41 0 -66.5 -26.5t-25.5 -64.5t25.5 -64.5t66.5 -26.5q36 0 64.5 23zM620.5 235.5q25.5 26.5 25.5 64.5t-25.5 64.5t-66.5 26.5q-36 0 -64 -23t-62 -68q34 -45 62 -68t64 -23q41 0 66.5 26.5z" />
    <glyph glyph-name="integral" unicode="&#x222b;" horiz-adv-x="307" 
d="M-6 -211l12 66q15 -5 31 -5q32 0 48 18t16 59v668q0 71 40 113t113 42q28 0 48 -7l-12 -66q-15 5 -33 5q-37 0 -57.5 -21.5t-20.5 -66.5v-668q0 -70 -34 -107t-98 -37q-33 0 -53 7z" />
    <glyph glyph-name="approxequal" unicode="&#x2248;" horiz-adv-x="447" 
d="M51.5 223.5q-3.5 12.5 -3.5 22.5q0 42 28.5 66t68.5 24q34 0 55.5 -10.5t45.5 -30.5q16 -13 27.5 -19.5t25.5 -6.5q12 0 20.5 8t8.5 19q0 12 -7 26l66 12q5 -7 8.5 -19.5t3.5 -22.5q0 -42 -28.5 -66t-68.5 -24q-34 0 -55.5 10.5t-45.5 30.5q-16 13 -27.5 19.5t-25.5 6.5
q-12 0 -20.5 -8t-8.5 -19q0 -12 7 -26l-66 -12q-5 7 -8.5 19.5zM51.5 383.5q-3.5 12.5 -3.5 22.5q0 42 28.5 66t68.5 24q34 0 55.5 -10.5t45.5 -30.5q16 -13 27.5 -19.5t25.5 -6.5q12 0 20.5 8t8.5 19q0 12 -7 26l66 12q5 -7 8.5 -19.5t3.5 -22.5q0 -42 -28.5 -66t-68.5 -24
q-34 0 -55.5 10.5t-45.5 30.5q-16 13 -27.5 19.5t-25.5 6.5q-12 0 -20.5 -8t-8.5 -19q0 -12 7 -26l-66 -12q-5 7 -8.5 19.5z" />
    <glyph glyph-name="notequal" unicode="&#x2260;" horiz-adv-x="506" 
d="M81 115l63 109h-96v62h132l76 128h-208v62h244l81 140l52 -31l-63 -109h96v-62h-132l-76 -128h208v-62h-244l-81 -140z" />
    <glyph glyph-name="lessequal" unicode="&#x2264;" horiz-adv-x="506" 
d="M48 352v76l410 201v-80l-334 -159l334 -159v-80zM48 62h410v-62h-410v62z" />
    <glyph glyph-name="greaterequal" unicode="&#x2265;" horiz-adv-x="506" 
d="M48 231l334 159l-334 159v80l410 -201v-76l-410 -201v80zM48 62h410v-62h-410v62z" />
    <glyph glyph-name="lozenge" unicode="&#x25ca;" horiz-adv-x="580" 
d="M28 350l218 350h88l218 -350l-218 -350h-88zM466 350l-176 284l-176 -284l176 -285z" />
    <glyph glyph-name="uniF8FF" unicode="&#xf8ff;" horiz-adv-x="780" 
d="M100.5 6.5q-6.5 6.5 -6.5 15.5v595q0 7 4.5 13.5t11.5 8.5l270 78l10 2l10 -2l270 -78q7 -2 11.5 -8.5t4.5 -13.5v-595q0 -9 -6.5 -15.5t-15.5 -6.5l-7 1l-267 77l-267 -77l-7 -1q-9 0 -15.5 6.5zM368 669l-230 -67q4 -62 35 -114t82.5 -84.5t112.5 -37.5v303z
M524.5 403.5q51.5 32.5 82.5 84.5t35 114l-230 67v-303q61 5 112.5 37.5zM368 118v204q-73 6 -134 43.5t-97 97.5v-412zM643 463q-37 -60 -97.5 -97.5t-133.5 -43.5v-204l231 -67v412z" />
    <glyph glyph-name="NULL" 
 />
    <glyph glyph-name="i.loclTRK" horiz-adv-x="230" 
d="M154 496v-496h-78v496h78zM68 680h94v-98h-94v98z" />
    <glyph glyph-name="f_f_j" horiz-adv-x="796" 
d="M537 -203l10 70q19 -8 39 -8q31 0 43.5 16t12.5 54v505h-199v-434h-78v434h-186v-434h-78v434h-78v62h78v99q0 71 40 113t113 42q26 0 43 -5v-71q-6 4 -18 6t-22 2q-37 0 -57.5 -21.5t-20.5 -66.5v-98h186v99q0 71 40 113t113 42q26 0 43 -5v-71q-6 4 -18 6t-22 2
q-37 0 -57.5 -21.5t-20.5 -66.5v-98h277v-554q0 -72 -31 -112.5t-104 -40.5q-19 0 -48 8zM634 680h94v-98h-94v98z" />
    <glyph glyph-name="f_i" horiz-adv-x="532" 
d="M101 434h-78v62h78v99q0 71 40 113t113 42q26 0 43 -5v-71q-6 4 -18 6t-22 2q-37 0 -57.5 -21.5t-20.5 -66.5v-98h277v-496h-78v434h-199v-434h-78v434zM370 680h94v-98h-94v98z" />
    <glyph glyph-name="f_j" horiz-adv-x="532" 
d="M273 -203l10 70q19 -8 39 -8q31 0 43.5 16.5t12.5 54.5v504h-199v-434h-78v434h-78v62h78v99q0 71 40 113t113 42q26 0 43 -5v-71q-6 4 -18 6t-22 2q-37 0 -57.5 -21.5t-20.5 -66.5v-98h277v-554q0 -72 -31 -112.5t-104 -40.5q-19 0 -48 8zM370 680h94v-98h-94v98z" />
    <glyph glyph-name="f_l" horiz-adv-x="546" 
d="M101 434h-78v62h78v99q0 71 40 113t113 42q26 0 43 -5v-71q-6 4 -18 6t-22 2q-37 0 -57.5 -21.5t-20.5 -66.5v-98h114v-62h-114v-434h-78v434zM470 700v-700h-78v700h78z" />
    <glyph glyph-name="alpha.ss02" horiz-adv-x="638" 
d="M155.5 19.5q-53.5 33.5 -83.5 93t-30 135.5q0 75 31.5 134.5t84.5 93.5t115 34q63 0 106.5 -27t66.5 -77v90h78v-377q0 -61 44 -61q15 0 26 5l13 -68q-26 -9 -50 -9q-51 0 -78 28t-33 75q-59 -103 -168 -103q-69 0 -122.5 33.5zM371.5 81.5q37.5 23.5 59 67t21.5 99.5
t-21.5 99.5t-59 67t-84.5 23.5t-84.5 -23.5t-59 -67t-21.5 -99.5t21.5 -99.5t59 -67t84.5 -23.5t84.5 23.5z" />
    <glyph glyph-name="delta.ss02" horiz-adv-x="586" 
d="M173 14q-56 28 -90 82.5t-34 129.5q0 79 46 137.5t118 77.5q-57 16 -91 52t-34 82q0 40 24.5 71.5t69.5 49.5t104 18q98 0 149.5 -34.5t51.5 -90.5q0 -29 -17 -56l-67 25q4 8 6 15.5t2 16.5q0 23 -34 40.5t-91 17.5q-58 0 -90 -21t-32 -52q0 -23 18 -41.5t58.5 -35.5
t113.5 -38q183 -52 183 -234q0 -73 -34.5 -127.5t-90.5 -83.5t-119 -29q-64 0 -120 28zM377 77.5q37 21.5 58.5 59.5t21.5 87q0 48 -22 86.5t-59.5 60t-82.5 21.5t-82.5 -21.5t-59.5 -60t-22 -86.5q0 -49 21.5 -87t58.5 -59.5t84 -21.5t84 21.5z" />
    <glyph glyph-name="alphatonos.ss02" horiz-adv-x="638" 
d="M155.5 19.5q-53.5 33.5 -83.5 93t-30 135.5q0 75 31.5 134.5t84.5 93.5t115 34q63 0 106.5 -27t66.5 -77v90h78v-377q0 -61 44 -61q15 0 26 5l13 -68q-26 -9 -50 -9q-51 0 -78 28t-33 75q-59 -103 -168 -103q-69 0 -122.5 33.5zM371.5 81.5q37.5 23.5 59 67t21.5 99.5
t-21.5 99.5t-59 67t-84.5 23.5t-84.5 -23.5t-59 -67t-21.5 -99.5t21.5 -99.5t59 -67t84.5 -23.5t84.5 23.5zM328 700h107l-80 -138h-71z" />
    <glyph glyph-name="zero.osf" horiz-adv-x="656" 
d="M190.5 21q-63.5 35 -102 102t-38.5 159t38.5 159t102 102t137.5 35t137.5 -35t102 -102t38.5 -159t-38.5 -159t-102 -102t-137.5 -35t-137.5 35zM428 81.5q45 25.5 71.5 76.5t26.5 124t-26.5 124t-71.5 76.5t-100 25.5t-100 -25.5t-71.5 -76.5t-26.5 -124t26.5 -124
t71.5 -76.5t100 -25.5t100 25.5z" />
    <glyph glyph-name="one.osf" horiz-adv-x="339" 
d="M171 454q-28 -27 -57.5 -36.5t-75.5 -9.5v68q57 0 88.5 21t52.5 67h72v-564h-80v454z" />
    <glyph glyph-name="two.osf" horiz-adv-x="515" 
d="M69 51l222 197q50 45 67 79t17 78q0 45 -30 74t-84 29q-55 0 -86.5 -30t-31.5 -78q0 -22 11 -53l-72 -12q-15 32 -15 69q0 50 27 89.5t71.5 62t95.5 22.5q92 0 142 -46.5t50 -120.5q0 -59 -25.5 -108.5t-87.5 -103.5l-149 -129h268v-70h-390v51z" />
    <glyph glyph-name="three.osf" horiz-adv-x="574" 
d="M160 -63q-50 27 -76.5 72t-26.5 96q0 36 11 59l71 -19q-4 -14 -4 -34q0 -58 38 -94.5t105 -36.5t106 32.5t39 93.5q0 67 -47.5 95.5t-134.5 28.5v66q76 0 118 32t42 82q0 48 -35 73t-92 25q-58 0 -93 -32t-35 -83q0 -19 5 -32l-71 -11q-8 24 -8 51q0 48 25.5 88.5
t72 64.5t104.5 24q95 0 149 -42.5t54 -115.5q0 -51 -28.5 -90t-80.5 -61q58 -14 96.5 -54.5t38.5 -105.5q0 -62 -29 -107t-80 -68.5t-115 -23.5q-69 0 -119 27z" />
    <glyph glyph-name="four.osf" horiz-adv-x="586" 
d="M380 68h-325v70l325 426h80v-426h83v-70h-83v-144h-80v144zM380 138v316l-241 -316h241z" />
    <glyph glyph-name="five.osf" horiz-adv-x="596" 
d="M177 -67.5q-51 22.5 -80.5 63.5t-29.5 93q0 23 6 45l70 -17q-2 -10 -2 -24q0 -53 43.5 -83t105.5 -30q75 0 118 43.5t43 123.5t-43 122t-117 42q-52 0 -92.5 -27t-63.5 -73l-70 19l36 334h386v-68h-319l-27 -196q29 36 72.5 56.5t93.5 20.5q105 0 164.5 -61t59.5 -169
q0 -69 -31 -123t-85.5 -84t-124.5 -30q-62 0 -113 22.5z" />
    <glyph glyph-name="six.osf" horiz-adv-x="581" 
d="M115 61.5q-65 75.5 -65 224.5q0 92 26.5 176t84 138t146.5 54q52 0 96 -18t70.5 -51.5t26.5 -79.5q0 -28 -8 -53l-75 16q5 16 5 34q0 39 -32 60.5t-84 21.5q-76 0 -121.5 -68.5t-54.5 -187.5q29 44 73.5 67t96.5 23q61 0 111 -25.5t79 -73.5t29 -114q0 -64 -30 -114
t-82.5 -77.5t-117.5 -27.5q-109 0 -174 75.5zM363 74q34 18 55 51t21 77t-21 77t-55 51t-74 18t-74 -18t-55 -51t-21 -77t21 -77t55 -51t74 -18t74 18z" />
    <glyph glyph-name="seven.osf" horiz-adv-x="523" 
d="M375 494h-331v70h412v-64l-217 -576h-79z" />
    <glyph glyph-name="eight.osf" horiz-adv-x="576" 
d="M172 9.5q-51 23.5 -79.5 67.5t-28.5 102t31 100.5t79 64.5q-88 50 -88 144q0 49 27 87t73.5 58.5t101.5 20.5t101.5 -20.5t73.5 -58.5t27 -87q0 -94 -88 -144q48 -22 79 -64.5t31 -100.5t-28.5 -102t-79.5 -67.5t-116 -23.5t-116 23.5zM379 402q37 28 37 80t-37 80
t-91 28t-91 -28t-37 -80t37 -80t91 -28t91 28zM392 89.5q40 33.5 40 93.5t-40 93.5t-104 33.5t-104 -33.5t-40 -93.5t40 -93.5t104 -33.5t104 33.5z" />
    <glyph glyph-name="nine.osf" horiz-adv-x="581" 
d="M180.5 -71q-44.5 19 -71 54.5t-26.5 81.5q0 28 8 47l75 -16q-5 -16 -5 -34q0 -39 32 -60.5t84 -21.5q79 0 123.5 68.5t52.5 187.5q-26 -43 -70.5 -66.5t-99.5 -23.5q-57 0 -107 26.5t-81 75t-31 111.5q0 64 30 114t82.5 77.5t117.5 27.5q112 0 175.5 -75t63.5 -225
q0 -92 -26.5 -176t-84 -138t-146.5 -54q-51 0 -95.5 19zM368 234q34 18 55 51t21 77t-21 77t-55 51t-74 18t-74 -18t-55 -51t-21 -77t21 -77t55 -51t74 -18t74 18z" />
    <glyph glyph-name="zero.osf.zero" horiz-adv-x="656" 
d="M190.5 21q-63.5 35 -102 102t-38.5 159t38.5 159t102 102t137.5 35t137.5 -35t102 -102t38.5 -159t-38.5 -159t-102 -102t-137.5 -35t-137.5 35zM427 483q-47 25 -99 25q-55 0 -100 -25.5t-71.5 -76.5t-26.5 -124q0 -93 44 -153zM428 81.5q45 25.5 71.5 76.5t26.5 124
q0 93 -45 152l-252 -353q43 -25 99 -25q55 0 100 25.5z" />
    <glyph glyph-name="zero.tf" horiz-adv-x="610" 
d="M158.5 31q-63.5 45 -98.5 127.5t-35 191.5t35 191.5t98.5 127.5t146.5 45t146.5 -45t98.5 -127.5t35 -191.5t-35 -191.5t-98.5 -127.5t-146.5 -45t-146.5 45zM406.5 95.5q44.5 35.5 69.5 101.5t25 153t-25 153t-69.5 101.5t-101.5 35.5t-101.5 -35.5t-69.5 -101.5
t-25 -153t25 -153t69.5 -101.5t101.5 -35.5t101.5 35.5z" />
    <glyph glyph-name="one.tf" horiz-adv-x="610" 
d="M95 74h183v513q-33 -32 -78 -49.5t-95 -17.5v72q60 0 105.5 29t75.5 79h76v-626h173v-74h-440v74z" />
    <glyph glyph-name="two.tf" horiz-adv-x="610" 
d="M81 55l270 271q55 55 76 95t21 88q0 60 -40.5 97.5t-103.5 37.5q-60 0 -100 -39t-40 -101q0 -26 9 -49h-78q-9 28 -9 58q0 51 28 97.5t78.5 75t114.5 28.5q66 0 117 -25t78.5 -69.5t27.5 -99.5q0 -63 -27.5 -119.5t-96.5 -125.5l-200 -201h327v-74h-452v55z" />
    <glyph glyph-name="three.tf" horiz-adv-x="610" 
d="M180 15q-54 29 -83.5 74.5t-29.5 95.5q0 27 8 49h83q-7 -18 -7 -43q0 -57 44 -94t110 -37q71 0 111.5 37.5t40.5 106.5q0 70 -53.5 104t-141.5 34v68q86 0 124.5 35.5t38.5 89.5q0 49 -36.5 79t-93.5 30q-54 0 -92 -32t-38 -83q0 -23 6 -35h-75q-6 19 -6 45q0 48 27 88
t74 63.5t105 23.5q63 0 111 -22t74 -60.5t26 -86.5q0 -53 -30 -98t-87 -63q68 -17 109.5 -62t41.5 -113t-31.5 -118.5t-85 -77.5t-119.5 -27q-71 0 -125 29z" />
    <glyph glyph-name="four.tf" horiz-adv-x="610" 
d="M393 140h-339v74l339 486h84v-486h79v-74h-79v-140h-84v140zM393 214v362l-253 -362h253z" />
    <glyph glyph-name="five.tf" horiz-adv-x="610" 
d="M183 11q-53 25 -82 68t-29 94q0 21 6 42h83q-7 -19 -7 -38q0 -57 42 -87t109 -30q74 0 120.5 46.5t46.5 127.5t-45.5 127.5t-116.5 46.5q-54 0 -98 -30.5t-68 -74.5l-68 19l33 378h402v-74h-335l-20 -236q29 42 74.5 65t95.5 23q71 0 123 -31t79.5 -86t27.5 -127
q0 -71 -31.5 -127.5t-88.5 -88.5t-131 -32q-69 0 -122 25z" />
    <glyph glyph-name="six.tf" horiz-adv-x="610" 
d="M174 24q-58 38 -89.5 111t-31.5 174q0 126 41 230q33 84 91.5 129.5t133.5 45.5q96 0 152.5 -45.5t56.5 -121.5q0 -21 -7 -44h-79q6 28 6 45q0 40 -36 66t-93 26q-52 0 -92 -37t-63 -103t-26 -152q29 52 81 81t109 29q64 0 116 -30t82 -83t30 -120q0 -65 -32 -120
t-88.5 -87t-125.5 -32q-78 0 -136 38zM390 79.5q37 19.5 59.5 56.5t22.5 86t-22.5 86t-59.5 56.5t-80 19.5t-80.5 -19.5t-60 -56.5t-22.5 -86t22.5 -86t60 -56.5t80.5 -19.5t80 19.5z" />
    <glyph glyph-name="seven.tf" horiz-adv-x="610" 
d="M446 626h-367v74h452v-68l-283 -632h-82z" />
    <glyph glyph-name="eight.tf" horiz-adv-x="610" 
d="M185.5 12q-53.5 26 -84 73.5t-30.5 108.5t31.5 107.5t84.5 73.5q-44 24 -69 66t-25 92q0 52 28 93.5t76.5 64.5t107.5 23t107.5 -23t76.5 -64.5t28 -93.5q0 -50 -25 -92t-69 -66q53 -27 84.5 -73.5t31.5 -107.5t-30.5 -108.5t-84 -73.5t-119.5 -26t-119.5 26zM401 437.5
q38 33.5 38 88.5q0 59 -39 91.5t-95 32.5t-95 -32.5t-39 -91.5q0 -55 38 -88.5t96 -33.5t96 33.5zM415 93.5q42 39.5 42 103.5q0 42 -20.5 74.5t-55.5 50.5t-76 18t-76 -18t-55.5 -50.5t-20.5 -74.5q0 -64 42 -103.5t110 -39.5t110 39.5z" />
    <glyph glyph-name="nine.tf" horiz-adv-x="610" 
d="M142.5 31.5q-56.5 45.5 -56.5 121.5q0 21 7 44h79q-6 -28 -6 -45q0 -40 36 -66t93 -26q52 0 92 37t63 103t26 152q-29 -52 -81 -81t-109 -29q-64 0 -116 30t-82 83t-30 120q0 65 32 120t88.5 87t125.5 32q78 0 136 -38t89.5 -111t31.5 -174q0 -126 -41 -230
q-33 -84 -91.5 -129.5t-133.5 -45.5q-96 0 -152.5 45.5zM384.5 335.5q37.5 19.5 60 56.5t22.5 86t-22.5 86t-60 56.5t-80.5 19.5t-80 -19.5t-59.5 -56.5t-22.5 -86t22.5 -86t59.5 -56.5t80 -19.5t80.5 19.5z" />
    <glyph glyph-name="zero.tf.zero" horiz-adv-x="610" 
d="M158.5 31q-63.5 45 -98.5 127.5t-35 191.5t35 191.5t98.5 127.5t146.5 45t146.5 -45t98.5 -127.5t35 -191.5t-35 -191.5t-98.5 -127.5t-146.5 -45t-146.5 45zM410 602q-46 38 -105 38q-57 0 -101.5 -35.5t-69.5 -101.5t-25 -153q0 -114 42 -189zM406.5 95.5
q44.5 35.5 69.5 101.5t25 153q0 114 -42 189l-259 -441q46 -38 105 -38q57 0 101.5 35.5z" />
    <glyph glyph-name="zero.tosf" horiz-adv-x="610" 
d="M167.5 21q-63.5 35 -102 102t-38.5 159t38.5 159t102 102t137.5 35t137.5 -35t102 -102t38.5 -159t-38.5 -159t-102 -102t-137.5 -35t-137.5 35zM405 81.5q45 25.5 71.5 76.5t26.5 124t-26.5 124t-71.5 76.5t-100 25.5t-100 -25.5t-71.5 -76.5t-26.5 -124t26.5 -124
t71.5 -76.5t100 -25.5t100 25.5z" />
    <glyph glyph-name="one.tosf" horiz-adv-x="610" 
d="M120 70h170v384q-27 -26 -65.5 -36t-87.5 -10v68q120 0 161 88h72v-494h150v-70h-400v70z" />
    <glyph glyph-name="two.tosf" horiz-adv-x="610" 
d="M123 51l222 197q50 45 67 79t17 78q0 45 -30 74t-84 29q-55 0 -86.5 -30t-31.5 -78q0 -22 11 -53l-72 -12q-15 32 -15 69q0 50 27 89.5t71.5 62t95.5 22.5q92 0 142 -46.5t50 -120.5q0 -59 -25.5 -108.5t-87.5 -103.5l-149 -129h268v-70h-390v51z" />
    <glyph glyph-name="three.tosf" horiz-adv-x="610" 
d="M186 -63q-50 27 -76.5 72t-26.5 96q0 36 11 59l71 -19q-4 -14 -4 -34q0 -58 38 -94.5t105 -36.5t106 32.5t39 93.5q0 67 -47.5 95.5t-134.5 28.5v66q76 0 118 32t42 82q0 48 -35 73t-92 25q-58 0 -93 -32t-35 -83q0 -19 5 -32l-71 -11q-8 24 -8 51q0 48 25.5 88.5
t72 64.5t104.5 24q95 0 149 -42.5t54 -115.5q0 -51 -28.5 -90t-80.5 -61q58 -14 96.5 -54.5t38.5 -105.5q0 -62 -29 -107t-80 -68.5t-115 -23.5q-69 0 -119 27z" />
    <glyph glyph-name="four.tosf" horiz-adv-x="610" 
d="M392 68h-325v70l325 426h80v-426h83v-70h-83v-144h-80v144zM392 138v316l-241 -316h241z" />
    <glyph glyph-name="five.tosf" horiz-adv-x="610" 
d="M195 -67.5q-51 22.5 -80.5 63.5t-29.5 93q0 23 6 45l70 -17q-2 -10 -2 -24q0 -53 43.5 -83t105.5 -30q75 0 118 43.5t43 123.5t-43 122t-117 42q-52 0 -92.5 -27t-63.5 -73l-70 19l36 334h386v-68h-319l-27 -196q29 36 72.5 56.5t93.5 20.5q105 0 164.5 -61t59.5 -169
q0 -69 -31 -123t-85.5 -84t-124.5 -30q-62 0 -113 22.5z" />
    <glyph glyph-name="six.tosf" horiz-adv-x="610" 
d="M144 61.5q-65 75.5 -65 224.5q0 92 26.5 176t84 138t146.5 54q52 0 96 -18t70.5 -51.5t26.5 -79.5q0 -28 -8 -53l-75 16q5 16 5 34q0 39 -32 60.5t-84 21.5q-76 0 -121.5 -68.5t-54.5 -187.5q29 44 73.5 67t96.5 23q61 0 111 -25.5t79 -73.5t29 -114q0 -64 -30 -114
t-82.5 -77.5t-117.5 -27.5q-109 0 -174 75.5zM392 74q34 18 55 51t21 77t-21 77t-55 51t-74 18t-74 -18t-55 -51t-21 -77t21 -77t55 -51t74 -18t74 18z" />
    <glyph glyph-name="seven.tosf" horiz-adv-x="610" 
d="M421 494h-331v70h412v-64l-217 -576h-79z" />
    <glyph glyph-name="eight.tosf" horiz-adv-x="610" 
d="M189 9.5q-51 23.5 -79.5 67.5t-28.5 102t31 100.5t79 64.5q-88 50 -88 144q0 49 27 87t73.5 58.5t101.5 20.5t101.5 -20.5t73.5 -58.5t27 -87q0 -94 -88 -144q48 -22 79 -64.5t31 -100.5t-28.5 -102t-79.5 -67.5t-116 -23.5t-116 23.5zM396 402q37 28 37 80t-37 80
t-91 28t-91 -28t-37 -80t37 -80t91 -28t91 28zM409 89.5q40 33.5 40 93.5t-40 93.5t-104 33.5t-104 -33.5t-40 -93.5t40 -93.5t104 -33.5t104 33.5z" />
    <glyph glyph-name="nine.tosf" horiz-adv-x="610" 
d="M189.5 -71q-44.5 19 -71 54.5t-26.5 81.5q0 28 8 47l75 -16q-5 -16 -5 -34q0 -39 32 -60.5t84 -21.5q79 0 123.5 68.5t52.5 187.5q-26 -43 -70.5 -66.5t-99.5 -23.5q-57 0 -107 26.5t-81 75t-31 111.5q0 64 30 114t82.5 77.5t117.5 27.5q112 0 175.5 -75t63.5 -225
q0 -92 -26.5 -176t-84 -138t-146.5 -54q-51 0 -95.5 19zM377 234q34 18 55 51t21 77t-21 77t-55 51t-74 18t-74 -18t-55 -51t-21 -77t21 -77t55 -51t74 -18t74 18z" />
    <glyph glyph-name="zero.tosf.zero" horiz-adv-x="610" 
d="M167.5 21q-63.5 35 -102 102t-38.5 159t38.5 159t102 102t137.5 35t137.5 -35t102 -102t38.5 -159t-38.5 -159t-102 -102t-137.5 -35t-137.5 35zM404 483q-47 25 -99 25q-55 0 -100 -25.5t-71.5 -76.5t-26.5 -124q0 -93 44 -153zM405 81.5q45 25.5 71.5 76.5t26.5 124
q0 93 -45 152l-252 -353q43 -25 99 -25q55 0 100 25.5z" />
    <glyph glyph-name="zero.zero" horiz-adv-x="716" 
d="M201 31.5q-69 45.5 -108 128.5t-39 190t39 190t108 128.5t157 45.5t157 -45.5t108 -128.5t39 -190t-39 -190t-108 -128.5t-157 -45.5t-157 45.5zM467 608q-47 32 -109 32q-65 0 -114.5 -35t-77.5 -100.5t-28 -154.5q0 -128 56 -206zM472.5 95q49.5 35 77.5 100.5
t28 154.5q0 128 -56 206l-273 -464q47 -32 109 -32q65 0 114.5 35z" />
    <glyph glyph-name="uni2080.zero" horiz-adv-x="384" 
d="M113.5 -188q-34.5 23 -54 64t-19.5 95t19.5 95t54 64t78.5 23t78.5 -23t54 -64t19.5 -95t-19.5 -95t-54 -64t-78.5 -23t-78.5 23zM223 91q-15 5 -31 5q-42 0 -67 -33t-25 -92q0 -26 5.5 -49t15.5 -37zM259 -121q25 33 25 92q0 26 -5.5 49t-15.5 37l-102 -206q15 -5 31 -5
q42 0 67 33z" />
    <glyph glyph-name="uni2070.zero" horiz-adv-x="384" 
d="M113.5 366q-34.5 23 -54 64t-19.5 95t19.5 95t54 64t78.5 23t78.5 -23t54 -64t19.5 -95t-19.5 -95t-54 -64t-78.5 -23t-78.5 23zM223 645q-15 5 -31 5q-42 0 -67 -33t-25 -92q0 -26 5.5 -49t15.5 -37zM259 433q25 33 25 92q0 26 -5.5 49t-15.5 37l-102 -206q15 -5 31 -5
q42 0 67 33z" />
    <glyph glyph-name="bullet.case" horiz-adv-x="286" 
d="M79 286q-27 27 -27 64q0 38 27 64.5t64 26.5q38 0 64.5 -26.5t26.5 -64.5q0 -37 -26.5 -64t-64.5 -27q-37 0 -64 27z" />
    <glyph glyph-name="exclamdown.case" horiz-adv-x="268" 
d="M88 701h92v-100h-92v100zM92 224l11 289h62l11 -289v-223h-84v223z" />
    <glyph glyph-name="questiondown.case" horiz-adv-x="536" 
d="M323 600h-92v100h92v-100zM321 483q0 -37 -20.5 -71.5t-71.5 -76.5q-56 -47 -74.5 -79.5t-18.5 -81.5q0 -51 37.5 -84.5t98.5 -33.5q57 0 95.5 33.5t38.5 97.5q0 20 -5 42l73 13q12 -28 12 -69q0 -48 -27.5 -91t-76.5 -69.5t-110 -26.5q-66 0 -115.5 24t-76 66t-26.5 94
q0 63 27 108.5t98 105.5q31 27 43.5 53.5t12.5 67.5h86v-22z" />
    <glyph glyph-name="braceleft.case" horiz-adv-x="368" 
d="M169 -33q-36 42 -36 138v117q0 52 -18.5 72.5t-56.5 20.5v70q38 0 56.5 20.5t18.5 72.5v117q0 96 36 138t114 42h31v-70h-32q-71 0 -71 -87v-145q0 -55 -15.5 -80.5t-53.5 -42.5q38 -17 53.5 -42.5t15.5 -80.5v-145q0 -87 71 -87h32v-70h-31q-78 0 -114 42z" />
    <glyph glyph-name="braceright.case" horiz-adv-x="368" 
d="M54 -5h32q71 0 71 87v145q0 55 15.5 80.5t53.5 42.5q-38 17 -53.5 42.5t-15.5 80.5v145q0 87 -71 87h-32v70h31q78 0 114 -42t36 -138v-117q0 -52 18.5 -72.5t56.5 -20.5v-70q-38 0 -56.5 -20.5t-18.5 -72.5v-117q0 -96 -36 -138t-114 -42h-31v70z" />
    <glyph glyph-name="bracketleft.case" horiz-adv-x="323" 
d="M88 775h181v-70h-103v-710h103v-70h-181v850z" />
    <glyph glyph-name="bracketright.case" horiz-adv-x="323" 
d="M54 -5h103v710h-103v70h181v-850h-181v70z" />
    <glyph glyph-name="parenleft.case" horiz-adv-x="350" 
d="M105.5 115.5q-29.5 109.5 -29.5 234.5t29.5 234.5t76.5 189.5h76q-45 -85 -71.5 -196.5t-26.5 -227.5t26.5 -227.5t71.5 -196.5h-76q-47 80 -76.5 189.5z" />
    <glyph glyph-name="parenright.case" horiz-adv-x="350" 
d="M163.5 122.5q26.5 111.5 26.5 227.5t-26.5 227.5t-71.5 196.5h76q47 -80 76.5 -189.5t29.5 -234.5t-29.5 -234.5t-76.5 -189.5h-76q45 85 71.5 196.5z" />
    <glyph glyph-name="emdash.case" horiz-adv-x="797" 
d="M48 381h701v-62h-701v62z" />
    <glyph glyph-name="endash.case" horiz-adv-x="517" 
d="M48 381h421v-62h-421v62z" />
    <glyph glyph-name="hyphen.case" horiz-adv-x="456" 
d="M48 381h360v-62h-360v62z" />
    <glyph glyph-name="uni00AD.case" horiz-adv-x="456" 
d="M48 381h360v-62h-360v62z" />
    <glyph glyph-name="guillemotleft.case" horiz-adv-x="505" 
d="M48 350l156 199h93l-152 -199l152 -199h-93zM220 350l156 199h93l-152 -199l152 -199h-93z" />
    <glyph glyph-name="guillemotright.case" horiz-adv-x="505" 
d="M188 350l-152 199h93l156 -199l-156 -199h-93zM360 350l-152 199h93l156 -199l-156 -199h-93z" />
    <glyph glyph-name="guilsinglleft.case" horiz-adv-x="333" 
d="M48 350l156 199h93l-152 -199l152 -199h-93z" />
    <glyph glyph-name="guilsinglright.case" horiz-adv-x="333" 
d="M188 350l-152 199h93l156 -199l-156 -199h-93z" />
    <glyph glyph-name="at.case" horiz-adv-x="949" 
d="M260 -38q-90 45 -148 140t-58 236q0 122 56.5 224t157.5 161.5t227 59.5q108 0 197.5 -40.5t143 -124.5t53.5 -208q0 -90 -33 -161.5t-89 -112t-120 -40.5q-40 0 -62 20t-22 58q0 14 3 30q-20 -47 -65.5 -77.5t-95.5 -30.5q-48 0 -87 25t-61 72t-22 110q0 97 36.5 166.5
t94 104.5t118.5 35q42 0 75.5 -20t48.5 -62l10 66h72l-55 -378l-1 -16q0 -18 9 -27.5t27 -9.5q33 0 67 28t57 83t23 132q0 92 -39 162.5t-113.5 110t-179.5 39.5q-95 0 -177.5 -49t-132 -135.5t-49.5 -194.5q0 -115 45.5 -195t121.5 -120t166 -40q57 0 100.5 14t80.5 40
l36 -58q-48 -33 -100 -47.5t-128 -14.5q-98 0 -188 45zM502.5 198q41.5 36 66 95t24.5 124q0 63 -28 94.5t-76 31.5q-45 0 -86 -28t-66.5 -82t-25.5 -126q0 -74 30.5 -109.5t72.5 -35.5q47 0 88.5 36z" />
    <glyph glyph-name="caroncomb.alt" 
d="M-87 518l36 94h-35v88h86v-88l-65 -107z" />
    <glyph glyph-name="uni0308.cap" 
d="M-250 884h92v-92h-92v92zM-92 884h92v-92h-92v92z" />
    <glyph glyph-name="uni0307.cap" 
d="M-94 884h94v-98h-94v98z" />
    <glyph glyph-name="gravecomb.cap" 
d="M-171 904h107l64 -138h-71z" />
    <glyph glyph-name="acutecomb.cap" 
d="M-107 904h107l-100 -138h-71z" />
    <glyph glyph-name="uni030B.cap" 
d="M-263 904h107l-100 -138h-71zM-107 904h107l-100 -138h-71z" />
    <glyph glyph-name="uni0302.cap" 
d="M-168 904h68l100 -138h-68l-66 68l-66 -68h-68z" />
    <glyph glyph-name="uni030C.cap" 
d="M-268 904h68l66 -68l66 68h68l-100 -138h-68z" />
    <glyph glyph-name="uni0306.cap" 
d="M-177 801q-29 29 -29 75h64q0 -20 10 -32t29 -12t29 12t10 32h64q0 -46 -29 -75t-74 -29t-74 29z" />
    <glyph glyph-name="uni030A.cap" 
d="M-165 771.5q-27 27.5 -27 67.5t28 67.5t68 27.5t68 -27.5t28 -67.5t-27 -67.5t-69 -27.5t-69 27.5zM-63 805.5q13 13.5 13 33.5t-13 33.5t-33 13.5t-33 -13.5t-13 -33.5t13 -33.5t33 -13.5t33 13.5z" />
    <glyph glyph-name="tildecomb.cap" 
d="M-143.5 775q-19.5 10 -42.5 30q-15 14 -26 20.5t-26 6.5q-12 0 -20.5 -8t-8.5 -19q0 -12 7 -26l-60 -12q-12 18 -12 46q0 37 27 58.5t63 21.5q34 0 53.5 -10t42.5 -30q15 -14 26 -20.5t26 -6.5q12 0 20.5 8t8.5 19q0 12 -7 26l60 12q12 -18 12 -46q0 -38 -27 -59t-63 -21
q-34 0 -53.5 10z" />
    <glyph glyph-name="uni0304.cap" 
d="M-220 874h220v-70h-220v70z" />
    <glyph glyph-name="uni0327.cap" 
d="M-146.5 -188q-22.5 16 -29.5 45l48 12q4 -11 14 -19t23 -8q16 0 25.5 10t9.5 27q0 16 -10 25.5t-27 9.5q-24 0 -47 -18l-31 28l34 92h54l-37 -71q19 11 44 11q32 0 54 -21.5t22 -55.5q0 -39 -26 -61t-65 -22q-33 0 -55.5 16z" />
    <glyph glyph-name="uni0328.cap" 
d="M-117.5 -173.5q-30.5 24.5 -30.5 68.5q0 69 77 114l65 -9q-71 -38 -71 -83q0 -21 13 -33t36 -12q5 0 19 2l9 -66q-21 -6 -45 -6q-42 0 -72.5 24.5z" />
    <glyph glyph-name="uni0335.cap" 
 />
    <glyph glyph-name="uni0337.cap" 
d="M-331 242l331 210v-84l-331 -210v84z" />
    <glyph glyph-name="uni0338.cap" 
d="M-446 0l384 734l62 -34l-384 -734z" />
    <glyph glyph-name="tonos.comb" horiz-adv-x="283" 
d="M110 700h107l-80 -138h-71z" />
    <glyph glyph-name="dieresistonos.comb" horiz-adv-x="412" 
d="M179 700h100l-78 -138h-64zM20 680h92v-92h-92v92zM300 680h92v-92h-92v92z" />
    <glyph glyph-name="brevecombcy" 
d="M-177 597q-29 29 -29 75h64q0 -20 10 -32t29 -12t29 12t10 32h64q0 -46 -29 -75t-74 -29t-74 29z" />
    <glyph glyph-name="brevecombcy.cap" 
d="M-177 801q-29 29 -29 75h64q0 -20 10 -32t29 -12t29 12t10 32h64q0 -46 -29 -75t-74 -29t-74 29z" />
    </font>
</defs>
</svg>
